G04 #@! TF.GenerationSoftware,KiCad,Pcbnew,7.0.9*
G04 #@! TF.CreationDate,2024-02-19T16:20:50+08:00*
G04 #@! TF.ProjectId,Teeny_girl,5465656e-795f-4676-9972-6c2e6b696361,rev?*
G04 #@! TF.SameCoordinates,Original*
G04 #@! TF.FileFunction,Profile,NP*
%FSLAX46Y46*%
G04 Gerber Fmt 4.6, Leading zero omitted, Abs format (unit mm)*
G04 Created by KiCad (PCBNEW 7.0.9) date 2024-02-19 16:20:50*
%MOMM*%
%LPD*%
G01*
G04 APERTURE LIST*
G04 #@! TA.AperFunction,Profile*
%ADD10C,0.150000*%
G04 #@! TD*
G04 APERTURE END LIST*
D10*
X116545000Y-103641900D02*
X117045000Y-103641900D01*
X117045000Y-103641900D02*
G75*
G03*
X120045000Y-100641900I0J3000000D01*
G01*
X132545000Y-98641900D02*
G75*
G03*
X130545000Y-96641900I-2000000J0D01*
G01*
X74045000Y-47141900D02*
X74045000Y-96141900D01*
X211545000Y-47141900D02*
G75*
G03*
X204045000Y-39641900I-7500000J0D01*
G01*
X120045000Y-100641900D02*
X120045000Y-98641900D01*
X81545000Y-39641900D02*
X204045000Y-39641900D01*
X132545000Y-98641900D02*
X132545000Y-100641900D01*
X122045000Y-96641900D02*
X130545000Y-96641900D01*
X81545000Y-39641900D02*
G75*
G03*
X74045000Y-47141900I0J-7500000D01*
G01*
X132545000Y-100641900D02*
G75*
G03*
X135545000Y-103641900I3000000J0D01*
G01*
X204045000Y-103641900D02*
X136545000Y-103641900D01*
X81545000Y-103641900D02*
X116545000Y-103641900D01*
X122045000Y-96641900D02*
G75*
G03*
X120045000Y-98641900I0J-2000000D01*
G01*
X211545000Y-47141900D02*
X211545000Y-96141900D01*
X136545000Y-103641900D02*
X135545000Y-103641900D01*
X74045000Y-96141900D02*
G75*
G03*
X81545000Y-103641900I7500000J0D01*
G01*
X204045000Y-103641900D02*
G75*
G03*
X211545000Y-96141900I0J7500000D01*
G01*
X149345000Y-57341900D02*
X119345000Y-57341900D01*
X119345000Y-54841900D01*
X149345000Y-54841900D01*
X149345000Y-57341900D01*
M02*
