G04 #@! TF.GenerationSoftware,KiCad,Pcbnew,7.0.9*
G04 #@! TF.CreationDate,2024-02-19T16:20:49+08:00*
G04 #@! TF.ProjectId,Teeny_girl,5465656e-795f-4676-9972-6c2e6b696361,rev?*
G04 #@! TF.SameCoordinates,Original*
G04 #@! TF.FileFunction,Copper,L1,Top*
G04 #@! TF.FilePolarity,Positive*
%FSLAX46Y46*%
G04 Gerber Fmt 4.6, Leading zero omitted, Abs format (unit mm)*
G04 Created by KiCad (PCBNEW 7.0.9) date 2024-02-19 16:20:49*
%MOMM*%
%LPD*%
G01*
G04 APERTURE LIST*
G04 Aperture macros list*
%AMRoundRect*
0 Rectangle with rounded corners*
0 $1 Rounding radius*
0 $2 $3 $4 $5 $6 $7 $8 $9 X,Y pos of 4 corners*
0 Add a 4 corners polygon primitive as box body*
4,1,4,$2,$3,$4,$5,$6,$7,$8,$9,$2,$3,0*
0 Add four circle primitives for the rounded corners*
1,1,$1+$1,$2,$3*
1,1,$1+$1,$4,$5*
1,1,$1+$1,$6,$7*
1,1,$1+$1,$8,$9*
0 Add four rect primitives between the rounded corners*
20,1,$1+$1,$2,$3,$4,$5,0*
20,1,$1+$1,$4,$5,$6,$7,0*
20,1,$1+$1,$6,$7,$8,$9,0*
20,1,$1+$1,$8,$9,$2,$3,0*%
G04 Aperture macros list end*
G04 #@! TA.AperFunction,SMDPad,CuDef*
%ADD10R,1.700000X1.000000*%
G04 #@! TD*
G04 #@! TA.AperFunction,SMDPad,CuDef*
%ADD11RoundRect,0.200000X0.200000X0.275000X-0.200000X0.275000X-0.200000X-0.275000X0.200000X-0.275000X0*%
G04 #@! TD*
G04 #@! TA.AperFunction,SMDPad,CuDef*
%ADD12RoundRect,0.218750X0.218750X0.256250X-0.218750X0.256250X-0.218750X-0.256250X0.218750X-0.256250X0*%
G04 #@! TD*
G04 #@! TA.AperFunction,SMDPad,CuDef*
%ADD13RoundRect,0.200000X-0.200000X-0.275000X0.200000X-0.275000X0.200000X0.275000X-0.200000X0.275000X0*%
G04 #@! TD*
G04 #@! TA.AperFunction,SMDPad,CuDef*
%ADD14R,1.500000X0.400000*%
G04 #@! TD*
G04 #@! TA.AperFunction,SMDPad,CuDef*
%ADD15R,3.000000X3.000000*%
G04 #@! TD*
G04 #@! TA.AperFunction,ComponentPad*
%ADD16C,2.100000*%
G04 #@! TD*
G04 #@! TA.AperFunction,ComponentPad*
%ADD17C,1.750000*%
G04 #@! TD*
G04 #@! TA.AperFunction,ComponentPad*
%ADD18C,2.500000*%
G04 #@! TD*
G04 #@! TA.AperFunction,ComponentPad*
%ADD19C,0.500000*%
G04 #@! TD*
G04 #@! TA.AperFunction,SMDPad,CuDef*
%ADD20R,1.600000X0.500000*%
G04 #@! TD*
G04 #@! TA.AperFunction,ComponentPad*
%ADD21O,1.000000X1.800000*%
G04 #@! TD*
G04 #@! TA.AperFunction,ComponentPad*
%ADD22O,1.000000X2.100000*%
G04 #@! TD*
G04 #@! TA.AperFunction,ComponentPad*
%ADD23R,1.000000X1.000000*%
G04 #@! TD*
G04 #@! TA.AperFunction,ComponentPad*
%ADD24O,1.000000X1.000000*%
G04 #@! TD*
G04 #@! TA.AperFunction,ComponentPad*
%ADD25RoundRect,0.200000X0.200000X0.450000X-0.200000X0.450000X-0.200000X-0.450000X0.200000X-0.450000X0*%
G04 #@! TD*
G04 #@! TA.AperFunction,ComponentPad*
%ADD26O,0.800000X1.300000*%
G04 #@! TD*
G04 #@! TA.AperFunction,Profile*
%ADD27C,0.150000*%
G04 #@! TD*
G04 APERTURE END LIST*
D10*
X86045000Y-77741900D03*
X92345000Y-77741900D03*
X86045000Y-81541900D03*
X92345000Y-81541900D03*
D11*
X78182500Y-88266900D03*
X76532500Y-88266900D03*
D10*
X193245000Y-77741900D03*
X199545000Y-77741900D03*
X193245000Y-81541900D03*
X199545000Y-81541900D03*
D12*
X81645000Y-86266900D03*
X80070000Y-86266900D03*
D13*
X76532500Y-86266900D03*
X78182500Y-86266900D03*
D10*
X201245000Y-69741900D03*
X207545000Y-69741900D03*
X201245000Y-73541900D03*
X207545000Y-73541900D03*
D12*
X81645000Y-88266900D03*
X80070000Y-88266900D03*
D10*
X94195000Y-55171900D03*
X87895000Y-55171900D03*
X94195000Y-51371900D03*
X87895000Y-51371900D03*
X94045000Y-69741900D03*
X100345000Y-69741900D03*
X94045000Y-73541900D03*
X100345000Y-73541900D03*
D14*
X87715000Y-70891900D03*
X87715000Y-71541900D03*
X87715000Y-72191900D03*
X90375000Y-72191900D03*
X90375000Y-71541900D03*
X90375000Y-70891900D03*
D15*
X101245000Y-87251900D03*
X101245000Y-97031900D03*
D10*
X86045000Y-61741900D03*
X92345000Y-61741900D03*
X86045000Y-65541900D03*
X92345000Y-65541900D03*
D15*
X184345000Y-97031900D03*
X184345000Y-87251900D03*
D14*
X195015000Y-71191900D03*
X195015000Y-71841900D03*
X195015000Y-72491900D03*
X197675000Y-72491900D03*
X197675000Y-71841900D03*
X197675000Y-71191900D03*
D10*
X193245000Y-61741900D03*
X199545000Y-61741900D03*
X193245000Y-65541900D03*
X199545000Y-65541900D03*
X185245000Y-69741900D03*
X191545000Y-69741900D03*
X185245000Y-73541900D03*
X191545000Y-73541900D03*
X78045000Y-69741900D03*
X84345000Y-69741900D03*
X78045000Y-73541900D03*
X84345000Y-73541900D03*
X196695000Y-55166900D03*
X190395000Y-55166900D03*
X196695000Y-51366900D03*
X190395000Y-51366900D03*
D16*
X197045000Y-47141900D03*
X190035000Y-47141900D03*
D17*
X195795000Y-44651900D03*
X191295000Y-44651900D03*
D18*
X138855000Y-77716900D03*
X196855000Y-77716900D03*
D16*
X203842500Y-65891900D03*
X203842500Y-58881900D03*
D17*
X206332500Y-64641900D03*
X206332500Y-60141900D03*
D19*
X111495000Y-94466900D03*
D20*
X110945000Y-94466900D03*
D19*
X110395000Y-94466900D03*
D21*
X101145000Y-41036900D03*
D22*
X101145000Y-45236900D03*
D21*
X109785000Y-41036900D03*
D22*
X109785000Y-45236900D03*
D23*
X207585000Y-54141900D03*
D24*
X206315000Y-54141900D03*
X205045000Y-54141900D03*
X203775000Y-54141900D03*
D16*
X95555000Y-47141900D03*
X88545000Y-47141900D03*
D17*
X94305000Y-44651900D03*
X89805000Y-44651900D03*
D25*
X106695000Y-51441900D03*
D26*
X105445000Y-51441900D03*
X104195000Y-51441900D03*
G04 #@! TA.AperFunction,Conductor*
G36*
X100907545Y-39712085D02*
G01*
X100953300Y-39764889D01*
X100963244Y-39834047D01*
X100934219Y-39897603D01*
X100889620Y-39930259D01*
X100767445Y-39982959D01*
X100626814Y-40087656D01*
X100514118Y-40221961D01*
X100514117Y-40221963D01*
X100435433Y-40378635D01*
X100395000Y-40549239D01*
X100395000Y-40911900D01*
X100845000Y-40911900D01*
X100845000Y-41161900D01*
X100395000Y-41161900D01*
X100395000Y-41480577D01*
X100410248Y-41611039D01*
X100470212Y-41775789D01*
X100566556Y-41922273D01*
X100694078Y-42042585D01*
X100845916Y-42130248D01*
X101013880Y-42180534D01*
X101020000Y-42180890D01*
X101020000Y-41713241D01*
X101116840Y-41740795D01*
X101228521Y-41730446D01*
X101270000Y-41709791D01*
X101270000Y-42176428D01*
X101361563Y-42160284D01*
X101522554Y-42090840D01*
X101663185Y-41986143D01*
X101775881Y-41851838D01*
X101775882Y-41851836D01*
X101854566Y-41695164D01*
X101895000Y-41524560D01*
X101895000Y-41161900D01*
X101445000Y-41161900D01*
X101445000Y-40911900D01*
X101895000Y-40911900D01*
X101895000Y-40593223D01*
X101894999Y-40593222D01*
X101879751Y-40462760D01*
X101819787Y-40298010D01*
X101723443Y-40151526D01*
X101595921Y-40031214D01*
X101444081Y-39943550D01*
X101444080Y-39943549D01*
X101416158Y-39935190D01*
X101357581Y-39897105D01*
X101328893Y-39833397D01*
X101339203Y-39764292D01*
X101385237Y-39711731D01*
X101451723Y-39692400D01*
X109480506Y-39692400D01*
X109547545Y-39712085D01*
X109593300Y-39764889D01*
X109603244Y-39834047D01*
X109574219Y-39897603D01*
X109529620Y-39930259D01*
X109407445Y-39982959D01*
X109266814Y-40087656D01*
X109154118Y-40221961D01*
X109154117Y-40221963D01*
X109075433Y-40378635D01*
X109035000Y-40549239D01*
X109035000Y-40911900D01*
X109485000Y-40911900D01*
X109485000Y-41161900D01*
X109035000Y-41161900D01*
X109035000Y-41480577D01*
X109050248Y-41611039D01*
X109110212Y-41775789D01*
X109206556Y-41922273D01*
X109334078Y-42042585D01*
X109485916Y-42130248D01*
X109653880Y-42180534D01*
X109660000Y-42180890D01*
X109660000Y-41713241D01*
X109756840Y-41740795D01*
X109868521Y-41730446D01*
X109910000Y-41709791D01*
X109910000Y-42176428D01*
X110001563Y-42160284D01*
X110162554Y-42090840D01*
X110303185Y-41986143D01*
X110415881Y-41851838D01*
X110415882Y-41851836D01*
X110494566Y-41695164D01*
X110535000Y-41524560D01*
X110535000Y-41161900D01*
X110085000Y-41161900D01*
X110085000Y-40911900D01*
X110535000Y-40911900D01*
X110535000Y-40593223D01*
X110534999Y-40593222D01*
X110519751Y-40462760D01*
X110459787Y-40298010D01*
X110363443Y-40151526D01*
X110235921Y-40031214D01*
X110084081Y-39943550D01*
X110084080Y-39943549D01*
X110056158Y-39935190D01*
X109997581Y-39897105D01*
X109968893Y-39833397D01*
X109979203Y-39764292D01*
X110025237Y-39711731D01*
X110091723Y-39692400D01*
X204028592Y-39692400D01*
X204044999Y-39692400D01*
X204071454Y-39693344D01*
X204574238Y-39711301D01*
X204578636Y-39711616D01*
X205102987Y-39767989D01*
X205107337Y-39768615D01*
X205626351Y-39862255D01*
X205630623Y-39863184D01*
X206141643Y-39993614D01*
X206145863Y-39994854D01*
X206646234Y-40161394D01*
X206650373Y-40162938D01*
X207137584Y-40364747D01*
X207141611Y-40366586D01*
X207613181Y-40602637D01*
X207617067Y-40604759D01*
X208070605Y-40873856D01*
X208074314Y-40876238D01*
X208428442Y-41122114D01*
X208507503Y-41177007D01*
X208511025Y-41179642D01*
X208921673Y-41510565D01*
X208924999Y-41513447D01*
X209310970Y-41872798D01*
X209314101Y-41875929D01*
X209673452Y-42261900D01*
X209676336Y-42265228D01*
X210007253Y-42675870D01*
X210009892Y-42679396D01*
X210310656Y-43112578D01*
X210313043Y-43116294D01*
X210582140Y-43569832D01*
X210584262Y-43573718D01*
X210820313Y-44045288D01*
X210822152Y-44049315D01*
X211023961Y-44536526D01*
X211025508Y-44540674D01*
X211192042Y-45041028D01*
X211193289Y-45045275D01*
X211323710Y-45556255D01*
X211324648Y-45560568D01*
X211418281Y-46079543D01*
X211418911Y-46083925D01*
X211475283Y-46608263D01*
X211475599Y-46612679D01*
X211494500Y-47141900D01*
X211494500Y-96141900D01*
X211475599Y-96671120D01*
X211475283Y-96675536D01*
X211418911Y-97199874D01*
X211418281Y-97204256D01*
X211324648Y-97723231D01*
X211323707Y-97727557D01*
X211193290Y-98238523D01*
X211192042Y-98242771D01*
X211025508Y-98743125D01*
X211023961Y-98747273D01*
X210822152Y-99234484D01*
X210820313Y-99238511D01*
X210584262Y-99710081D01*
X210582140Y-99713967D01*
X210313043Y-100167505D01*
X210310650Y-100171230D01*
X210009892Y-100604403D01*
X210007243Y-100607942D01*
X209713755Y-100972139D01*
X209676352Y-101018553D01*
X209673452Y-101021899D01*
X209314101Y-101407870D01*
X209310970Y-101411001D01*
X208924999Y-101770352D01*
X208921657Y-101773248D01*
X208733733Y-101924688D01*
X208511048Y-102104139D01*
X208507503Y-102106792D01*
X208074330Y-102407550D01*
X208070605Y-102409943D01*
X207617067Y-102679040D01*
X207613181Y-102681162D01*
X207141611Y-102917213D01*
X207137584Y-102919052D01*
X206650373Y-103120861D01*
X206646225Y-103122408D01*
X206145871Y-103288942D01*
X206141623Y-103290190D01*
X206100673Y-103300642D01*
X205630649Y-103420608D01*
X205626331Y-103421548D01*
X205107356Y-103515181D01*
X205102974Y-103515811D01*
X204578636Y-103572183D01*
X204574220Y-103572499D01*
X204045000Y-103591400D01*
X135546742Y-103591400D01*
X135543265Y-103591302D01*
X135218238Y-103573049D01*
X135211324Y-103572270D01*
X134892112Y-103518033D01*
X134885328Y-103516485D01*
X134574187Y-103426847D01*
X134567620Y-103424549D01*
X134370300Y-103342817D01*
X134268476Y-103300640D01*
X134262211Y-103297623D01*
X134247772Y-103289643D01*
X134031411Y-103170064D01*
X133978815Y-103140995D01*
X133972932Y-103137298D01*
X133708853Y-102949924D01*
X133703426Y-102945596D01*
X133542618Y-102801889D01*
X133461987Y-102729832D01*
X133457067Y-102724912D01*
X133365064Y-102621961D01*
X133241301Y-102483471D01*
X133236977Y-102478048D01*
X133049597Y-102213962D01*
X133045904Y-102208084D01*
X132989922Y-102106792D01*
X132889272Y-101924679D01*
X132886262Y-101918431D01*
X132762349Y-101619276D01*
X132760052Y-101612712D01*
X132670414Y-101301571D01*
X132668866Y-101294787D01*
X132639127Y-101119758D01*
X132614627Y-100975561D01*
X132613851Y-100968671D01*
X132604276Y-100798176D01*
X132595598Y-100643635D01*
X132595500Y-100640158D01*
X132595500Y-98507502D01*
X132584950Y-98427368D01*
X132560416Y-98241009D01*
X132490847Y-97981374D01*
X132452132Y-97887908D01*
X132387988Y-97733049D01*
X132387980Y-97733033D01*
X132339964Y-97649868D01*
X132253587Y-97500259D01*
X132089956Y-97287010D01*
X132089951Y-97287004D01*
X131959847Y-97156900D01*
X182595000Y-97156900D01*
X182595000Y-98556528D01*
X182609503Y-98629440D01*
X182609505Y-98629444D01*
X182664760Y-98712139D01*
X182747455Y-98767394D01*
X182747459Y-98767396D01*
X182820371Y-98781899D01*
X182820374Y-98781900D01*
X184220000Y-98781900D01*
X184220000Y-97156900D01*
X184470000Y-97156900D01*
X184470000Y-98781900D01*
X185869626Y-98781900D01*
X185869628Y-98781899D01*
X185942540Y-98767396D01*
X185942544Y-98767394D01*
X186025239Y-98712139D01*
X186080494Y-98629444D01*
X186080496Y-98629440D01*
X186094999Y-98556528D01*
X186095000Y-98556526D01*
X186095000Y-97156900D01*
X184470000Y-97156900D01*
X184220000Y-97156900D01*
X182595000Y-97156900D01*
X131959847Y-97156900D01*
X131899895Y-97096948D01*
X131899888Y-97096942D01*
X131686645Y-96933316D01*
X131686644Y-96933315D01*
X131686641Y-96933313D01*
X131640892Y-96906900D01*
X182595000Y-96906900D01*
X184220000Y-96906900D01*
X184220000Y-95281900D01*
X184470000Y-95281900D01*
X184470000Y-96906900D01*
X186095000Y-96906900D01*
X186095000Y-95507273D01*
X186094999Y-95507271D01*
X186080496Y-95434359D01*
X186080494Y-95434355D01*
X186025239Y-95351660D01*
X185942544Y-95296405D01*
X185942540Y-95296403D01*
X185869627Y-95281900D01*
X184470000Y-95281900D01*
X184220000Y-95281900D01*
X182820373Y-95281900D01*
X182747459Y-95296403D01*
X182747455Y-95296405D01*
X182664760Y-95351660D01*
X182609505Y-95434355D01*
X182609503Y-95434359D01*
X182595000Y-95507271D01*
X182595000Y-96906900D01*
X131640892Y-96906900D01*
X131593832Y-96879730D01*
X131453866Y-96798919D01*
X131453850Y-96798911D01*
X131205524Y-96696052D01*
X131075708Y-96661268D01*
X130945891Y-96626484D01*
X130945885Y-96626483D01*
X130945880Y-96626482D01*
X130679398Y-96591400D01*
X130679397Y-96591400D01*
X130555045Y-96591400D01*
X122061408Y-96591400D01*
X122045000Y-96591400D01*
X121910603Y-96591400D01*
X121910602Y-96591400D01*
X121644119Y-96626482D01*
X121644112Y-96626483D01*
X121644109Y-96626484D01*
X121589239Y-96641186D01*
X121384475Y-96696052D01*
X121136149Y-96798911D01*
X121136133Y-96798919D01*
X120903354Y-96933316D01*
X120690111Y-97096942D01*
X120690104Y-97096948D01*
X120500048Y-97287004D01*
X120500042Y-97287011D01*
X120336416Y-97500254D01*
X120202019Y-97733033D01*
X120202011Y-97733049D01*
X120099152Y-97981375D01*
X120029585Y-98241006D01*
X120029582Y-98241019D01*
X119994500Y-98507502D01*
X119994500Y-100640158D01*
X119994402Y-100643635D01*
X119976149Y-100968661D01*
X119975370Y-100975575D01*
X119921133Y-101294787D01*
X119919585Y-101301571D01*
X119829947Y-101612712D01*
X119827649Y-101619279D01*
X119703742Y-101918419D01*
X119700723Y-101924688D01*
X119544095Y-102208084D01*
X119540393Y-102213976D01*
X119353029Y-102478040D01*
X119348691Y-102483480D01*
X119132932Y-102724912D01*
X119128012Y-102729832D01*
X118886580Y-102945591D01*
X118881140Y-102949929D01*
X118617076Y-103137293D01*
X118611184Y-103140995D01*
X118327788Y-103297623D01*
X118321519Y-103300642D01*
X118022379Y-103424549D01*
X118015812Y-103426847D01*
X117704671Y-103516485D01*
X117697887Y-103518033D01*
X117378675Y-103572270D01*
X117371761Y-103573049D01*
X117046735Y-103591302D01*
X117043258Y-103591400D01*
X81545000Y-103591400D01*
X81015779Y-103572499D01*
X81011363Y-103572183D01*
X80487025Y-103515811D01*
X80482643Y-103515181D01*
X79963668Y-103421548D01*
X79959355Y-103420610D01*
X79448375Y-103290189D01*
X79444128Y-103288942D01*
X78943774Y-103122408D01*
X78939626Y-103120861D01*
X78452415Y-102919052D01*
X78448388Y-102917213D01*
X77976818Y-102681162D01*
X77972932Y-102679040D01*
X77519394Y-102409943D01*
X77515678Y-102407556D01*
X77082496Y-102106792D01*
X77078970Y-102104153D01*
X76668328Y-101773236D01*
X76665000Y-101770352D01*
X76279029Y-101411001D01*
X76275898Y-101407870D01*
X75916547Y-101021899D01*
X75913665Y-101018573D01*
X75582742Y-100607925D01*
X75580107Y-100604403D01*
X75358620Y-100285401D01*
X75279338Y-100171214D01*
X75276956Y-100167505D01*
X75007859Y-99713967D01*
X75005737Y-99710081D01*
X74769686Y-99238511D01*
X74767847Y-99234484D01*
X74566038Y-98747273D01*
X74564491Y-98743125D01*
X74560921Y-98732400D01*
X74500762Y-98551652D01*
X99544500Y-98551652D01*
X99556131Y-98610129D01*
X99556132Y-98610130D01*
X99600447Y-98676452D01*
X99666769Y-98720767D01*
X99666770Y-98720768D01*
X99725247Y-98732399D01*
X99725250Y-98732400D01*
X99725252Y-98732400D01*
X102764750Y-98732400D01*
X102764751Y-98732399D01*
X102779568Y-98729452D01*
X102823229Y-98720768D01*
X102823229Y-98720767D01*
X102823231Y-98720767D01*
X102889552Y-98676452D01*
X102933867Y-98610131D01*
X102933867Y-98610129D01*
X102933868Y-98610129D01*
X102945499Y-98551652D01*
X102945500Y-98551650D01*
X102945500Y-95512149D01*
X102945499Y-95512147D01*
X102933868Y-95453670D01*
X102933867Y-95453669D01*
X102889552Y-95387347D01*
X102823230Y-95343032D01*
X102823229Y-95343031D01*
X102764752Y-95331400D01*
X102764748Y-95331400D01*
X99725252Y-95331400D01*
X99725247Y-95331400D01*
X99666770Y-95343031D01*
X99666769Y-95343032D01*
X99600447Y-95387347D01*
X99556132Y-95453669D01*
X99556131Y-95453670D01*
X99544500Y-95512147D01*
X99544500Y-98551652D01*
X74500762Y-98551652D01*
X74397954Y-98242763D01*
X74396714Y-98238543D01*
X74266284Y-97727523D01*
X74265355Y-97723251D01*
X74171715Y-97204237D01*
X74171088Y-97199874D01*
X74160022Y-97096948D01*
X74114716Y-96675536D01*
X74114401Y-96671138D01*
X74095500Y-96141900D01*
X74095500Y-96125492D01*
X74095500Y-94591900D01*
X109895000Y-94591900D01*
X109895000Y-94741528D01*
X109909503Y-94814440D01*
X109909505Y-94814444D01*
X109964760Y-94897139D01*
X110047455Y-94952394D01*
X110047459Y-94952396D01*
X110120371Y-94966899D01*
X110120374Y-94966900D01*
X110820000Y-94966900D01*
X110820000Y-94591900D01*
X111070000Y-94591900D01*
X111070000Y-94966900D01*
X111769626Y-94966900D01*
X111769628Y-94966899D01*
X111842540Y-94952396D01*
X111842544Y-94952394D01*
X111925239Y-94897139D01*
X111980494Y-94814444D01*
X111980496Y-94814440D01*
X111994999Y-94741528D01*
X111995000Y-94741526D01*
X111995000Y-94591900D01*
X111070000Y-94591900D01*
X110820000Y-94591900D01*
X109895000Y-94591900D01*
X74095500Y-94591900D01*
X74095500Y-94499392D01*
X110295000Y-94499392D01*
X110333197Y-94551965D01*
X110379162Y-94566900D01*
X110410838Y-94566900D01*
X110456803Y-94551965D01*
X110495000Y-94499392D01*
X111395000Y-94499392D01*
X111433197Y-94551965D01*
X111479162Y-94566900D01*
X111510838Y-94566900D01*
X111556803Y-94551965D01*
X111595000Y-94499392D01*
X111595000Y-94434408D01*
X111556803Y-94381835D01*
X111510838Y-94366900D01*
X111479162Y-94366900D01*
X111433197Y-94381835D01*
X111395000Y-94434408D01*
X111395000Y-94499392D01*
X110495000Y-94499392D01*
X110495000Y-94434408D01*
X110456803Y-94381835D01*
X110410838Y-94366900D01*
X110379162Y-94366900D01*
X110333197Y-94381835D01*
X110295000Y-94434408D01*
X110295000Y-94499392D01*
X74095500Y-94499392D01*
X74095500Y-94341900D01*
X109895000Y-94341900D01*
X110820000Y-94341900D01*
X110820000Y-93966900D01*
X111070000Y-93966900D01*
X111070000Y-94341900D01*
X111995000Y-94341900D01*
X111995000Y-94192273D01*
X111994999Y-94192271D01*
X111980496Y-94119359D01*
X111980494Y-94119355D01*
X111925239Y-94036660D01*
X111842544Y-93981405D01*
X111842540Y-93981403D01*
X111769627Y-93966900D01*
X111070000Y-93966900D01*
X110820000Y-93966900D01*
X110120373Y-93966900D01*
X110047459Y-93981403D01*
X110047455Y-93981405D01*
X109964760Y-94036660D01*
X109909505Y-94119355D01*
X109909503Y-94119359D01*
X109895000Y-94192271D01*
X109895000Y-94341900D01*
X74095500Y-94341900D01*
X74095500Y-88573417D01*
X75932000Y-88573417D01*
X75942792Y-88641557D01*
X75946854Y-88667204D01*
X76004450Y-88780242D01*
X76004452Y-88780244D01*
X76004454Y-88780247D01*
X76094152Y-88869945D01*
X76094154Y-88869946D01*
X76094158Y-88869950D01*
X76205832Y-88926851D01*
X76207198Y-88927547D01*
X76300975Y-88942399D01*
X76300981Y-88942400D01*
X76764018Y-88942399D01*
X76857804Y-88927546D01*
X76970842Y-88869950D01*
X77060550Y-88780242D01*
X77118146Y-88667204D01*
X77118146Y-88667202D01*
X77118147Y-88667201D01*
X77132999Y-88573424D01*
X77133000Y-88573419D01*
X77133000Y-88573417D01*
X77582000Y-88573417D01*
X77592792Y-88641557D01*
X77596854Y-88667204D01*
X77654450Y-88780242D01*
X77654452Y-88780244D01*
X77654454Y-88780247D01*
X77744152Y-88869945D01*
X77744154Y-88869946D01*
X77744158Y-88869950D01*
X77855832Y-88926851D01*
X77857198Y-88927547D01*
X77950975Y-88942399D01*
X77950981Y-88942400D01*
X78414018Y-88942399D01*
X78507804Y-88927546D01*
X78620842Y-88869950D01*
X78710550Y-88780242D01*
X78768146Y-88667204D01*
X78768146Y-88667202D01*
X78768147Y-88667201D01*
X78782999Y-88573424D01*
X78783000Y-88573419D01*
X78783000Y-88556151D01*
X79432000Y-88556151D01*
X79447547Y-88654317D01*
X79466864Y-88692229D01*
X79507842Y-88772651D01*
X79507844Y-88772653D01*
X79507846Y-88772656D01*
X79601743Y-88866553D01*
X79601745Y-88866554D01*
X79601749Y-88866558D01*
X79720080Y-88926851D01*
X79720081Y-88926851D01*
X79720083Y-88926852D01*
X79720082Y-88926852D01*
X79818249Y-88942400D01*
X79818254Y-88942400D01*
X80321751Y-88942400D01*
X80419917Y-88926852D01*
X80419918Y-88926851D01*
X80419920Y-88926851D01*
X80538251Y-88866558D01*
X80632158Y-88772651D01*
X80692451Y-88654320D01*
X80692451Y-88654318D01*
X80692452Y-88654317D01*
X80708000Y-88556151D01*
X81007000Y-88556151D01*
X81022547Y-88654317D01*
X81041864Y-88692229D01*
X81082842Y-88772651D01*
X81082844Y-88772653D01*
X81082846Y-88772656D01*
X81176743Y-88866553D01*
X81176745Y-88866554D01*
X81176749Y-88866558D01*
X81295080Y-88926851D01*
X81295081Y-88926851D01*
X81295083Y-88926852D01*
X81295082Y-88926852D01*
X81393249Y-88942400D01*
X81393254Y-88942400D01*
X81896751Y-88942400D01*
X81994917Y-88926852D01*
X81994918Y-88926851D01*
X81994920Y-88926851D01*
X82113251Y-88866558D01*
X82207158Y-88772651D01*
X82267451Y-88654320D01*
X82267451Y-88654318D01*
X82267452Y-88654317D01*
X82283000Y-88556151D01*
X82283000Y-87977648D01*
X82267452Y-87879482D01*
X82260886Y-87866596D01*
X82207158Y-87761149D01*
X82207154Y-87761145D01*
X82207153Y-87761143D01*
X82113256Y-87667246D01*
X82113253Y-87667244D01*
X82113251Y-87667242D01*
X81994920Y-87606949D01*
X81994919Y-87606948D01*
X81994916Y-87606947D01*
X81994917Y-87606947D01*
X81896751Y-87591400D01*
X81896746Y-87591400D01*
X81393254Y-87591400D01*
X81393249Y-87591400D01*
X81295082Y-87606947D01*
X81216192Y-87647144D01*
X81176749Y-87667242D01*
X81176748Y-87667243D01*
X81176743Y-87667246D01*
X81082846Y-87761143D01*
X81082843Y-87761148D01*
X81022547Y-87879482D01*
X81007000Y-87977648D01*
X81007000Y-88556151D01*
X80708000Y-88556151D01*
X80708000Y-87977648D01*
X80692452Y-87879482D01*
X80685886Y-87866596D01*
X80632158Y-87761149D01*
X80632154Y-87761145D01*
X80632153Y-87761143D01*
X80538256Y-87667246D01*
X80538253Y-87667244D01*
X80538251Y-87667242D01*
X80419920Y-87606949D01*
X80419919Y-87606948D01*
X80419916Y-87606947D01*
X80419917Y-87606947D01*
X80321751Y-87591400D01*
X80321746Y-87591400D01*
X79818254Y-87591400D01*
X79818249Y-87591400D01*
X79720082Y-87606947D01*
X79641192Y-87647144D01*
X79601749Y-87667242D01*
X79601748Y-87667243D01*
X79601743Y-87667246D01*
X79507846Y-87761143D01*
X79507843Y-87761148D01*
X79447547Y-87879482D01*
X79432000Y-87977648D01*
X79432000Y-88556151D01*
X78783000Y-88556151D01*
X78782999Y-87960382D01*
X78768146Y-87866596D01*
X78710550Y-87753558D01*
X78710546Y-87753554D01*
X78710545Y-87753552D01*
X78620847Y-87663854D01*
X78620844Y-87663852D01*
X78620842Y-87663850D01*
X78544017Y-87624705D01*
X78507801Y-87606252D01*
X78414024Y-87591400D01*
X77950982Y-87591400D01*
X77870019Y-87604223D01*
X77857196Y-87606254D01*
X77744158Y-87663850D01*
X77744157Y-87663851D01*
X77744152Y-87663854D01*
X77654454Y-87753552D01*
X77654451Y-87753557D01*
X77654450Y-87753558D01*
X77635251Y-87791237D01*
X77596852Y-87866598D01*
X77582000Y-87960375D01*
X77582000Y-88573417D01*
X77133000Y-88573417D01*
X77132999Y-87960382D01*
X77118146Y-87866596D01*
X77060550Y-87753558D01*
X77060546Y-87753554D01*
X77060545Y-87753552D01*
X76970847Y-87663854D01*
X76970844Y-87663852D01*
X76970842Y-87663850D01*
X76894017Y-87624705D01*
X76857801Y-87606252D01*
X76764024Y-87591400D01*
X76300982Y-87591400D01*
X76220019Y-87604223D01*
X76207196Y-87606254D01*
X76094158Y-87663850D01*
X76094157Y-87663851D01*
X76094152Y-87663854D01*
X76004454Y-87753552D01*
X76004451Y-87753557D01*
X76004450Y-87753558D01*
X75985251Y-87791237D01*
X75946852Y-87866598D01*
X75932000Y-87960375D01*
X75932000Y-88573417D01*
X74095500Y-88573417D01*
X74095500Y-87376900D01*
X99495000Y-87376900D01*
X99495000Y-88776528D01*
X99509503Y-88849440D01*
X99509505Y-88849444D01*
X99564760Y-88932139D01*
X99647455Y-88987394D01*
X99647459Y-88987396D01*
X99720371Y-89001899D01*
X99720374Y-89001900D01*
X101120000Y-89001900D01*
X101120000Y-87376900D01*
X101370000Y-87376900D01*
X101370000Y-89001900D01*
X102769626Y-89001900D01*
X102769628Y-89001899D01*
X102842540Y-88987396D01*
X102842544Y-88987394D01*
X102925239Y-88932139D01*
X102980494Y-88849444D01*
X102980496Y-88849440D01*
X102994999Y-88776528D01*
X102995000Y-88776526D01*
X102995000Y-88771652D01*
X182644500Y-88771652D01*
X182656131Y-88830129D01*
X182656132Y-88830130D01*
X182700447Y-88896452D01*
X182766769Y-88940767D01*
X182766770Y-88940768D01*
X182825247Y-88952399D01*
X182825250Y-88952400D01*
X182825252Y-88952400D01*
X185864750Y-88952400D01*
X185864751Y-88952399D01*
X185879568Y-88949452D01*
X185923229Y-88940768D01*
X185923229Y-88940767D01*
X185923231Y-88940767D01*
X185989552Y-88896452D01*
X186033867Y-88830131D01*
X186033867Y-88830129D01*
X186033868Y-88830129D01*
X186042552Y-88786468D01*
X186045500Y-88771648D01*
X186045500Y-85732152D01*
X186045500Y-85732149D01*
X186045499Y-85732147D01*
X186033868Y-85673670D01*
X186033867Y-85673669D01*
X185989552Y-85607347D01*
X185923230Y-85563032D01*
X185923229Y-85563031D01*
X185864752Y-85551400D01*
X185864748Y-85551400D01*
X182825252Y-85551400D01*
X182825247Y-85551400D01*
X182766770Y-85563031D01*
X182766769Y-85563032D01*
X182700447Y-85607347D01*
X182656132Y-85673669D01*
X182656131Y-85673670D01*
X182644500Y-85732147D01*
X182644500Y-88771652D01*
X102995000Y-88771652D01*
X102995000Y-87376900D01*
X101370000Y-87376900D01*
X101120000Y-87376900D01*
X99495000Y-87376900D01*
X74095500Y-87376900D01*
X74095500Y-87126900D01*
X99495000Y-87126900D01*
X101120000Y-87126900D01*
X101120000Y-85501900D01*
X101370000Y-85501900D01*
X101370000Y-87126900D01*
X102995000Y-87126900D01*
X102995000Y-85727273D01*
X102994999Y-85727271D01*
X102980496Y-85654359D01*
X102980494Y-85654355D01*
X102925239Y-85571660D01*
X102842544Y-85516405D01*
X102842540Y-85516403D01*
X102769627Y-85501900D01*
X101370000Y-85501900D01*
X101120000Y-85501900D01*
X99720373Y-85501900D01*
X99647459Y-85516403D01*
X99647455Y-85516405D01*
X99564760Y-85571660D01*
X99509505Y-85654355D01*
X99509503Y-85654359D01*
X99495000Y-85727271D01*
X99495000Y-87126900D01*
X74095500Y-87126900D01*
X74095500Y-86573417D01*
X75932000Y-86573417D01*
X75942792Y-86641557D01*
X75946854Y-86667204D01*
X76004450Y-86780242D01*
X76004452Y-86780244D01*
X76004454Y-86780247D01*
X76094152Y-86869945D01*
X76094154Y-86869946D01*
X76094158Y-86869950D01*
X76205832Y-86926851D01*
X76207198Y-86927547D01*
X76300975Y-86942399D01*
X76300981Y-86942400D01*
X76764018Y-86942399D01*
X76857804Y-86927546D01*
X76970842Y-86869950D01*
X77060550Y-86780242D01*
X77118146Y-86667204D01*
X77118146Y-86667202D01*
X77118147Y-86667201D01*
X77132999Y-86573424D01*
X77133000Y-86573419D01*
X77133000Y-86391900D01*
X77532501Y-86391900D01*
X77532501Y-86596096D01*
X77535351Y-86626506D01*
X77580153Y-86754545D01*
X77660707Y-86863692D01*
X77769854Y-86944246D01*
X77897897Y-86989049D01*
X77928278Y-86991898D01*
X77928306Y-86991899D01*
X78057499Y-86991899D01*
X78057500Y-86991898D01*
X78057500Y-86391900D01*
X78307500Y-86391900D01*
X78307500Y-86991899D01*
X78436696Y-86991899D01*
X78467106Y-86989048D01*
X78595145Y-86944246D01*
X78704292Y-86863692D01*
X78784846Y-86754545D01*
X78829649Y-86626504D01*
X78829649Y-86626500D01*
X78832500Y-86596106D01*
X78832500Y-86556151D01*
X79432000Y-86556151D01*
X79447547Y-86654317D01*
X79466864Y-86692229D01*
X79507842Y-86772651D01*
X79507844Y-86772653D01*
X79507846Y-86772656D01*
X79601743Y-86866553D01*
X79601745Y-86866554D01*
X79601749Y-86866558D01*
X79720080Y-86926851D01*
X79720081Y-86926851D01*
X79720083Y-86926852D01*
X79720082Y-86926852D01*
X79818249Y-86942400D01*
X79818254Y-86942400D01*
X80321751Y-86942400D01*
X80419917Y-86926852D01*
X80419918Y-86926851D01*
X80419920Y-86926851D01*
X80538251Y-86866558D01*
X80632158Y-86772651D01*
X80692451Y-86654320D01*
X80692451Y-86654318D01*
X80692452Y-86654317D01*
X80708000Y-86556151D01*
X81007000Y-86556151D01*
X81022547Y-86654317D01*
X81041864Y-86692229D01*
X81082842Y-86772651D01*
X81082844Y-86772653D01*
X81082846Y-86772656D01*
X81176743Y-86866553D01*
X81176745Y-86866554D01*
X81176749Y-86866558D01*
X81295080Y-86926851D01*
X81295081Y-86926851D01*
X81295083Y-86926852D01*
X81295082Y-86926852D01*
X81393249Y-86942400D01*
X81393254Y-86942400D01*
X81896751Y-86942400D01*
X81994917Y-86926852D01*
X81994918Y-86926851D01*
X81994920Y-86926851D01*
X82113251Y-86866558D01*
X82207158Y-86772651D01*
X82267451Y-86654320D01*
X82267451Y-86654318D01*
X82267452Y-86654317D01*
X82283000Y-86556151D01*
X82283000Y-85977648D01*
X82267452Y-85879482D01*
X82260886Y-85866596D01*
X82207158Y-85761149D01*
X82207154Y-85761145D01*
X82207153Y-85761143D01*
X82113256Y-85667246D01*
X82113253Y-85667244D01*
X82113251Y-85667242D01*
X81994920Y-85606949D01*
X81994919Y-85606948D01*
X81994916Y-85606947D01*
X81994917Y-85606947D01*
X81896751Y-85591400D01*
X81896746Y-85591400D01*
X81393254Y-85591400D01*
X81393249Y-85591400D01*
X81295082Y-85606947D01*
X81216192Y-85647144D01*
X81176749Y-85667242D01*
X81176748Y-85667243D01*
X81176743Y-85667246D01*
X81082846Y-85761143D01*
X81082843Y-85761148D01*
X81022547Y-85879482D01*
X81007000Y-85977648D01*
X81007000Y-86556151D01*
X80708000Y-86556151D01*
X80708000Y-85977648D01*
X80692452Y-85879482D01*
X80685886Y-85866596D01*
X80632158Y-85761149D01*
X80632154Y-85761145D01*
X80632153Y-85761143D01*
X80538256Y-85667246D01*
X80538253Y-85667244D01*
X80538251Y-85667242D01*
X80419920Y-85606949D01*
X80419919Y-85606948D01*
X80419916Y-85606947D01*
X80419917Y-85606947D01*
X80321751Y-85591400D01*
X80321746Y-85591400D01*
X79818254Y-85591400D01*
X79818249Y-85591400D01*
X79720082Y-85606947D01*
X79641192Y-85647144D01*
X79601749Y-85667242D01*
X79601748Y-85667243D01*
X79601743Y-85667246D01*
X79507846Y-85761143D01*
X79507843Y-85761148D01*
X79447547Y-85879482D01*
X79432000Y-85977648D01*
X79432000Y-86556151D01*
X78832500Y-86556151D01*
X78832500Y-86391900D01*
X78307500Y-86391900D01*
X78057500Y-86391900D01*
X77532501Y-86391900D01*
X77133000Y-86391900D01*
X77132999Y-86141900D01*
X77532500Y-86141900D01*
X78057500Y-86141900D01*
X78057500Y-85541900D01*
X78307500Y-85541900D01*
X78307500Y-86141900D01*
X78832499Y-86141900D01*
X78832499Y-85937703D01*
X78829648Y-85907293D01*
X78784846Y-85779254D01*
X78704292Y-85670107D01*
X78595145Y-85589553D01*
X78467102Y-85544750D01*
X78436707Y-85541900D01*
X78307500Y-85541900D01*
X78057500Y-85541900D01*
X77928304Y-85541900D01*
X77897893Y-85544751D01*
X77769854Y-85589553D01*
X77660707Y-85670107D01*
X77580153Y-85779254D01*
X77535350Y-85907295D01*
X77535350Y-85907299D01*
X77532500Y-85937693D01*
X77532500Y-86141900D01*
X77132999Y-86141900D01*
X77132999Y-85960382D01*
X77118146Y-85866596D01*
X77060550Y-85753558D01*
X77060546Y-85753554D01*
X77060545Y-85753552D01*
X76970847Y-85663854D01*
X76970844Y-85663852D01*
X76970842Y-85663850D01*
X76894017Y-85624705D01*
X76857801Y-85606252D01*
X76764024Y-85591400D01*
X76300982Y-85591400D01*
X76220019Y-85604223D01*
X76207196Y-85606254D01*
X76094158Y-85663850D01*
X76094157Y-85663851D01*
X76094152Y-85663854D01*
X76004454Y-85753552D01*
X76004451Y-85753557D01*
X76004450Y-85753558D01*
X75991357Y-85779254D01*
X75946852Y-85866598D01*
X75932000Y-85960375D01*
X75932000Y-86573417D01*
X74095500Y-86573417D01*
X74095500Y-81666900D01*
X84945000Y-81666900D01*
X84945000Y-82066528D01*
X84959503Y-82139440D01*
X84959505Y-82139444D01*
X85014760Y-82222139D01*
X85097455Y-82277394D01*
X85097459Y-82277396D01*
X85170371Y-82291899D01*
X85170374Y-82291900D01*
X85920000Y-82291900D01*
X85920000Y-81666900D01*
X86170000Y-81666900D01*
X86170000Y-82291900D01*
X86919626Y-82291900D01*
X86919628Y-82291899D01*
X86992540Y-82277396D01*
X86992544Y-82277394D01*
X87075239Y-82222139D01*
X87130494Y-82139444D01*
X87130496Y-82139440D01*
X87144999Y-82066528D01*
X87145000Y-82066526D01*
X87145000Y-81666900D01*
X91245000Y-81666900D01*
X91245000Y-82066528D01*
X91259503Y-82139440D01*
X91259505Y-82139444D01*
X91314760Y-82222139D01*
X91397455Y-82277394D01*
X91397459Y-82277396D01*
X91470371Y-82291899D01*
X91470374Y-82291900D01*
X92220000Y-82291900D01*
X92220000Y-81666900D01*
X92470000Y-81666900D01*
X92470000Y-82291900D01*
X93219626Y-82291900D01*
X93219628Y-82291899D01*
X93292540Y-82277396D01*
X93292544Y-82277394D01*
X93375239Y-82222139D01*
X93430494Y-82139444D01*
X93430496Y-82139440D01*
X93444999Y-82066528D01*
X93445000Y-82066526D01*
X93445000Y-81666900D01*
X192145000Y-81666900D01*
X192145000Y-82066528D01*
X192159503Y-82139440D01*
X192159505Y-82139444D01*
X192214760Y-82222139D01*
X192297455Y-82277394D01*
X192297459Y-82277396D01*
X192370371Y-82291899D01*
X192370374Y-82291900D01*
X193120000Y-82291900D01*
X193120000Y-81666900D01*
X193370000Y-81666900D01*
X193370000Y-82291900D01*
X194119626Y-82291900D01*
X194119628Y-82291899D01*
X194192540Y-82277396D01*
X194192544Y-82277394D01*
X194275239Y-82222139D01*
X194330494Y-82139444D01*
X194330496Y-82139440D01*
X194344999Y-82066528D01*
X194345000Y-82066526D01*
X194345000Y-81666900D01*
X198445000Y-81666900D01*
X198445000Y-82066528D01*
X198459503Y-82139440D01*
X198459505Y-82139444D01*
X198514760Y-82222139D01*
X198597455Y-82277394D01*
X198597459Y-82277396D01*
X198670371Y-82291899D01*
X198670374Y-82291900D01*
X199420000Y-82291900D01*
X199420000Y-81666900D01*
X199670000Y-81666900D01*
X199670000Y-82291900D01*
X200419626Y-82291900D01*
X200419628Y-82291899D01*
X200492540Y-82277396D01*
X200492544Y-82277394D01*
X200575239Y-82222139D01*
X200630494Y-82139444D01*
X200630496Y-82139440D01*
X200644999Y-82066528D01*
X200645000Y-82066526D01*
X200645000Y-81666900D01*
X199670000Y-81666900D01*
X199420000Y-81666900D01*
X198445000Y-81666900D01*
X194345000Y-81666900D01*
X193370000Y-81666900D01*
X193120000Y-81666900D01*
X192145000Y-81666900D01*
X93445000Y-81666900D01*
X92470000Y-81666900D01*
X92220000Y-81666900D01*
X91245000Y-81666900D01*
X87145000Y-81666900D01*
X86170000Y-81666900D01*
X85920000Y-81666900D01*
X84945000Y-81666900D01*
X74095500Y-81666900D01*
X74095500Y-81416900D01*
X84945000Y-81416900D01*
X85920000Y-81416900D01*
X85920000Y-80791900D01*
X86170000Y-80791900D01*
X86170000Y-81416900D01*
X87145000Y-81416900D01*
X91245000Y-81416900D01*
X92220000Y-81416900D01*
X92220000Y-80791900D01*
X92470000Y-80791900D01*
X92470000Y-81416900D01*
X93445000Y-81416900D01*
X192145000Y-81416900D01*
X193120000Y-81416900D01*
X193120000Y-80791900D01*
X193370000Y-80791900D01*
X193370000Y-81416900D01*
X194345000Y-81416900D01*
X198445000Y-81416900D01*
X199420000Y-81416900D01*
X199420000Y-80791900D01*
X199670000Y-80791900D01*
X199670000Y-81416900D01*
X200645000Y-81416900D01*
X200645000Y-81017273D01*
X200644999Y-81017271D01*
X200630496Y-80944359D01*
X200630494Y-80944355D01*
X200575239Y-80861660D01*
X200492544Y-80806405D01*
X200492540Y-80806403D01*
X200419627Y-80791900D01*
X199670000Y-80791900D01*
X199420000Y-80791900D01*
X198670373Y-80791900D01*
X198597459Y-80806403D01*
X198597455Y-80806405D01*
X198514760Y-80861660D01*
X198459505Y-80944355D01*
X198459503Y-80944359D01*
X198445000Y-81017271D01*
X198445000Y-81416900D01*
X194345000Y-81416900D01*
X194345000Y-81017273D01*
X194344999Y-81017271D01*
X194330496Y-80944359D01*
X194330494Y-80944355D01*
X194275239Y-80861660D01*
X194192544Y-80806405D01*
X194192540Y-80806403D01*
X194119627Y-80791900D01*
X193370000Y-80791900D01*
X193120000Y-80791900D01*
X192370373Y-80791900D01*
X192297459Y-80806403D01*
X192297455Y-80806405D01*
X192214760Y-80861660D01*
X192159505Y-80944355D01*
X192159503Y-80944359D01*
X192145000Y-81017271D01*
X192145000Y-81416900D01*
X93445000Y-81416900D01*
X93445000Y-81017273D01*
X93444999Y-81017271D01*
X93430496Y-80944359D01*
X93430494Y-80944355D01*
X93375239Y-80861660D01*
X93292544Y-80806405D01*
X93292540Y-80806403D01*
X93219627Y-80791900D01*
X92470000Y-80791900D01*
X92220000Y-80791900D01*
X91470373Y-80791900D01*
X91397459Y-80806403D01*
X91397455Y-80806405D01*
X91314760Y-80861660D01*
X91259505Y-80944355D01*
X91259503Y-80944359D01*
X91245000Y-81017271D01*
X91245000Y-81416900D01*
X87145000Y-81416900D01*
X87145000Y-81017273D01*
X87144999Y-81017271D01*
X87130496Y-80944359D01*
X87130494Y-80944355D01*
X87075239Y-80861660D01*
X86992544Y-80806405D01*
X86992540Y-80806403D01*
X86919627Y-80791900D01*
X86170000Y-80791900D01*
X85920000Y-80791900D01*
X85170373Y-80791900D01*
X85097459Y-80806403D01*
X85097455Y-80806405D01*
X85014760Y-80861660D01*
X84959505Y-80944355D01*
X84959503Y-80944359D01*
X84945000Y-81017271D01*
X84945000Y-81416900D01*
X74095500Y-81416900D01*
X74095500Y-78261652D01*
X84994500Y-78261652D01*
X85006131Y-78320129D01*
X85006132Y-78320130D01*
X85050447Y-78386452D01*
X85116769Y-78430767D01*
X85116770Y-78430768D01*
X85175247Y-78442399D01*
X85175250Y-78442400D01*
X85175252Y-78442400D01*
X86914750Y-78442400D01*
X86914751Y-78442399D01*
X86929568Y-78439452D01*
X86973229Y-78430768D01*
X86973229Y-78430767D01*
X86973231Y-78430767D01*
X87039552Y-78386452D01*
X87083867Y-78320131D01*
X87083867Y-78320129D01*
X87083868Y-78320129D01*
X87095499Y-78261652D01*
X91294500Y-78261652D01*
X91306131Y-78320129D01*
X91306132Y-78320130D01*
X91350447Y-78386452D01*
X91416769Y-78430767D01*
X91416770Y-78430768D01*
X91475247Y-78442399D01*
X91475250Y-78442400D01*
X91475252Y-78442400D01*
X93214750Y-78442400D01*
X93214751Y-78442399D01*
X93229568Y-78439452D01*
X93273229Y-78430768D01*
X93273229Y-78430767D01*
X93273231Y-78430767D01*
X93339552Y-78386452D01*
X93383867Y-78320131D01*
X93383867Y-78320129D01*
X93383868Y-78320129D01*
X93395499Y-78261652D01*
X93395500Y-78261650D01*
X93395500Y-77651575D01*
X137150748Y-77651575D01*
X137160748Y-77912493D01*
X137210462Y-78168828D01*
X137210462Y-78168830D01*
X137298718Y-78414563D01*
X137352683Y-78513803D01*
X137423459Y-78643957D01*
X137581750Y-78851616D01*
X137769886Y-79032678D01*
X137769891Y-79032681D01*
X137769895Y-79032685D01*
X137983441Y-79182889D01*
X137983445Y-79182891D01*
X137983456Y-79182899D01*
X138215155Y-79297621D01*
X138217455Y-79298760D01*
X138300433Y-79325019D01*
X138466395Y-79377541D01*
X138724445Y-79417400D01*
X138724449Y-79417400D01*
X138920177Y-79417400D01*
X139115344Y-79402416D01*
X139369586Y-79342921D01*
X139414945Y-79324639D01*
X139611758Y-79245318D01*
X139611763Y-79245315D01*
X139611766Y-79245314D01*
X139836208Y-79111882D01*
X140037652Y-78945752D01*
X140211375Y-78750820D01*
X140353303Y-78531658D01*
X140353304Y-78531657D01*
X140353304Y-78531655D01*
X140353306Y-78531653D01*
X140460118Y-78293389D01*
X140468839Y-78261652D01*
X192194500Y-78261652D01*
X192206131Y-78320129D01*
X192206132Y-78320130D01*
X192250447Y-78386452D01*
X192316769Y-78430767D01*
X192316770Y-78430768D01*
X192375247Y-78442399D01*
X192375250Y-78442400D01*
X192375252Y-78442400D01*
X194114750Y-78442400D01*
X194114751Y-78442399D01*
X194129568Y-78439452D01*
X194173229Y-78430768D01*
X194173229Y-78430767D01*
X194173231Y-78430767D01*
X194239552Y-78386452D01*
X194283867Y-78320131D01*
X194283867Y-78320129D01*
X194283868Y-78320129D01*
X194295499Y-78261652D01*
X194295500Y-78261650D01*
X194295500Y-77651575D01*
X195150748Y-77651575D01*
X195160748Y-77912493D01*
X195210462Y-78168828D01*
X195210462Y-78168830D01*
X195298718Y-78414563D01*
X195352683Y-78513803D01*
X195423459Y-78643957D01*
X195581750Y-78851616D01*
X195769886Y-79032678D01*
X195769891Y-79032681D01*
X195769895Y-79032685D01*
X195983441Y-79182889D01*
X195983445Y-79182891D01*
X195983456Y-79182899D01*
X196215155Y-79297621D01*
X196217455Y-79298760D01*
X196300433Y-79325019D01*
X196466395Y-79377541D01*
X196724445Y-79417400D01*
X196724449Y-79417400D01*
X196920177Y-79417400D01*
X197115344Y-79402416D01*
X197369586Y-79342921D01*
X197414945Y-79324639D01*
X197611758Y-79245318D01*
X197611763Y-79245315D01*
X197611766Y-79245314D01*
X197836208Y-79111882D01*
X198037652Y-78945752D01*
X198211375Y-78750820D01*
X198353306Y-78531653D01*
X198388808Y-78452458D01*
X198434192Y-78399340D01*
X198501092Y-78379188D01*
X198568267Y-78398405D01*
X198570849Y-78400084D01*
X198616768Y-78430767D01*
X198616770Y-78430768D01*
X198675247Y-78442399D01*
X198675250Y-78442400D01*
X198675252Y-78442400D01*
X200414750Y-78442400D01*
X200414751Y-78442399D01*
X200429568Y-78439452D01*
X200473229Y-78430768D01*
X200473229Y-78430767D01*
X200473231Y-78430767D01*
X200539552Y-78386452D01*
X200583867Y-78320131D01*
X200583867Y-78320129D01*
X200583868Y-78320129D01*
X200595499Y-78261652D01*
X200595500Y-78261650D01*
X200595500Y-77222149D01*
X200595499Y-77222147D01*
X200583868Y-77163670D01*
X200583867Y-77163669D01*
X200539552Y-77097347D01*
X200473230Y-77053032D01*
X200473229Y-77053031D01*
X200414752Y-77041400D01*
X200414748Y-77041400D01*
X198675252Y-77041400D01*
X198675247Y-77041400D01*
X198616770Y-77053031D01*
X198616769Y-77053032D01*
X198592317Y-77069371D01*
X198525639Y-77090249D01*
X198458259Y-77071764D01*
X198414403Y-77022942D01*
X198413549Y-77023407D01*
X198411596Y-77019816D01*
X198411569Y-77019786D01*
X198411505Y-77019649D01*
X198411280Y-77019236D01*
X198411279Y-77019232D01*
X198286541Y-76789843D01*
X198128250Y-76582184D01*
X197940114Y-76401122D01*
X197940108Y-76401118D01*
X197940104Y-76401114D01*
X197726558Y-76250910D01*
X197726551Y-76250906D01*
X197726544Y-76250901D01*
X197600477Y-76188481D01*
X197492544Y-76135039D01*
X197243608Y-76056260D01*
X197243605Y-76056259D01*
X196985555Y-76016400D01*
X196789823Y-76016400D01*
X196594656Y-76031384D01*
X196594652Y-76031384D01*
X196340416Y-76090878D01*
X196340406Y-76090881D01*
X196098241Y-76188481D01*
X196098232Y-76188486D01*
X195873793Y-76321917D01*
X195672345Y-76488050D01*
X195498631Y-76682971D01*
X195498618Y-76682988D01*
X195356695Y-76902142D01*
X195356694Y-76902146D01*
X195249881Y-77140411D01*
X195180693Y-77392185D01*
X195150748Y-77651575D01*
X194295500Y-77651575D01*
X194295500Y-77222149D01*
X194295499Y-77222147D01*
X194283868Y-77163670D01*
X194283867Y-77163669D01*
X194239552Y-77097347D01*
X194173230Y-77053032D01*
X194173229Y-77053031D01*
X194114752Y-77041400D01*
X194114748Y-77041400D01*
X192375252Y-77041400D01*
X192375247Y-77041400D01*
X192316770Y-77053031D01*
X192316769Y-77053032D01*
X192250447Y-77097347D01*
X192206132Y-77163669D01*
X192206131Y-77163670D01*
X192194500Y-77222147D01*
X192194500Y-78261652D01*
X140468839Y-78261652D01*
X140529307Y-78041613D01*
X140559252Y-77782225D01*
X140549251Y-77521307D01*
X140499538Y-77264973D01*
X140463155Y-77163670D01*
X140411281Y-77019236D01*
X140347610Y-76902147D01*
X140286541Y-76789843D01*
X140128250Y-76582184D01*
X139940114Y-76401122D01*
X139940108Y-76401118D01*
X139940104Y-76401114D01*
X139726558Y-76250910D01*
X139726551Y-76250906D01*
X139726544Y-76250901D01*
X139600477Y-76188481D01*
X139492544Y-76135039D01*
X139243608Y-76056260D01*
X139243605Y-76056259D01*
X138985555Y-76016400D01*
X138789823Y-76016400D01*
X138594656Y-76031384D01*
X138594652Y-76031384D01*
X138340416Y-76090878D01*
X138340406Y-76090881D01*
X138098241Y-76188481D01*
X138098232Y-76188486D01*
X137873793Y-76321917D01*
X137672345Y-76488050D01*
X137498631Y-76682971D01*
X137498618Y-76682988D01*
X137356695Y-76902142D01*
X137356694Y-76902146D01*
X137249881Y-77140411D01*
X137180693Y-77392185D01*
X137150748Y-77651575D01*
X93395500Y-77651575D01*
X93395500Y-77222149D01*
X93395499Y-77222147D01*
X93383868Y-77163670D01*
X93383867Y-77163669D01*
X93339552Y-77097347D01*
X93273230Y-77053032D01*
X93273229Y-77053031D01*
X93214752Y-77041400D01*
X93214748Y-77041400D01*
X91475252Y-77041400D01*
X91475247Y-77041400D01*
X91416770Y-77053031D01*
X91416769Y-77053032D01*
X91350447Y-77097347D01*
X91306132Y-77163669D01*
X91306131Y-77163670D01*
X91294500Y-77222147D01*
X91294500Y-78261652D01*
X87095499Y-78261652D01*
X87095500Y-78261650D01*
X87095500Y-77222149D01*
X87095499Y-77222147D01*
X87083868Y-77163670D01*
X87083867Y-77163669D01*
X87039552Y-77097347D01*
X86973230Y-77053032D01*
X86973229Y-77053031D01*
X86914752Y-77041400D01*
X86914748Y-77041400D01*
X85175252Y-77041400D01*
X85175247Y-77041400D01*
X85116770Y-77053031D01*
X85116769Y-77053032D01*
X85050447Y-77097347D01*
X85006132Y-77163669D01*
X85006131Y-77163670D01*
X84994500Y-77222147D01*
X84994500Y-78261652D01*
X74095500Y-78261652D01*
X74095500Y-73666900D01*
X76945000Y-73666900D01*
X76945000Y-74066528D01*
X76959503Y-74139440D01*
X76959505Y-74139444D01*
X77014760Y-74222139D01*
X77097455Y-74277394D01*
X77097459Y-74277396D01*
X77170371Y-74291899D01*
X77170374Y-74291900D01*
X77920000Y-74291900D01*
X77920000Y-73666900D01*
X78170000Y-73666900D01*
X78170000Y-74291900D01*
X78919626Y-74291900D01*
X78919628Y-74291899D01*
X78992540Y-74277396D01*
X78992544Y-74277394D01*
X79075239Y-74222139D01*
X79130494Y-74139444D01*
X79130496Y-74139440D01*
X79144999Y-74066528D01*
X79145000Y-74066526D01*
X79145000Y-73666900D01*
X83245000Y-73666900D01*
X83245000Y-74066528D01*
X83259503Y-74139440D01*
X83259505Y-74139444D01*
X83314760Y-74222139D01*
X83397455Y-74277394D01*
X83397459Y-74277396D01*
X83470371Y-74291899D01*
X83470374Y-74291900D01*
X84220000Y-74291900D01*
X84220000Y-73666900D01*
X84470000Y-73666900D01*
X84470000Y-74291900D01*
X85219626Y-74291900D01*
X85219628Y-74291899D01*
X85292540Y-74277396D01*
X85292544Y-74277394D01*
X85375239Y-74222139D01*
X85430494Y-74139444D01*
X85430496Y-74139440D01*
X85444999Y-74066528D01*
X85445000Y-74066526D01*
X85445000Y-73666900D01*
X92945000Y-73666900D01*
X92945000Y-74066528D01*
X92959503Y-74139440D01*
X92959505Y-74139444D01*
X93014760Y-74222139D01*
X93097455Y-74277394D01*
X93097459Y-74277396D01*
X93170371Y-74291899D01*
X93170374Y-74291900D01*
X93920000Y-74291900D01*
X93920000Y-73666900D01*
X94170000Y-73666900D01*
X94170000Y-74291900D01*
X94919626Y-74291900D01*
X94919628Y-74291899D01*
X94992540Y-74277396D01*
X94992544Y-74277394D01*
X95075239Y-74222139D01*
X95130494Y-74139444D01*
X95130496Y-74139440D01*
X95144999Y-74066528D01*
X95145000Y-74066526D01*
X95145000Y-73666900D01*
X99245000Y-73666900D01*
X99245000Y-74066528D01*
X99259503Y-74139440D01*
X99259505Y-74139444D01*
X99314760Y-74222139D01*
X99397455Y-74277394D01*
X99397459Y-74277396D01*
X99470371Y-74291899D01*
X99470374Y-74291900D01*
X100220000Y-74291900D01*
X100220000Y-73666900D01*
X100470000Y-73666900D01*
X100470000Y-74291900D01*
X101219626Y-74291900D01*
X101219628Y-74291899D01*
X101292540Y-74277396D01*
X101292544Y-74277394D01*
X101375239Y-74222139D01*
X101430494Y-74139444D01*
X101430496Y-74139440D01*
X101444999Y-74066528D01*
X101445000Y-74066526D01*
X101445000Y-73666900D01*
X184145000Y-73666900D01*
X184145000Y-74066528D01*
X184159503Y-74139440D01*
X184159505Y-74139444D01*
X184214760Y-74222139D01*
X184297455Y-74277394D01*
X184297459Y-74277396D01*
X184370371Y-74291899D01*
X184370374Y-74291900D01*
X185120000Y-74291900D01*
X185120000Y-73666900D01*
X185370000Y-73666900D01*
X185370000Y-74291900D01*
X186119626Y-74291900D01*
X186119628Y-74291899D01*
X186192540Y-74277396D01*
X186192544Y-74277394D01*
X186275239Y-74222139D01*
X186330494Y-74139444D01*
X186330496Y-74139440D01*
X186344999Y-74066528D01*
X186345000Y-74066526D01*
X186345000Y-73666900D01*
X190445000Y-73666900D01*
X190445000Y-74066528D01*
X190459503Y-74139440D01*
X190459505Y-74139444D01*
X190514760Y-74222139D01*
X190597455Y-74277394D01*
X190597459Y-74277396D01*
X190670371Y-74291899D01*
X190670374Y-74291900D01*
X191420000Y-74291900D01*
X191420000Y-73666900D01*
X191670000Y-73666900D01*
X191670000Y-74291900D01*
X192419626Y-74291900D01*
X192419628Y-74291899D01*
X192492540Y-74277396D01*
X192492544Y-74277394D01*
X192575239Y-74222139D01*
X192630494Y-74139444D01*
X192630496Y-74139440D01*
X192644999Y-74066528D01*
X192645000Y-74066526D01*
X192645000Y-73666900D01*
X200145000Y-73666900D01*
X200145000Y-74066528D01*
X200159503Y-74139440D01*
X200159505Y-74139444D01*
X200214760Y-74222139D01*
X200297455Y-74277394D01*
X200297459Y-74277396D01*
X200370371Y-74291899D01*
X200370374Y-74291900D01*
X201120000Y-74291900D01*
X201120000Y-73666900D01*
X201370000Y-73666900D01*
X201370000Y-74291900D01*
X202119626Y-74291900D01*
X202119628Y-74291899D01*
X202192540Y-74277396D01*
X202192544Y-74277394D01*
X202275239Y-74222139D01*
X202330494Y-74139444D01*
X202330496Y-74139440D01*
X202344999Y-74066528D01*
X202345000Y-74066526D01*
X202345000Y-73666900D01*
X206445000Y-73666900D01*
X206445000Y-74066528D01*
X206459503Y-74139440D01*
X206459505Y-74139444D01*
X206514760Y-74222139D01*
X206597455Y-74277394D01*
X206597459Y-74277396D01*
X206670371Y-74291899D01*
X206670374Y-74291900D01*
X207420000Y-74291900D01*
X207420000Y-73666900D01*
X207670000Y-73666900D01*
X207670000Y-74291900D01*
X208419626Y-74291900D01*
X208419628Y-74291899D01*
X208492540Y-74277396D01*
X208492544Y-74277394D01*
X208575239Y-74222139D01*
X208630494Y-74139444D01*
X208630496Y-74139440D01*
X208644999Y-74066528D01*
X208645000Y-74066526D01*
X208645000Y-73666900D01*
X207670000Y-73666900D01*
X207420000Y-73666900D01*
X206445000Y-73666900D01*
X202345000Y-73666900D01*
X201370000Y-73666900D01*
X201120000Y-73666900D01*
X200145000Y-73666900D01*
X192645000Y-73666900D01*
X191670000Y-73666900D01*
X191420000Y-73666900D01*
X190445000Y-73666900D01*
X186345000Y-73666900D01*
X185370000Y-73666900D01*
X185120000Y-73666900D01*
X184145000Y-73666900D01*
X101445000Y-73666900D01*
X100470000Y-73666900D01*
X100220000Y-73666900D01*
X99245000Y-73666900D01*
X95145000Y-73666900D01*
X94170000Y-73666900D01*
X93920000Y-73666900D01*
X92945000Y-73666900D01*
X85445000Y-73666900D01*
X84470000Y-73666900D01*
X84220000Y-73666900D01*
X83245000Y-73666900D01*
X79145000Y-73666900D01*
X78170000Y-73666900D01*
X77920000Y-73666900D01*
X76945000Y-73666900D01*
X74095500Y-73666900D01*
X74095500Y-73416900D01*
X76945000Y-73416900D01*
X77920000Y-73416900D01*
X77920000Y-72791900D01*
X78170000Y-72791900D01*
X78170000Y-73416900D01*
X79145000Y-73416900D01*
X83245000Y-73416900D01*
X84220000Y-73416900D01*
X84220000Y-72791900D01*
X84470000Y-72791900D01*
X84470000Y-73416900D01*
X85445000Y-73416900D01*
X92945000Y-73416900D01*
X93920000Y-73416900D01*
X93920000Y-72791900D01*
X94170000Y-72791900D01*
X94170000Y-73416900D01*
X95145000Y-73416900D01*
X99245000Y-73416900D01*
X100220000Y-73416900D01*
X100220000Y-72791900D01*
X100470000Y-72791900D01*
X100470000Y-73416900D01*
X101445000Y-73416900D01*
X184145000Y-73416900D01*
X185120000Y-73416900D01*
X185120000Y-72791900D01*
X185370000Y-72791900D01*
X185370000Y-73416900D01*
X186345000Y-73416900D01*
X190445000Y-73416900D01*
X191420000Y-73416900D01*
X191420000Y-72791900D01*
X191670000Y-72791900D01*
X191670000Y-73416900D01*
X192645000Y-73416900D01*
X200145000Y-73416900D01*
X201120000Y-73416900D01*
X201120000Y-72791900D01*
X201370000Y-72791900D01*
X201370000Y-73416900D01*
X202345000Y-73416900D01*
X206445000Y-73416900D01*
X207420000Y-73416900D01*
X207420000Y-72791900D01*
X207670000Y-72791900D01*
X207670000Y-73416900D01*
X208645000Y-73416900D01*
X208645000Y-73017273D01*
X208644999Y-73017271D01*
X208630496Y-72944359D01*
X208630494Y-72944355D01*
X208575239Y-72861660D01*
X208492544Y-72806405D01*
X208492540Y-72806403D01*
X208419627Y-72791900D01*
X207670000Y-72791900D01*
X207420000Y-72791900D01*
X206670373Y-72791900D01*
X206597459Y-72806403D01*
X206597455Y-72806405D01*
X206514760Y-72861660D01*
X206459505Y-72944355D01*
X206459503Y-72944359D01*
X206445000Y-73017271D01*
X206445000Y-73416900D01*
X202345000Y-73416900D01*
X202345000Y-73017273D01*
X202344999Y-73017271D01*
X202330496Y-72944359D01*
X202330494Y-72944355D01*
X202275239Y-72861660D01*
X202192544Y-72806405D01*
X202192540Y-72806403D01*
X202119627Y-72791900D01*
X201370000Y-72791900D01*
X201120000Y-72791900D01*
X200370373Y-72791900D01*
X200297459Y-72806403D01*
X200297455Y-72806405D01*
X200214760Y-72861660D01*
X200159505Y-72944355D01*
X200159503Y-72944359D01*
X200145000Y-73017271D01*
X200145000Y-73416900D01*
X192645000Y-73416900D01*
X192645000Y-73017273D01*
X192644999Y-73017271D01*
X192630496Y-72944359D01*
X192630494Y-72944355D01*
X192575239Y-72861660D01*
X192492544Y-72806405D01*
X192492540Y-72806403D01*
X192419627Y-72791900D01*
X191670000Y-72791900D01*
X191420000Y-72791900D01*
X190670373Y-72791900D01*
X190597459Y-72806403D01*
X190597455Y-72806405D01*
X190514760Y-72861660D01*
X190459505Y-72944355D01*
X190459503Y-72944359D01*
X190445000Y-73017271D01*
X190445000Y-73416900D01*
X186345000Y-73416900D01*
X186345000Y-73017273D01*
X186344999Y-73017271D01*
X186330496Y-72944359D01*
X186330494Y-72944355D01*
X186275239Y-72861660D01*
X186192544Y-72806405D01*
X186192540Y-72806403D01*
X186119627Y-72791900D01*
X185370000Y-72791900D01*
X185120000Y-72791900D01*
X184370373Y-72791900D01*
X184297459Y-72806403D01*
X184297455Y-72806405D01*
X184214760Y-72861660D01*
X184159505Y-72944355D01*
X184159503Y-72944359D01*
X184145000Y-73017271D01*
X184145000Y-73416900D01*
X101445000Y-73416900D01*
X101445000Y-73017273D01*
X101444999Y-73017271D01*
X101430496Y-72944359D01*
X101430494Y-72944355D01*
X101375239Y-72861660D01*
X101292544Y-72806405D01*
X101292540Y-72806403D01*
X101219627Y-72791900D01*
X100470000Y-72791900D01*
X100220000Y-72791900D01*
X99470373Y-72791900D01*
X99397459Y-72806403D01*
X99397455Y-72806405D01*
X99314760Y-72861660D01*
X99259505Y-72944355D01*
X99259503Y-72944359D01*
X99245000Y-73017271D01*
X99245000Y-73416900D01*
X95145000Y-73416900D01*
X95145000Y-73017273D01*
X95144999Y-73017271D01*
X95130496Y-72944359D01*
X95130494Y-72944355D01*
X95075239Y-72861660D01*
X94992544Y-72806405D01*
X94992540Y-72806403D01*
X94919627Y-72791900D01*
X94170000Y-72791900D01*
X93920000Y-72791900D01*
X93170373Y-72791900D01*
X93097459Y-72806403D01*
X93097455Y-72806405D01*
X93014760Y-72861660D01*
X92959505Y-72944355D01*
X92959503Y-72944359D01*
X92945000Y-73017271D01*
X92945000Y-73416900D01*
X85445000Y-73416900D01*
X85445000Y-73017273D01*
X85444999Y-73017271D01*
X85430496Y-72944359D01*
X85430494Y-72944355D01*
X85375239Y-72861660D01*
X85292544Y-72806405D01*
X85292540Y-72806403D01*
X85219627Y-72791900D01*
X84470000Y-72791900D01*
X84220000Y-72791900D01*
X83470373Y-72791900D01*
X83397459Y-72806403D01*
X83397455Y-72806405D01*
X83314760Y-72861660D01*
X83259505Y-72944355D01*
X83259503Y-72944359D01*
X83245000Y-73017271D01*
X83245000Y-73416900D01*
X79145000Y-73416900D01*
X79145000Y-73017273D01*
X79144999Y-73017271D01*
X79130496Y-72944359D01*
X79130494Y-72944355D01*
X79075239Y-72861660D01*
X78992544Y-72806405D01*
X78992540Y-72806403D01*
X78919627Y-72791900D01*
X78170000Y-72791900D01*
X77920000Y-72791900D01*
X77170373Y-72791900D01*
X77097459Y-72806403D01*
X77097455Y-72806405D01*
X77014760Y-72861660D01*
X76959505Y-72944355D01*
X76959503Y-72944359D01*
X76945000Y-73017271D01*
X76945000Y-73416900D01*
X74095500Y-73416900D01*
X74095500Y-71666900D01*
X86715000Y-71666900D01*
X86715000Y-71766528D01*
X86729503Y-71839440D01*
X86729505Y-71839446D01*
X86748278Y-71867542D01*
X86769155Y-71934220D01*
X86766793Y-71960617D01*
X86764500Y-71972144D01*
X86764500Y-72411652D01*
X86776131Y-72470129D01*
X86776132Y-72470130D01*
X86820447Y-72536452D01*
X86886769Y-72580767D01*
X86886770Y-72580768D01*
X86945247Y-72592399D01*
X86945250Y-72592400D01*
X86945252Y-72592400D01*
X88484750Y-72592400D01*
X88484751Y-72592399D01*
X88499568Y-72589452D01*
X88543229Y-72580768D01*
X88543229Y-72580767D01*
X88543231Y-72580767D01*
X88609552Y-72536452D01*
X88653867Y-72470131D01*
X88653867Y-72470129D01*
X88653868Y-72470129D01*
X88665499Y-72411652D01*
X89424500Y-72411652D01*
X89436131Y-72470129D01*
X89436132Y-72470130D01*
X89480447Y-72536452D01*
X89546769Y-72580767D01*
X89546770Y-72580768D01*
X89605247Y-72592399D01*
X89605250Y-72592400D01*
X89605252Y-72592400D01*
X91144750Y-72592400D01*
X91144751Y-72592399D01*
X91159568Y-72589452D01*
X91203229Y-72580768D01*
X91203229Y-72580767D01*
X91203231Y-72580767D01*
X91269552Y-72536452D01*
X91313867Y-72470131D01*
X91313867Y-72470129D01*
X91313868Y-72470129D01*
X91325499Y-72411652D01*
X91325500Y-72411650D01*
X91325500Y-71972149D01*
X91325499Y-71972147D01*
X91324455Y-71966900D01*
X194015000Y-71966900D01*
X194015000Y-72066528D01*
X194029503Y-72139440D01*
X194029505Y-72139446D01*
X194048278Y-72167542D01*
X194069155Y-72234220D01*
X194066793Y-72260617D01*
X194064500Y-72272144D01*
X194064500Y-72711652D01*
X194076131Y-72770129D01*
X194076132Y-72770130D01*
X194120447Y-72836452D01*
X194186769Y-72880767D01*
X194186770Y-72880768D01*
X194245247Y-72892399D01*
X194245250Y-72892400D01*
X194245252Y-72892400D01*
X195784750Y-72892400D01*
X195784751Y-72892399D01*
X195799568Y-72889452D01*
X195843229Y-72880768D01*
X195843229Y-72880767D01*
X195843231Y-72880767D01*
X195909552Y-72836452D01*
X195953867Y-72770131D01*
X195953867Y-72770129D01*
X195953868Y-72770129D01*
X195965499Y-72711652D01*
X196724500Y-72711652D01*
X196736131Y-72770129D01*
X196736132Y-72770130D01*
X196780447Y-72836452D01*
X196846769Y-72880767D01*
X196846770Y-72880768D01*
X196905247Y-72892399D01*
X196905250Y-72892400D01*
X196905252Y-72892400D01*
X198444750Y-72892400D01*
X198444751Y-72892399D01*
X198459568Y-72889452D01*
X198503229Y-72880768D01*
X198503229Y-72880767D01*
X198503231Y-72880767D01*
X198569552Y-72836452D01*
X198613867Y-72770131D01*
X198613867Y-72770129D01*
X198613868Y-72770129D01*
X198625499Y-72711652D01*
X198625500Y-72711650D01*
X198625500Y-72272149D01*
X198625499Y-72272147D01*
X198611485Y-72201690D01*
X198612762Y-72201435D01*
X198606680Y-72144891D01*
X198613694Y-72121000D01*
X198625499Y-72061652D01*
X198625500Y-72061650D01*
X198625500Y-71622149D01*
X198625499Y-71622147D01*
X198611485Y-71551690D01*
X198612762Y-71551435D01*
X198606680Y-71494891D01*
X198613694Y-71471000D01*
X198617954Y-71449583D01*
X198625500Y-71411648D01*
X198625500Y-70972152D01*
X198625500Y-70972149D01*
X198625499Y-70972147D01*
X198613868Y-70913670D01*
X198613867Y-70913669D01*
X198569552Y-70847347D01*
X198503230Y-70803032D01*
X198503229Y-70803031D01*
X198444752Y-70791400D01*
X198444748Y-70791400D01*
X196905252Y-70791400D01*
X196905247Y-70791400D01*
X196846770Y-70803031D01*
X196846769Y-70803032D01*
X196780447Y-70847347D01*
X196736132Y-70913669D01*
X196736131Y-70913670D01*
X196724500Y-70972147D01*
X196724500Y-71411652D01*
X196738515Y-71482109D01*
X196737239Y-71482362D01*
X196743317Y-71538923D01*
X196736303Y-71562810D01*
X196724500Y-71622147D01*
X196724500Y-72061652D01*
X196738515Y-72132109D01*
X196737239Y-72132362D01*
X196743317Y-72188923D01*
X196736303Y-72212810D01*
X196724500Y-72272147D01*
X196724500Y-72711652D01*
X195965499Y-72711652D01*
X195965500Y-72711650D01*
X195965500Y-72272149D01*
X195965499Y-72272147D01*
X195963207Y-72260621D01*
X195969434Y-72191030D01*
X195981724Y-72167536D01*
X196000496Y-72139443D01*
X196014999Y-72066528D01*
X196015000Y-72066526D01*
X196015000Y-71966900D01*
X194015000Y-71966900D01*
X91324455Y-71966900D01*
X91311485Y-71901690D01*
X91312762Y-71901435D01*
X91306680Y-71844891D01*
X91313694Y-71821000D01*
X91325499Y-71761652D01*
X91325500Y-71761650D01*
X91325500Y-71716900D01*
X194015000Y-71716900D01*
X196015000Y-71716900D01*
X196015000Y-71617273D01*
X196014999Y-71617271D01*
X196000496Y-71544359D01*
X196000495Y-71544355D01*
X195981722Y-71516260D01*
X195960844Y-71449583D01*
X195963207Y-71423176D01*
X195965500Y-71411649D01*
X195965500Y-70972149D01*
X195965499Y-70972147D01*
X195953868Y-70913670D01*
X195953867Y-70913669D01*
X195909552Y-70847347D01*
X195843230Y-70803032D01*
X195843229Y-70803031D01*
X195784752Y-70791400D01*
X195784748Y-70791400D01*
X194245252Y-70791400D01*
X194245247Y-70791400D01*
X194186770Y-70803031D01*
X194186769Y-70803032D01*
X194120447Y-70847347D01*
X194076132Y-70913669D01*
X194076131Y-70913670D01*
X194064500Y-70972147D01*
X194064500Y-71411649D01*
X194066793Y-71423178D01*
X194060564Y-71492770D01*
X194048279Y-71516256D01*
X194029504Y-71544355D01*
X194015000Y-71617273D01*
X194015000Y-71716900D01*
X91325500Y-71716900D01*
X91325500Y-71322149D01*
X91325499Y-71322147D01*
X91311485Y-71251690D01*
X91312762Y-71251435D01*
X91306680Y-71194891D01*
X91313694Y-71171000D01*
X91317954Y-71149583D01*
X91325500Y-71111648D01*
X91325500Y-70672152D01*
X91325500Y-70672149D01*
X91325499Y-70672147D01*
X91313868Y-70613670D01*
X91313867Y-70613669D01*
X91269552Y-70547347D01*
X91203230Y-70503032D01*
X91203229Y-70503031D01*
X91144752Y-70491400D01*
X91144748Y-70491400D01*
X89605252Y-70491400D01*
X89605247Y-70491400D01*
X89546770Y-70503031D01*
X89546769Y-70503032D01*
X89480447Y-70547347D01*
X89436132Y-70613669D01*
X89436131Y-70613670D01*
X89424500Y-70672147D01*
X89424500Y-71111652D01*
X89438515Y-71182109D01*
X89437239Y-71182362D01*
X89443317Y-71238923D01*
X89436303Y-71262810D01*
X89424500Y-71322147D01*
X89424500Y-71761652D01*
X89438515Y-71832109D01*
X89437239Y-71832362D01*
X89443317Y-71888923D01*
X89436303Y-71912810D01*
X89424500Y-71972147D01*
X89424500Y-72411652D01*
X88665499Y-72411652D01*
X88665500Y-72411650D01*
X88665500Y-71972149D01*
X88665499Y-71972147D01*
X88663207Y-71960621D01*
X88669434Y-71891030D01*
X88681724Y-71867536D01*
X88700496Y-71839443D01*
X88714999Y-71766528D01*
X88715000Y-71766526D01*
X88715000Y-71666900D01*
X86715000Y-71666900D01*
X74095500Y-71666900D01*
X74095500Y-71416900D01*
X86715000Y-71416900D01*
X88715000Y-71416900D01*
X88715000Y-71317273D01*
X88714999Y-71317271D01*
X88700496Y-71244359D01*
X88700495Y-71244355D01*
X88681722Y-71216260D01*
X88660844Y-71149583D01*
X88663207Y-71123176D01*
X88665500Y-71111649D01*
X88665500Y-70672149D01*
X88665499Y-70672147D01*
X88653868Y-70613670D01*
X88653867Y-70613669D01*
X88609552Y-70547347D01*
X88543230Y-70503032D01*
X88543229Y-70503031D01*
X88484752Y-70491400D01*
X88484748Y-70491400D01*
X86945252Y-70491400D01*
X86945247Y-70491400D01*
X86886770Y-70503031D01*
X86886769Y-70503032D01*
X86820447Y-70547347D01*
X86776132Y-70613669D01*
X86776131Y-70613670D01*
X86764500Y-70672147D01*
X86764500Y-71111649D01*
X86766793Y-71123178D01*
X86760564Y-71192770D01*
X86748279Y-71216256D01*
X86729504Y-71244355D01*
X86715000Y-71317273D01*
X86715000Y-71416900D01*
X74095500Y-71416900D01*
X74095500Y-70261652D01*
X76994500Y-70261652D01*
X77006131Y-70320129D01*
X77006132Y-70320130D01*
X77050447Y-70386452D01*
X77116769Y-70430767D01*
X77116770Y-70430768D01*
X77175247Y-70442399D01*
X77175250Y-70442400D01*
X77175252Y-70442400D01*
X78914750Y-70442400D01*
X78914751Y-70442399D01*
X78929568Y-70439452D01*
X78973229Y-70430768D01*
X78973229Y-70430767D01*
X78973231Y-70430767D01*
X79039552Y-70386452D01*
X79083867Y-70320131D01*
X79083867Y-70320129D01*
X79083868Y-70320129D01*
X79095499Y-70261652D01*
X83294500Y-70261652D01*
X83306131Y-70320129D01*
X83306132Y-70320130D01*
X83350447Y-70386452D01*
X83416769Y-70430767D01*
X83416770Y-70430768D01*
X83475247Y-70442399D01*
X83475250Y-70442400D01*
X83475252Y-70442400D01*
X85214750Y-70442400D01*
X85214751Y-70442399D01*
X85229568Y-70439452D01*
X85273229Y-70430768D01*
X85273229Y-70430767D01*
X85273231Y-70430767D01*
X85339552Y-70386452D01*
X85383867Y-70320131D01*
X85383867Y-70320129D01*
X85383868Y-70320129D01*
X85395499Y-70261652D01*
X92994500Y-70261652D01*
X93006131Y-70320129D01*
X93006132Y-70320130D01*
X93050447Y-70386452D01*
X93116769Y-70430767D01*
X93116770Y-70430768D01*
X93175247Y-70442399D01*
X93175250Y-70442400D01*
X93175252Y-70442400D01*
X94914750Y-70442400D01*
X94914751Y-70442399D01*
X94929568Y-70439452D01*
X94973229Y-70430768D01*
X94973229Y-70430767D01*
X94973231Y-70430767D01*
X95039552Y-70386452D01*
X95083867Y-70320131D01*
X95083867Y-70320129D01*
X95083868Y-70320129D01*
X95095499Y-70261652D01*
X99294500Y-70261652D01*
X99306131Y-70320129D01*
X99306132Y-70320130D01*
X99350447Y-70386452D01*
X99416769Y-70430767D01*
X99416770Y-70430768D01*
X99475247Y-70442399D01*
X99475250Y-70442400D01*
X99475252Y-70442400D01*
X101214750Y-70442400D01*
X101214751Y-70442399D01*
X101229568Y-70439452D01*
X101273229Y-70430768D01*
X101273229Y-70430767D01*
X101273231Y-70430767D01*
X101339552Y-70386452D01*
X101383867Y-70320131D01*
X101383867Y-70320129D01*
X101383868Y-70320129D01*
X101395499Y-70261652D01*
X184194500Y-70261652D01*
X184206131Y-70320129D01*
X184206132Y-70320130D01*
X184250447Y-70386452D01*
X184316769Y-70430767D01*
X184316770Y-70430768D01*
X184375247Y-70442399D01*
X184375250Y-70442400D01*
X184375252Y-70442400D01*
X186114750Y-70442400D01*
X186114751Y-70442399D01*
X186129568Y-70439452D01*
X186173229Y-70430768D01*
X186173229Y-70430767D01*
X186173231Y-70430767D01*
X186239552Y-70386452D01*
X186283867Y-70320131D01*
X186283867Y-70320129D01*
X186283868Y-70320129D01*
X186295499Y-70261652D01*
X190494500Y-70261652D01*
X190506131Y-70320129D01*
X190506132Y-70320130D01*
X190550447Y-70386452D01*
X190616769Y-70430767D01*
X190616770Y-70430768D01*
X190675247Y-70442399D01*
X190675250Y-70442400D01*
X190675252Y-70442400D01*
X192414750Y-70442400D01*
X192414751Y-70442399D01*
X192429568Y-70439452D01*
X192473229Y-70430768D01*
X192473229Y-70430767D01*
X192473231Y-70430767D01*
X192539552Y-70386452D01*
X192583867Y-70320131D01*
X192583867Y-70320129D01*
X192583868Y-70320129D01*
X192595499Y-70261652D01*
X200194500Y-70261652D01*
X200206131Y-70320129D01*
X200206132Y-70320130D01*
X200250447Y-70386452D01*
X200316769Y-70430767D01*
X200316770Y-70430768D01*
X200375247Y-70442399D01*
X200375250Y-70442400D01*
X200375252Y-70442400D01*
X202114750Y-70442400D01*
X202114751Y-70442399D01*
X202129568Y-70439452D01*
X202173229Y-70430768D01*
X202173229Y-70430767D01*
X202173231Y-70430767D01*
X202239552Y-70386452D01*
X202283867Y-70320131D01*
X202283867Y-70320129D01*
X202283868Y-70320129D01*
X202295499Y-70261652D01*
X206494500Y-70261652D01*
X206506131Y-70320129D01*
X206506132Y-70320130D01*
X206550447Y-70386452D01*
X206616769Y-70430767D01*
X206616770Y-70430768D01*
X206675247Y-70442399D01*
X206675250Y-70442400D01*
X206675252Y-70442400D01*
X208414750Y-70442400D01*
X208414751Y-70442399D01*
X208429568Y-70439452D01*
X208473229Y-70430768D01*
X208473229Y-70430767D01*
X208473231Y-70430767D01*
X208539552Y-70386452D01*
X208583867Y-70320131D01*
X208583867Y-70320129D01*
X208583868Y-70320129D01*
X208595499Y-70261652D01*
X208595500Y-70261650D01*
X208595500Y-69222149D01*
X208595499Y-69222147D01*
X208583868Y-69163670D01*
X208583867Y-69163669D01*
X208539552Y-69097347D01*
X208473230Y-69053032D01*
X208473229Y-69053031D01*
X208414752Y-69041400D01*
X208414748Y-69041400D01*
X206675252Y-69041400D01*
X206675247Y-69041400D01*
X206616770Y-69053031D01*
X206616769Y-69053032D01*
X206550447Y-69097347D01*
X206506132Y-69163669D01*
X206506131Y-69163670D01*
X206494500Y-69222147D01*
X206494500Y-70261652D01*
X202295499Y-70261652D01*
X202295500Y-70261650D01*
X202295500Y-69222149D01*
X202295499Y-69222147D01*
X202283868Y-69163670D01*
X202283867Y-69163669D01*
X202239552Y-69097347D01*
X202173230Y-69053032D01*
X202173229Y-69053031D01*
X202114752Y-69041400D01*
X202114748Y-69041400D01*
X200375252Y-69041400D01*
X200375247Y-69041400D01*
X200316770Y-69053031D01*
X200316769Y-69053032D01*
X200250447Y-69097347D01*
X200206132Y-69163669D01*
X200206131Y-69163670D01*
X200194500Y-69222147D01*
X200194500Y-70261652D01*
X192595499Y-70261652D01*
X192595500Y-70261650D01*
X192595500Y-69222149D01*
X192595499Y-69222147D01*
X192583868Y-69163670D01*
X192583867Y-69163669D01*
X192539552Y-69097347D01*
X192473230Y-69053032D01*
X192473229Y-69053031D01*
X192414752Y-69041400D01*
X192414748Y-69041400D01*
X190675252Y-69041400D01*
X190675247Y-69041400D01*
X190616770Y-69053031D01*
X190616769Y-69053032D01*
X190550447Y-69097347D01*
X190506132Y-69163669D01*
X190506131Y-69163670D01*
X190494500Y-69222147D01*
X190494500Y-70261652D01*
X186295499Y-70261652D01*
X186295500Y-70261650D01*
X186295500Y-69222149D01*
X186295499Y-69222147D01*
X186283868Y-69163670D01*
X186283867Y-69163669D01*
X186239552Y-69097347D01*
X186173230Y-69053032D01*
X186173229Y-69053031D01*
X186114752Y-69041400D01*
X186114748Y-69041400D01*
X184375252Y-69041400D01*
X184375247Y-69041400D01*
X184316770Y-69053031D01*
X184316769Y-69053032D01*
X184250447Y-69097347D01*
X184206132Y-69163669D01*
X184206131Y-69163670D01*
X184194500Y-69222147D01*
X184194500Y-70261652D01*
X101395499Y-70261652D01*
X101395500Y-70261650D01*
X101395500Y-69222149D01*
X101395499Y-69222147D01*
X101383868Y-69163670D01*
X101383867Y-69163669D01*
X101339552Y-69097347D01*
X101273230Y-69053032D01*
X101273229Y-69053031D01*
X101214752Y-69041400D01*
X101214748Y-69041400D01*
X99475252Y-69041400D01*
X99475247Y-69041400D01*
X99416770Y-69053031D01*
X99416769Y-69053032D01*
X99350447Y-69097347D01*
X99306132Y-69163669D01*
X99306131Y-69163670D01*
X99294500Y-69222147D01*
X99294500Y-70261652D01*
X95095499Y-70261652D01*
X95095500Y-70261650D01*
X95095500Y-69222149D01*
X95095499Y-69222147D01*
X95083868Y-69163670D01*
X95083867Y-69163669D01*
X95039552Y-69097347D01*
X94973230Y-69053032D01*
X94973229Y-69053031D01*
X94914752Y-69041400D01*
X94914748Y-69041400D01*
X93175252Y-69041400D01*
X93175247Y-69041400D01*
X93116770Y-69053031D01*
X93116769Y-69053032D01*
X93050447Y-69097347D01*
X93006132Y-69163669D01*
X93006131Y-69163670D01*
X92994500Y-69222147D01*
X92994500Y-70261652D01*
X85395499Y-70261652D01*
X85395500Y-70261650D01*
X85395500Y-69222149D01*
X85395499Y-69222147D01*
X85383868Y-69163670D01*
X85383867Y-69163669D01*
X85339552Y-69097347D01*
X85273230Y-69053032D01*
X85273229Y-69053031D01*
X85214752Y-69041400D01*
X85214748Y-69041400D01*
X83475252Y-69041400D01*
X83475247Y-69041400D01*
X83416770Y-69053031D01*
X83416769Y-69053032D01*
X83350447Y-69097347D01*
X83306132Y-69163669D01*
X83306131Y-69163670D01*
X83294500Y-69222147D01*
X83294500Y-70261652D01*
X79095499Y-70261652D01*
X79095500Y-70261650D01*
X79095500Y-69222149D01*
X79095499Y-69222147D01*
X79083868Y-69163670D01*
X79083867Y-69163669D01*
X79039552Y-69097347D01*
X78973230Y-69053032D01*
X78973229Y-69053031D01*
X78914752Y-69041400D01*
X78914748Y-69041400D01*
X77175252Y-69041400D01*
X77175247Y-69041400D01*
X77116770Y-69053031D01*
X77116769Y-69053032D01*
X77050447Y-69097347D01*
X77006132Y-69163669D01*
X77006131Y-69163670D01*
X76994500Y-69222147D01*
X76994500Y-70261652D01*
X74095500Y-70261652D01*
X74095500Y-65666900D01*
X84945000Y-65666900D01*
X84945000Y-66066528D01*
X84959503Y-66139440D01*
X84959505Y-66139444D01*
X85014760Y-66222139D01*
X85097455Y-66277394D01*
X85097459Y-66277396D01*
X85170371Y-66291899D01*
X85170374Y-66291900D01*
X85920000Y-66291900D01*
X85920000Y-65666900D01*
X86170000Y-65666900D01*
X86170000Y-66291900D01*
X86919626Y-66291900D01*
X86919628Y-66291899D01*
X86992540Y-66277396D01*
X86992544Y-66277394D01*
X87075239Y-66222139D01*
X87130494Y-66139444D01*
X87130496Y-66139440D01*
X87144999Y-66066528D01*
X87145000Y-66066526D01*
X87145000Y-65666900D01*
X91245000Y-65666900D01*
X91245000Y-66066528D01*
X91259503Y-66139440D01*
X91259505Y-66139444D01*
X91314760Y-66222139D01*
X91397455Y-66277394D01*
X91397459Y-66277396D01*
X91470371Y-66291899D01*
X91470374Y-66291900D01*
X92220000Y-66291900D01*
X92220000Y-65666900D01*
X92470000Y-65666900D01*
X92470000Y-66291900D01*
X93219626Y-66291900D01*
X93219628Y-66291899D01*
X93292540Y-66277396D01*
X93292544Y-66277394D01*
X93375239Y-66222139D01*
X93430494Y-66139444D01*
X93430496Y-66139440D01*
X93444999Y-66066528D01*
X93445000Y-66066526D01*
X93445000Y-65666900D01*
X192145000Y-65666900D01*
X192145000Y-66066528D01*
X192159503Y-66139440D01*
X192159505Y-66139444D01*
X192214760Y-66222139D01*
X192297455Y-66277394D01*
X192297459Y-66277396D01*
X192370371Y-66291899D01*
X192370374Y-66291900D01*
X193120000Y-66291900D01*
X193120000Y-65666900D01*
X193370000Y-65666900D01*
X193370000Y-66291900D01*
X194119626Y-66291900D01*
X194119628Y-66291899D01*
X194192540Y-66277396D01*
X194192544Y-66277394D01*
X194275239Y-66222139D01*
X194330494Y-66139444D01*
X194330496Y-66139440D01*
X194344999Y-66066528D01*
X194345000Y-66066526D01*
X194345000Y-65666900D01*
X198445000Y-65666900D01*
X198445000Y-66066528D01*
X198459503Y-66139440D01*
X198459505Y-66139444D01*
X198514760Y-66222139D01*
X198597455Y-66277394D01*
X198597459Y-66277396D01*
X198670371Y-66291899D01*
X198670374Y-66291900D01*
X199420000Y-66291900D01*
X199420000Y-65666900D01*
X199670000Y-65666900D01*
X199670000Y-66291900D01*
X200419626Y-66291900D01*
X200419628Y-66291899D01*
X200492540Y-66277396D01*
X200492544Y-66277394D01*
X200575239Y-66222139D01*
X200630494Y-66139444D01*
X200630496Y-66139440D01*
X200644999Y-66066528D01*
X200645000Y-66066526D01*
X200645000Y-65891902D01*
X202587223Y-65891902D01*
X202606293Y-66109875D01*
X202606293Y-66109879D01*
X202662922Y-66321222D01*
X202662924Y-66321226D01*
X202662925Y-66321230D01*
X202709161Y-66420384D01*
X202755397Y-66519538D01*
X202755398Y-66519539D01*
X202880902Y-66698777D01*
X203035623Y-66853498D01*
X203214861Y-66979002D01*
X203413170Y-67071475D01*
X203624523Y-67128107D01*
X203807426Y-67144108D01*
X203842498Y-67147177D01*
X203842500Y-67147177D01*
X203842502Y-67147177D01*
X203870754Y-67144705D01*
X204060477Y-67128107D01*
X204271830Y-67071475D01*
X204470139Y-66979002D01*
X204649377Y-66853498D01*
X204804098Y-66698777D01*
X204929602Y-66519539D01*
X205022075Y-66321230D01*
X205078707Y-66109877D01*
X205097777Y-65891900D01*
X205078707Y-65673923D01*
X205022075Y-65462570D01*
X204929602Y-65264262D01*
X204929600Y-65264259D01*
X204929599Y-65264257D01*
X204804099Y-65085024D01*
X204736346Y-65017271D01*
X204649377Y-64930302D01*
X204472434Y-64806405D01*
X204470138Y-64804797D01*
X204370984Y-64758561D01*
X204271830Y-64712325D01*
X204271826Y-64712324D01*
X204271822Y-64712322D01*
X204060477Y-64655693D01*
X203902819Y-64641900D01*
X205252392Y-64641900D01*
X205270782Y-64840364D01*
X205270782Y-64840366D01*
X205270783Y-64840369D01*
X205321116Y-65017271D01*
X205325330Y-65032083D01*
X205414170Y-65210498D01*
X205414175Y-65210506D01*
X205534292Y-65369566D01*
X205636321Y-65462577D01*
X205681590Y-65503845D01*
X205851054Y-65608773D01*
X206036914Y-65680776D01*
X206232840Y-65717400D01*
X206232842Y-65717400D01*
X206432158Y-65717400D01*
X206432160Y-65717400D01*
X206628086Y-65680776D01*
X206813946Y-65608773D01*
X206983410Y-65503845D01*
X207130709Y-65369564D01*
X207250826Y-65210504D01*
X207339671Y-65032080D01*
X207394217Y-64840369D01*
X207412608Y-64641900D01*
X207394217Y-64443431D01*
X207339671Y-64251720D01*
X207338259Y-64248884D01*
X207250829Y-64073301D01*
X207250824Y-64073293D01*
X207130707Y-63914233D01*
X206983411Y-63779956D01*
X206983410Y-63779955D01*
X206918875Y-63739996D01*
X206813947Y-63675027D01*
X206813945Y-63675026D01*
X206731879Y-63643234D01*
X206628086Y-63603024D01*
X206628082Y-63603023D01*
X206549139Y-63588266D01*
X206432160Y-63566400D01*
X206232840Y-63566400D01*
X206142754Y-63583239D01*
X206036917Y-63603023D01*
X206036915Y-63603023D01*
X206036914Y-63603024D01*
X205985017Y-63623129D01*
X205851054Y-63675026D01*
X205851052Y-63675027D01*
X205681588Y-63779956D01*
X205534292Y-63914233D01*
X205414175Y-64073293D01*
X205414170Y-64073301D01*
X205325330Y-64251716D01*
X205270782Y-64443435D01*
X205252392Y-64641899D01*
X205252392Y-64641900D01*
X203902819Y-64641900D01*
X203842502Y-64636623D01*
X203842498Y-64636623D01*
X203697182Y-64649336D01*
X203624523Y-64655693D01*
X203624520Y-64655693D01*
X203413177Y-64712322D01*
X203413168Y-64712326D01*
X203214861Y-64804798D01*
X203214857Y-64804800D01*
X203035621Y-64930302D01*
X202880902Y-65085021D01*
X202755400Y-65264257D01*
X202755398Y-65264261D01*
X202662926Y-65462568D01*
X202662922Y-65462577D01*
X202606293Y-65673920D01*
X202606293Y-65673923D01*
X202602489Y-65717399D01*
X202587223Y-65891897D01*
X202587223Y-65891902D01*
X200645000Y-65891902D01*
X200645000Y-65666900D01*
X199670000Y-65666900D01*
X199420000Y-65666900D01*
X198445000Y-65666900D01*
X194345000Y-65666900D01*
X193370000Y-65666900D01*
X193120000Y-65666900D01*
X192145000Y-65666900D01*
X93445000Y-65666900D01*
X92470000Y-65666900D01*
X92220000Y-65666900D01*
X91245000Y-65666900D01*
X87145000Y-65666900D01*
X86170000Y-65666900D01*
X85920000Y-65666900D01*
X84945000Y-65666900D01*
X74095500Y-65666900D01*
X74095500Y-65416900D01*
X84945000Y-65416900D01*
X85920000Y-65416900D01*
X85920000Y-64791900D01*
X86170000Y-64791900D01*
X86170000Y-65416900D01*
X87145000Y-65416900D01*
X91245000Y-65416900D01*
X92220000Y-65416900D01*
X92220000Y-64791900D01*
X92470000Y-64791900D01*
X92470000Y-65416900D01*
X93445000Y-65416900D01*
X192145000Y-65416900D01*
X193120000Y-65416900D01*
X193120000Y-64791900D01*
X193370000Y-64791900D01*
X193370000Y-65416900D01*
X194345000Y-65416900D01*
X198445000Y-65416900D01*
X199420000Y-65416900D01*
X199420000Y-64791900D01*
X199670000Y-64791900D01*
X199670000Y-65416900D01*
X200645000Y-65416900D01*
X200645000Y-65017273D01*
X200644999Y-65017271D01*
X200630496Y-64944359D01*
X200630494Y-64944355D01*
X200575239Y-64861660D01*
X200492544Y-64806405D01*
X200492540Y-64806403D01*
X200419627Y-64791900D01*
X199670000Y-64791900D01*
X199420000Y-64791900D01*
X198670373Y-64791900D01*
X198597459Y-64806403D01*
X198597455Y-64806405D01*
X198514760Y-64861660D01*
X198459505Y-64944355D01*
X198459503Y-64944359D01*
X198445000Y-65017271D01*
X198445000Y-65416900D01*
X194345000Y-65416900D01*
X194345000Y-65017273D01*
X194344999Y-65017271D01*
X194330496Y-64944359D01*
X194330494Y-64944355D01*
X194275239Y-64861660D01*
X194192544Y-64806405D01*
X194192540Y-64806403D01*
X194119627Y-64791900D01*
X193370000Y-64791900D01*
X193120000Y-64791900D01*
X192370373Y-64791900D01*
X192297459Y-64806403D01*
X192297455Y-64806405D01*
X192214760Y-64861660D01*
X192159505Y-64944355D01*
X192159503Y-64944359D01*
X192145000Y-65017271D01*
X192145000Y-65416900D01*
X93445000Y-65416900D01*
X93445000Y-65017273D01*
X93444999Y-65017271D01*
X93430496Y-64944359D01*
X93430494Y-64944355D01*
X93375239Y-64861660D01*
X93292544Y-64806405D01*
X93292540Y-64806403D01*
X93219627Y-64791900D01*
X92470000Y-64791900D01*
X92220000Y-64791900D01*
X91470373Y-64791900D01*
X91397459Y-64806403D01*
X91397455Y-64806405D01*
X91314760Y-64861660D01*
X91259505Y-64944355D01*
X91259503Y-64944359D01*
X91245000Y-65017271D01*
X91245000Y-65416900D01*
X87145000Y-65416900D01*
X87145000Y-65017273D01*
X87144999Y-65017271D01*
X87130496Y-64944359D01*
X87130494Y-64944355D01*
X87075239Y-64861660D01*
X86992544Y-64806405D01*
X86992540Y-64806403D01*
X86919627Y-64791900D01*
X86170000Y-64791900D01*
X85920000Y-64791900D01*
X85170373Y-64791900D01*
X85097459Y-64806403D01*
X85097455Y-64806405D01*
X85014760Y-64861660D01*
X84959505Y-64944355D01*
X84959503Y-64944359D01*
X84945000Y-65017271D01*
X84945000Y-65416900D01*
X74095500Y-65416900D01*
X74095500Y-62261652D01*
X84994500Y-62261652D01*
X85006131Y-62320129D01*
X85006132Y-62320130D01*
X85050447Y-62386452D01*
X85116769Y-62430767D01*
X85116770Y-62430768D01*
X85175247Y-62442399D01*
X85175250Y-62442400D01*
X85175252Y-62442400D01*
X86914750Y-62442400D01*
X86914751Y-62442399D01*
X86929568Y-62439452D01*
X86973229Y-62430768D01*
X86973229Y-62430767D01*
X86973231Y-62430767D01*
X87039552Y-62386452D01*
X87083867Y-62320131D01*
X87083867Y-62320129D01*
X87083868Y-62320129D01*
X87095499Y-62261652D01*
X91294500Y-62261652D01*
X91306131Y-62320129D01*
X91306132Y-62320130D01*
X91350447Y-62386452D01*
X91416769Y-62430767D01*
X91416770Y-62430768D01*
X91475247Y-62442399D01*
X91475250Y-62442400D01*
X91475252Y-62442400D01*
X93214750Y-62442400D01*
X93214751Y-62442399D01*
X93229568Y-62439452D01*
X93273229Y-62430768D01*
X93273229Y-62430767D01*
X93273231Y-62430767D01*
X93339552Y-62386452D01*
X93383867Y-62320131D01*
X93383867Y-62320129D01*
X93383868Y-62320129D01*
X93395499Y-62261652D01*
X192194500Y-62261652D01*
X192206131Y-62320129D01*
X192206132Y-62320130D01*
X192250447Y-62386452D01*
X192316769Y-62430767D01*
X192316770Y-62430768D01*
X192375247Y-62442399D01*
X192375250Y-62442400D01*
X192375252Y-62442400D01*
X194114750Y-62442400D01*
X194114751Y-62442399D01*
X194129568Y-62439452D01*
X194173229Y-62430768D01*
X194173229Y-62430767D01*
X194173231Y-62430767D01*
X194239552Y-62386452D01*
X194283867Y-62320131D01*
X194283867Y-62320129D01*
X194283868Y-62320129D01*
X194295499Y-62261652D01*
X198494500Y-62261652D01*
X198506131Y-62320129D01*
X198506132Y-62320130D01*
X198550447Y-62386452D01*
X198616769Y-62430767D01*
X198616770Y-62430768D01*
X198675247Y-62442399D01*
X198675250Y-62442400D01*
X198675252Y-62442400D01*
X200414750Y-62442400D01*
X200414751Y-62442399D01*
X200429568Y-62439452D01*
X200473229Y-62430768D01*
X200473229Y-62430767D01*
X200473231Y-62430767D01*
X200539552Y-62386452D01*
X200583867Y-62320131D01*
X200583867Y-62320129D01*
X200583868Y-62320129D01*
X200595499Y-62261652D01*
X200595500Y-62261650D01*
X200595500Y-61222149D01*
X200595499Y-61222147D01*
X200583868Y-61163670D01*
X200583867Y-61163669D01*
X200539552Y-61097347D01*
X200473230Y-61053032D01*
X200473229Y-61053031D01*
X200414752Y-61041400D01*
X200414748Y-61041400D01*
X198675252Y-61041400D01*
X198675247Y-61041400D01*
X198616770Y-61053031D01*
X198616769Y-61053032D01*
X198550447Y-61097347D01*
X198506132Y-61163669D01*
X198506131Y-61163670D01*
X198494500Y-61222147D01*
X198494500Y-62261652D01*
X194295499Y-62261652D01*
X194295500Y-62261650D01*
X194295500Y-61222149D01*
X194295499Y-61222147D01*
X194283868Y-61163670D01*
X194283867Y-61163669D01*
X194239552Y-61097347D01*
X194173230Y-61053032D01*
X194173229Y-61053031D01*
X194114752Y-61041400D01*
X194114748Y-61041400D01*
X192375252Y-61041400D01*
X192375247Y-61041400D01*
X192316770Y-61053031D01*
X192316769Y-61053032D01*
X192250447Y-61097347D01*
X192206132Y-61163669D01*
X192206131Y-61163670D01*
X192194500Y-61222147D01*
X192194500Y-62261652D01*
X93395499Y-62261652D01*
X93395500Y-62261650D01*
X93395500Y-61222149D01*
X93395499Y-61222147D01*
X93383868Y-61163670D01*
X93383867Y-61163669D01*
X93339552Y-61097347D01*
X93273230Y-61053032D01*
X93273229Y-61053031D01*
X93214752Y-61041400D01*
X93214748Y-61041400D01*
X91475252Y-61041400D01*
X91475247Y-61041400D01*
X91416770Y-61053031D01*
X91416769Y-61053032D01*
X91350447Y-61097347D01*
X91306132Y-61163669D01*
X91306131Y-61163670D01*
X91294500Y-61222147D01*
X91294500Y-62261652D01*
X87095499Y-62261652D01*
X87095500Y-62261650D01*
X87095500Y-61222149D01*
X87095499Y-61222147D01*
X87083868Y-61163670D01*
X87083867Y-61163669D01*
X87039552Y-61097347D01*
X86973230Y-61053032D01*
X86973229Y-61053031D01*
X86914752Y-61041400D01*
X86914748Y-61041400D01*
X85175252Y-61041400D01*
X85175247Y-61041400D01*
X85116770Y-61053031D01*
X85116769Y-61053032D01*
X85050447Y-61097347D01*
X85006132Y-61163669D01*
X85006131Y-61163670D01*
X84994500Y-61222147D01*
X84994500Y-62261652D01*
X74095500Y-62261652D01*
X74095500Y-60141900D01*
X205202680Y-60141900D01*
X205221916Y-60349503D01*
X205221917Y-60349505D01*
X205278972Y-60550033D01*
X205278978Y-60550048D01*
X205371904Y-60736668D01*
X205371909Y-60736676D01*
X205453243Y-60844379D01*
X205905135Y-60392487D01*
X205954557Y-60469389D01*
X206062131Y-60562602D01*
X206080283Y-60570892D01*
X205628629Y-61022546D01*
X205651632Y-61043516D01*
X205828892Y-61153271D01*
X205828898Y-61153274D01*
X206023311Y-61228589D01*
X206228256Y-61266900D01*
X206436744Y-61266900D01*
X206641687Y-61228589D01*
X206641688Y-61228589D01*
X206836101Y-61153274D01*
X206836107Y-61153271D01*
X207013362Y-61043520D01*
X207013367Y-61043516D01*
X207036370Y-61022546D01*
X206584715Y-60570892D01*
X206602869Y-60562602D01*
X206710443Y-60469389D01*
X206759864Y-60392487D01*
X207211755Y-60844379D01*
X207293090Y-60736676D01*
X207293095Y-60736668D01*
X207386021Y-60550048D01*
X207386027Y-60550033D01*
X207443082Y-60349505D01*
X207443083Y-60349503D01*
X207462320Y-60141900D01*
X207462320Y-60141899D01*
X207443083Y-59934296D01*
X207443082Y-59934294D01*
X207386027Y-59733766D01*
X207386021Y-59733751D01*
X207293095Y-59547131D01*
X207293090Y-59547123D01*
X207211755Y-59439419D01*
X206759863Y-59891311D01*
X206710443Y-59814411D01*
X206602869Y-59721198D01*
X206584715Y-59712907D01*
X207036369Y-59261252D01*
X207036369Y-59261251D01*
X207013371Y-59240285D01*
X206836107Y-59130528D01*
X206836101Y-59130525D01*
X206641688Y-59055210D01*
X206436744Y-59016900D01*
X206228256Y-59016900D01*
X206023312Y-59055210D01*
X206023311Y-59055210D01*
X205828898Y-59130525D01*
X205828892Y-59130528D01*
X205651634Y-59240281D01*
X205651629Y-59240284D01*
X205628629Y-59261251D01*
X205628628Y-59261252D01*
X206080284Y-59712907D01*
X206062131Y-59721198D01*
X205954557Y-59814411D01*
X205905135Y-59891311D01*
X205453243Y-59439419D01*
X205371909Y-59547125D01*
X205371904Y-59547132D01*
X205278978Y-59733751D01*
X205278972Y-59733766D01*
X205221917Y-59934294D01*
X205221916Y-59934296D01*
X205202680Y-60141899D01*
X205202680Y-60141900D01*
X74095500Y-60141900D01*
X74095500Y-58881902D01*
X202587223Y-58881902D01*
X202606293Y-59099875D01*
X202606293Y-59099879D01*
X202662922Y-59311222D01*
X202662924Y-59311226D01*
X202662925Y-59311230D01*
X202709161Y-59410384D01*
X202755397Y-59509538D01*
X202755398Y-59509539D01*
X202880902Y-59688777D01*
X203035623Y-59843498D01*
X203214861Y-59969002D01*
X203413170Y-60061475D01*
X203624523Y-60118107D01*
X203807426Y-60134108D01*
X203842498Y-60137177D01*
X203842500Y-60137177D01*
X203842502Y-60137177D01*
X203870754Y-60134705D01*
X204060477Y-60118107D01*
X204271830Y-60061475D01*
X204470139Y-59969002D01*
X204649377Y-59843498D01*
X204804098Y-59688777D01*
X204929602Y-59509539D01*
X205022075Y-59311230D01*
X205078707Y-59099877D01*
X205097777Y-58881900D01*
X205078707Y-58663923D01*
X205022075Y-58452570D01*
X204929602Y-58254262D01*
X204929600Y-58254259D01*
X204929599Y-58254257D01*
X204804099Y-58075024D01*
X204804096Y-58075021D01*
X204649377Y-57920302D01*
X204470139Y-57794798D01*
X204470140Y-57794798D01*
X204470138Y-57794797D01*
X204370984Y-57748561D01*
X204271830Y-57702325D01*
X204271826Y-57702324D01*
X204271822Y-57702322D01*
X204060477Y-57645693D01*
X203842502Y-57626623D01*
X203842498Y-57626623D01*
X203697182Y-57639336D01*
X203624523Y-57645693D01*
X203624520Y-57645693D01*
X203413177Y-57702322D01*
X203413168Y-57702326D01*
X203214861Y-57794798D01*
X203214857Y-57794800D01*
X203035621Y-57920302D01*
X202880902Y-58075021D01*
X202755400Y-58254257D01*
X202755398Y-58254261D01*
X202662926Y-58452568D01*
X202662922Y-58452577D01*
X202606293Y-58663920D01*
X202606293Y-58663924D01*
X202587223Y-58881897D01*
X202587223Y-58881902D01*
X74095500Y-58881902D01*
X74095500Y-57341902D01*
X119290339Y-57341902D01*
X119294499Y-57351945D01*
X119306348Y-57380550D01*
X119306349Y-57380551D01*
X119345000Y-57396561D01*
X119358795Y-57396561D01*
X119379712Y-57392400D01*
X149310288Y-57392400D01*
X149331205Y-57396561D01*
X149345000Y-57396561D01*
X149383651Y-57380551D01*
X149387121Y-57372171D01*
X149395501Y-57351945D01*
X149399661Y-57341902D01*
X149399661Y-57328110D01*
X149395500Y-57307190D01*
X149395500Y-55686652D01*
X189344500Y-55686652D01*
X189356131Y-55745129D01*
X189356132Y-55745130D01*
X189400447Y-55811452D01*
X189466769Y-55855767D01*
X189466770Y-55855768D01*
X189525247Y-55867399D01*
X189525250Y-55867400D01*
X189525252Y-55867400D01*
X191264750Y-55867400D01*
X191264751Y-55867399D01*
X191279568Y-55864452D01*
X191323229Y-55855768D01*
X191323229Y-55855767D01*
X191323231Y-55855767D01*
X191389552Y-55811452D01*
X191433867Y-55745131D01*
X191433867Y-55745129D01*
X191433868Y-55745129D01*
X191445499Y-55686652D01*
X195644500Y-55686652D01*
X195656131Y-55745129D01*
X195656132Y-55745130D01*
X195700447Y-55811452D01*
X195766769Y-55855767D01*
X195766770Y-55855768D01*
X195825247Y-55867399D01*
X195825250Y-55867400D01*
X195825252Y-55867400D01*
X197564750Y-55867400D01*
X197564751Y-55867399D01*
X197579568Y-55864452D01*
X197623229Y-55855768D01*
X197623229Y-55855767D01*
X197623231Y-55855767D01*
X197689552Y-55811452D01*
X197733867Y-55745131D01*
X197733867Y-55745129D01*
X197733868Y-55745129D01*
X197745499Y-55686652D01*
X197745500Y-55686650D01*
X197745500Y-54647149D01*
X197745499Y-54647147D01*
X197733868Y-54588670D01*
X197733867Y-54588669D01*
X197689552Y-54522347D01*
X197623230Y-54478032D01*
X197623229Y-54478031D01*
X197564752Y-54466400D01*
X197564748Y-54466400D01*
X195825252Y-54466400D01*
X195825247Y-54466400D01*
X195766770Y-54478031D01*
X195766769Y-54478032D01*
X195700447Y-54522347D01*
X195656132Y-54588669D01*
X195656131Y-54588670D01*
X195644500Y-54647147D01*
X195644500Y-55686652D01*
X191445499Y-55686652D01*
X191445500Y-55686650D01*
X191445500Y-54647149D01*
X191445499Y-54647147D01*
X191433868Y-54588670D01*
X191433867Y-54588669D01*
X191389552Y-54522347D01*
X191323230Y-54478032D01*
X191323229Y-54478031D01*
X191264752Y-54466400D01*
X191264748Y-54466400D01*
X189525252Y-54466400D01*
X189525247Y-54466400D01*
X189466770Y-54478031D01*
X189466769Y-54478032D01*
X189400447Y-54522347D01*
X189356132Y-54588669D01*
X189356131Y-54588670D01*
X189344500Y-54647147D01*
X189344500Y-55686652D01*
X149395500Y-55686652D01*
X149395500Y-54876611D01*
X149399661Y-54855696D01*
X149399661Y-54841900D01*
X149383651Y-54803248D01*
X149355045Y-54791400D01*
X149345000Y-54787239D01*
X149331206Y-54787239D01*
X149310289Y-54791400D01*
X119379711Y-54791400D01*
X119358794Y-54787239D01*
X119345000Y-54787239D01*
X119334955Y-54791400D01*
X119306348Y-54803248D01*
X119290339Y-54841900D01*
X119290339Y-54855696D01*
X119294500Y-54876611D01*
X119294500Y-57307190D01*
X119290339Y-57328110D01*
X119290339Y-57341902D01*
X74095500Y-57341902D01*
X74095500Y-55691652D01*
X86844500Y-55691652D01*
X86856131Y-55750129D01*
X86856132Y-55750130D01*
X86900447Y-55816452D01*
X86966769Y-55860767D01*
X86966770Y-55860768D01*
X87025247Y-55872399D01*
X87025250Y-55872400D01*
X87025252Y-55872400D01*
X88764750Y-55872400D01*
X88764751Y-55872399D01*
X88789890Y-55867399D01*
X88823229Y-55860768D01*
X88823229Y-55860767D01*
X88823231Y-55860767D01*
X88889552Y-55816452D01*
X88933867Y-55750131D01*
X88933867Y-55750129D01*
X88933868Y-55750129D01*
X88945499Y-55691652D01*
X93144500Y-55691652D01*
X93156131Y-55750129D01*
X93156132Y-55750130D01*
X93200447Y-55816452D01*
X93266769Y-55860767D01*
X93266770Y-55860768D01*
X93325247Y-55872399D01*
X93325250Y-55872400D01*
X93325252Y-55872400D01*
X95064750Y-55872400D01*
X95064751Y-55872399D01*
X95089890Y-55867399D01*
X95123229Y-55860768D01*
X95123229Y-55860767D01*
X95123231Y-55860767D01*
X95189552Y-55816452D01*
X95233867Y-55750131D01*
X95233867Y-55750129D01*
X95233868Y-55750129D01*
X95245499Y-55691652D01*
X95245500Y-55691650D01*
X95245500Y-54652149D01*
X95245499Y-54652147D01*
X95233868Y-54593670D01*
X95233867Y-54593669D01*
X95189552Y-54527347D01*
X95123230Y-54483032D01*
X95123229Y-54483031D01*
X95064752Y-54471400D01*
X95064748Y-54471400D01*
X93325252Y-54471400D01*
X93325247Y-54471400D01*
X93266770Y-54483031D01*
X93266769Y-54483032D01*
X93200447Y-54527347D01*
X93156132Y-54593669D01*
X93156131Y-54593670D01*
X93144500Y-54652147D01*
X93144500Y-55691652D01*
X88945499Y-55691652D01*
X88945500Y-55691650D01*
X88945500Y-54652149D01*
X88945499Y-54652147D01*
X88933868Y-54593670D01*
X88933867Y-54593669D01*
X88889552Y-54527347D01*
X88823230Y-54483032D01*
X88823229Y-54483031D01*
X88764752Y-54471400D01*
X88764748Y-54471400D01*
X87025252Y-54471400D01*
X87025247Y-54471400D01*
X86966770Y-54483031D01*
X86966769Y-54483032D01*
X86900447Y-54527347D01*
X86856132Y-54593669D01*
X86856131Y-54593670D01*
X86844500Y-54652147D01*
X86844500Y-55691652D01*
X74095500Y-55691652D01*
X74095500Y-54266900D01*
X203034337Y-54266900D01*
X203039176Y-54309845D01*
X203094996Y-54469371D01*
X203184915Y-54612475D01*
X203304424Y-54731984D01*
X203447528Y-54821903D01*
X203607051Y-54877722D01*
X203650000Y-54882560D01*
X203650000Y-54445009D01*
X203662129Y-54452012D01*
X203746564Y-54466900D01*
X203803436Y-54466900D01*
X203887871Y-54452012D01*
X203900000Y-54445009D01*
X203900000Y-54882560D01*
X203942948Y-54877722D01*
X204102471Y-54821903D01*
X204245572Y-54731986D01*
X204355226Y-54622332D01*
X204416549Y-54588847D01*
X204486241Y-54593831D01*
X204525134Y-54617197D01*
X204641320Y-54720129D01*
X204644147Y-54722633D01*
X204644149Y-54722635D01*
X204767241Y-54787239D01*
X204794775Y-54801690D01*
X204959944Y-54842400D01*
X205130056Y-54842400D01*
X205295225Y-54801690D01*
X205413641Y-54739540D01*
X205445849Y-54722636D01*
X205445850Y-54722634D01*
X205445852Y-54722634D01*
X205573183Y-54609829D01*
X205577950Y-54602921D01*
X205632230Y-54558933D01*
X205701678Y-54551272D01*
X205764244Y-54582373D01*
X205782046Y-54602917D01*
X205786817Y-54609829D01*
X205872678Y-54685895D01*
X205914150Y-54722636D01*
X206037241Y-54787239D01*
X206064775Y-54801690D01*
X206229944Y-54842400D01*
X206400056Y-54842400D01*
X206565225Y-54801690D01*
X206683641Y-54739540D01*
X206715849Y-54722636D01*
X206715850Y-54722634D01*
X206715852Y-54722634D01*
X206723771Y-54715617D01*
X206787001Y-54685895D01*
X206856265Y-54695075D01*
X206909102Y-54739540D01*
X206940447Y-54786452D01*
X207006769Y-54830767D01*
X207006770Y-54830768D01*
X207065247Y-54842399D01*
X207065250Y-54842400D01*
X207065252Y-54842400D01*
X208104750Y-54842400D01*
X208104751Y-54842399D01*
X208119568Y-54839452D01*
X208163229Y-54830768D01*
X208163229Y-54830767D01*
X208163231Y-54830767D01*
X208229552Y-54786452D01*
X208273867Y-54720131D01*
X208273867Y-54720129D01*
X208273868Y-54720129D01*
X208285499Y-54661652D01*
X208285500Y-54661650D01*
X208285500Y-53622149D01*
X208285499Y-53622147D01*
X208273868Y-53563670D01*
X208273867Y-53563669D01*
X208229552Y-53497347D01*
X208163230Y-53453032D01*
X208163229Y-53453031D01*
X208104752Y-53441400D01*
X208104748Y-53441400D01*
X207065252Y-53441400D01*
X207065247Y-53441400D01*
X207006770Y-53453031D01*
X207006769Y-53453032D01*
X206940448Y-53497346D01*
X206909102Y-53544260D01*
X206855489Y-53589064D01*
X206786164Y-53597771D01*
X206723773Y-53568183D01*
X206715852Y-53561166D01*
X206715850Y-53561164D01*
X206565226Y-53482110D01*
X206400056Y-53441400D01*
X206229944Y-53441400D01*
X206064773Y-53482110D01*
X205914150Y-53561163D01*
X205786815Y-53673972D01*
X205782049Y-53680878D01*
X205727766Y-53724868D01*
X205658317Y-53732527D01*
X205595753Y-53701423D01*
X205577951Y-53680878D01*
X205573184Y-53673972D01*
X205445849Y-53561163D01*
X205295226Y-53482110D01*
X205130056Y-53441400D01*
X204959944Y-53441400D01*
X204794773Y-53482110D01*
X204644150Y-53561163D01*
X204525135Y-53666602D01*
X204461902Y-53696323D01*
X204392638Y-53687139D01*
X204355227Y-53661467D01*
X204245575Y-53551815D01*
X204102471Y-53461896D01*
X203942945Y-53406076D01*
X203900000Y-53401237D01*
X203900000Y-53838790D01*
X203887871Y-53831788D01*
X203803436Y-53816900D01*
X203746564Y-53816900D01*
X203662129Y-53831788D01*
X203650000Y-53838790D01*
X203650000Y-53401237D01*
X203649999Y-53401237D01*
X203607054Y-53406076D01*
X203447528Y-53461896D01*
X203304424Y-53551815D01*
X203184915Y-53671324D01*
X203094996Y-53814428D01*
X203039176Y-53973954D01*
X203034337Y-54016899D01*
X203034337Y-54016900D01*
X203474638Y-54016900D01*
X203450000Y-54084594D01*
X203450000Y-54199206D01*
X203474638Y-54266900D01*
X203034337Y-54266900D01*
X74095500Y-54266900D01*
X74095500Y-51496900D01*
X86795000Y-51496900D01*
X86795000Y-51896528D01*
X86809503Y-51969440D01*
X86809505Y-51969444D01*
X86864760Y-52052139D01*
X86947455Y-52107394D01*
X86947459Y-52107396D01*
X87020371Y-52121899D01*
X87020374Y-52121900D01*
X87770000Y-52121900D01*
X87770000Y-51496900D01*
X88020000Y-51496900D01*
X88020000Y-52121900D01*
X88769626Y-52121900D01*
X88769628Y-52121899D01*
X88842540Y-52107396D01*
X88842544Y-52107394D01*
X88925239Y-52052139D01*
X88980494Y-51969444D01*
X88980496Y-51969440D01*
X88994999Y-51896528D01*
X88995000Y-51896526D01*
X88995000Y-51496900D01*
X93095000Y-51496900D01*
X93095000Y-51896528D01*
X93109503Y-51969440D01*
X93109505Y-51969444D01*
X93164760Y-52052139D01*
X93247455Y-52107394D01*
X93247459Y-52107396D01*
X93320371Y-52121899D01*
X93320374Y-52121900D01*
X94070000Y-52121900D01*
X94070000Y-51496900D01*
X94320000Y-51496900D01*
X94320000Y-52121900D01*
X95069626Y-52121900D01*
X95069628Y-52121899D01*
X95142540Y-52107396D01*
X95142544Y-52107394D01*
X95225239Y-52052139D01*
X95280494Y-51969444D01*
X95280496Y-51969440D01*
X95294999Y-51896528D01*
X95295000Y-51896526D01*
X95295000Y-51731254D01*
X103594500Y-51731254D01*
X103594501Y-51731270D01*
X103609955Y-51848660D01*
X103609956Y-51848662D01*
X103659985Y-51969444D01*
X103670464Y-51994741D01*
X103766718Y-52120182D01*
X103892159Y-52216436D01*
X104038238Y-52276944D01*
X104116619Y-52287263D01*
X104194999Y-52297582D01*
X104195000Y-52297582D01*
X104195001Y-52297582D01*
X104247254Y-52290702D01*
X104351762Y-52276944D01*
X104497841Y-52216436D01*
X104623282Y-52120182D01*
X104719536Y-51994741D01*
X104719535Y-51994741D01*
X104721624Y-51992020D01*
X104778052Y-51950817D01*
X104847798Y-51946662D01*
X104908718Y-51980874D01*
X104918376Y-51992020D01*
X105014199Y-52116900D01*
X105016718Y-52120182D01*
X105142159Y-52216436D01*
X105288238Y-52276944D01*
X105366619Y-52287263D01*
X105444999Y-52297582D01*
X105445000Y-52297582D01*
X105445001Y-52297582D01*
X105497254Y-52290702D01*
X105601762Y-52276944D01*
X105747841Y-52216436D01*
X105873282Y-52120182D01*
X105890682Y-52097505D01*
X105947106Y-52056305D01*
X106016852Y-52052149D01*
X106077773Y-52086360D01*
X106088826Y-52099359D01*
X106173207Y-52213692D01*
X106282354Y-52294246D01*
X106410397Y-52339049D01*
X106440778Y-52341898D01*
X106440806Y-52341899D01*
X106569999Y-52341899D01*
X106570000Y-52341898D01*
X106570000Y-51659050D01*
X106597455Y-51677395D01*
X106670376Y-51691900D01*
X106719624Y-51691900D01*
X106792545Y-51677395D01*
X106820000Y-51659050D01*
X106820000Y-52341899D01*
X106949196Y-52341899D01*
X106979606Y-52339048D01*
X107107645Y-52294246D01*
X107216792Y-52213692D01*
X107297346Y-52104545D01*
X107342149Y-51976504D01*
X107342149Y-51976500D01*
X107345000Y-51946106D01*
X107345000Y-51566900D01*
X106912150Y-51566900D01*
X106930495Y-51539445D01*
X106939952Y-51491900D01*
X189295000Y-51491900D01*
X189295000Y-51891528D01*
X189309503Y-51964440D01*
X189309505Y-51964444D01*
X189364760Y-52047139D01*
X189447455Y-52102394D01*
X189447459Y-52102396D01*
X189520371Y-52116899D01*
X189520374Y-52116900D01*
X190270000Y-52116900D01*
X190270000Y-51491900D01*
X190520000Y-51491900D01*
X190520000Y-52116900D01*
X191269626Y-52116900D01*
X191269628Y-52116899D01*
X191342540Y-52102396D01*
X191342544Y-52102394D01*
X191425239Y-52047139D01*
X191480494Y-51964444D01*
X191480496Y-51964440D01*
X191494999Y-51891528D01*
X191495000Y-51891526D01*
X191495000Y-51491900D01*
X195595000Y-51491900D01*
X195595000Y-51891528D01*
X195609503Y-51964440D01*
X195609505Y-51964444D01*
X195664760Y-52047139D01*
X195747455Y-52102394D01*
X195747459Y-52102396D01*
X195820371Y-52116899D01*
X195820374Y-52116900D01*
X196570000Y-52116900D01*
X196570000Y-51491900D01*
X196820000Y-51491900D01*
X196820000Y-52116900D01*
X197569626Y-52116900D01*
X197569628Y-52116899D01*
X197642540Y-52102396D01*
X197642544Y-52102394D01*
X197725239Y-52047139D01*
X197780494Y-51964444D01*
X197780496Y-51964440D01*
X197794999Y-51891528D01*
X197795000Y-51891526D01*
X197795000Y-51491900D01*
X196820000Y-51491900D01*
X196570000Y-51491900D01*
X195595000Y-51491900D01*
X191495000Y-51491900D01*
X190520000Y-51491900D01*
X190270000Y-51491900D01*
X189295000Y-51491900D01*
X106939952Y-51491900D01*
X106949898Y-51441900D01*
X106930495Y-51344355D01*
X106912150Y-51316900D01*
X107344999Y-51316900D01*
X107344999Y-51241900D01*
X189295000Y-51241900D01*
X190270000Y-51241900D01*
X190270000Y-50616900D01*
X190520000Y-50616900D01*
X190520000Y-51241900D01*
X191495000Y-51241900D01*
X195595000Y-51241900D01*
X196570000Y-51241900D01*
X196570000Y-50616900D01*
X196820000Y-50616900D01*
X196820000Y-51241900D01*
X197795000Y-51241900D01*
X197795000Y-50842273D01*
X197794999Y-50842271D01*
X197780496Y-50769359D01*
X197780494Y-50769355D01*
X197725239Y-50686660D01*
X197642544Y-50631405D01*
X197642540Y-50631403D01*
X197569627Y-50616900D01*
X196820000Y-50616900D01*
X196570000Y-50616900D01*
X195820373Y-50616900D01*
X195747459Y-50631403D01*
X195747455Y-50631405D01*
X195664760Y-50686660D01*
X195609505Y-50769355D01*
X195609503Y-50769359D01*
X195595000Y-50842271D01*
X195595000Y-51241900D01*
X191495000Y-51241900D01*
X191495000Y-50842273D01*
X191494999Y-50842271D01*
X191480496Y-50769359D01*
X191480494Y-50769355D01*
X191425239Y-50686660D01*
X191342544Y-50631405D01*
X191342540Y-50631403D01*
X191269627Y-50616900D01*
X190520000Y-50616900D01*
X190270000Y-50616900D01*
X189520373Y-50616900D01*
X189447459Y-50631403D01*
X189447455Y-50631405D01*
X189364760Y-50686660D01*
X189309505Y-50769355D01*
X189309503Y-50769359D01*
X189295000Y-50842271D01*
X189295000Y-51241900D01*
X107344999Y-51241900D01*
X107344999Y-50937703D01*
X107342148Y-50907293D01*
X107297346Y-50779254D01*
X107216792Y-50670107D01*
X107107645Y-50589553D01*
X106979602Y-50544750D01*
X106949207Y-50541900D01*
X106820000Y-50541900D01*
X106820000Y-51224749D01*
X106792545Y-51206405D01*
X106719624Y-51191900D01*
X106670376Y-51191900D01*
X106597455Y-51206405D01*
X106570000Y-51224749D01*
X106570000Y-50541900D01*
X106440804Y-50541900D01*
X106410393Y-50544751D01*
X106282354Y-50589553D01*
X106173207Y-50670107D01*
X106088826Y-50784440D01*
X106033178Y-50826691D01*
X105963522Y-50832149D01*
X105901973Y-50799081D01*
X105890680Y-50786292D01*
X105873283Y-50763619D01*
X105779504Y-50691660D01*
X105747841Y-50667364D01*
X105673099Y-50636405D01*
X105601762Y-50606856D01*
X105601760Y-50606855D01*
X105445001Y-50586218D01*
X105444999Y-50586218D01*
X105288239Y-50606855D01*
X105288237Y-50606856D01*
X105142160Y-50667363D01*
X105016718Y-50763618D01*
X104918376Y-50891780D01*
X104861947Y-50932982D01*
X104792201Y-50937137D01*
X104731281Y-50902924D01*
X104721624Y-50891780D01*
X104711957Y-50879182D01*
X104623282Y-50763618D01*
X104497841Y-50667364D01*
X104423099Y-50636405D01*
X104351762Y-50606856D01*
X104351760Y-50606855D01*
X104195001Y-50586218D01*
X104194999Y-50586218D01*
X104038239Y-50606855D01*
X104038237Y-50606856D01*
X103892160Y-50667363D01*
X103766718Y-50763618D01*
X103670463Y-50889060D01*
X103609956Y-51035137D01*
X103609955Y-51035139D01*
X103594501Y-51152529D01*
X103594500Y-51152545D01*
X103594500Y-51731254D01*
X95295000Y-51731254D01*
X95295000Y-51496900D01*
X94320000Y-51496900D01*
X94070000Y-51496900D01*
X93095000Y-51496900D01*
X88995000Y-51496900D01*
X88020000Y-51496900D01*
X87770000Y-51496900D01*
X86795000Y-51496900D01*
X74095500Y-51496900D01*
X74095500Y-51246900D01*
X86795000Y-51246900D01*
X87770000Y-51246900D01*
X87770000Y-50621900D01*
X88020000Y-50621900D01*
X88020000Y-51246900D01*
X88995000Y-51246900D01*
X93095000Y-51246900D01*
X94070000Y-51246900D01*
X94070000Y-50621900D01*
X94320000Y-50621900D01*
X94320000Y-51246900D01*
X95295000Y-51246900D01*
X95295000Y-50847273D01*
X95294999Y-50847271D01*
X95280496Y-50774359D01*
X95280494Y-50774355D01*
X95225239Y-50691660D01*
X95142544Y-50636405D01*
X95142540Y-50636403D01*
X95069627Y-50621900D01*
X94320000Y-50621900D01*
X94070000Y-50621900D01*
X93320373Y-50621900D01*
X93247459Y-50636403D01*
X93247455Y-50636405D01*
X93164760Y-50691660D01*
X93109505Y-50774355D01*
X93109503Y-50774359D01*
X93095000Y-50847271D01*
X93095000Y-51246900D01*
X88995000Y-51246900D01*
X88995000Y-50847273D01*
X88994999Y-50847271D01*
X88980496Y-50774359D01*
X88980494Y-50774355D01*
X88925239Y-50691660D01*
X88842544Y-50636405D01*
X88842540Y-50636403D01*
X88769627Y-50621900D01*
X88020000Y-50621900D01*
X87770000Y-50621900D01*
X87020373Y-50621900D01*
X86947459Y-50636403D01*
X86947455Y-50636405D01*
X86864760Y-50691660D01*
X86809505Y-50774355D01*
X86809503Y-50774359D01*
X86795000Y-50847271D01*
X86795000Y-51246900D01*
X74095500Y-51246900D01*
X74095500Y-47141900D01*
X87289723Y-47141900D01*
X87308793Y-47359875D01*
X87308793Y-47359879D01*
X87365422Y-47571222D01*
X87365424Y-47571226D01*
X87365425Y-47571230D01*
X87411661Y-47670384D01*
X87457897Y-47769538D01*
X87457898Y-47769539D01*
X87583402Y-47948777D01*
X87738123Y-48103498D01*
X87917361Y-48229002D01*
X88115670Y-48321475D01*
X88327023Y-48378107D01*
X88509926Y-48394108D01*
X88544998Y-48397177D01*
X88545000Y-48397177D01*
X88545002Y-48397177D01*
X88573254Y-48394705D01*
X88762977Y-48378107D01*
X88974330Y-48321475D01*
X89172639Y-48229002D01*
X89351877Y-48103498D01*
X89506598Y-47948777D01*
X89632102Y-47769539D01*
X89724575Y-47571230D01*
X89781207Y-47359877D01*
X89800277Y-47141900D01*
X94299723Y-47141900D01*
X94318793Y-47359875D01*
X94318793Y-47359879D01*
X94375422Y-47571222D01*
X94375424Y-47571226D01*
X94375425Y-47571230D01*
X94421661Y-47670384D01*
X94467897Y-47769538D01*
X94467898Y-47769539D01*
X94593402Y-47948777D01*
X94748123Y-48103498D01*
X94927361Y-48229002D01*
X95125670Y-48321475D01*
X95337023Y-48378107D01*
X95519926Y-48394108D01*
X95554998Y-48397177D01*
X95555000Y-48397177D01*
X95555002Y-48397177D01*
X95583254Y-48394705D01*
X95772977Y-48378107D01*
X95984330Y-48321475D01*
X96182639Y-48229002D01*
X96361877Y-48103498D01*
X96516598Y-47948777D01*
X96642102Y-47769539D01*
X96734575Y-47571230D01*
X96791207Y-47359877D01*
X96810277Y-47141900D01*
X188779723Y-47141900D01*
X188798793Y-47359875D01*
X188798793Y-47359879D01*
X188855422Y-47571222D01*
X188855424Y-47571226D01*
X188855425Y-47571230D01*
X188901661Y-47670384D01*
X188947897Y-47769538D01*
X188947898Y-47769539D01*
X189073402Y-47948777D01*
X189228123Y-48103498D01*
X189407361Y-48229002D01*
X189605670Y-48321475D01*
X189817023Y-48378107D01*
X189999926Y-48394108D01*
X190034998Y-48397177D01*
X190035000Y-48397177D01*
X190035002Y-48397177D01*
X190063254Y-48394705D01*
X190252977Y-48378107D01*
X190464330Y-48321475D01*
X190662639Y-48229002D01*
X190841877Y-48103498D01*
X190996598Y-47948777D01*
X191122102Y-47769539D01*
X191214575Y-47571230D01*
X191271207Y-47359877D01*
X191290277Y-47141900D01*
X195789723Y-47141900D01*
X195808793Y-47359875D01*
X195808793Y-47359879D01*
X195865422Y-47571222D01*
X195865424Y-47571226D01*
X195865425Y-47571230D01*
X195911661Y-47670384D01*
X195957897Y-47769538D01*
X195957898Y-47769539D01*
X196083402Y-47948777D01*
X196238123Y-48103498D01*
X196417361Y-48229002D01*
X196615670Y-48321475D01*
X196827023Y-48378107D01*
X197009926Y-48394108D01*
X197044998Y-48397177D01*
X197045000Y-48397177D01*
X197045002Y-48397177D01*
X197073254Y-48394705D01*
X197262977Y-48378107D01*
X197474330Y-48321475D01*
X197672639Y-48229002D01*
X197851877Y-48103498D01*
X198006598Y-47948777D01*
X198132102Y-47769539D01*
X198224575Y-47571230D01*
X198281207Y-47359877D01*
X198300277Y-47141900D01*
X198281207Y-46923923D01*
X198224575Y-46712570D01*
X198132102Y-46514262D01*
X198132100Y-46514259D01*
X198132099Y-46514257D01*
X198006599Y-46335024D01*
X197943848Y-46272273D01*
X197851877Y-46180302D01*
X197709268Y-46080446D01*
X197672638Y-46054797D01*
X197539062Y-45992510D01*
X197474330Y-45962325D01*
X197474326Y-45962324D01*
X197474322Y-45962322D01*
X197262977Y-45905693D01*
X197045002Y-45886623D01*
X197044998Y-45886623D01*
X196899682Y-45899336D01*
X196827023Y-45905693D01*
X196827020Y-45905693D01*
X196615677Y-45962322D01*
X196615668Y-45962326D01*
X196417361Y-46054798D01*
X196417357Y-46054800D01*
X196238121Y-46180302D01*
X196083402Y-46335021D01*
X195957900Y-46514257D01*
X195957898Y-46514261D01*
X195865426Y-46712568D01*
X195865422Y-46712577D01*
X195808793Y-46923920D01*
X195808793Y-46923924D01*
X195789723Y-47141897D01*
X195789723Y-47141900D01*
X191290277Y-47141900D01*
X191271207Y-46923923D01*
X191214575Y-46712570D01*
X191122102Y-46514262D01*
X191122100Y-46514259D01*
X191122099Y-46514257D01*
X190996599Y-46335024D01*
X190933848Y-46272273D01*
X190841877Y-46180302D01*
X190699268Y-46080446D01*
X190662638Y-46054797D01*
X190529062Y-45992510D01*
X190464330Y-45962325D01*
X190464326Y-45962324D01*
X190464322Y-45962322D01*
X190252977Y-45905693D01*
X190035002Y-45886623D01*
X190034998Y-45886623D01*
X189889682Y-45899336D01*
X189817023Y-45905693D01*
X189817020Y-45905693D01*
X189605677Y-45962322D01*
X189605668Y-45962326D01*
X189407361Y-46054798D01*
X189407357Y-46054800D01*
X189228121Y-46180302D01*
X189073402Y-46335021D01*
X188947900Y-46514257D01*
X188947898Y-46514261D01*
X188855426Y-46712568D01*
X188855422Y-46712577D01*
X188798793Y-46923920D01*
X188798793Y-46923924D01*
X188779723Y-47141897D01*
X188779723Y-47141900D01*
X96810277Y-47141900D01*
X96791207Y-46923923D01*
X96734575Y-46712570D01*
X96642102Y-46514262D01*
X96642100Y-46514259D01*
X96642099Y-46514257D01*
X96516599Y-46335024D01*
X96453848Y-46272273D01*
X96361877Y-46180302D01*
X96219268Y-46080446D01*
X96182638Y-46054797D01*
X96049062Y-45992510D01*
X95984330Y-45962325D01*
X95984326Y-45962324D01*
X95984322Y-45962322D01*
X95772977Y-45905693D01*
X95555002Y-45886623D01*
X95554998Y-45886623D01*
X95409682Y-45899336D01*
X95337023Y-45905693D01*
X95337020Y-45905693D01*
X95125677Y-45962322D01*
X95125668Y-45962326D01*
X94927361Y-46054798D01*
X94927357Y-46054800D01*
X94748121Y-46180302D01*
X94593402Y-46335021D01*
X94467900Y-46514257D01*
X94467898Y-46514261D01*
X94375426Y-46712568D01*
X94375422Y-46712577D01*
X94318793Y-46923920D01*
X94318793Y-46923924D01*
X94299723Y-47141897D01*
X94299723Y-47141900D01*
X89800277Y-47141900D01*
X89781207Y-46923923D01*
X89724575Y-46712570D01*
X89632102Y-46514262D01*
X89632100Y-46514259D01*
X89632099Y-46514257D01*
X89506599Y-46335024D01*
X89443848Y-46272273D01*
X89351877Y-46180302D01*
X89209268Y-46080446D01*
X89172638Y-46054797D01*
X89039062Y-45992510D01*
X88974330Y-45962325D01*
X88974326Y-45962324D01*
X88974322Y-45962322D01*
X88762977Y-45905693D01*
X88545002Y-45886623D01*
X88544998Y-45886623D01*
X88399682Y-45899336D01*
X88327023Y-45905693D01*
X88327020Y-45905693D01*
X88115677Y-45962322D01*
X88115668Y-45962326D01*
X87917361Y-46054798D01*
X87917357Y-46054800D01*
X87738121Y-46180302D01*
X87583402Y-46335021D01*
X87457900Y-46514257D01*
X87457898Y-46514261D01*
X87365426Y-46712568D01*
X87365422Y-46712577D01*
X87308793Y-46923920D01*
X87308793Y-46923924D01*
X87289723Y-47141897D01*
X87289723Y-47141900D01*
X74095500Y-47141900D01*
X74114401Y-46612659D01*
X74114716Y-46608263D01*
X74171090Y-46083908D01*
X74171714Y-46079566D01*
X74216636Y-45830577D01*
X100395000Y-45830577D01*
X100410248Y-45961039D01*
X100470212Y-46125789D01*
X100566556Y-46272273D01*
X100694078Y-46392585D01*
X100845916Y-46480248D01*
X101013880Y-46530534D01*
X101020000Y-46530890D01*
X101020000Y-46063241D01*
X101116840Y-46090795D01*
X101228521Y-46080446D01*
X101270000Y-46059791D01*
X101270000Y-46526428D01*
X101361563Y-46510284D01*
X101522554Y-46440840D01*
X101663185Y-46336143D01*
X101775881Y-46201838D01*
X101775882Y-46201836D01*
X101854566Y-46045164D01*
X101895000Y-45874560D01*
X101895000Y-45830577D01*
X109035000Y-45830577D01*
X109050248Y-45961039D01*
X109110212Y-46125789D01*
X109206556Y-46272273D01*
X109334078Y-46392585D01*
X109485916Y-46480248D01*
X109653880Y-46530534D01*
X109660000Y-46530890D01*
X109660000Y-46063241D01*
X109756840Y-46090795D01*
X109868521Y-46080446D01*
X109910000Y-46059791D01*
X109910000Y-46526428D01*
X110001563Y-46510284D01*
X110162554Y-46440840D01*
X110303185Y-46336143D01*
X110415881Y-46201838D01*
X110415882Y-46201836D01*
X110494566Y-46045164D01*
X110535000Y-45874560D01*
X110535000Y-45361900D01*
X110085000Y-45361900D01*
X110085000Y-45111900D01*
X110535000Y-45111900D01*
X110535000Y-44651900D01*
X190165180Y-44651900D01*
X190184416Y-44859503D01*
X190184417Y-44859505D01*
X190241472Y-45060033D01*
X190241478Y-45060048D01*
X190334404Y-45246668D01*
X190334409Y-45246676D01*
X190415743Y-45354379D01*
X190867635Y-44902487D01*
X190917057Y-44979389D01*
X191024631Y-45072602D01*
X191042783Y-45080892D01*
X190591129Y-45532546D01*
X190614132Y-45553516D01*
X190791392Y-45663271D01*
X190791398Y-45663274D01*
X190985811Y-45738589D01*
X191190756Y-45776900D01*
X191399244Y-45776900D01*
X191604187Y-45738589D01*
X191604188Y-45738589D01*
X191798601Y-45663274D01*
X191798607Y-45663271D01*
X191975862Y-45553520D01*
X191975867Y-45553516D01*
X191998870Y-45532546D01*
X191547215Y-45080892D01*
X191565369Y-45072602D01*
X191672943Y-44979389D01*
X191722364Y-44902487D01*
X192174255Y-45354379D01*
X192255590Y-45246676D01*
X192255595Y-45246668D01*
X192348521Y-45060048D01*
X192348527Y-45060033D01*
X192405582Y-44859505D01*
X192405583Y-44859503D01*
X192424820Y-44651900D01*
X194714892Y-44651900D01*
X194733282Y-44850364D01*
X194733282Y-44850366D01*
X194733283Y-44850369D01*
X194769992Y-44979389D01*
X194787830Y-45042083D01*
X194876670Y-45220498D01*
X194876675Y-45220506D01*
X194996792Y-45379566D01*
X195123508Y-45495082D01*
X195144090Y-45513845D01*
X195313554Y-45618773D01*
X195499414Y-45690776D01*
X195695340Y-45727400D01*
X195695342Y-45727400D01*
X195894658Y-45727400D01*
X195894660Y-45727400D01*
X196090586Y-45690776D01*
X196276446Y-45618773D01*
X196445910Y-45513845D01*
X196593209Y-45379564D01*
X196713326Y-45220504D01*
X196802171Y-45042080D01*
X196856717Y-44850369D01*
X196875108Y-44651900D01*
X196856717Y-44453431D01*
X196802171Y-44261720D01*
X196793231Y-44243766D01*
X196713329Y-44083301D01*
X196713324Y-44083293D01*
X196593207Y-43924233D01*
X196445911Y-43789956D01*
X196445910Y-43789955D01*
X196381375Y-43749996D01*
X196276447Y-43685027D01*
X196276445Y-43685026D01*
X196194379Y-43653234D01*
X196090586Y-43613024D01*
X196090582Y-43613023D01*
X196011639Y-43598266D01*
X195894660Y-43576400D01*
X195695340Y-43576400D01*
X195605254Y-43593239D01*
X195499417Y-43613023D01*
X195499415Y-43613023D01*
X195499414Y-43613024D01*
X195447517Y-43633129D01*
X195313554Y-43685026D01*
X195313552Y-43685027D01*
X195144088Y-43789956D01*
X194996792Y-43924233D01*
X194876675Y-44083293D01*
X194876670Y-44083301D01*
X194787830Y-44261716D01*
X194733282Y-44453435D01*
X194714892Y-44651899D01*
X194714892Y-44651900D01*
X192424820Y-44651900D01*
X192424820Y-44651899D01*
X192405583Y-44444296D01*
X192405582Y-44444294D01*
X192348527Y-44243766D01*
X192348521Y-44243751D01*
X192255595Y-44057131D01*
X192255590Y-44057123D01*
X192174255Y-43949419D01*
X191722363Y-44401311D01*
X191672943Y-44324411D01*
X191565369Y-44231198D01*
X191547215Y-44222907D01*
X191998869Y-43771252D01*
X191998869Y-43771251D01*
X191975871Y-43750285D01*
X191798607Y-43640528D01*
X191798601Y-43640525D01*
X191604188Y-43565210D01*
X191399244Y-43526900D01*
X191190756Y-43526900D01*
X190985812Y-43565210D01*
X190985811Y-43565210D01*
X190791398Y-43640525D01*
X190791392Y-43640528D01*
X190614134Y-43750281D01*
X190614129Y-43750284D01*
X190591129Y-43771251D01*
X190591128Y-43771252D01*
X191042784Y-44222907D01*
X191024631Y-44231198D01*
X190917057Y-44324411D01*
X190867635Y-44401311D01*
X190415743Y-43949419D01*
X190334409Y-44057125D01*
X190334404Y-44057132D01*
X190241478Y-44243751D01*
X190241472Y-44243766D01*
X190184417Y-44444294D01*
X190184416Y-44444296D01*
X190165180Y-44651899D01*
X190165180Y-44651900D01*
X110535000Y-44651900D01*
X110535000Y-44643223D01*
X110534999Y-44643222D01*
X110519751Y-44512760D01*
X110459787Y-44348010D01*
X110363443Y-44201526D01*
X110235921Y-44081214D01*
X110084084Y-43993551D01*
X109916118Y-43943265D01*
X109910001Y-43942908D01*
X109910000Y-43942910D01*
X109910000Y-44410558D01*
X109813160Y-44383005D01*
X109701479Y-44393354D01*
X109660000Y-44414008D01*
X109660000Y-43947370D01*
X109659999Y-43947370D01*
X109568434Y-43963515D01*
X109407445Y-44032959D01*
X109266814Y-44137656D01*
X109154118Y-44271961D01*
X109154117Y-44271963D01*
X109075433Y-44428635D01*
X109035000Y-44599239D01*
X109035000Y-45111900D01*
X109485000Y-45111900D01*
X109485000Y-45361900D01*
X109035000Y-45361900D01*
X109035000Y-45830577D01*
X101895000Y-45830577D01*
X101895000Y-45361900D01*
X101445000Y-45361900D01*
X101445000Y-45111900D01*
X101895000Y-45111900D01*
X101895000Y-44643223D01*
X101894999Y-44643222D01*
X101879751Y-44512760D01*
X101819787Y-44348010D01*
X101723443Y-44201526D01*
X101595921Y-44081214D01*
X101444084Y-43993551D01*
X101276118Y-43943265D01*
X101270001Y-43942908D01*
X101270000Y-43942910D01*
X101270000Y-44410558D01*
X101173160Y-44383005D01*
X101061479Y-44393354D01*
X101020000Y-44414008D01*
X101020000Y-43947370D01*
X101019999Y-43947370D01*
X100928434Y-43963515D01*
X100767445Y-44032959D01*
X100626814Y-44137656D01*
X100514118Y-44271961D01*
X100514117Y-44271963D01*
X100435433Y-44428635D01*
X100395000Y-44599239D01*
X100395000Y-45111900D01*
X100845000Y-45111900D01*
X100845000Y-45361900D01*
X100395000Y-45361900D01*
X100395000Y-45830577D01*
X74216636Y-45830577D01*
X74265356Y-45560542D01*
X74266283Y-45556282D01*
X74396716Y-45045249D01*
X74397952Y-45041043D01*
X74527471Y-44651900D01*
X88675180Y-44651900D01*
X88694416Y-44859503D01*
X88694417Y-44859505D01*
X88751472Y-45060033D01*
X88751478Y-45060048D01*
X88844404Y-45246668D01*
X88844409Y-45246676D01*
X88925743Y-45354379D01*
X89377635Y-44902487D01*
X89427057Y-44979389D01*
X89534631Y-45072602D01*
X89552783Y-45080892D01*
X89101129Y-45532546D01*
X89124132Y-45553516D01*
X89301392Y-45663271D01*
X89301398Y-45663274D01*
X89495811Y-45738589D01*
X89700756Y-45776900D01*
X89909244Y-45776900D01*
X90114187Y-45738589D01*
X90114188Y-45738589D01*
X90308601Y-45663274D01*
X90308607Y-45663271D01*
X90485862Y-45553520D01*
X90485867Y-45553516D01*
X90508870Y-45532546D01*
X90057215Y-45080892D01*
X90075369Y-45072602D01*
X90182943Y-44979389D01*
X90232364Y-44902487D01*
X90684255Y-45354379D01*
X90765590Y-45246676D01*
X90765595Y-45246668D01*
X90858521Y-45060048D01*
X90858527Y-45060033D01*
X90915582Y-44859505D01*
X90915583Y-44859503D01*
X90934820Y-44651900D01*
X93224892Y-44651900D01*
X93243282Y-44850364D01*
X93243282Y-44850366D01*
X93243283Y-44850369D01*
X93279992Y-44979389D01*
X93297830Y-45042083D01*
X93386670Y-45220498D01*
X93386675Y-45220506D01*
X93506792Y-45379566D01*
X93633508Y-45495082D01*
X93654090Y-45513845D01*
X93823554Y-45618773D01*
X94009414Y-45690776D01*
X94205340Y-45727400D01*
X94205342Y-45727400D01*
X94404658Y-45727400D01*
X94404660Y-45727400D01*
X94600586Y-45690776D01*
X94786446Y-45618773D01*
X94955910Y-45513845D01*
X95103209Y-45379564D01*
X95223326Y-45220504D01*
X95312171Y-45042080D01*
X95366717Y-44850369D01*
X95385108Y-44651900D01*
X95366717Y-44453431D01*
X95312171Y-44261720D01*
X95303231Y-44243766D01*
X95223329Y-44083301D01*
X95223324Y-44083293D01*
X95103207Y-43924233D01*
X94955911Y-43789956D01*
X94955910Y-43789955D01*
X94891375Y-43749996D01*
X94786447Y-43685027D01*
X94786445Y-43685026D01*
X94704379Y-43653234D01*
X94600586Y-43613024D01*
X94600582Y-43613023D01*
X94521639Y-43598266D01*
X94404660Y-43576400D01*
X94205340Y-43576400D01*
X94115254Y-43593239D01*
X94009417Y-43613023D01*
X94009415Y-43613023D01*
X94009414Y-43613024D01*
X93957517Y-43633129D01*
X93823554Y-43685026D01*
X93823552Y-43685027D01*
X93654088Y-43789956D01*
X93506792Y-43924233D01*
X93386675Y-44083293D01*
X93386670Y-44083301D01*
X93297830Y-44261716D01*
X93243282Y-44453435D01*
X93224892Y-44651899D01*
X93224892Y-44651900D01*
X90934820Y-44651900D01*
X90934820Y-44651899D01*
X90915583Y-44444296D01*
X90915582Y-44444294D01*
X90858527Y-44243766D01*
X90858521Y-44243751D01*
X90765595Y-44057131D01*
X90765590Y-44057123D01*
X90684255Y-43949419D01*
X90232363Y-44401311D01*
X90182943Y-44324411D01*
X90075369Y-44231198D01*
X90057215Y-44222907D01*
X90508869Y-43771252D01*
X90508869Y-43771251D01*
X90485871Y-43750285D01*
X90308607Y-43640528D01*
X90308601Y-43640525D01*
X90114188Y-43565210D01*
X89909244Y-43526900D01*
X89700756Y-43526900D01*
X89495812Y-43565210D01*
X89495811Y-43565210D01*
X89301398Y-43640525D01*
X89301392Y-43640528D01*
X89124134Y-43750281D01*
X89124129Y-43750284D01*
X89101129Y-43771251D01*
X89101128Y-43771252D01*
X89552784Y-44222907D01*
X89534631Y-44231198D01*
X89427057Y-44324411D01*
X89377635Y-44401311D01*
X88925743Y-43949419D01*
X88844409Y-44057125D01*
X88844404Y-44057132D01*
X88751478Y-44243751D01*
X88751472Y-44243766D01*
X88694417Y-44444294D01*
X88694416Y-44444296D01*
X88675180Y-44651899D01*
X88675180Y-44651900D01*
X74527471Y-44651900D01*
X74564497Y-44540656D01*
X74566038Y-44536526D01*
X74575883Y-44512760D01*
X74767849Y-44049308D01*
X74769686Y-44045288D01*
X75005741Y-43573709D01*
X75007859Y-43569832D01*
X75276956Y-43116294D01*
X75279330Y-43112598D01*
X75580118Y-42679380D01*
X75582732Y-42675887D01*
X75913676Y-42265211D01*
X75916538Y-42261909D01*
X76275909Y-41875917D01*
X76279017Y-41872809D01*
X76665009Y-41513438D01*
X76668311Y-41510576D01*
X77078987Y-41179632D01*
X77082480Y-41177018D01*
X77515698Y-40876230D01*
X77519394Y-40873856D01*
X77972932Y-40604759D01*
X77976809Y-40602641D01*
X78448390Y-40366584D01*
X78452408Y-40364749D01*
X78939635Y-40162934D01*
X78943756Y-40161397D01*
X79444143Y-39994852D01*
X79448349Y-39993616D01*
X79959382Y-39863183D01*
X79963642Y-39862256D01*
X80482666Y-39768614D01*
X80487008Y-39767990D01*
X81011365Y-39711615D01*
X81015759Y-39711301D01*
X81519805Y-39693299D01*
X81545001Y-39692400D01*
X81561408Y-39692400D01*
X100840506Y-39692400D01*
X100907545Y-39712085D01*
G37*
G04 #@! TD.AperFunction*
D27*
X116545000Y-103641900D02*
X117045000Y-103641900D01*
X117045000Y-103641900D02*
G75*
G03*
X120045000Y-100641900I0J3000000D01*
G01*
X132545000Y-98641900D02*
G75*
G03*
X130545000Y-96641900I-2000000J0D01*
G01*
X74045000Y-47141900D02*
X74045000Y-96141900D01*
X211545000Y-47141900D02*
G75*
G03*
X204045000Y-39641900I-7500000J0D01*
G01*
X120045000Y-100641900D02*
X120045000Y-98641900D01*
X81545000Y-39641900D02*
X204045000Y-39641900D01*
X132545000Y-98641900D02*
X132545000Y-100641900D01*
X122045000Y-96641900D02*
X130545000Y-96641900D01*
X81545000Y-39641900D02*
G75*
G03*
X74045000Y-47141900I0J-7500000D01*
G01*
X132545000Y-100641900D02*
G75*
G03*
X135545000Y-103641900I3000000J0D01*
G01*
X204045000Y-103641900D02*
X136545000Y-103641900D01*
X81545000Y-103641900D02*
X116545000Y-103641900D01*
X122045000Y-96641900D02*
G75*
G03*
X120045000Y-98641900I0J-2000000D01*
G01*
X211545000Y-47141900D02*
X211545000Y-96141900D01*
X136545000Y-103641900D02*
X135545000Y-103641900D01*
X74045000Y-96141900D02*
G75*
G03*
X81545000Y-103641900I7500000J0D01*
G01*
X204045000Y-103641900D02*
G75*
G03*
X211545000Y-96141900I0J7500000D01*
G01*
X149345000Y-57341900D02*
X119345000Y-57341900D01*
X119345000Y-54841900D01*
X149345000Y-54841900D01*
X149345000Y-57341900D01*
M02*
