G04 #@! TF.GenerationSoftware,KiCad,Pcbnew,7.0.10*
G04 #@! TF.CreationDate,2024-02-23T17:06:06+08:00*
G04 #@! TF.ProjectId,Teeny_girl,5465656e-795f-4676-9972-6c2e6b696361,rev?*
G04 #@! TF.SameCoordinates,Original*
G04 #@! TF.FileFunction,Soldermask,Bot*
G04 #@! TF.FilePolarity,Negative*
%FSLAX46Y46*%
G04 Gerber Fmt 4.6, Leading zero omitted, Abs format (unit mm)*
G04 Created by KiCad (PCBNEW 7.0.10) date 2024-02-23 17:06:06*
%MOMM*%
%LPD*%
G01*
G04 APERTURE LIST*
G04 Aperture macros list*
%AMRoundRect*
0 Rectangle with rounded corners*
0 $1 Rounding radius*
0 $2 $3 $4 $5 $6 $7 $8 $9 X,Y pos of 4 corners*
0 Add a 4 corners polygon primitive as box body*
4,1,4,$2,$3,$4,$5,$6,$7,$8,$9,$2,$3,0*
0 Add four circle primitives for the rounded corners*
1,1,$1+$1,$2,$3*
1,1,$1+$1,$4,$5*
1,1,$1+$1,$6,$7*
1,1,$1+$1,$8,$9*
0 Add four rect primitives between the rounded corners*
20,1,$1+$1,$2,$3,$4,$5,0*
20,1,$1+$1,$4,$5,$6,$7,0*
20,1,$1+$1,$6,$7,$8,$9,0*
20,1,$1+$1,$8,$9,$2,$3,0*%
%AMFreePoly0*
4,1,19,0.550000,-0.750000,0.000000,-0.750000,0.000000,-0.744911,-0.071157,-0.744911,-0.207708,-0.704816,-0.327430,-0.627875,-0.420627,-0.520320,-0.479746,-0.390866,-0.500000,-0.250000,-0.500000,0.250000,-0.479746,0.390866,-0.420627,0.520320,-0.327430,0.627875,-0.207708,0.704816,-0.071157,0.744911,0.000000,0.744911,0.000000,0.750000,0.550000,0.750000,0.550000,-0.750000,0.550000,-0.750000,
$1*%
%AMFreePoly1*
4,1,19,0.000000,0.744911,0.071157,0.744911,0.207708,0.704816,0.327430,0.627875,0.420627,0.520320,0.479746,0.390866,0.500000,0.250000,0.500000,-0.250000,0.479746,-0.390866,0.420627,-0.520320,0.327430,-0.627875,0.207708,-0.704816,0.071157,-0.744911,0.000000,-0.744911,0.000000,-0.750000,-0.550000,-0.750000,-0.550000,0.750000,0.000000,0.750000,0.000000,0.744911,0.000000,0.744911,
$1*%
G04 Aperture macros list end*
%ADD10C,0.010000*%
%ADD11R,1.000000X3.150000*%
%ADD12C,5.000000*%
%ADD13RoundRect,0.200000X-0.200000X-0.275000X0.200000X-0.275000X0.200000X0.275000X-0.200000X0.275000X0*%
%ADD14R,1.000000X1.000000*%
%ADD15RoundRect,0.218750X-0.218750X-0.256250X0.218750X-0.256250X0.218750X0.256250X-0.218750X0.256250X0*%
%ADD16RoundRect,0.250000X0.337500X0.475000X-0.337500X0.475000X-0.337500X-0.475000X0.337500X-0.475000X0*%
%ADD17C,2.100000*%
%ADD18C,1.750000*%
%ADD19RoundRect,0.225000X0.250000X-0.225000X0.250000X0.225000X-0.250000X0.225000X-0.250000X-0.225000X0*%
%ADD20RoundRect,0.155520X0.971480X0.276480X-0.971480X0.276480X-0.971480X-0.276480X0.971480X-0.276480X0*%
%ADD21RoundRect,0.102000X1.205000X1.650000X-1.205000X1.650000X-1.205000X-1.650000X1.205000X-1.650000X0*%
%ADD22RoundRect,0.200000X-0.275000X0.200000X-0.275000X-0.200000X0.275000X-0.200000X0.275000X0.200000X0*%
%ADD23RoundRect,0.200000X0.200000X0.275000X-0.200000X0.275000X-0.200000X-0.275000X0.200000X-0.275000X0*%
%ADD24RoundRect,0.225000X0.225000X0.250000X-0.225000X0.250000X-0.225000X-0.250000X0.225000X-0.250000X0*%
%ADD25RoundRect,0.237500X-0.250000X-0.237500X0.250000X-0.237500X0.250000X0.237500X-0.250000X0.237500X0*%
%ADD26RoundRect,0.200000X0.275000X-0.200000X0.275000X0.200000X-0.275000X0.200000X-0.275000X-0.200000X0*%
%ADD27RoundRect,0.250000X0.550000X-1.500000X0.550000X1.500000X-0.550000X1.500000X-0.550000X-1.500000X0*%
%ADD28RoundRect,0.225000X-0.250000X0.225000X-0.250000X-0.225000X0.250000X-0.225000X0.250000X0.225000X0*%
%ADD29R,1.000000X1.500000*%
%ADD30RoundRect,0.054180X1.032820X0.332820X-1.032820X0.332820X-1.032820X-0.332820X1.032820X-0.332820X0*%
%ADD31RoundRect,0.250000X0.250000X0.475000X-0.250000X0.475000X-0.250000X-0.475000X0.250000X-0.475000X0*%
%ADD32R,1.500000X1.000000*%
%ADD33R,0.900000X1.200000*%
%ADD34RoundRect,0.250000X-0.475000X0.250000X-0.475000X-0.250000X0.475000X-0.250000X0.475000X0.250000X0*%
%ADD35RoundRect,0.250000X-0.425000X0.537500X-0.425000X-0.537500X0.425000X-0.537500X0.425000X0.537500X0*%
%ADD36RoundRect,0.237500X0.237500X-0.300000X0.237500X0.300000X-0.237500X0.300000X-0.237500X-0.300000X0*%
%ADD37RoundRect,0.250000X-0.250000X-0.475000X0.250000X-0.475000X0.250000X0.475000X-0.250000X0.475000X0*%
%ADD38RoundRect,0.237500X-0.237500X0.250000X-0.237500X-0.250000X0.237500X-0.250000X0.237500X0.250000X0*%
%ADD39RoundRect,0.075000X0.075000X-0.662500X0.075000X0.662500X-0.075000X0.662500X-0.075000X-0.662500X0*%
%ADD40RoundRect,0.075000X0.662500X-0.075000X0.662500X0.075000X-0.662500X0.075000X-0.662500X-0.075000X0*%
%ADD41RoundRect,0.150000X0.587500X0.150000X-0.587500X0.150000X-0.587500X-0.150000X0.587500X-0.150000X0*%
%ADD42RoundRect,0.250000X-0.550000X1.050000X-0.550000X-1.050000X0.550000X-1.050000X0.550000X1.050000X0*%
%ADD43RoundRect,0.102000X0.150000X0.550000X-0.150000X0.550000X-0.150000X-0.550000X0.150000X-0.550000X0*%
%ADD44R,1.400000X1.200000*%
%ADD45RoundRect,0.102000X1.000000X1.400000X-1.000000X1.400000X-1.000000X-1.400000X1.000000X-1.400000X0*%
%ADD46RoundRect,0.250000X-0.550000X1.500000X-0.550000X-1.500000X0.550000X-1.500000X0.550000X1.500000X0*%
%ADD47RoundRect,0.093750X-0.106250X0.093750X-0.106250X-0.093750X0.106250X-0.093750X0.106250X0.093750X0*%
%ADD48R,1.600000X1.000000*%
%ADD49R,1.500000X3.600000*%
%ADD50R,0.400000X1.500000*%
%ADD51C,0.650000*%
%ADD52R,0.600000X1.240000*%
%ADD53R,0.300000X1.240000*%
%ADD54O,1.000000X1.800000*%
%ADD55O,1.000000X2.100000*%
%ADD56R,2.006600X1.498600*%
%ADD57R,2.590800X1.498600*%
%ADD58R,1.500000X1.500000*%
%ADD59RoundRect,0.250000X0.425000X-0.537500X0.425000X0.537500X-0.425000X0.537500X-0.425000X-0.537500X0*%
%ADD60FreePoly0,180.000000*%
%ADD61FreePoly1,180.000000*%
%ADD62RoundRect,0.102000X-0.177800X0.584200X-0.177800X-0.584200X0.177800X-0.584200X0.177800X0.584200X0*%
%ADD63RoundRect,0.250000X-0.375000X-0.625000X0.375000X-0.625000X0.375000X0.625000X-0.375000X0.625000X0*%
%ADD64RoundRect,0.237500X-0.300000X-0.237500X0.300000X-0.237500X0.300000X0.237500X-0.300000X0.237500X0*%
%ADD65O,1.000000X1.000000*%
%ADD66RoundRect,0.250000X-1.500000X-0.550000X1.500000X-0.550000X1.500000X0.550000X-1.500000X0.550000X0*%
%ADD67R,1.800000X1.000000*%
%ADD68RoundRect,0.225000X-0.225000X-0.250000X0.225000X-0.250000X0.225000X0.250000X-0.225000X0.250000X0*%
%ADD69RoundRect,0.200000X-0.450000X0.200000X-0.450000X-0.200000X0.450000X-0.200000X0.450000X0.200000X0*%
%ADD70O,1.300000X0.800000*%
%ADD71FreePoly0,0.000000*%
%ADD72FreePoly1,0.000000*%
%ADD73RoundRect,0.237500X0.250000X0.237500X-0.250000X0.237500X-0.250000X-0.237500X0.250000X-0.237500X0*%
G04 #@! TA.AperFunction,Profile*
%ADD74C,0.150000*%
G04 #@! TD*
G04 APERTURE END LIST*
D10*
X151195000Y-49791900D02*
X150395000Y-49791900D01*
X150395000Y-50141900D01*
X148895000Y-50141900D01*
X148895000Y-47991900D01*
X151195000Y-47991900D01*
X151195000Y-49791900D01*
G36*
X151195000Y-49791900D02*
G01*
X150395000Y-49791900D01*
X150395000Y-50141900D01*
X148895000Y-50141900D01*
X148895000Y-47991900D01*
X151195000Y-47991900D01*
X151195000Y-49791900D01*
G37*
X120195000Y-50141900D02*
X118695000Y-50141900D01*
X118695000Y-49791900D01*
X117895000Y-49791900D01*
X117895000Y-47991900D01*
X120195000Y-47991900D01*
X120195000Y-50141900D01*
G36*
X120195000Y-50141900D02*
G01*
X118695000Y-50141900D01*
X118695000Y-49791900D01*
X117895000Y-49791900D01*
X117895000Y-47991900D01*
X120195000Y-47991900D01*
X120195000Y-50141900D01*
G37*
D11*
X191945000Y-80341900D03*
X191945000Y-75291900D03*
X189405000Y-80341900D03*
X189405000Y-75291900D03*
X186865000Y-80341900D03*
X186865000Y-75291900D03*
X184325000Y-80341900D03*
X184325000Y-75291900D03*
X181785000Y-80341900D03*
X181785000Y-75291900D03*
X179245000Y-80341900D03*
X179245000Y-75291900D03*
X176705000Y-80341900D03*
X176705000Y-75291900D03*
X174165000Y-80341900D03*
X174165000Y-75291900D03*
X171625000Y-80341900D03*
X171625000Y-75291900D03*
X169085000Y-80341900D03*
X169085000Y-75291900D03*
X166545000Y-80341900D03*
X166545000Y-75291900D03*
X164005000Y-80341900D03*
X164005000Y-75291900D03*
X161465000Y-80341900D03*
X161465000Y-75291900D03*
X158925000Y-80341900D03*
X158925000Y-75291900D03*
X156385000Y-80341900D03*
X156385000Y-75291900D03*
X153845000Y-80341900D03*
X153845000Y-75291900D03*
X151305000Y-80341900D03*
X151305000Y-75291900D03*
X148765000Y-80341900D03*
X148765000Y-75291900D03*
X146225000Y-80341900D03*
X146225000Y-75291900D03*
X143685000Y-80341900D03*
X143685000Y-75291900D03*
D12*
X204045000Y-47141900D03*
D13*
X203575000Y-70200000D03*
X205225000Y-70200000D03*
D12*
X81545000Y-47141900D03*
D14*
X157595000Y-102531900D03*
X160265000Y-102541900D03*
D15*
X203600000Y-68600000D03*
X205175000Y-68600000D03*
D12*
X204045000Y-96141900D03*
X81545000Y-96141900D03*
D16*
X111437500Y-51200000D03*
X109362500Y-51200000D03*
D17*
X197045000Y-47141900D03*
X190035000Y-47141900D03*
D18*
X195795000Y-44651900D03*
X191295000Y-44651900D03*
D19*
X184975000Y-54356900D03*
X184975000Y-52806900D03*
D20*
X154030000Y-58895000D03*
X154030000Y-60165000D03*
X154030000Y-61435000D03*
X154030000Y-62705000D03*
X149170000Y-62705000D03*
X149170000Y-61435000D03*
X149170000Y-60165000D03*
X149170000Y-58895000D03*
D21*
X151600000Y-60800000D03*
D22*
X129800000Y-43775000D03*
X129800000Y-45425000D03*
D23*
X135850000Y-65400000D03*
X134200000Y-65400000D03*
D24*
X162145000Y-62021900D03*
X160595000Y-62021900D03*
D25*
X160370000Y-64021900D03*
X162195000Y-64021900D03*
D26*
X165195000Y-50846900D03*
X165195000Y-49196900D03*
D27*
X173445000Y-64000000D03*
X173445000Y-58400000D03*
D28*
X184085000Y-67600000D03*
X184085000Y-69150000D03*
D29*
X184645000Y-47771900D03*
X185945000Y-47771900D03*
X187245000Y-47771900D03*
D19*
X197345000Y-51996900D03*
X197345000Y-50446900D03*
D30*
X172670000Y-50366900D03*
X172670000Y-51636900D03*
X172670000Y-52906900D03*
X172670000Y-54176900D03*
X167720000Y-54176900D03*
X167720000Y-52906900D03*
X167720000Y-51636900D03*
X167720000Y-50366900D03*
D28*
X190200000Y-67625000D03*
X190200000Y-69175000D03*
D31*
X158550000Y-63800000D03*
X156650000Y-63800000D03*
D28*
X199205000Y-62756900D03*
X199205000Y-64306900D03*
D32*
X182800000Y-62500000D03*
X182800000Y-63800000D03*
X182800000Y-65100000D03*
D23*
X77240000Y-88321900D03*
X75590000Y-88321900D03*
D22*
X165195000Y-52696900D03*
X165195000Y-54346900D03*
D23*
X158425000Y-61400000D03*
X156775000Y-61400000D03*
D33*
X116845000Y-100771900D03*
X113545000Y-100771900D03*
D34*
X132500000Y-58650000D03*
X132500000Y-60550000D03*
D24*
X207840000Y-56711900D03*
X206290000Y-56711900D03*
D35*
X176195000Y-50834400D03*
X176195000Y-53709400D03*
D26*
X189645000Y-51986900D03*
X189645000Y-50336900D03*
D36*
X202600000Y-83062500D03*
X202600000Y-81337500D03*
D37*
X144650000Y-65000000D03*
X146550000Y-65000000D03*
D23*
X181220000Y-52711900D03*
X179570000Y-52711900D03*
D38*
X165210000Y-58200000D03*
X165210000Y-56375000D03*
D39*
X194867500Y-63354400D03*
X194367500Y-63354400D03*
X193867500Y-63354400D03*
X193367500Y-63354400D03*
X192867500Y-63354400D03*
X192367500Y-63354400D03*
X191867500Y-63354400D03*
X191367500Y-63354400D03*
X190867500Y-63354400D03*
X190367500Y-63354400D03*
X189867500Y-63354400D03*
X189367500Y-63354400D03*
D40*
X187955000Y-61941900D03*
X187955000Y-61441900D03*
X187955000Y-60941900D03*
X187955000Y-60441900D03*
X187955000Y-59941900D03*
X187955000Y-59441900D03*
X187955000Y-58941900D03*
X187955000Y-58441900D03*
X187955000Y-57941900D03*
X187955000Y-57441900D03*
X187955000Y-56941900D03*
X187955000Y-56441900D03*
D39*
X189367500Y-55029400D03*
X189867500Y-55029400D03*
X190367500Y-55029400D03*
X190867500Y-55029400D03*
X191367500Y-55029400D03*
X191867500Y-55029400D03*
X192367500Y-55029400D03*
X192867500Y-55029400D03*
X193367500Y-55029400D03*
X193867500Y-55029400D03*
X194367500Y-55029400D03*
X194867500Y-55029400D03*
D40*
X196280000Y-56441900D03*
X196280000Y-56941900D03*
X196280000Y-57441900D03*
X196280000Y-57941900D03*
X196280000Y-58441900D03*
X196280000Y-58941900D03*
X196280000Y-59441900D03*
X196280000Y-59941900D03*
X196280000Y-60441900D03*
X196280000Y-60941900D03*
X196280000Y-61441900D03*
X196280000Y-61941900D03*
D41*
X132275000Y-64050000D03*
X132275000Y-65950000D03*
X130400000Y-65000000D03*
D13*
X134120000Y-63630000D03*
X135770000Y-63630000D03*
D42*
X131945000Y-89721900D03*
X131945000Y-93321900D03*
D34*
X130250000Y-58600000D03*
X130250000Y-60500000D03*
D43*
X147795000Y-47941900D03*
X147295000Y-47941900D03*
X146795000Y-47941900D03*
X146295000Y-47941900D03*
X145795000Y-47941900D03*
X145295000Y-47941900D03*
X144795000Y-47941900D03*
X144295000Y-47941900D03*
X143795000Y-47941900D03*
X143295000Y-47941900D03*
X142795000Y-47941900D03*
X142295000Y-47941900D03*
X141795000Y-47941900D03*
X141295000Y-47941900D03*
X140795000Y-47941900D03*
X140295000Y-47941900D03*
X139795000Y-47941900D03*
X139295000Y-47941900D03*
X138795000Y-47941900D03*
X138295000Y-47941900D03*
X137795000Y-47941900D03*
X137295000Y-47941900D03*
X136795000Y-47941900D03*
X136295000Y-47941900D03*
X135795000Y-47941900D03*
X135295000Y-47941900D03*
X134795000Y-47941900D03*
X134295000Y-47941900D03*
X133795000Y-47941900D03*
X133295000Y-47941900D03*
X132795000Y-47941900D03*
X132295000Y-47941900D03*
X131795000Y-47941900D03*
X131295000Y-47941900D03*
X130795000Y-47941900D03*
X130295000Y-47941900D03*
X129795000Y-47941900D03*
X129295000Y-47941900D03*
X128795000Y-47941900D03*
X128295000Y-47941900D03*
X127795000Y-47941900D03*
X127295000Y-47941900D03*
X126795000Y-47941900D03*
X126295000Y-47941900D03*
X125795000Y-47941900D03*
X125295000Y-47941900D03*
X124795000Y-47941900D03*
X124295000Y-47941900D03*
X123795000Y-47941900D03*
X123295000Y-47941900D03*
X122795000Y-47941900D03*
X122295000Y-47941900D03*
X121795000Y-47941900D03*
X121295000Y-47941900D03*
D44*
X188300000Y-69000000D03*
X186100000Y-69000000D03*
X186100000Y-67400000D03*
X188300000Y-67400000D03*
D22*
X195475000Y-50406900D03*
X195475000Y-52056900D03*
D23*
X102550000Y-55731900D03*
X100900000Y-55731900D03*
D45*
X146100000Y-60800000D03*
X141900000Y-60800000D03*
D17*
X203842500Y-65891900D03*
X203842500Y-58881900D03*
D18*
X206332500Y-64641900D03*
X206332500Y-60141900D03*
D22*
X207800000Y-81375000D03*
X207800000Y-83025000D03*
D28*
X197335000Y-66966900D03*
X197335000Y-68516900D03*
D23*
X143025000Y-65000000D03*
X141375000Y-65000000D03*
D37*
X156450000Y-59271900D03*
X158350000Y-59271900D03*
D46*
X205400000Y-73300000D03*
X205400000Y-78700000D03*
D47*
X109345000Y-94884400D03*
X109995000Y-94884400D03*
X110645000Y-94884400D03*
X110645000Y-96659400D03*
X109995000Y-96659400D03*
X109345000Y-96659400D03*
D48*
X109995000Y-95771900D03*
D27*
X90545000Y-100041900D03*
X90545000Y-94641900D03*
D49*
X108270000Y-99871900D03*
X111320000Y-99871900D03*
D25*
X166457500Y-63921900D03*
X168282500Y-63921900D03*
D50*
X200000000Y-68800000D03*
X200650000Y-68800000D03*
X201300000Y-68800000D03*
X201300000Y-71460000D03*
X200650000Y-71460000D03*
X200000000Y-71460000D03*
D51*
X102575000Y-44716900D03*
X108355000Y-44716900D03*
D52*
X102265000Y-45836900D03*
X103065000Y-45836900D03*
D53*
X104215000Y-45836900D03*
X105215000Y-45836900D03*
X105715000Y-45836900D03*
X106715000Y-45836900D03*
D52*
X107865000Y-45836900D03*
X108665000Y-45836900D03*
X108665000Y-45836900D03*
X107865000Y-45836900D03*
D53*
X107215000Y-45836900D03*
X106215000Y-45836900D03*
X104715000Y-45836900D03*
X103715000Y-45836900D03*
D52*
X103065000Y-45836900D03*
X102265000Y-45836900D03*
D54*
X101145000Y-41036900D03*
D55*
X101145000Y-45236900D03*
D54*
X109785000Y-41036900D03*
D55*
X109785000Y-45236900D03*
D24*
X165175000Y-60400000D03*
X163625000Y-60400000D03*
D56*
X153938200Y-42357300D03*
X153938200Y-49367700D03*
D57*
X154243000Y-51679100D03*
D56*
X161151800Y-42357300D03*
X161151800Y-45659300D03*
X161151800Y-51145700D03*
D58*
X180945000Y-48921900D03*
X180945000Y-41121900D03*
D19*
X185885000Y-64696900D03*
X185885000Y-63146900D03*
D59*
X161445000Y-59709400D03*
X161445000Y-56834400D03*
D24*
X181150000Y-50941900D03*
X179600000Y-50941900D03*
D22*
X131695000Y-43775000D03*
X131695000Y-45425000D03*
D25*
X166457500Y-65821900D03*
X168282500Y-65821900D03*
D60*
X162500000Y-97200000D03*
D29*
X161200000Y-97200000D03*
D61*
X159900000Y-97200000D03*
D34*
X137000000Y-58650000D03*
X137000000Y-60550000D03*
D23*
X102580000Y-53811900D03*
X100930000Y-53811900D03*
D50*
X200250000Y-55800000D03*
X199600000Y-55800000D03*
X198950000Y-55800000D03*
X198950000Y-53140000D03*
X199600000Y-53140000D03*
X200250000Y-53140000D03*
D62*
X163709600Y-63230500D03*
X164370000Y-63230500D03*
X165030400Y-63230500D03*
X165030400Y-65313300D03*
X164370000Y-65313300D03*
X163709600Y-65313300D03*
D31*
X116895000Y-97521900D03*
X114995000Y-97521900D03*
D38*
X163445000Y-56359400D03*
X163445000Y-58184400D03*
D23*
X77155000Y-85321900D03*
X75505000Y-85321900D03*
X108820000Y-92971900D03*
X107170000Y-92971900D03*
D24*
X168170000Y-62021900D03*
X166620000Y-62021900D03*
D63*
X108600000Y-48800000D03*
X111400000Y-48800000D03*
D23*
X97100000Y-101111900D03*
X95450000Y-101111900D03*
X77155000Y-79321900D03*
X75505000Y-79321900D03*
D13*
X75680000Y-82321900D03*
X77330000Y-82321900D03*
D64*
X95472500Y-99301900D03*
X97197500Y-99301900D03*
D14*
X207585000Y-54141900D03*
D65*
X206315000Y-54141900D03*
X205045000Y-54141900D03*
X203775000Y-54141900D03*
D31*
X139600000Y-64800000D03*
X137700000Y-64800000D03*
D26*
X193585000Y-52046900D03*
X193585000Y-50396900D03*
D34*
X134750000Y-58650000D03*
X134750000Y-60550000D03*
D59*
X167445000Y-59709400D03*
X167445000Y-56834400D03*
D19*
X106195000Y-97646900D03*
X106195000Y-96096900D03*
D17*
X95555000Y-47141900D03*
X88545000Y-47141900D03*
D18*
X94305000Y-44651900D03*
X89805000Y-44651900D03*
D66*
X170395000Y-44771900D03*
X175995000Y-44771900D03*
D13*
X188375000Y-71400000D03*
X190025000Y-71400000D03*
D67*
X195155000Y-66421900D03*
X195155000Y-68921900D03*
D19*
X193075000Y-68436900D03*
X193075000Y-66886900D03*
D68*
X111120000Y-92971900D03*
X112670000Y-92971900D03*
X126025000Y-45400000D03*
X127575000Y-45400000D03*
D19*
X199400000Y-60200000D03*
X199400000Y-58650000D03*
D69*
X96100000Y-93750000D03*
D70*
X96100000Y-95000000D03*
X96100000Y-96250000D03*
D71*
X154800000Y-97200000D03*
D29*
X156100000Y-97200000D03*
D72*
X157400000Y-97200000D03*
D73*
X162282500Y-66021900D03*
X160457500Y-66021900D03*
D22*
X191635000Y-50346900D03*
X191635000Y-51996900D03*
D74*
X116545000Y-103641900D02*
X117045000Y-103641900D01*
X117045000Y-103641900D02*
G75*
G03*
X120045000Y-100641900I0J3000000D01*
G01*
X132545000Y-98641900D02*
G75*
G03*
X130545000Y-96641900I-2000000J0D01*
G01*
X74045000Y-47141900D02*
X74045000Y-96141900D01*
X211545000Y-47141900D02*
G75*
G03*
X204045000Y-39641900I-7500000J0D01*
G01*
X120045000Y-100641900D02*
X120045000Y-98641900D01*
X81545000Y-39641900D02*
X204045000Y-39641900D01*
X132545000Y-98641900D02*
X132545000Y-100641900D01*
X122045000Y-96641900D02*
X130545000Y-96641900D01*
X81545000Y-39641900D02*
G75*
G03*
X74045000Y-47141900I0J-7500000D01*
G01*
X132545000Y-100641900D02*
G75*
G03*
X135545000Y-103641900I3000000J0D01*
G01*
X204045000Y-103641900D02*
X136545000Y-103641900D01*
X81545000Y-103641900D02*
X116545000Y-103641900D01*
X122045000Y-96641900D02*
G75*
G03*
X120045000Y-98641900I0J-2000000D01*
G01*
X211545000Y-47141900D02*
X211545000Y-96141900D01*
X136545000Y-103641900D02*
X135545000Y-103641900D01*
X74045000Y-96141900D02*
G75*
G03*
X81545000Y-103641900I7500000J0D01*
G01*
X204045000Y-103641900D02*
G75*
G03*
X211545000Y-96141900I0J7500000D01*
G01*
X149345000Y-57341900D02*
X119345000Y-57341900D01*
X119345000Y-54841900D01*
X149345000Y-54841900D01*
X149345000Y-57341900D01*
M02*
