M48
; DRILL file {KiCad 7.0.10} date Fri Feb 23 17:06:10 2024
; FORMAT={-:-/ absolute / inch / decimal}
; #@! TF.CreationDate,2024-02-23T17:06:10+08:00
; #@! TF.GenerationSoftware,Kicad,Pcbnew,7.0.10
; #@! TF.FileFunction,Plated,1,2,PTH
FMAT,2
INCH
; #@! TA.AperFunction,Plated,PTH,ViaDrill
T1C0.0079
; #@! TA.AperFunction,Plated,PTH,ComponentDrill
T2C0.0079
; #@! TA.AperFunction,Plated,PTH,ViaDrill
T3C0.0118
; #@! TA.AperFunction,Plated,PTH,ViaDrill
T4C0.0157
; #@! TA.AperFunction,Plated,PTH,ComponentDrill
T5C0.0197
; #@! TA.AperFunction,Plated,PTH,ComponentDrill
T6C0.0236
; #@! TA.AperFunction,Plated,PTH,ComponentDrill
T7C0.0256
; #@! TA.AperFunction,Plated,PTH,ComponentDrill
T8C0.0390
; #@! TA.AperFunction,Plated,PTH,ComponentDrill
T9C0.0512
%
G90
G05
T1
X2.9685Y-2.126
X2.9685Y-2.8661
X2.9764Y-3.7244
X3.0197Y-3.1575
X3.0276Y-3.0787
X3.0472Y-2.3543
X3.0906Y-4.0039
X3.1299Y-3.0748
X3.1614Y-3.3031
X3.1654Y-3.4016
X3.1811Y-2.8583
X3.185Y-2.7677
X3.1969Y-2.5354
X3.2402Y-3.1811
X3.2402Y-3.3268
X3.2559Y-4.0354
X3.2756Y-3.0315
X3.2756Y-3.3307
X3.3307Y-3.4961
X3.4331Y-4.0315
X3.5039Y-3.189
X3.5118Y-2.4803
X3.5197Y-3.0827
X3.5276Y-3.4646
X3.5433Y-1.6693
X3.5433Y-2.685
X3.6299Y-3.9921
X3.6614Y-1.622
X3.748Y-2.3543
X3.7795Y-2.5591
X3.7874Y-3.874
X3.7953Y-2.8346
X3.8425Y-3.6929
X3.9685Y-1.937
X3.9685Y-2.0157
X3.9843Y-2.4016
X4.0Y-2.5354
X4.0472Y-1.6142
X4.0703Y-2.1985
X4.0758Y-2.117
X4.1006Y-1.891
X4.126Y-3.7953
X4.1693Y-3.9882
X4.1732Y-3.9331
X4.1811Y-3.7244
X4.2222Y-1.8851
X4.2283Y-1.6142
X4.252Y-3.7638
X4.2913Y-2.3465
X4.3307Y-2.1024
X4.3307Y-3.8346
X4.3465Y-2.7559
X4.3858Y-2.6063
X4.4252Y-3.7165
X4.4291Y-3.2638
X4.4488Y-2.0079
X4.4488Y-3.8346
X4.4528Y-3.1457
X4.4606Y-3.874
X4.4724Y-1.7717
X4.5197Y-3.7165
X4.5512Y-3.8976
X4.5787Y-3.2677
X4.5906Y-3.4803
X4.6024Y-2.8189
X4.6772Y-2.9811
X4.7008Y-3.0
X4.7138Y-3.0197
X4.7244Y-2.4488
X4.7402Y-1.8504
X4.8504Y-2.3701
X4.8543Y-3.1732
X4.8583Y-1.8425
X4.8661Y-2.5551
X4.937Y-1.8425
X4.9409Y-2.8701
X4.9449Y-3.7165
X5.0069Y-2.9811
X5.0157Y-2.8976
X5.0236Y-3.0
X5.0472Y-2.9331
X5.0472Y-3.0189
X5.063Y-2.9488
X5.1417Y-2.4488
X5.175Y-1.8513
X5.2047Y-2.5512
X5.2205Y-2.4331
X5.2323Y-3.1457
X5.2833Y-1.8414
X5.315Y-2.4449
X5.3386Y-3.7165
X5.3471Y-2.5404
X5.3543Y-2.7257
X5.3719Y-1.8501
X5.3819Y-2.8858
X5.3915Y-1.7922
X5.3915Y-1.8316
X5.4213Y-3.1339
X5.4251Y-1.8423
X5.4291Y-3.0079
X5.4347Y-2.7379
X5.4506Y-1.802
X5.4567Y-2.0236
X5.4685Y-2.3937
X5.4855Y-1.8231
X5.4961Y-2.3622
X5.4961Y-3.9055
X5.5027Y-1.8513
X5.5039Y-2.4331
X5.5231Y-1.8393
X5.5421Y-1.8534
X5.5433Y-3.5512
X5.5641Y-1.8448
X5.5725Y-1.8163
X5.5906Y-2.7035
X5.6099Y-1.8329
X5.622Y-2.126
X5.6378Y-2.0315
X5.6575Y-2.8858
X5.6646Y-1.7764
X5.6693Y-2.3307
X5.6693Y-2.3937
X5.6772Y-2.4488
X5.685Y-1.8425
X5.7008Y-1.8189
X5.7165Y-1.7953
X5.7559Y-2.7008
X5.7559Y-2.8819
X5.8189Y-2.0
X5.8268Y-2.5118
X5.8307Y-2.6913
X5.8441Y-1.9433
X5.8543Y-2.8819
X5.8661Y-2.5512
X5.874Y-2.063
X5.8976Y-3.5906
X5.9055Y-2.8937
X5.9449Y-2.5886
X5.9449Y-3.9843
X5.9528Y-2.5197
X5.9567Y-2.6669
X5.9764Y-1.7638
X5.9961Y-3.0787
X6.0079Y-2.5433
X6.0118Y-2.2795
X6.0299Y-2.5654
X6.0315Y-3.2578
X6.0787Y-2.1969
X6.1024Y-2.2205
X6.1024Y-2.8622
X6.1102Y-2.5591
X6.1339Y-2.5512
X6.1494Y-3.2587
X6.1496Y-1.6181
X6.1496Y-1.9843
X6.185Y-2.4567
X6.1969Y-1.8346
X6.2666Y-2.5638
X6.2677Y-2.063
X6.2795Y-2.4409
X6.2833Y-2.5826
X6.2913Y-1.8819
X6.2913Y-2.2205
X6.2913Y-2.3465
X6.297Y-3.2223
X6.3189Y-2.8504
X6.3465Y-2.6614
X6.3465Y-2.8661
X6.3504Y-2.4961
X6.3504Y-2.6063
X6.3543Y-2.2953
X6.3799Y-2.7736
X6.3858Y-2.8634
X6.3898Y-3.0118
X6.4094Y-3.5512
X6.4331Y-2.4449
X6.4646Y-1.7441
X6.4646Y-2.4449
X6.4764Y-2.7677
X6.4803Y-1.6181
X6.4902Y-2.4449
X6.4939Y-3.2095
X6.5118Y-2.9055
X6.5512Y-2.7835
X6.5591Y-3.8661
X6.5827Y-3.5118
X6.5984Y-2.8858
X6.6772Y-1.937
X6.689Y-2.5236
X6.689Y-2.6024
X6.7008Y-2.4764
X6.7047Y-2.0512
X6.7165Y-1.937
X6.7244Y-2.7756
X6.8031Y-1.6181
X6.815Y-1.7323
X6.815Y-3.1102
X6.8543Y-2.7874
X6.8581Y-2.7174
X6.8622Y-3.063
X6.874Y-2.0
X6.8898Y-2.8661
X6.9291Y-2.6142
X6.9331Y-2.7598
X6.937Y-2.3701
X6.937Y-2.4094
X6.9528Y-2.3512
X6.9581Y-2.3906
X6.9592Y-2.6049
X6.9606Y-2.5118
X6.9764Y-3.2638
X7.0039Y-2.752
X7.0057Y-3.0619
X7.0079Y-2.5276
X7.0079Y-3.9685
X7.0394Y-2.548
X7.0591Y-2.4567
X7.0709Y-2.5669
X7.1102Y-2.7402
X7.1535Y-3.2638
X7.1732Y-2.7756
X7.1817Y-2.2824
X7.1969Y-2.4606
X7.2047Y-2.8504
X7.2126Y-2.1969
X7.2126Y-2.2549
X7.2126Y-3.0276
X7.2205Y-2.0394
X7.2205Y-2.126
X7.2362Y-2.2362
X7.2441Y-2.1969
X7.2441Y-2.315
X7.2441Y-3.0709
X7.2616Y-3.2489
X7.2835Y-3.6142
X7.3307Y-2.2999
X7.3386Y-2.2362
X7.3465Y-2.3307
X7.3543Y-2.4882
X7.3622Y-2.5197
X7.3622Y-3.0551
X7.3858Y-4.0079
X7.4016Y-2.4803
X7.4388Y-1.9359
X7.4488Y-2.3937
X7.4526Y-2.3228
X7.4724Y-3.7047
X7.4882Y-2.622
X7.4951Y-2.1178
X7.4961Y-2.4016
X7.5175Y-2.1091
X7.5276Y-2.3307
X7.5354Y-2.5591
X7.5433Y-2.3858
X7.5433Y-2.8504
X7.5512Y-2.4495
X7.5569Y-2.2745
X7.5669Y-3.9921
X7.5748Y-1.6142
X7.5748Y-2.2205
X7.5827Y-1.9921
X7.5827Y-2.0472
X7.5884Y-2.3197
X7.5945Y-2.3858
X7.6041Y-2.3402
X7.6299Y-2.3622
X7.6535Y-2.0789
X7.6535Y-2.1181
X7.6535Y-2.7559
X7.6614Y-2.252
X7.673Y-2.3788
X7.6772Y-1.9213
X7.6772Y-2.0955
X7.689Y-3.9488
X7.7087Y-2.0955
X7.7165Y-2.6614
X7.7402Y-1.948
X7.7402Y-2.06
X7.7559Y-2.1024
X7.7633Y-2.1309
X7.7717Y-2.5512
X7.7795Y-2.5906
X7.7953Y-2.2992
X7.8031Y-2.1496
X7.8031Y-2.378
X7.8031Y-2.4055
X7.811Y-2.9921
X7.8346Y-2.7717
X7.8346Y-2.8346
X7.8583Y-2.2441
X7.8976Y-2.3701
X7.8976Y-2.6457
X7.9055Y-2.5105
X7.9449Y-2.1654
X7.9685Y-2.1732
X8.0464Y-2.7216
X8.0551Y-2.2283
X8.0669Y-3.3937
X8.1496Y-2.6772
X8.1654Y-2.9764
X8.189Y-2.3307
X8.2283Y-3.5039
T2
X4.3089Y-3.7705
X4.3522Y-3.7705
T3
X3.063Y-3.2047
X3.0709Y-3.0866
X3.0709Y-3.3071
X3.0945Y-3.5354
X3.1417Y-3.2047
X3.6299Y-2.7087
X4.7638Y-3.0472
X4.7953Y-3.0472
X5.177Y-2.874
X5.177Y-2.9134
X5.7087Y-1.7244
X5.7402Y-1.7559
X6.0Y-2.2126
X6.0315Y-2.2441
X6.0945Y-3.8189
X6.3976Y-3.8268
X7.2835Y-2.2362
X7.2858Y-2.4516
X7.5669Y-3.4409
X7.811Y-2.7379
X7.885Y-2.4725
T4
X4.9764Y-2.4301
X4.9764Y-2.4882
X5.0079Y-3.2283
X5.0079Y-3.2677
X5.0236Y-3.3937
X5.0394Y-1.937
X5.0512Y-3.4213
X5.189Y-3.0
X5.2047Y-3.4331
X5.2362Y-3.0
X5.252Y-3.4331
X5.4016Y-2.4724
X5.4409Y-2.4724
X6.1969Y-3.4331
X6.2283Y-3.4331
X6.4724Y-2.6107
X6.7087Y-3.063
X6.8268Y-3.2598
X7.5118Y-3.2126
T5
X3.7835Y-3.6909
X3.7835Y-3.7402
X3.7835Y-3.7894
T7
X6.2045Y-4.0367
X6.3096Y-4.0371
X8.0226Y-2.1316
X8.0726Y-2.1316
X8.1226Y-2.1316
X8.1726Y-2.1316
T8
X3.5356Y-1.7579
X3.7128Y-1.7579
X7.5313Y-1.7579
X7.7085Y-1.7579
X8.1233Y-2.3678
X8.1233Y-2.545
T9
X3.486Y-1.856
X3.762Y-1.856
X7.4817Y-1.856
X7.7577Y-1.856
X8.0253Y-2.3182
X8.0253Y-2.5942
T6
G00X3.9821Y-1.5999
M15
G01X3.9821Y-1.6314
M16
G05
G00X3.9821Y-1.7593
M15
G01X3.9821Y-1.8026
M16
G05
G00X4.3222Y-1.5999
M15
G01X4.3222Y-1.6314
M16
G05
G00X4.3222Y-1.7593
M15
G01X4.3222Y-1.8026
M16
G05
M30
