%TF.GenerationSoftware,KiCad,Pcbnew,7.0.10*%
%TF.CreationDate,2024-02-23T17:06:10+08:00*%
%TF.ProjectId,Teeny_girl,5465656e-795f-4676-9972-6c2e6b696361,rev?*%
%TF.SameCoordinates,Original*%
%TF.FileFunction,Drillmap*%
%TF.FilePolarity,Positive*%
%FSLAX45Y45*%
G04 Gerber Fmt 4.5, Leading zero omitted, Abs format (unit mm)*
G04 Created by KiCad (PCBNEW 7.0.10) date 2024-02-23 17:06:10*
%MOMM*%
%LPD*%
G01*
G04 APERTURE LIST*
%ADD10C,0.150000*%
%ADD11C,0.200000*%
%ADD12C,0.100000*%
%ADD13C,0.130000*%
G04 APERTURE END LIST*
D10*
X11654500Y-10364190D02*
X11704500Y-10364190D01*
X11704500Y-10364190D02*
G75*
G03*
X12004500Y-10064190I0J300000D01*
G01*
X13254500Y-9864190D02*
G75*
G03*
X13054500Y-9664190I-200000J0D01*
G01*
X7404500Y-4714190D02*
X7404500Y-9614190D01*
X21154500Y-4714190D02*
G75*
G03*
X20404500Y-3964190I-750000J0D01*
G01*
X12004500Y-10064190D02*
X12004500Y-9864190D01*
X8154500Y-3964190D02*
X20404500Y-3964190D01*
X13254500Y-9864190D02*
X13254500Y-10064190D01*
X12204500Y-9664190D02*
X13054500Y-9664190D01*
X8154500Y-3964190D02*
G75*
G03*
X7404500Y-4714190I0J-750000D01*
G01*
X13254500Y-10064190D02*
G75*
G03*
X13554500Y-10364190I300000J0D01*
G01*
X20404500Y-10364190D02*
X13654500Y-10364190D01*
X8154500Y-10364190D02*
X11654500Y-10364190D01*
X12204500Y-9664190D02*
G75*
G03*
X12004500Y-9864190I0J-200000D01*
G01*
X21154500Y-4714190D02*
X21154500Y-9614190D01*
X13654500Y-10364190D02*
X13554500Y-10364190D01*
X7404500Y-9614190D02*
G75*
G03*
X8154500Y-10364190I750000J0D01*
G01*
X20404500Y-10364190D02*
G75*
G03*
X21154500Y-9614190I0J750000D01*
G01*
X14934500Y-5734190D02*
X11934500Y-5734190D01*
X11934500Y-5484190D01*
X14934500Y-5484190D01*
X14934500Y-5734190D01*
D11*
D12*
X7530000Y-5390000D02*
X7550000Y-5410000D01*
X7550000Y-5390000D02*
X7530000Y-5410000D01*
X7530000Y-7270000D02*
X7550000Y-7290000D01*
X7550000Y-7270000D02*
X7530000Y-7290000D01*
X7550000Y-9450000D02*
X7570000Y-9470000D01*
X7570000Y-9450000D02*
X7550000Y-9470000D01*
X7660000Y-8010000D02*
X7680000Y-8030000D01*
X7680000Y-8010000D02*
X7660000Y-8030000D01*
X7680000Y-7810000D02*
X7700000Y-7830000D01*
X7700000Y-7810000D02*
X7680000Y-7830000D01*
X7730000Y-5970000D02*
X7750000Y-5990000D01*
X7750000Y-5970000D02*
X7730000Y-5990000D01*
X7840000Y-10160000D02*
X7860000Y-10180000D01*
X7860000Y-10160000D02*
X7840000Y-10180000D01*
X7940000Y-7800000D02*
X7960000Y-7820000D01*
X7960000Y-7800000D02*
X7940000Y-7820000D01*
X8020000Y-8380000D02*
X8040000Y-8400000D01*
X8040000Y-8380000D02*
X8020000Y-8400000D01*
X8030000Y-8630000D02*
X8050000Y-8650000D01*
X8050000Y-8630000D02*
X8030000Y-8650000D01*
X8070000Y-7250000D02*
X8090000Y-7270000D01*
X8090000Y-7250000D02*
X8070000Y-7270000D01*
X8080000Y-7020000D02*
X8100000Y-7040000D01*
X8100000Y-7020000D02*
X8080000Y-7040000D01*
X8110000Y-6430000D02*
X8130000Y-6450000D01*
X8130000Y-6430000D02*
X8110000Y-6450000D01*
X8220000Y-8070000D02*
X8240000Y-8090000D01*
X8240000Y-8070000D02*
X8220000Y-8090000D01*
X8220000Y-8440000D02*
X8240000Y-8460000D01*
X8240000Y-8440000D02*
X8220000Y-8460000D01*
X8260000Y-10240000D02*
X8280000Y-10260000D01*
X8280000Y-10240000D02*
X8260000Y-10260000D01*
X8310000Y-7690000D02*
X8330000Y-7710000D01*
X8330000Y-7690000D02*
X8310000Y-7710000D01*
X8310000Y-8450000D02*
X8330000Y-8470000D01*
X8330000Y-8450000D02*
X8310000Y-8470000D01*
X8450000Y-8870000D02*
X8470000Y-8890000D01*
X8470000Y-8870000D02*
X8450000Y-8890000D01*
X8710000Y-10230000D02*
X8730000Y-10250000D01*
X8730000Y-10230000D02*
X8710000Y-10250000D01*
X8890000Y-8090000D02*
X8910000Y-8110000D01*
X8910000Y-8090000D02*
X8890000Y-8110000D01*
X8910000Y-6290000D02*
X8930000Y-6310000D01*
X8930000Y-6290000D02*
X8910000Y-6310000D01*
X8930000Y-7820000D02*
X8950000Y-7840000D01*
X8950000Y-7820000D02*
X8930000Y-7840000D01*
X8950000Y-8790000D02*
X8970000Y-8810000D01*
X8970000Y-8790000D02*
X8950000Y-8810000D01*
X8990000Y-4230000D02*
X9010000Y-4250000D01*
X9010000Y-4230000D02*
X8990000Y-4250000D01*
X8990000Y-6810000D02*
X9010000Y-6830000D01*
X9010000Y-6810000D02*
X8990000Y-6830000D01*
X9210000Y-10130000D02*
X9230000Y-10150000D01*
X9230000Y-10130000D02*
X9210000Y-10150000D01*
X9290000Y-4110000D02*
X9310000Y-4130000D01*
X9310000Y-4110000D02*
X9290000Y-4130000D01*
X9510000Y-5970000D02*
X9530000Y-5990000D01*
X9530000Y-5970000D02*
X9510000Y-5990000D01*
X9590000Y-6490000D02*
X9610000Y-6510000D01*
X9610000Y-6490000D02*
X9590000Y-6510000D01*
X9610000Y-9830000D02*
X9630000Y-9850000D01*
X9630000Y-9830000D02*
X9610000Y-9850000D01*
X9630000Y-7190000D02*
X9650000Y-7210000D01*
X9650000Y-7190000D02*
X9630000Y-7210000D01*
X9750000Y-9370000D02*
X9770000Y-9390000D01*
X9770000Y-9370000D02*
X9750000Y-9390000D01*
X10070000Y-4910000D02*
X10090000Y-4930000D01*
X10090000Y-4910000D02*
X10070000Y-4930000D01*
X10070000Y-5110000D02*
X10090000Y-5130000D01*
X10090000Y-5110000D02*
X10070000Y-5130000D01*
X10110000Y-6090000D02*
X10130000Y-6110000D01*
X10130000Y-6090000D02*
X10110000Y-6110000D01*
X10150000Y-6430000D02*
X10170000Y-6450000D01*
X10170000Y-6430000D02*
X10150000Y-6450000D01*
X10270000Y-4090000D02*
X10290000Y-4110000D01*
X10290000Y-4090000D02*
X10270000Y-4110000D01*
X10328500Y-5574190D02*
X10348500Y-5594190D01*
X10348500Y-5574190D02*
X10328500Y-5594190D01*
X10342500Y-5367190D02*
X10362500Y-5387190D01*
X10362500Y-5367190D02*
X10342500Y-5387190D01*
X10405500Y-4793190D02*
X10425500Y-4813190D01*
X10425500Y-4793190D02*
X10405500Y-4813190D01*
X10470000Y-9630000D02*
X10490000Y-9650000D01*
X10490000Y-9630000D02*
X10470000Y-9650000D01*
X10580000Y-10120000D02*
X10600000Y-10140000D01*
X10600000Y-10120000D02*
X10580000Y-10140000D01*
X10590000Y-9980000D02*
X10610000Y-10000000D01*
X10610000Y-9980000D02*
X10590000Y-10000000D01*
X10610000Y-9450000D02*
X10630000Y-9470000D01*
X10630000Y-9450000D02*
X10610000Y-9470000D01*
X10714500Y-4778190D02*
X10734500Y-4798190D01*
X10734500Y-4778190D02*
X10714500Y-4798190D01*
X10730000Y-4090000D02*
X10750000Y-4110000D01*
X10750000Y-4090000D02*
X10730000Y-4110000D01*
X10790000Y-9550000D02*
X10810000Y-9570000D01*
X10810000Y-9550000D02*
X10790000Y-9570000D01*
X10890000Y-5950000D02*
X10910000Y-5970000D01*
X10910000Y-5950000D02*
X10890000Y-5970000D01*
X10990000Y-5330000D02*
X11010000Y-5350000D01*
X11010000Y-5330000D02*
X10990000Y-5350000D01*
X10990000Y-9730000D02*
X11010000Y-9750000D01*
X11010000Y-9730000D02*
X10990000Y-9750000D01*
X11030000Y-6990000D02*
X11050000Y-7010000D01*
X11050000Y-6990000D02*
X11030000Y-7010000D01*
X11130000Y-6610000D02*
X11150000Y-6630000D01*
X11150000Y-6610000D02*
X11130000Y-6630000D01*
X11230000Y-9430000D02*
X11250000Y-9450000D01*
X11250000Y-9430000D02*
X11230000Y-9450000D01*
X11240000Y-8280000D02*
X11260000Y-8300000D01*
X11260000Y-8280000D02*
X11240000Y-8300000D01*
X11290000Y-5090000D02*
X11310000Y-5110000D01*
X11310000Y-5090000D02*
X11290000Y-5110000D01*
X11290000Y-9730000D02*
X11310000Y-9750000D01*
X11310000Y-9730000D02*
X11290000Y-9750000D01*
X11300000Y-7980000D02*
X11320000Y-8000000D01*
X11320000Y-7980000D02*
X11300000Y-8000000D01*
X11320000Y-9830000D02*
X11340000Y-9850000D01*
X11340000Y-9830000D02*
X11320000Y-9850000D01*
X11350000Y-4490000D02*
X11370000Y-4510000D01*
X11370000Y-4490000D02*
X11350000Y-4510000D01*
X11470000Y-9430000D02*
X11490000Y-9450000D01*
X11490000Y-9430000D02*
X11470000Y-9450000D01*
X11550000Y-9890000D02*
X11570000Y-9910000D01*
X11570000Y-9890000D02*
X11550000Y-9910000D01*
X11620000Y-8290000D02*
X11640000Y-8310000D01*
X11640000Y-8290000D02*
X11620000Y-8310000D01*
X11650000Y-8830000D02*
X11670000Y-8850000D01*
X11670000Y-8830000D02*
X11650000Y-8850000D01*
X11680000Y-7150000D02*
X11700000Y-7170000D01*
X11700000Y-7150000D02*
X11680000Y-7170000D01*
X11870000Y-7562000D02*
X11890000Y-7582000D01*
X11890000Y-7562000D02*
X11870000Y-7582000D01*
X11930000Y-7610000D02*
X11950000Y-7630000D01*
X11950000Y-7610000D02*
X11930000Y-7630000D01*
X11963013Y-7660000D02*
X11983013Y-7680000D01*
X11983013Y-7660000D02*
X11963013Y-7680000D01*
X11990000Y-6210000D02*
X12010000Y-6230000D01*
X12010000Y-6210000D02*
X11990000Y-6230000D01*
X12030000Y-4690000D02*
X12050000Y-4710000D01*
X12050000Y-4690000D02*
X12030000Y-4710000D01*
X12310000Y-6010000D02*
X12330000Y-6030000D01*
X12330000Y-6010000D02*
X12310000Y-6030000D01*
X12320000Y-8050000D02*
X12340000Y-8070000D01*
X12340000Y-8050000D02*
X12320000Y-8070000D01*
X12330000Y-4670000D02*
X12350000Y-4690000D01*
X12350000Y-4670000D02*
X12330000Y-4690000D01*
X12350000Y-6480000D02*
X12370000Y-6500000D01*
X12370000Y-6480000D02*
X12350000Y-6500000D01*
X12530000Y-4670000D02*
X12550000Y-4690000D01*
X12550000Y-4670000D02*
X12530000Y-4690000D01*
X12540000Y-7280000D02*
X12560000Y-7300000D01*
X12560000Y-7280000D02*
X12540000Y-7300000D01*
X12550000Y-9430000D02*
X12570000Y-9450000D01*
X12570000Y-9430000D02*
X12550000Y-9450000D01*
X12707573Y-7562000D02*
X12727573Y-7582000D01*
X12727573Y-7562000D02*
X12707573Y-7582000D01*
X12730000Y-7350000D02*
X12750000Y-7370000D01*
X12750000Y-7350000D02*
X12730000Y-7370000D01*
X12750000Y-7610000D02*
X12770000Y-7630000D01*
X12770000Y-7610000D02*
X12750000Y-7630000D01*
X12810000Y-7440000D02*
X12830000Y-7460000D01*
X12830000Y-7440000D02*
X12810000Y-7460000D01*
X12810000Y-7658000D02*
X12830000Y-7678000D01*
X12830000Y-7658000D02*
X12810000Y-7678000D01*
X12850000Y-7480000D02*
X12870000Y-7500000D01*
X12870000Y-7480000D02*
X12850000Y-7500000D01*
X13050000Y-6210000D02*
X13070000Y-6230000D01*
X13070000Y-6210000D02*
X13050000Y-6230000D01*
X13134500Y-4692190D02*
X13154500Y-4712190D01*
X13154500Y-4692190D02*
X13134500Y-4712190D01*
X13210000Y-6470000D02*
X13230000Y-6490000D01*
X13230000Y-6470000D02*
X13210000Y-6490000D01*
X13250000Y-6170000D02*
X13270000Y-6190000D01*
X13270000Y-6170000D02*
X13250000Y-6190000D01*
X13280000Y-7980000D02*
X13300000Y-8000000D01*
X13300000Y-7980000D02*
X13280000Y-8000000D01*
X13409500Y-4667190D02*
X13429500Y-4687190D01*
X13429500Y-4667190D02*
X13409500Y-4687190D01*
X13490000Y-6200000D02*
X13510000Y-6220000D01*
X13510000Y-6200000D02*
X13490000Y-6220000D01*
X13550000Y-9430000D02*
X13570000Y-9450000D01*
X13570000Y-9430000D02*
X13550000Y-9450000D01*
X13571544Y-6442500D02*
X13591544Y-6462500D01*
X13591544Y-6442500D02*
X13571544Y-6462500D01*
X13590000Y-6913190D02*
X13610000Y-6933190D01*
X13610000Y-6913190D02*
X13590000Y-6933190D01*
X13634500Y-4689240D02*
X13654500Y-4709240D01*
X13654500Y-4689240D02*
X13634500Y-4709240D01*
X13660000Y-7320000D02*
X13680000Y-7340000D01*
X13680000Y-7320000D02*
X13660000Y-7340000D01*
X13684500Y-4542190D02*
X13704500Y-4562190D01*
X13704500Y-4542190D02*
X13684500Y-4562190D01*
X13684500Y-4642190D02*
X13704500Y-4662190D01*
X13704500Y-4642190D02*
X13684500Y-4662190D01*
X13760000Y-7950000D02*
X13780000Y-7970000D01*
X13780000Y-7950000D02*
X13760000Y-7970000D01*
X13769723Y-4669517D02*
X13789723Y-4689517D01*
X13789723Y-4669517D02*
X13769723Y-4689517D01*
X13780000Y-7630000D02*
X13800000Y-7650000D01*
X13800000Y-7630000D02*
X13780000Y-7650000D01*
X13794155Y-6944190D02*
X13814155Y-6964190D01*
X13814155Y-6944190D02*
X13794155Y-6964190D01*
X13834500Y-4567190D02*
X13854500Y-4587190D01*
X13854500Y-4567190D02*
X13834500Y-4587190D01*
X13850000Y-5130000D02*
X13870000Y-5150000D01*
X13870000Y-5130000D02*
X13850000Y-5150000D01*
X13880000Y-6070000D02*
X13900000Y-6090000D01*
X13900000Y-6070000D02*
X13880000Y-6090000D01*
X13923052Y-4620742D02*
X13943052Y-4640742D01*
X13943052Y-4620742D02*
X13923052Y-4640742D01*
X13950000Y-5990000D02*
X13970000Y-6010000D01*
X13970000Y-5990000D02*
X13950000Y-6010000D01*
X13950000Y-9910000D02*
X13970000Y-9930000D01*
X13970000Y-9910000D02*
X13950000Y-9930000D01*
X13966950Y-4692190D02*
X13986950Y-4712190D01*
X13986950Y-4692190D02*
X13966950Y-4712190D01*
X13970000Y-6170000D02*
X13990000Y-6190000D01*
X13990000Y-6170000D02*
X13970000Y-6190000D01*
X14018639Y-4661821D02*
X14038639Y-4681821D01*
X14038639Y-4661821D02*
X14018639Y-4681821D01*
X14066950Y-4697582D02*
X14086950Y-4717582D01*
X14086950Y-4697582D02*
X14066950Y-4717582D01*
X14070000Y-9010000D02*
X14090000Y-9030000D01*
X14090000Y-9010000D02*
X14070000Y-9030000D01*
X14122768Y-4675710D02*
X14142768Y-4695710D01*
X14142768Y-4675710D02*
X14122768Y-4695710D01*
X14144083Y-4603417D02*
X14164083Y-4623417D01*
X14164083Y-4603417D02*
X14144083Y-4623417D01*
X14190000Y-6857000D02*
X14210000Y-6877000D01*
X14210000Y-6857000D02*
X14190000Y-6877000D01*
X14239083Y-4645459D02*
X14259083Y-4665459D01*
X14259083Y-4645459D02*
X14239083Y-4665459D01*
X14270000Y-5390000D02*
X14290000Y-5410000D01*
X14290000Y-5390000D02*
X14270000Y-5410000D01*
X14310000Y-5150000D02*
X14330000Y-5170000D01*
X14330000Y-5150000D02*
X14310000Y-5170000D01*
X14360000Y-7320000D02*
X14380000Y-7340000D01*
X14380000Y-7320000D02*
X14360000Y-7340000D01*
X14378000Y-4502000D02*
X14398000Y-4522000D01*
X14398000Y-4502000D02*
X14378000Y-4522000D01*
X14390000Y-5910000D02*
X14410000Y-5930000D01*
X14410000Y-5910000D02*
X14390000Y-5930000D01*
X14390000Y-6070000D02*
X14410000Y-6090000D01*
X14410000Y-6070000D02*
X14390000Y-6090000D01*
X14410000Y-6210000D02*
X14430000Y-6230000D01*
X14430000Y-6210000D02*
X14410000Y-6230000D01*
X14430000Y-4670000D02*
X14450000Y-4690000D01*
X14450000Y-4670000D02*
X14430000Y-4690000D01*
X14470000Y-4610000D02*
X14490000Y-4630000D01*
X14490000Y-4610000D02*
X14470000Y-4630000D01*
X14510000Y-4550000D02*
X14530000Y-4570000D01*
X14530000Y-4550000D02*
X14510000Y-4570000D01*
X14610000Y-6850000D02*
X14630000Y-6870000D01*
X14630000Y-6850000D02*
X14610000Y-6870000D01*
X14610000Y-7310000D02*
X14630000Y-7330000D01*
X14630000Y-7310000D02*
X14610000Y-7330000D01*
X14770000Y-5070000D02*
X14790000Y-5090000D01*
X14790000Y-5070000D02*
X14770000Y-5090000D01*
X14790000Y-6370000D02*
X14810000Y-6390000D01*
X14810000Y-6370000D02*
X14790000Y-6390000D01*
X14800000Y-6826000D02*
X14820000Y-6846000D01*
X14820000Y-6826000D02*
X14800000Y-6846000D01*
X14833941Y-4926059D02*
X14853941Y-4946059D01*
X14853941Y-4926059D02*
X14833941Y-4946059D01*
X14860000Y-7310000D02*
X14880000Y-7330000D01*
X14880000Y-7310000D02*
X14860000Y-7330000D01*
X14890000Y-6470000D02*
X14910000Y-6490000D01*
X14910000Y-6470000D02*
X14890000Y-6490000D01*
X14910000Y-5230000D02*
X14930000Y-5250000D01*
X14930000Y-5230000D02*
X14910000Y-5250000D01*
X14970000Y-9110000D02*
X14990000Y-9130000D01*
X14990000Y-9110000D02*
X14970000Y-9130000D01*
X14990000Y-7340000D02*
X15010000Y-7360000D01*
X15010000Y-7340000D02*
X14990000Y-7360000D01*
X15090000Y-6565000D02*
X15110000Y-6585000D01*
X15110000Y-6565000D02*
X15090000Y-6585000D01*
X15090000Y-10110000D02*
X15110000Y-10130000D01*
X15110000Y-10110000D02*
X15090000Y-10130000D01*
X15110000Y-6390000D02*
X15130000Y-6410000D01*
X15130000Y-6390000D02*
X15110000Y-6410000D01*
X15120000Y-6764000D02*
X15140000Y-6784000D01*
X15140000Y-6764000D02*
X15120000Y-6784000D01*
X15170000Y-4470000D02*
X15190000Y-4490000D01*
X15190000Y-4470000D02*
X15170000Y-4490000D01*
X15220000Y-7810000D02*
X15240000Y-7830000D01*
X15240000Y-7810000D02*
X15220000Y-7830000D01*
X15250000Y-6450000D02*
X15270000Y-6470000D01*
X15270000Y-6450000D02*
X15250000Y-6470000D01*
X15260000Y-5780000D02*
X15280000Y-5800000D01*
X15280000Y-5780000D02*
X15260000Y-5800000D01*
X15306059Y-6506059D02*
X15326059Y-6526059D01*
X15326059Y-6506059D02*
X15306059Y-6526059D01*
X15310000Y-8264690D02*
X15330000Y-8284690D01*
X15330000Y-8264690D02*
X15310000Y-8284690D01*
X15430000Y-5570000D02*
X15450000Y-5590000D01*
X15450000Y-5570000D02*
X15430000Y-5590000D01*
X15490000Y-5630000D02*
X15510000Y-5650000D01*
X15510000Y-5630000D02*
X15490000Y-5650000D01*
X15490000Y-7260000D02*
X15510000Y-7280000D01*
X15510000Y-7260000D02*
X15490000Y-7280000D01*
X15510000Y-6490000D02*
X15530000Y-6510000D01*
X15530000Y-6490000D02*
X15510000Y-6510000D01*
X15570000Y-6470000D02*
X15590000Y-6490000D01*
X15590000Y-6470000D02*
X15570000Y-6490000D01*
X15609500Y-8267190D02*
X15629500Y-8287190D01*
X15629500Y-8267190D02*
X15609500Y-8287190D01*
X15610000Y-4100000D02*
X15630000Y-4120000D01*
X15630000Y-4100000D02*
X15610000Y-4120000D01*
X15610000Y-5030000D02*
X15630000Y-5050000D01*
X15630000Y-5030000D02*
X15610000Y-5050000D01*
X15700000Y-6230000D02*
X15720000Y-6250000D01*
X15720000Y-6230000D02*
X15700000Y-6250000D01*
X15730000Y-4650000D02*
X15750000Y-4670000D01*
X15750000Y-4650000D02*
X15730000Y-4670000D01*
X15907262Y-6502000D02*
X15927262Y-6522000D01*
X15927262Y-6502000D02*
X15907262Y-6522000D01*
X15910000Y-5230000D02*
X15930000Y-5250000D01*
X15930000Y-5230000D02*
X15910000Y-5250000D01*
X15940000Y-6190000D02*
X15960000Y-6210000D01*
X15960000Y-6190000D02*
X15940000Y-6210000D01*
X15949474Y-6549874D02*
X15969474Y-6569874D01*
X15969474Y-6549874D02*
X15949474Y-6569874D01*
X15970000Y-4770000D02*
X15990000Y-4790000D01*
X15990000Y-4770000D02*
X15970000Y-4790000D01*
X15970000Y-5630000D02*
X15990000Y-5650000D01*
X15990000Y-5630000D02*
X15970000Y-5650000D01*
X15970000Y-5950000D02*
X15990000Y-5970000D01*
X15990000Y-5950000D02*
X15970000Y-5970000D01*
X15984500Y-8174640D02*
X16004500Y-8194640D01*
X16004500Y-8174640D02*
X15984500Y-8194640D01*
X16040000Y-7230000D02*
X16060000Y-7250000D01*
X16060000Y-7230000D02*
X16040000Y-7250000D01*
X16110000Y-6750000D02*
X16130000Y-6770000D01*
X16130000Y-6750000D02*
X16110000Y-6770000D01*
X16110000Y-7270000D02*
X16130000Y-7290000D01*
X16130000Y-7270000D02*
X16110000Y-7290000D01*
X16120000Y-6330000D02*
X16140000Y-6350000D01*
X16140000Y-6330000D02*
X16120000Y-6350000D01*
X16120000Y-6610000D02*
X16140000Y-6630000D01*
X16140000Y-6610000D02*
X16120000Y-6630000D01*
X16130000Y-5820000D02*
X16150000Y-5840000D01*
X16150000Y-5820000D02*
X16130000Y-5840000D01*
X16195000Y-7035000D02*
X16215000Y-7055000D01*
X16215000Y-7035000D02*
X16195000Y-7055000D01*
X16210000Y-7263000D02*
X16230000Y-7283000D01*
X16230000Y-7263000D02*
X16210000Y-7283000D01*
X16220000Y-7640000D02*
X16240000Y-7660000D01*
X16240000Y-7640000D02*
X16220000Y-7660000D01*
X16270000Y-9010000D02*
X16290000Y-9030000D01*
X16290000Y-9010000D02*
X16270000Y-9030000D01*
X16330000Y-6200000D02*
X16350000Y-6220000D01*
X16350000Y-6200000D02*
X16330000Y-6220000D01*
X16410000Y-4420000D02*
X16430000Y-4440000D01*
X16430000Y-4420000D02*
X16410000Y-4440000D01*
X16410000Y-6200000D02*
X16430000Y-6220000D01*
X16430000Y-6200000D02*
X16410000Y-6220000D01*
X16440000Y-7020000D02*
X16460000Y-7040000D01*
X16460000Y-7020000D02*
X16440000Y-7040000D01*
X16450000Y-4100000D02*
X16470000Y-4120000D01*
X16470000Y-4100000D02*
X16450000Y-4120000D01*
X16475000Y-6200000D02*
X16495000Y-6220000D01*
X16495000Y-6200000D02*
X16475000Y-6220000D01*
X16484500Y-8142190D02*
X16504500Y-8162190D01*
X16504500Y-8142190D02*
X16484500Y-8162190D01*
X16530000Y-7370000D02*
X16550000Y-7390000D01*
X16550000Y-7370000D02*
X16530000Y-7390000D01*
X16630000Y-7060000D02*
X16650000Y-7080000D01*
X16650000Y-7060000D02*
X16630000Y-7080000D01*
X16650000Y-9810000D02*
X16670000Y-9830000D01*
X16670000Y-9810000D02*
X16650000Y-9830000D01*
X16710000Y-8910000D02*
X16730000Y-8930000D01*
X16730000Y-8910000D02*
X16710000Y-8930000D01*
X16750000Y-7320000D02*
X16770000Y-7340000D01*
X16770000Y-7320000D02*
X16750000Y-7340000D01*
X16950000Y-4910000D02*
X16970000Y-4930000D01*
X16970000Y-4910000D02*
X16950000Y-4930000D01*
X16980000Y-6400000D02*
X17000000Y-6420000D01*
X17000000Y-6400000D02*
X16980000Y-6420000D01*
X16980000Y-6600000D02*
X17000000Y-6620000D01*
X17000000Y-6600000D02*
X16980000Y-6620000D01*
X17010000Y-6280000D02*
X17030000Y-6300000D01*
X17030000Y-6280000D02*
X17010000Y-6300000D01*
X17020000Y-5200000D02*
X17040000Y-5220000D01*
X17040000Y-5200000D02*
X17020000Y-5220000D01*
X17050000Y-4910000D02*
X17070000Y-4930000D01*
X17070000Y-4910000D02*
X17050000Y-4930000D01*
X17070000Y-7040000D02*
X17090000Y-7060000D01*
X17090000Y-7040000D02*
X17070000Y-7060000D01*
X17270000Y-4100000D02*
X17290000Y-4120000D01*
X17290000Y-4100000D02*
X17270000Y-4120000D01*
X17300000Y-4390000D02*
X17320000Y-4410000D01*
X17320000Y-4390000D02*
X17300000Y-4410000D01*
X17300000Y-7890000D02*
X17320000Y-7910000D01*
X17320000Y-7890000D02*
X17300000Y-7910000D01*
X17400000Y-7070000D02*
X17420000Y-7090000D01*
X17420000Y-7070000D02*
X17400000Y-7090000D01*
X17409500Y-6892190D02*
X17429500Y-6912190D01*
X17429500Y-6892190D02*
X17409500Y-6912190D01*
X17420000Y-7770000D02*
X17440000Y-7790000D01*
X17440000Y-7770000D02*
X17420000Y-7790000D01*
X17450000Y-5070000D02*
X17470000Y-5090000D01*
X17470000Y-5070000D02*
X17450000Y-5090000D01*
X17490000Y-7270000D02*
X17510000Y-7290000D01*
X17510000Y-7270000D02*
X17490000Y-7290000D01*
X17590000Y-6630000D02*
X17610000Y-6650000D01*
X17610000Y-6630000D02*
X17590000Y-6650000D01*
X17600000Y-7000000D02*
X17620000Y-7020000D01*
X17620000Y-7000000D02*
X17600000Y-7020000D01*
X17610000Y-6010000D02*
X17630000Y-6030000D01*
X17630000Y-6010000D02*
X17610000Y-6030000D01*
X17610000Y-6110000D02*
X17630000Y-6130000D01*
X17630000Y-6110000D02*
X17610000Y-6130000D01*
X17650000Y-5962000D02*
X17670000Y-5982000D01*
X17670000Y-5962000D02*
X17650000Y-5982000D01*
X17663666Y-6062000D02*
X17683666Y-6082000D01*
X17683666Y-6062000D02*
X17663666Y-6082000D01*
X17666412Y-6606412D02*
X17686412Y-6626412D01*
X17686412Y-6606412D02*
X17666412Y-6626412D01*
X17670000Y-6370000D02*
X17690000Y-6390000D01*
X17690000Y-6370000D02*
X17670000Y-6390000D01*
X17710000Y-8280000D02*
X17730000Y-8300000D01*
X17730000Y-8280000D02*
X17710000Y-8300000D01*
X17780000Y-6980000D02*
X17800000Y-7000000D01*
X17800000Y-6980000D02*
X17780000Y-7000000D01*
X17784500Y-7767190D02*
X17804500Y-7787190D01*
X17804500Y-7767190D02*
X17784500Y-7787190D01*
X17790000Y-6410000D02*
X17810000Y-6430000D01*
X17810000Y-6410000D02*
X17790000Y-6430000D01*
X17790000Y-10070000D02*
X17810000Y-10090000D01*
X17810000Y-10070000D02*
X17790000Y-10090000D01*
X17870000Y-6462000D02*
X17890000Y-6482000D01*
X17890000Y-6462000D02*
X17870000Y-6482000D01*
X17920000Y-6230000D02*
X17940000Y-6250000D01*
X17940000Y-6230000D02*
X17920000Y-6250000D01*
X17950000Y-6510000D02*
X17970000Y-6530000D01*
X17970000Y-6510000D02*
X17950000Y-6530000D01*
X18050000Y-6950000D02*
X18070000Y-6970000D01*
X18070000Y-6950000D02*
X18050000Y-6970000D01*
X18160000Y-8280000D02*
X18180000Y-8300000D01*
X18180000Y-8280000D02*
X18160000Y-8300000D01*
X18210000Y-7040000D02*
X18230000Y-7060000D01*
X18230000Y-7040000D02*
X18210000Y-7060000D01*
X18231450Y-5787190D02*
X18251450Y-5807190D01*
X18251450Y-5787190D02*
X18231450Y-5807190D01*
X18270000Y-6240000D02*
X18290000Y-6260000D01*
X18290000Y-6240000D02*
X18270000Y-6260000D01*
X18290000Y-7230000D02*
X18310000Y-7250000D01*
X18310000Y-7230000D02*
X18290000Y-7250000D01*
X18310000Y-5570000D02*
X18330000Y-5590000D01*
X18330000Y-5570000D02*
X18310000Y-5590000D01*
X18310000Y-5717500D02*
X18330000Y-5737500D01*
X18330000Y-5717500D02*
X18310000Y-5737500D01*
X18310000Y-7680000D02*
X18330000Y-7700000D01*
X18330000Y-7680000D02*
X18310000Y-7700000D01*
X18330000Y-5170000D02*
X18350000Y-5190000D01*
X18350000Y-5170000D02*
X18330000Y-5190000D01*
X18330000Y-5390000D02*
X18350000Y-5410000D01*
X18350000Y-5390000D02*
X18330000Y-5410000D01*
X18370000Y-5670000D02*
X18390000Y-5690000D01*
X18390000Y-5670000D02*
X18370000Y-5690000D01*
X18390000Y-5570000D02*
X18410000Y-5590000D01*
X18410000Y-5570000D02*
X18390000Y-5590000D01*
X18390000Y-5870000D02*
X18410000Y-5890000D01*
X18410000Y-5870000D02*
X18390000Y-5890000D01*
X18390000Y-7790000D02*
X18410000Y-7810000D01*
X18410000Y-7790000D02*
X18390000Y-7810000D01*
X18434500Y-8242190D02*
X18454500Y-8262190D01*
X18454500Y-8242190D02*
X18434500Y-8262190D01*
X18490000Y-9170000D02*
X18510000Y-9190000D01*
X18510000Y-9170000D02*
X18490000Y-9190000D01*
X18610000Y-5831690D02*
X18630000Y-5851690D01*
X18630000Y-5831690D02*
X18610000Y-5851690D01*
X18630000Y-5670000D02*
X18650000Y-5690000D01*
X18650000Y-5670000D02*
X18630000Y-5690000D01*
X18650000Y-5910000D02*
X18670000Y-5930000D01*
X18670000Y-5910000D02*
X18650000Y-5930000D01*
X18670000Y-6310000D02*
X18690000Y-6330000D01*
X18690000Y-6310000D02*
X18670000Y-6330000D01*
X18690000Y-6390000D02*
X18710000Y-6410000D01*
X18710000Y-6390000D02*
X18690000Y-6410000D01*
X18690000Y-7750000D02*
X18710000Y-7770000D01*
X18710000Y-7750000D02*
X18690000Y-7770000D01*
X18750000Y-10170000D02*
X18770000Y-10190000D01*
X18770000Y-10170000D02*
X18750000Y-10190000D01*
X18790000Y-6290000D02*
X18810000Y-6310000D01*
X18810000Y-6290000D02*
X18790000Y-6310000D01*
X18884500Y-4907190D02*
X18904500Y-4927190D01*
X18904500Y-4907190D02*
X18884500Y-4927190D01*
X18910000Y-6070000D02*
X18930000Y-6090000D01*
X18930000Y-6070000D02*
X18910000Y-6090000D01*
X18919714Y-5890000D02*
X18939714Y-5910000D01*
X18939714Y-5890000D02*
X18919714Y-5910000D01*
X18970000Y-9400000D02*
X18990000Y-9420000D01*
X18990000Y-9400000D02*
X18970000Y-9420000D01*
X19010000Y-6650000D02*
X19030000Y-6670000D01*
X19030000Y-6650000D02*
X19010000Y-6670000D01*
X19027500Y-5369190D02*
X19047500Y-5389190D01*
X19047500Y-5369190D02*
X19027500Y-5389190D01*
X19030000Y-6090000D02*
X19050000Y-6110000D01*
X19050000Y-6090000D02*
X19030000Y-6110000D01*
X19084500Y-5347190D02*
X19104500Y-5367190D01*
X19104500Y-5347190D02*
X19084500Y-5367190D01*
X19110000Y-5910000D02*
X19130000Y-5930000D01*
X19130000Y-5910000D02*
X19110000Y-5930000D01*
X19130000Y-6490000D02*
X19150000Y-6510000D01*
X19150000Y-6490000D02*
X19130000Y-6510000D01*
X19150000Y-6050000D02*
X19170000Y-6070000D01*
X19170000Y-6050000D02*
X19150000Y-6070000D01*
X19150000Y-7230000D02*
X19170000Y-7250000D01*
X19170000Y-7230000D02*
X19150000Y-7250000D01*
X19170000Y-6211690D02*
X19190000Y-6231690D01*
X19190000Y-6211690D02*
X19170000Y-6231690D01*
X19184500Y-5767190D02*
X19204500Y-5787190D01*
X19204500Y-5767190D02*
X19184500Y-5787190D01*
X19210000Y-10130000D02*
X19230000Y-10150000D01*
X19230000Y-10130000D02*
X19210000Y-10150000D01*
X19230000Y-4090000D02*
X19250000Y-4110000D01*
X19250000Y-4090000D02*
X19230000Y-4110000D01*
X19230000Y-5630000D02*
X19250000Y-5650000D01*
X19250000Y-5630000D02*
X19230000Y-5650000D01*
X19250000Y-5050000D02*
X19270000Y-5070000D01*
X19270000Y-5050000D02*
X19250000Y-5070000D01*
X19250000Y-5190000D02*
X19270000Y-5210000D01*
X19270000Y-5190000D02*
X19250000Y-5210000D01*
X19264500Y-5882140D02*
X19284500Y-5902140D01*
X19284500Y-5882140D02*
X19264500Y-5902140D01*
X19280000Y-6050000D02*
X19300000Y-6070000D01*
X19300000Y-6050000D02*
X19280000Y-6070000D01*
X19304500Y-5934190D02*
X19324500Y-5954190D01*
X19324500Y-5934190D02*
X19304500Y-5954190D01*
X19370000Y-5990000D02*
X19390000Y-6010000D01*
X19390000Y-5990000D02*
X19370000Y-6010000D01*
X19430000Y-5270500D02*
X19450000Y-5290500D01*
X19450000Y-5270500D02*
X19430000Y-5290500D01*
X19430000Y-5370000D02*
X19450000Y-5390000D01*
X19450000Y-5370000D02*
X19430000Y-5390000D01*
X19430000Y-6990000D02*
X19450000Y-7010000D01*
X19450000Y-6990000D02*
X19430000Y-7010000D01*
X19450000Y-5710000D02*
X19470000Y-5730000D01*
X19470000Y-5710000D02*
X19450000Y-5730000D01*
X19479500Y-6032190D02*
X19499500Y-6052190D01*
X19499500Y-6032190D02*
X19479500Y-6052190D01*
X19490000Y-4870000D02*
X19510000Y-4890000D01*
X19510000Y-4870000D02*
X19490000Y-4890000D01*
X19490000Y-5312500D02*
X19510000Y-5332500D01*
X19510000Y-5312500D02*
X19490000Y-5332500D01*
X19520000Y-10020000D02*
X19540000Y-10040000D01*
X19540000Y-10020000D02*
X19520000Y-10040000D01*
X19570000Y-5312500D02*
X19590000Y-5332500D01*
X19590000Y-5312500D02*
X19570000Y-5332500D01*
X19590000Y-6750000D02*
X19610000Y-6770000D01*
X19610000Y-6750000D02*
X19590000Y-6770000D01*
X19650000Y-4938000D02*
X19670000Y-4958000D01*
X19670000Y-4938000D02*
X19650000Y-4958000D01*
X19650000Y-5222500D02*
X19670000Y-5242500D01*
X19670000Y-5222500D02*
X19650000Y-5242500D01*
X19690000Y-5330000D02*
X19710000Y-5350000D01*
X19710000Y-5330000D02*
X19690000Y-5350000D01*
X19708849Y-5402565D02*
X19728849Y-5422565D01*
X19728849Y-5402565D02*
X19708849Y-5422565D01*
X19730000Y-6470000D02*
X19750000Y-6490000D01*
X19750000Y-6470000D02*
X19730000Y-6490000D01*
X19750000Y-6570000D02*
X19770000Y-6590000D01*
X19770000Y-6570000D02*
X19750000Y-6590000D01*
X19790000Y-5830000D02*
X19810000Y-5850000D01*
X19810000Y-5830000D02*
X19790000Y-5850000D01*
X19810000Y-5450000D02*
X19830000Y-5470000D01*
X19830000Y-5450000D02*
X19810000Y-5470000D01*
X19810000Y-6030000D02*
X19830000Y-6050000D01*
X19830000Y-6030000D02*
X19810000Y-6050000D01*
X19810000Y-6100000D02*
X19830000Y-6120000D01*
X19830000Y-6100000D02*
X19810000Y-6120000D01*
X19830000Y-7590000D02*
X19850000Y-7610000D01*
X19850000Y-7590000D02*
X19830000Y-7610000D01*
X19890000Y-7030000D02*
X19910000Y-7050000D01*
X19910000Y-7030000D02*
X19890000Y-7050000D01*
X19890000Y-7190000D02*
X19910000Y-7210000D01*
X19910000Y-7190000D02*
X19890000Y-7210000D01*
X19950000Y-5690000D02*
X19970000Y-5710000D01*
X19970000Y-5690000D02*
X19950000Y-5710000D01*
X20050000Y-6010000D02*
X20070000Y-6030000D01*
X20070000Y-6010000D02*
X20050000Y-6030000D01*
X20050000Y-6710000D02*
X20070000Y-6730000D01*
X20070000Y-6710000D02*
X20050000Y-6730000D01*
X20070000Y-6366690D02*
X20090000Y-6386690D01*
X20090000Y-6366690D02*
X20070000Y-6386690D01*
X20170000Y-5490000D02*
X20190000Y-5510000D01*
X20190000Y-5490000D02*
X20170000Y-5510000D01*
X20230000Y-5510000D02*
X20250000Y-5530000D01*
X20250000Y-5510000D02*
X20230000Y-5530000D01*
X20427804Y-6902929D02*
X20447804Y-6922929D01*
X20447804Y-6902929D02*
X20427804Y-6922929D01*
X20450000Y-5650000D02*
X20470000Y-5670000D01*
X20470000Y-5650000D02*
X20450000Y-5670000D01*
X20480000Y-8610000D02*
X20500000Y-8630000D01*
X20500000Y-8610000D02*
X20480000Y-8630000D01*
X20690000Y-6790000D02*
X20710000Y-6810000D01*
X20710000Y-6790000D02*
X20690000Y-6810000D01*
X20730000Y-7550000D02*
X20750000Y-7570000D01*
X20750000Y-7550000D02*
X20730000Y-7570000D01*
X20790000Y-5910000D02*
X20810000Y-5930000D01*
X20810000Y-5910000D02*
X20790000Y-5930000D01*
X20890000Y-8890000D02*
X20910000Y-8910000D01*
X20910000Y-8890000D02*
X20890000Y-8910000D01*
X10954500Y-9577190D02*
G75*
G03*
X10934500Y-9577190I-10000J0D01*
G01*
X10934500Y-9577190D02*
G75*
G03*
X10954500Y-9577190I10000J0D01*
G01*
X11064500Y-9577190D02*
G75*
G03*
X11044500Y-9577190I-10000J0D01*
G01*
X11044500Y-9577190D02*
G75*
G03*
X11064500Y-9577190I10000J0D01*
G01*
X7780000Y-8125000D02*
X7780000Y-8155000D01*
X7765000Y-8140000D02*
X7795000Y-8140000D01*
X7800000Y-7825000D02*
X7800000Y-7855000D01*
X7785000Y-7840000D02*
X7815000Y-7840000D01*
X7800000Y-8385000D02*
X7800000Y-8415000D01*
X7785000Y-8400000D02*
X7815000Y-8400000D01*
X7860000Y-8965000D02*
X7860000Y-8995000D01*
X7845000Y-8980000D02*
X7875000Y-8980000D01*
X7980000Y-8125000D02*
X7980000Y-8155000D01*
X7965000Y-8140000D02*
X7995000Y-8140000D01*
X9220000Y-6865000D02*
X9220000Y-6895000D01*
X9205000Y-6880000D02*
X9235000Y-6880000D01*
X12100000Y-7725000D02*
X12100000Y-7755000D01*
X12085000Y-7740000D02*
X12115000Y-7740000D01*
X12180000Y-7725000D02*
X12180000Y-7755000D01*
X12165000Y-7740000D02*
X12195000Y-7740000D01*
X13149500Y-7285000D02*
X13149500Y-7315000D01*
X13134500Y-7300000D02*
X13164500Y-7300000D01*
X13149500Y-7385000D02*
X13149500Y-7415000D01*
X13134500Y-7400000D02*
X13164500Y-7400000D01*
X14500000Y-4365000D02*
X14500000Y-4395000D01*
X14485000Y-4380000D02*
X14515000Y-4380000D01*
X14580000Y-4445000D02*
X14580000Y-4475000D01*
X14565000Y-4460000D02*
X14595000Y-4460000D01*
X15240000Y-5605000D02*
X15240000Y-5635000D01*
X15225000Y-5620000D02*
X15255000Y-5620000D01*
X15320000Y-5685000D02*
X15320000Y-5715000D01*
X15305000Y-5700000D02*
X15335000Y-5700000D01*
X15480000Y-9685000D02*
X15480000Y-9715000D01*
X15465000Y-9700000D02*
X15495000Y-9700000D01*
X16250000Y-9705000D02*
X16250000Y-9735000D01*
X16235000Y-9720000D02*
X16265000Y-9720000D01*
X18500000Y-5665000D02*
X18500000Y-5695000D01*
X18485000Y-5680000D02*
X18515000Y-5680000D01*
X18506000Y-6212000D02*
X18506000Y-6242000D01*
X18491000Y-6227000D02*
X18521000Y-6227000D01*
X19220000Y-8725000D02*
X19220000Y-8755000D01*
X19205000Y-8740000D02*
X19235000Y-8740000D01*
X19840000Y-6939190D02*
X19840000Y-6969190D01*
X19825000Y-6954190D02*
X19855000Y-6954190D01*
X20028000Y-6265218D02*
X20028000Y-6295218D01*
X20013000Y-6280218D02*
X20043000Y-6280218D01*
X12654142Y-6186642D02*
X12654142Y-6158358D01*
X12625858Y-6158358D01*
X12625858Y-6186642D01*
X12654142Y-6186642D01*
X12654142Y-6334142D02*
X12654142Y-6305858D01*
X12625858Y-6305858D01*
X12625858Y-6334142D01*
X12654142Y-6334142D01*
X12734142Y-8214142D02*
X12734142Y-8185858D01*
X12705858Y-8185858D01*
X12705858Y-8214142D01*
X12734142Y-8214142D01*
X12734142Y-8314142D02*
X12734142Y-8285858D01*
X12705858Y-8285858D01*
X12705858Y-8314142D01*
X12734142Y-8314142D01*
X12774142Y-8634142D02*
X12774142Y-8605858D01*
X12745858Y-8605858D01*
X12745858Y-8634142D01*
X12774142Y-8634142D01*
X12814142Y-4934142D02*
X12814142Y-4905858D01*
X12785858Y-4905858D01*
X12785858Y-4934142D01*
X12814142Y-4934142D01*
X12844142Y-8704142D02*
X12844142Y-8675858D01*
X12815858Y-8675858D01*
X12815858Y-8704142D01*
X12844142Y-8704142D01*
X13194142Y-7634142D02*
X13194142Y-7605858D01*
X13165858Y-7605858D01*
X13165858Y-7634142D01*
X13194142Y-7634142D01*
X13234142Y-8734142D02*
X13234142Y-8705858D01*
X13205858Y-8705858D01*
X13205858Y-8734142D01*
X13234142Y-8734142D01*
X13314142Y-7634142D02*
X13314142Y-7605858D01*
X13285858Y-7605858D01*
X13285858Y-7634142D01*
X13314142Y-7634142D01*
X13354142Y-8734142D02*
X13354142Y-8705858D01*
X13325858Y-8705858D01*
X13325858Y-8734142D01*
X13354142Y-8734142D01*
X13734142Y-6294142D02*
X13734142Y-6265858D01*
X13705858Y-6265858D01*
X13705858Y-6294142D01*
X13734142Y-6294142D01*
X13834142Y-6294142D02*
X13834142Y-6265858D01*
X13805858Y-6265858D01*
X13805858Y-6294142D01*
X13834142Y-6294142D01*
X15754142Y-8734142D02*
X15754142Y-8705858D01*
X15725858Y-8705858D01*
X15725858Y-8734142D01*
X15754142Y-8734142D01*
X15834142Y-8734142D02*
X15834142Y-8705858D01*
X15805858Y-8705858D01*
X15805858Y-8734142D01*
X15834142Y-8734142D01*
X16454142Y-6645332D02*
X16454142Y-6617048D01*
X16425858Y-6617048D01*
X16425858Y-6645332D01*
X16454142Y-6645332D01*
X17054142Y-7794142D02*
X17054142Y-7765858D01*
X17025858Y-7765858D01*
X17025858Y-7794142D01*
X17054142Y-7794142D01*
X17354142Y-8294142D02*
X17354142Y-8265858D01*
X17325858Y-8265858D01*
X17325858Y-8294142D01*
X17354142Y-8294142D01*
X19094142Y-8174142D02*
X19094142Y-8145858D01*
X19065858Y-8145858D01*
X19065858Y-8174142D01*
X19094142Y-8174142D01*
X9610000Y-9400000D02*
X9635000Y-9375000D01*
X9610000Y-9350000D01*
X9585000Y-9375000D01*
X9610000Y-9400000D01*
X9610000Y-9525000D02*
X9635000Y-9500000D01*
X9610000Y-9475000D01*
X9585000Y-9500000D01*
X9610000Y-9525000D01*
X9610000Y-9650000D02*
X9635000Y-9625000D01*
X9610000Y-9600000D01*
X9585000Y-9625000D01*
X9610000Y-9650000D01*
X10084500Y-4073690D02*
X10144500Y-4133690D01*
X10144500Y-4073690D02*
X10084500Y-4133690D01*
X10144500Y-4103690D02*
G75*
G03*
X10084500Y-4103690I-30000J0D01*
G01*
X10084500Y-4103690D02*
G75*
G03*
X10144500Y-4103690I30000J0D01*
G01*
X10084500Y-4063690D02*
X10084500Y-4143690D01*
X10084500Y-4143690D02*
G75*
G03*
X10144500Y-4143690I30000J0D01*
G01*
X10144500Y-4143690D02*
X10144500Y-4063690D01*
X10144500Y-4063690D02*
G75*
G03*
X10084500Y-4063690I-30000J0D01*
G01*
X10084500Y-4493690D02*
X10144500Y-4553690D01*
X10144500Y-4493690D02*
X10084500Y-4553690D01*
X10144500Y-4523690D02*
G75*
G03*
X10084500Y-4523690I-30000J0D01*
G01*
X10084500Y-4523690D02*
G75*
G03*
X10144500Y-4523690I30000J0D01*
G01*
X10084500Y-4468690D02*
X10084500Y-4578690D01*
X10084500Y-4578690D02*
G75*
G03*
X10144500Y-4578690I30000J0D01*
G01*
X10144500Y-4578690D02*
X10144500Y-4468690D01*
X10144500Y-4468690D02*
G75*
G03*
X10084500Y-4468690I-30000J0D01*
G01*
X10948500Y-4073690D02*
X11008500Y-4133690D01*
X11008500Y-4073690D02*
X10948500Y-4133690D01*
X11008500Y-4103690D02*
G75*
G03*
X10948500Y-4103690I-30000J0D01*
G01*
X10948500Y-4103690D02*
G75*
G03*
X11008500Y-4103690I30000J0D01*
G01*
X10948500Y-4063690D02*
X10948500Y-4143690D01*
X10948500Y-4143690D02*
G75*
G03*
X11008500Y-4143690I30000J0D01*
G01*
X11008500Y-4143690D02*
X11008500Y-4063690D01*
X11008500Y-4063690D02*
G75*
G03*
X10948500Y-4063690I-30000J0D01*
G01*
X10948500Y-4493690D02*
X11008500Y-4553690D01*
X11008500Y-4493690D02*
X10948500Y-4553690D01*
X11008500Y-4523690D02*
G75*
G03*
X10948500Y-4523690I-30000J0D01*
G01*
X10948500Y-4523690D02*
G75*
G03*
X11008500Y-4523690I30000J0D01*
G01*
X10948500Y-4468690D02*
X10948500Y-4578690D01*
X10948500Y-4578690D02*
G75*
G03*
X11008500Y-4578690I30000J0D01*
G01*
X11008500Y-4578690D02*
X11008500Y-4468690D01*
X11008500Y-4468690D02*
G75*
G03*
X10948500Y-4468690I-30000J0D01*
G01*
X15727000Y-10220690D02*
X15792000Y-10285690D01*
X15792000Y-10220690D02*
X15727000Y-10285690D01*
X15759500Y-10220690D02*
X15759500Y-10285690D01*
X15727000Y-10253190D02*
X15792000Y-10253190D01*
X15994000Y-10221690D02*
X16059000Y-10286690D01*
X16059000Y-10221690D02*
X15994000Y-10286690D01*
X16026500Y-10221690D02*
X16026500Y-10286690D01*
X15994000Y-10254190D02*
X16059000Y-10254190D01*
X20345000Y-5381690D02*
X20410000Y-5446690D01*
X20410000Y-5381690D02*
X20345000Y-5446690D01*
X20377500Y-5381690D02*
X20377500Y-5446690D01*
X20345000Y-5414190D02*
X20410000Y-5414190D01*
X20472000Y-5381690D02*
X20537000Y-5446690D01*
X20537000Y-5381690D02*
X20472000Y-5446690D01*
X20504500Y-5381690D02*
X20504500Y-5446690D01*
X20472000Y-5414190D02*
X20537000Y-5414190D01*
X20599000Y-5381690D02*
X20664000Y-5446690D01*
X20664000Y-5381690D02*
X20599000Y-5446690D01*
X20631500Y-5381690D02*
X20631500Y-5446690D01*
X20599000Y-5414190D02*
X20664000Y-5414190D01*
X20726000Y-5381690D02*
X20791000Y-5446690D01*
X20791000Y-5381690D02*
X20726000Y-5446690D01*
X20758500Y-5381690D02*
X20758500Y-5446690D01*
X20726000Y-5414190D02*
X20791000Y-5414190D01*
X8931000Y-4415690D02*
X9030000Y-4514690D01*
X9030000Y-4415690D02*
X8931000Y-4514690D01*
X9015502Y-4500192D02*
X9015502Y-4430188D01*
X8945498Y-4430188D01*
X8945498Y-4500192D01*
X9015502Y-4500192D01*
X9381000Y-4415690D02*
X9480000Y-4514690D01*
X9480000Y-4415690D02*
X9381000Y-4514690D01*
X9465502Y-4500192D02*
X9465502Y-4430188D01*
X9395498Y-4430188D01*
X9395498Y-4500192D01*
X9465502Y-4500192D01*
X19080000Y-4415690D02*
X19179000Y-4514690D01*
X19179000Y-4415690D02*
X19080000Y-4514690D01*
X19164502Y-4500192D02*
X19164502Y-4430188D01*
X19094498Y-4430188D01*
X19094498Y-4500192D01*
X19164502Y-4500192D01*
X19530000Y-4415690D02*
X19629000Y-4514690D01*
X19629000Y-4415690D02*
X19530000Y-4514690D01*
X19614502Y-4500192D02*
X19614502Y-4430188D01*
X19544498Y-4430188D01*
X19544498Y-4500192D01*
X19614502Y-4500192D01*
X20583750Y-5964690D02*
X20682750Y-6063690D01*
X20682750Y-5964690D02*
X20583750Y-6063690D01*
X20668252Y-6049192D02*
X20668252Y-5979188D01*
X20598248Y-5979188D01*
X20598248Y-6049192D01*
X20668252Y-6049192D01*
X20583750Y-6414690D02*
X20682750Y-6513690D01*
X20682750Y-6414690D02*
X20583750Y-6513690D01*
X20668252Y-6499192D02*
X20668252Y-6429188D01*
X20598248Y-6429188D01*
X20598248Y-6499192D01*
X20668252Y-6499192D01*
D13*
X8789500Y-4649190D02*
X8919500Y-4779190D01*
X8919500Y-4649190D02*
X8789500Y-4779190D01*
X8854500Y-4779190D02*
X8919500Y-4714190D01*
X8854500Y-4649190D01*
X8789500Y-4714190D01*
X8854500Y-4779190D01*
X9490500Y-4649190D02*
X9620500Y-4779190D01*
X9620500Y-4649190D02*
X9490500Y-4779190D01*
X9555500Y-4779190D02*
X9620500Y-4714190D01*
X9555500Y-4649190D01*
X9490500Y-4714190D01*
X9555500Y-4779190D01*
X18938500Y-4649190D02*
X19068500Y-4779190D01*
X19068500Y-4649190D02*
X18938500Y-4779190D01*
X19003500Y-4779190D02*
X19068500Y-4714190D01*
X19003500Y-4649190D01*
X18938500Y-4714190D01*
X19003500Y-4779190D01*
X19639500Y-4649190D02*
X19769500Y-4779190D01*
X19769500Y-4649190D02*
X19639500Y-4779190D01*
X19704500Y-4779190D02*
X19769500Y-4714190D01*
X19704500Y-4649190D01*
X19639500Y-4714190D01*
X19704500Y-4779190D01*
X20319250Y-5823190D02*
X20449250Y-5953190D01*
X20449250Y-5823190D02*
X20319250Y-5953190D01*
X20384250Y-5953190D02*
X20449250Y-5888190D01*
X20384250Y-5823190D01*
X20319250Y-5888190D01*
X20384250Y-5953190D01*
X20319250Y-6524190D02*
X20449250Y-6654190D01*
X20449250Y-6524190D02*
X20319250Y-6654190D01*
X20384250Y-6654190D02*
X20449250Y-6589190D01*
X20384250Y-6524190D01*
X20319250Y-6589190D01*
X20384250Y-6654190D01*
D11*
X7657777Y-10683174D02*
X7657777Y-10483174D01*
X7657777Y-10483174D02*
X7705396Y-10483174D01*
X7705396Y-10483174D02*
X7733967Y-10492698D01*
X7733967Y-10492698D02*
X7753015Y-10511745D01*
X7753015Y-10511745D02*
X7762539Y-10530793D01*
X7762539Y-10530793D02*
X7772062Y-10568888D01*
X7772062Y-10568888D02*
X7772062Y-10597460D01*
X7772062Y-10597460D02*
X7762539Y-10635555D01*
X7762539Y-10635555D02*
X7753015Y-10654602D01*
X7753015Y-10654602D02*
X7733967Y-10673650D01*
X7733967Y-10673650D02*
X7705396Y-10683174D01*
X7705396Y-10683174D02*
X7657777Y-10683174D01*
X7857777Y-10683174D02*
X7857777Y-10549840D01*
X7857777Y-10587936D02*
X7867301Y-10568888D01*
X7867301Y-10568888D02*
X7876824Y-10559364D01*
X7876824Y-10559364D02*
X7895872Y-10549840D01*
X7895872Y-10549840D02*
X7914920Y-10549840D01*
X7981586Y-10683174D02*
X7981586Y-10549840D01*
X7981586Y-10483174D02*
X7972062Y-10492698D01*
X7972062Y-10492698D02*
X7981586Y-10502221D01*
X7981586Y-10502221D02*
X7991110Y-10492698D01*
X7991110Y-10492698D02*
X7981586Y-10483174D01*
X7981586Y-10483174D02*
X7981586Y-10502221D01*
X8105396Y-10683174D02*
X8086348Y-10673650D01*
X8086348Y-10673650D02*
X8076824Y-10654602D01*
X8076824Y-10654602D02*
X8076824Y-10483174D01*
X8210158Y-10683174D02*
X8191110Y-10673650D01*
X8191110Y-10673650D02*
X8181586Y-10654602D01*
X8181586Y-10654602D02*
X8181586Y-10483174D01*
X8438729Y-10683174D02*
X8438729Y-10483174D01*
X8438729Y-10483174D02*
X8505396Y-10626031D01*
X8505396Y-10626031D02*
X8572063Y-10483174D01*
X8572063Y-10483174D02*
X8572063Y-10683174D01*
X8753015Y-10683174D02*
X8753015Y-10578412D01*
X8753015Y-10578412D02*
X8743491Y-10559364D01*
X8743491Y-10559364D02*
X8724444Y-10549840D01*
X8724444Y-10549840D02*
X8686348Y-10549840D01*
X8686348Y-10549840D02*
X8667301Y-10559364D01*
X8753015Y-10673650D02*
X8733967Y-10683174D01*
X8733967Y-10683174D02*
X8686348Y-10683174D01*
X8686348Y-10683174D02*
X8667301Y-10673650D01*
X8667301Y-10673650D02*
X8657777Y-10654602D01*
X8657777Y-10654602D02*
X8657777Y-10635555D01*
X8657777Y-10635555D02*
X8667301Y-10616507D01*
X8667301Y-10616507D02*
X8686348Y-10606983D01*
X8686348Y-10606983D02*
X8733967Y-10606983D01*
X8733967Y-10606983D02*
X8753015Y-10597460D01*
X8848253Y-10549840D02*
X8848253Y-10749840D01*
X8848253Y-10559364D02*
X8867301Y-10549840D01*
X8867301Y-10549840D02*
X8905396Y-10549840D01*
X8905396Y-10549840D02*
X8924444Y-10559364D01*
X8924444Y-10559364D02*
X8933967Y-10568888D01*
X8933967Y-10568888D02*
X8943491Y-10587936D01*
X8943491Y-10587936D02*
X8943491Y-10645079D01*
X8943491Y-10645079D02*
X8933967Y-10664126D01*
X8933967Y-10664126D02*
X8924444Y-10673650D01*
X8924444Y-10673650D02*
X8905396Y-10683174D01*
X8905396Y-10683174D02*
X8867301Y-10683174D01*
X8867301Y-10683174D02*
X8848253Y-10673650D01*
X9029205Y-10664126D02*
X9038729Y-10673650D01*
X9038729Y-10673650D02*
X9029205Y-10683174D01*
X9029205Y-10683174D02*
X9019682Y-10673650D01*
X9019682Y-10673650D02*
X9029205Y-10664126D01*
X9029205Y-10664126D02*
X9029205Y-10683174D01*
X9029205Y-10559364D02*
X9038729Y-10568888D01*
X9038729Y-10568888D02*
X9029205Y-10578412D01*
X9029205Y-10578412D02*
X9019682Y-10568888D01*
X9019682Y-10568888D02*
X9029205Y-10559364D01*
X9029205Y-10559364D02*
X9029205Y-10578412D01*
D12*
X7377000Y-11001690D02*
X7397000Y-11021690D01*
X7397000Y-11001690D02*
X7377000Y-11021690D01*
D11*
X7695872Y-10903174D02*
X7714920Y-10903174D01*
X7714920Y-10903174D02*
X7733967Y-10912698D01*
X7733967Y-10912698D02*
X7743491Y-10922221D01*
X7743491Y-10922221D02*
X7753015Y-10941269D01*
X7753015Y-10941269D02*
X7762539Y-10979364D01*
X7762539Y-10979364D02*
X7762539Y-11026983D01*
X7762539Y-11026983D02*
X7753015Y-11065079D01*
X7753015Y-11065079D02*
X7743491Y-11084126D01*
X7743491Y-11084126D02*
X7733967Y-11093650D01*
X7733967Y-11093650D02*
X7714920Y-11103174D01*
X7714920Y-11103174D02*
X7695872Y-11103174D01*
X7695872Y-11103174D02*
X7676824Y-11093650D01*
X7676824Y-11093650D02*
X7667301Y-11084126D01*
X7667301Y-11084126D02*
X7657777Y-11065079D01*
X7657777Y-11065079D02*
X7648253Y-11026983D01*
X7648253Y-11026983D02*
X7648253Y-10979364D01*
X7648253Y-10979364D02*
X7657777Y-10941269D01*
X7657777Y-10941269D02*
X7667301Y-10922221D01*
X7667301Y-10922221D02*
X7676824Y-10912698D01*
X7676824Y-10912698D02*
X7695872Y-10903174D01*
X7848253Y-11084126D02*
X7857777Y-11093650D01*
X7857777Y-11093650D02*
X7848253Y-11103174D01*
X7848253Y-11103174D02*
X7838729Y-11093650D01*
X7838729Y-11093650D02*
X7848253Y-11084126D01*
X7848253Y-11084126D02*
X7848253Y-11103174D01*
X7933967Y-10922221D02*
X7943491Y-10912698D01*
X7943491Y-10912698D02*
X7962539Y-10903174D01*
X7962539Y-10903174D02*
X8010158Y-10903174D01*
X8010158Y-10903174D02*
X8029205Y-10912698D01*
X8029205Y-10912698D02*
X8038729Y-10922221D01*
X8038729Y-10922221D02*
X8048253Y-10941269D01*
X8048253Y-10941269D02*
X8048253Y-10960317D01*
X8048253Y-10960317D02*
X8038729Y-10988888D01*
X8038729Y-10988888D02*
X7924443Y-11103174D01*
X7924443Y-11103174D02*
X8048253Y-11103174D01*
X8172062Y-10903174D02*
X8191110Y-10903174D01*
X8191110Y-10903174D02*
X8210158Y-10912698D01*
X8210158Y-10912698D02*
X8219682Y-10922221D01*
X8219682Y-10922221D02*
X8229205Y-10941269D01*
X8229205Y-10941269D02*
X8238729Y-10979364D01*
X8238729Y-10979364D02*
X8238729Y-11026983D01*
X8238729Y-11026983D02*
X8229205Y-11065079D01*
X8229205Y-11065079D02*
X8219682Y-11084126D01*
X8219682Y-11084126D02*
X8210158Y-11093650D01*
X8210158Y-11093650D02*
X8191110Y-11103174D01*
X8191110Y-11103174D02*
X8172062Y-11103174D01*
X8172062Y-11103174D02*
X8153015Y-11093650D01*
X8153015Y-11093650D02*
X8143491Y-11084126D01*
X8143491Y-11084126D02*
X8133967Y-11065079D01*
X8133967Y-11065079D02*
X8124443Y-11026983D01*
X8124443Y-11026983D02*
X8124443Y-10979364D01*
X8124443Y-10979364D02*
X8133967Y-10941269D01*
X8133967Y-10941269D02*
X8143491Y-10922221D01*
X8143491Y-10922221D02*
X8153015Y-10912698D01*
X8153015Y-10912698D02*
X8172062Y-10903174D01*
X8362539Y-10903174D02*
X8381586Y-10903174D01*
X8381586Y-10903174D02*
X8400634Y-10912698D01*
X8400634Y-10912698D02*
X8410158Y-10922221D01*
X8410158Y-10922221D02*
X8419682Y-10941269D01*
X8419682Y-10941269D02*
X8429205Y-10979364D01*
X8429205Y-10979364D02*
X8429205Y-11026983D01*
X8429205Y-11026983D02*
X8419682Y-11065079D01*
X8419682Y-11065079D02*
X8410158Y-11084126D01*
X8410158Y-11084126D02*
X8400634Y-11093650D01*
X8400634Y-11093650D02*
X8381586Y-11103174D01*
X8381586Y-11103174D02*
X8362539Y-11103174D01*
X8362539Y-11103174D02*
X8343491Y-11093650D01*
X8343491Y-11093650D02*
X8333967Y-11084126D01*
X8333967Y-11084126D02*
X8324443Y-11065079D01*
X8324443Y-11065079D02*
X8314920Y-11026983D01*
X8314920Y-11026983D02*
X8314920Y-10979364D01*
X8314920Y-10979364D02*
X8324443Y-10941269D01*
X8324443Y-10941269D02*
X8333967Y-10922221D01*
X8333967Y-10922221D02*
X8343491Y-10912698D01*
X8343491Y-10912698D02*
X8362539Y-10903174D01*
X8514920Y-11103174D02*
X8514920Y-10969840D01*
X8514920Y-10988888D02*
X8524444Y-10979364D01*
X8524444Y-10979364D02*
X8543491Y-10969840D01*
X8543491Y-10969840D02*
X8572063Y-10969840D01*
X8572063Y-10969840D02*
X8591110Y-10979364D01*
X8591110Y-10979364D02*
X8600634Y-10998412D01*
X8600634Y-10998412D02*
X8600634Y-11103174D01*
X8600634Y-10998412D02*
X8610158Y-10979364D01*
X8610158Y-10979364D02*
X8629205Y-10969840D01*
X8629205Y-10969840D02*
X8657777Y-10969840D01*
X8657777Y-10969840D02*
X8676825Y-10979364D01*
X8676825Y-10979364D02*
X8686348Y-10998412D01*
X8686348Y-10998412D02*
X8686348Y-11103174D01*
X8781586Y-11103174D02*
X8781586Y-10969840D01*
X8781586Y-10988888D02*
X8791110Y-10979364D01*
X8791110Y-10979364D02*
X8810158Y-10969840D01*
X8810158Y-10969840D02*
X8838729Y-10969840D01*
X8838729Y-10969840D02*
X8857777Y-10979364D01*
X8857777Y-10979364D02*
X8867301Y-10998412D01*
X8867301Y-10998412D02*
X8867301Y-11103174D01*
X8867301Y-10998412D02*
X8876825Y-10979364D01*
X8876825Y-10979364D02*
X8895872Y-10969840D01*
X8895872Y-10969840D02*
X8924444Y-10969840D01*
X8924444Y-10969840D02*
X8943491Y-10979364D01*
X8943491Y-10979364D02*
X8953015Y-10998412D01*
X8953015Y-10998412D02*
X8953015Y-11103174D01*
X9343491Y-10893650D02*
X9172063Y-11150793D01*
X9600634Y-10903174D02*
X9619682Y-10903174D01*
X9619682Y-10903174D02*
X9638729Y-10912698D01*
X9638729Y-10912698D02*
X9648253Y-10922221D01*
X9648253Y-10922221D02*
X9657777Y-10941269D01*
X9657777Y-10941269D02*
X9667301Y-10979364D01*
X9667301Y-10979364D02*
X9667301Y-11026983D01*
X9667301Y-11026983D02*
X9657777Y-11065079D01*
X9657777Y-11065079D02*
X9648253Y-11084126D01*
X9648253Y-11084126D02*
X9638729Y-11093650D01*
X9638729Y-11093650D02*
X9619682Y-11103174D01*
X9619682Y-11103174D02*
X9600634Y-11103174D01*
X9600634Y-11103174D02*
X9581587Y-11093650D01*
X9581587Y-11093650D02*
X9572063Y-11084126D01*
X9572063Y-11084126D02*
X9562539Y-11065079D01*
X9562539Y-11065079D02*
X9553015Y-11026983D01*
X9553015Y-11026983D02*
X9553015Y-10979364D01*
X9553015Y-10979364D02*
X9562539Y-10941269D01*
X9562539Y-10941269D02*
X9572063Y-10922221D01*
X9572063Y-10922221D02*
X9581587Y-10912698D01*
X9581587Y-10912698D02*
X9600634Y-10903174D01*
X9753015Y-11084126D02*
X9762539Y-11093650D01*
X9762539Y-11093650D02*
X9753015Y-11103174D01*
X9753015Y-11103174D02*
X9743491Y-11093650D01*
X9743491Y-11093650D02*
X9753015Y-11084126D01*
X9753015Y-11084126D02*
X9753015Y-11103174D01*
X9886348Y-10903174D02*
X9905396Y-10903174D01*
X9905396Y-10903174D02*
X9924444Y-10912698D01*
X9924444Y-10912698D02*
X9933968Y-10922221D01*
X9933968Y-10922221D02*
X9943491Y-10941269D01*
X9943491Y-10941269D02*
X9953015Y-10979364D01*
X9953015Y-10979364D02*
X9953015Y-11026983D01*
X9953015Y-11026983D02*
X9943491Y-11065079D01*
X9943491Y-11065079D02*
X9933968Y-11084126D01*
X9933968Y-11084126D02*
X9924444Y-11093650D01*
X9924444Y-11093650D02*
X9905396Y-11103174D01*
X9905396Y-11103174D02*
X9886348Y-11103174D01*
X9886348Y-11103174D02*
X9867301Y-11093650D01*
X9867301Y-11093650D02*
X9857777Y-11084126D01*
X9857777Y-11084126D02*
X9848253Y-11065079D01*
X9848253Y-11065079D02*
X9838729Y-11026983D01*
X9838729Y-11026983D02*
X9838729Y-10979364D01*
X9838729Y-10979364D02*
X9848253Y-10941269D01*
X9848253Y-10941269D02*
X9857777Y-10922221D01*
X9857777Y-10922221D02*
X9867301Y-10912698D01*
X9867301Y-10912698D02*
X9886348Y-10903174D01*
X10076825Y-10903174D02*
X10095872Y-10903174D01*
X10095872Y-10903174D02*
X10114920Y-10912698D01*
X10114920Y-10912698D02*
X10124444Y-10922221D01*
X10124444Y-10922221D02*
X10133968Y-10941269D01*
X10133968Y-10941269D02*
X10143491Y-10979364D01*
X10143491Y-10979364D02*
X10143491Y-11026983D01*
X10143491Y-11026983D02*
X10133968Y-11065079D01*
X10133968Y-11065079D02*
X10124444Y-11084126D01*
X10124444Y-11084126D02*
X10114920Y-11093650D01*
X10114920Y-11093650D02*
X10095872Y-11103174D01*
X10095872Y-11103174D02*
X10076825Y-11103174D01*
X10076825Y-11103174D02*
X10057777Y-11093650D01*
X10057777Y-11093650D02*
X10048253Y-11084126D01*
X10048253Y-11084126D02*
X10038729Y-11065079D01*
X10038729Y-11065079D02*
X10029206Y-11026983D01*
X10029206Y-11026983D02*
X10029206Y-10979364D01*
X10029206Y-10979364D02*
X10038729Y-10941269D01*
X10038729Y-10941269D02*
X10048253Y-10922221D01*
X10048253Y-10922221D02*
X10057777Y-10912698D01*
X10057777Y-10912698D02*
X10076825Y-10903174D01*
X10210158Y-10903174D02*
X10343491Y-10903174D01*
X10343491Y-10903174D02*
X10257777Y-11103174D01*
X10429206Y-11103174D02*
X10467301Y-11103174D01*
X10467301Y-11103174D02*
X10486349Y-11093650D01*
X10486349Y-11093650D02*
X10495872Y-11084126D01*
X10495872Y-11084126D02*
X10514920Y-11055555D01*
X10514920Y-11055555D02*
X10524444Y-11017460D01*
X10524444Y-11017460D02*
X10524444Y-10941269D01*
X10524444Y-10941269D02*
X10514920Y-10922221D01*
X10514920Y-10922221D02*
X10505396Y-10912698D01*
X10505396Y-10912698D02*
X10486349Y-10903174D01*
X10486349Y-10903174D02*
X10448253Y-10903174D01*
X10448253Y-10903174D02*
X10429206Y-10912698D01*
X10429206Y-10912698D02*
X10419682Y-10922221D01*
X10419682Y-10922221D02*
X10410158Y-10941269D01*
X10410158Y-10941269D02*
X10410158Y-10988888D01*
X10410158Y-10988888D02*
X10419682Y-11007936D01*
X10419682Y-11007936D02*
X10429206Y-11017460D01*
X10429206Y-11017460D02*
X10448253Y-11026983D01*
X10448253Y-11026983D02*
X10486349Y-11026983D01*
X10486349Y-11026983D02*
X10505396Y-11017460D01*
X10505396Y-11017460D02*
X10514920Y-11007936D01*
X10514920Y-11007936D02*
X10524444Y-10988888D01*
X10600634Y-10903174D02*
X10600634Y-10941269D01*
X10676825Y-10903174D02*
X10676825Y-10941269D01*
X10972063Y-11179364D02*
X10962539Y-11169840D01*
X10962539Y-11169840D02*
X10943491Y-11141269D01*
X10943491Y-11141269D02*
X10933968Y-11122221D01*
X10933968Y-11122221D02*
X10924444Y-11093650D01*
X10924444Y-11093650D02*
X10914920Y-11046031D01*
X10914920Y-11046031D02*
X10914920Y-11007936D01*
X10914920Y-11007936D02*
X10924444Y-10960317D01*
X10924444Y-10960317D02*
X10933968Y-10931745D01*
X10933968Y-10931745D02*
X10943491Y-10912698D01*
X10943491Y-10912698D02*
X10962539Y-10884126D01*
X10962539Y-10884126D02*
X10972063Y-10874602D01*
X11029206Y-10903174D02*
X11153015Y-10903174D01*
X11153015Y-10903174D02*
X11086349Y-10979364D01*
X11086349Y-10979364D02*
X11114920Y-10979364D01*
X11114920Y-10979364D02*
X11133968Y-10988888D01*
X11133968Y-10988888D02*
X11143491Y-10998412D01*
X11143491Y-10998412D02*
X11153015Y-11017460D01*
X11153015Y-11017460D02*
X11153015Y-11065079D01*
X11153015Y-11065079D02*
X11143491Y-11084126D01*
X11143491Y-11084126D02*
X11133968Y-11093650D01*
X11133968Y-11093650D02*
X11114920Y-11103174D01*
X11114920Y-11103174D02*
X11057777Y-11103174D01*
X11057777Y-11103174D02*
X11038730Y-11093650D01*
X11038730Y-11093650D02*
X11029206Y-11084126D01*
X11276825Y-10903174D02*
X11295872Y-10903174D01*
X11295872Y-10903174D02*
X11314920Y-10912698D01*
X11314920Y-10912698D02*
X11324444Y-10922221D01*
X11324444Y-10922221D02*
X11333968Y-10941269D01*
X11333968Y-10941269D02*
X11343491Y-10979364D01*
X11343491Y-10979364D02*
X11343491Y-11026983D01*
X11343491Y-11026983D02*
X11333968Y-11065079D01*
X11333968Y-11065079D02*
X11324444Y-11084126D01*
X11324444Y-11084126D02*
X11314920Y-11093650D01*
X11314920Y-11093650D02*
X11295872Y-11103174D01*
X11295872Y-11103174D02*
X11276825Y-11103174D01*
X11276825Y-11103174D02*
X11257777Y-11093650D01*
X11257777Y-11093650D02*
X11248253Y-11084126D01*
X11248253Y-11084126D02*
X11238729Y-11065079D01*
X11238729Y-11065079D02*
X11229206Y-11026983D01*
X11229206Y-11026983D02*
X11229206Y-10979364D01*
X11229206Y-10979364D02*
X11238729Y-10941269D01*
X11238729Y-10941269D02*
X11248253Y-10922221D01*
X11248253Y-10922221D02*
X11257777Y-10912698D01*
X11257777Y-10912698D02*
X11276825Y-10903174D01*
X11419682Y-10922221D02*
X11429206Y-10912698D01*
X11429206Y-10912698D02*
X11448253Y-10903174D01*
X11448253Y-10903174D02*
X11495872Y-10903174D01*
X11495872Y-10903174D02*
X11514920Y-10912698D01*
X11514920Y-10912698D02*
X11524444Y-10922221D01*
X11524444Y-10922221D02*
X11533968Y-10941269D01*
X11533968Y-10941269D02*
X11533968Y-10960317D01*
X11533968Y-10960317D02*
X11524444Y-10988888D01*
X11524444Y-10988888D02*
X11410158Y-11103174D01*
X11410158Y-11103174D02*
X11533968Y-11103174D01*
X11772063Y-11103174D02*
X11772063Y-10903174D01*
X11857777Y-11103174D02*
X11857777Y-10998412D01*
X11857777Y-10998412D02*
X11848253Y-10979364D01*
X11848253Y-10979364D02*
X11829206Y-10969840D01*
X11829206Y-10969840D02*
X11800634Y-10969840D01*
X11800634Y-10969840D02*
X11781587Y-10979364D01*
X11781587Y-10979364D02*
X11772063Y-10988888D01*
X11981587Y-11103174D02*
X11962539Y-11093650D01*
X11962539Y-11093650D02*
X11953015Y-11084126D01*
X11953015Y-11084126D02*
X11943491Y-11065079D01*
X11943491Y-11065079D02*
X11943491Y-11007936D01*
X11943491Y-11007936D02*
X11953015Y-10988888D01*
X11953015Y-10988888D02*
X11962539Y-10979364D01*
X11962539Y-10979364D02*
X11981587Y-10969840D01*
X11981587Y-10969840D02*
X12010158Y-10969840D01*
X12010158Y-10969840D02*
X12029206Y-10979364D01*
X12029206Y-10979364D02*
X12038730Y-10988888D01*
X12038730Y-10988888D02*
X12048253Y-11007936D01*
X12048253Y-11007936D02*
X12048253Y-11065079D01*
X12048253Y-11065079D02*
X12038730Y-11084126D01*
X12038730Y-11084126D02*
X12029206Y-11093650D01*
X12029206Y-11093650D02*
X12010158Y-11103174D01*
X12010158Y-11103174D02*
X11981587Y-11103174D01*
X12162539Y-11103174D02*
X12143491Y-11093650D01*
X12143491Y-11093650D02*
X12133968Y-11074602D01*
X12133968Y-11074602D02*
X12133968Y-10903174D01*
X12314920Y-11093650D02*
X12295872Y-11103174D01*
X12295872Y-11103174D02*
X12257777Y-11103174D01*
X12257777Y-11103174D02*
X12238730Y-11093650D01*
X12238730Y-11093650D02*
X12229206Y-11074602D01*
X12229206Y-11074602D02*
X12229206Y-10998412D01*
X12229206Y-10998412D02*
X12238730Y-10979364D01*
X12238730Y-10979364D02*
X12257777Y-10969840D01*
X12257777Y-10969840D02*
X12295872Y-10969840D01*
X12295872Y-10969840D02*
X12314920Y-10979364D01*
X12314920Y-10979364D02*
X12324444Y-10998412D01*
X12324444Y-10998412D02*
X12324444Y-11017460D01*
X12324444Y-11017460D02*
X12229206Y-11036507D01*
X12400634Y-11093650D02*
X12419682Y-11103174D01*
X12419682Y-11103174D02*
X12457777Y-11103174D01*
X12457777Y-11103174D02*
X12476825Y-11093650D01*
X12476825Y-11093650D02*
X12486349Y-11074602D01*
X12486349Y-11074602D02*
X12486349Y-11065079D01*
X12486349Y-11065079D02*
X12476825Y-11046031D01*
X12476825Y-11046031D02*
X12457777Y-11036507D01*
X12457777Y-11036507D02*
X12429206Y-11036507D01*
X12429206Y-11036507D02*
X12410158Y-11026983D01*
X12410158Y-11026983D02*
X12400634Y-11007936D01*
X12400634Y-11007936D02*
X12400634Y-10998412D01*
X12400634Y-10998412D02*
X12410158Y-10979364D01*
X12410158Y-10979364D02*
X12429206Y-10969840D01*
X12429206Y-10969840D02*
X12457777Y-10969840D01*
X12457777Y-10969840D02*
X12476825Y-10979364D01*
X12553015Y-11179364D02*
X12562539Y-11169840D01*
X12562539Y-11169840D02*
X12581587Y-11141269D01*
X12581587Y-11141269D02*
X12591111Y-11122221D01*
X12591111Y-11122221D02*
X12600634Y-11093650D01*
X12600634Y-11093650D02*
X12610158Y-11046031D01*
X12610158Y-11046031D02*
X12610158Y-11007936D01*
X12610158Y-11007936D02*
X12600634Y-10960317D01*
X12600634Y-10960317D02*
X12591111Y-10931745D01*
X12591111Y-10931745D02*
X12581587Y-10912698D01*
X12581587Y-10912698D02*
X12562539Y-10884126D01*
X12562539Y-10884126D02*
X12553015Y-10874602D01*
D12*
X7397000Y-11275690D02*
G75*
G03*
X7377000Y-11275690I-10000J0D01*
G01*
X7377000Y-11275690D02*
G75*
G03*
X7397000Y-11275690I10000J0D01*
G01*
D11*
X7695872Y-11167174D02*
X7714920Y-11167174D01*
X7714920Y-11167174D02*
X7733967Y-11176698D01*
X7733967Y-11176698D02*
X7743491Y-11186221D01*
X7743491Y-11186221D02*
X7753015Y-11205269D01*
X7753015Y-11205269D02*
X7762539Y-11243364D01*
X7762539Y-11243364D02*
X7762539Y-11290983D01*
X7762539Y-11290983D02*
X7753015Y-11329078D01*
X7753015Y-11329078D02*
X7743491Y-11348126D01*
X7743491Y-11348126D02*
X7733967Y-11357650D01*
X7733967Y-11357650D02*
X7714920Y-11367174D01*
X7714920Y-11367174D02*
X7695872Y-11367174D01*
X7695872Y-11367174D02*
X7676824Y-11357650D01*
X7676824Y-11357650D02*
X7667301Y-11348126D01*
X7667301Y-11348126D02*
X7657777Y-11329078D01*
X7657777Y-11329078D02*
X7648253Y-11290983D01*
X7648253Y-11290983D02*
X7648253Y-11243364D01*
X7648253Y-11243364D02*
X7657777Y-11205269D01*
X7657777Y-11205269D02*
X7667301Y-11186221D01*
X7667301Y-11186221D02*
X7676824Y-11176698D01*
X7676824Y-11176698D02*
X7695872Y-11167174D01*
X7848253Y-11348126D02*
X7857777Y-11357650D01*
X7857777Y-11357650D02*
X7848253Y-11367174D01*
X7848253Y-11367174D02*
X7838729Y-11357650D01*
X7838729Y-11357650D02*
X7848253Y-11348126D01*
X7848253Y-11348126D02*
X7848253Y-11367174D01*
X7933967Y-11186221D02*
X7943491Y-11176698D01*
X7943491Y-11176698D02*
X7962539Y-11167174D01*
X7962539Y-11167174D02*
X8010158Y-11167174D01*
X8010158Y-11167174D02*
X8029205Y-11176698D01*
X8029205Y-11176698D02*
X8038729Y-11186221D01*
X8038729Y-11186221D02*
X8048253Y-11205269D01*
X8048253Y-11205269D02*
X8048253Y-11224317D01*
X8048253Y-11224317D02*
X8038729Y-11252888D01*
X8038729Y-11252888D02*
X7924443Y-11367174D01*
X7924443Y-11367174D02*
X8048253Y-11367174D01*
X8172062Y-11167174D02*
X8191110Y-11167174D01*
X8191110Y-11167174D02*
X8210158Y-11176698D01*
X8210158Y-11176698D02*
X8219682Y-11186221D01*
X8219682Y-11186221D02*
X8229205Y-11205269D01*
X8229205Y-11205269D02*
X8238729Y-11243364D01*
X8238729Y-11243364D02*
X8238729Y-11290983D01*
X8238729Y-11290983D02*
X8229205Y-11329078D01*
X8229205Y-11329078D02*
X8219682Y-11348126D01*
X8219682Y-11348126D02*
X8210158Y-11357650D01*
X8210158Y-11357650D02*
X8191110Y-11367174D01*
X8191110Y-11367174D02*
X8172062Y-11367174D01*
X8172062Y-11367174D02*
X8153015Y-11357650D01*
X8153015Y-11357650D02*
X8143491Y-11348126D01*
X8143491Y-11348126D02*
X8133967Y-11329078D01*
X8133967Y-11329078D02*
X8124443Y-11290983D01*
X8124443Y-11290983D02*
X8124443Y-11243364D01*
X8124443Y-11243364D02*
X8133967Y-11205269D01*
X8133967Y-11205269D02*
X8143491Y-11186221D01*
X8143491Y-11186221D02*
X8153015Y-11176698D01*
X8153015Y-11176698D02*
X8172062Y-11167174D01*
X8362539Y-11167174D02*
X8381586Y-11167174D01*
X8381586Y-11167174D02*
X8400634Y-11176698D01*
X8400634Y-11176698D02*
X8410158Y-11186221D01*
X8410158Y-11186221D02*
X8419682Y-11205269D01*
X8419682Y-11205269D02*
X8429205Y-11243364D01*
X8429205Y-11243364D02*
X8429205Y-11290983D01*
X8429205Y-11290983D02*
X8419682Y-11329078D01*
X8419682Y-11329078D02*
X8410158Y-11348126D01*
X8410158Y-11348126D02*
X8400634Y-11357650D01*
X8400634Y-11357650D02*
X8381586Y-11367174D01*
X8381586Y-11367174D02*
X8362539Y-11367174D01*
X8362539Y-11367174D02*
X8343491Y-11357650D01*
X8343491Y-11357650D02*
X8333967Y-11348126D01*
X8333967Y-11348126D02*
X8324443Y-11329078D01*
X8324443Y-11329078D02*
X8314920Y-11290983D01*
X8314920Y-11290983D02*
X8314920Y-11243364D01*
X8314920Y-11243364D02*
X8324443Y-11205269D01*
X8324443Y-11205269D02*
X8333967Y-11186221D01*
X8333967Y-11186221D02*
X8343491Y-11176698D01*
X8343491Y-11176698D02*
X8362539Y-11167174D01*
X8514920Y-11367174D02*
X8514920Y-11233840D01*
X8514920Y-11252888D02*
X8524444Y-11243364D01*
X8524444Y-11243364D02*
X8543491Y-11233840D01*
X8543491Y-11233840D02*
X8572063Y-11233840D01*
X8572063Y-11233840D02*
X8591110Y-11243364D01*
X8591110Y-11243364D02*
X8600634Y-11262412D01*
X8600634Y-11262412D02*
X8600634Y-11367174D01*
X8600634Y-11262412D02*
X8610158Y-11243364D01*
X8610158Y-11243364D02*
X8629205Y-11233840D01*
X8629205Y-11233840D02*
X8657777Y-11233840D01*
X8657777Y-11233840D02*
X8676825Y-11243364D01*
X8676825Y-11243364D02*
X8686348Y-11262412D01*
X8686348Y-11262412D02*
X8686348Y-11367174D01*
X8781586Y-11367174D02*
X8781586Y-11233840D01*
X8781586Y-11252888D02*
X8791110Y-11243364D01*
X8791110Y-11243364D02*
X8810158Y-11233840D01*
X8810158Y-11233840D02*
X8838729Y-11233840D01*
X8838729Y-11233840D02*
X8857777Y-11243364D01*
X8857777Y-11243364D02*
X8867301Y-11262412D01*
X8867301Y-11262412D02*
X8867301Y-11367174D01*
X8867301Y-11262412D02*
X8876825Y-11243364D01*
X8876825Y-11243364D02*
X8895872Y-11233840D01*
X8895872Y-11233840D02*
X8924444Y-11233840D01*
X8924444Y-11233840D02*
X8943491Y-11243364D01*
X8943491Y-11243364D02*
X8953015Y-11262412D01*
X8953015Y-11262412D02*
X8953015Y-11367174D01*
X9343491Y-11157650D02*
X9172063Y-11414793D01*
X9600634Y-11167174D02*
X9619682Y-11167174D01*
X9619682Y-11167174D02*
X9638729Y-11176698D01*
X9638729Y-11176698D02*
X9648253Y-11186221D01*
X9648253Y-11186221D02*
X9657777Y-11205269D01*
X9657777Y-11205269D02*
X9667301Y-11243364D01*
X9667301Y-11243364D02*
X9667301Y-11290983D01*
X9667301Y-11290983D02*
X9657777Y-11329078D01*
X9657777Y-11329078D02*
X9648253Y-11348126D01*
X9648253Y-11348126D02*
X9638729Y-11357650D01*
X9638729Y-11357650D02*
X9619682Y-11367174D01*
X9619682Y-11367174D02*
X9600634Y-11367174D01*
X9600634Y-11367174D02*
X9581587Y-11357650D01*
X9581587Y-11357650D02*
X9572063Y-11348126D01*
X9572063Y-11348126D02*
X9562539Y-11329078D01*
X9562539Y-11329078D02*
X9553015Y-11290983D01*
X9553015Y-11290983D02*
X9553015Y-11243364D01*
X9553015Y-11243364D02*
X9562539Y-11205269D01*
X9562539Y-11205269D02*
X9572063Y-11186221D01*
X9572063Y-11186221D02*
X9581587Y-11176698D01*
X9581587Y-11176698D02*
X9600634Y-11167174D01*
X9753015Y-11348126D02*
X9762539Y-11357650D01*
X9762539Y-11357650D02*
X9753015Y-11367174D01*
X9753015Y-11367174D02*
X9743491Y-11357650D01*
X9743491Y-11357650D02*
X9753015Y-11348126D01*
X9753015Y-11348126D02*
X9753015Y-11367174D01*
X9886348Y-11167174D02*
X9905396Y-11167174D01*
X9905396Y-11167174D02*
X9924444Y-11176698D01*
X9924444Y-11176698D02*
X9933968Y-11186221D01*
X9933968Y-11186221D02*
X9943491Y-11205269D01*
X9943491Y-11205269D02*
X9953015Y-11243364D01*
X9953015Y-11243364D02*
X9953015Y-11290983D01*
X9953015Y-11290983D02*
X9943491Y-11329078D01*
X9943491Y-11329078D02*
X9933968Y-11348126D01*
X9933968Y-11348126D02*
X9924444Y-11357650D01*
X9924444Y-11357650D02*
X9905396Y-11367174D01*
X9905396Y-11367174D02*
X9886348Y-11367174D01*
X9886348Y-11367174D02*
X9867301Y-11357650D01*
X9867301Y-11357650D02*
X9857777Y-11348126D01*
X9857777Y-11348126D02*
X9848253Y-11329078D01*
X9848253Y-11329078D02*
X9838729Y-11290983D01*
X9838729Y-11290983D02*
X9838729Y-11243364D01*
X9838729Y-11243364D02*
X9848253Y-11205269D01*
X9848253Y-11205269D02*
X9857777Y-11186221D01*
X9857777Y-11186221D02*
X9867301Y-11176698D01*
X9867301Y-11176698D02*
X9886348Y-11167174D01*
X10076825Y-11167174D02*
X10095872Y-11167174D01*
X10095872Y-11167174D02*
X10114920Y-11176698D01*
X10114920Y-11176698D02*
X10124444Y-11186221D01*
X10124444Y-11186221D02*
X10133968Y-11205269D01*
X10133968Y-11205269D02*
X10143491Y-11243364D01*
X10143491Y-11243364D02*
X10143491Y-11290983D01*
X10143491Y-11290983D02*
X10133968Y-11329078D01*
X10133968Y-11329078D02*
X10124444Y-11348126D01*
X10124444Y-11348126D02*
X10114920Y-11357650D01*
X10114920Y-11357650D02*
X10095872Y-11367174D01*
X10095872Y-11367174D02*
X10076825Y-11367174D01*
X10076825Y-11367174D02*
X10057777Y-11357650D01*
X10057777Y-11357650D02*
X10048253Y-11348126D01*
X10048253Y-11348126D02*
X10038729Y-11329078D01*
X10038729Y-11329078D02*
X10029206Y-11290983D01*
X10029206Y-11290983D02*
X10029206Y-11243364D01*
X10029206Y-11243364D02*
X10038729Y-11205269D01*
X10038729Y-11205269D02*
X10048253Y-11186221D01*
X10048253Y-11186221D02*
X10057777Y-11176698D01*
X10057777Y-11176698D02*
X10076825Y-11167174D01*
X10210158Y-11167174D02*
X10343491Y-11167174D01*
X10343491Y-11167174D02*
X10257777Y-11367174D01*
X10429206Y-11367174D02*
X10467301Y-11367174D01*
X10467301Y-11367174D02*
X10486349Y-11357650D01*
X10486349Y-11357650D02*
X10495872Y-11348126D01*
X10495872Y-11348126D02*
X10514920Y-11319555D01*
X10514920Y-11319555D02*
X10524444Y-11281459D01*
X10524444Y-11281459D02*
X10524444Y-11205269D01*
X10524444Y-11205269D02*
X10514920Y-11186221D01*
X10514920Y-11186221D02*
X10505396Y-11176698D01*
X10505396Y-11176698D02*
X10486349Y-11167174D01*
X10486349Y-11167174D02*
X10448253Y-11167174D01*
X10448253Y-11167174D02*
X10429206Y-11176698D01*
X10429206Y-11176698D02*
X10419682Y-11186221D01*
X10419682Y-11186221D02*
X10410158Y-11205269D01*
X10410158Y-11205269D02*
X10410158Y-11252888D01*
X10410158Y-11252888D02*
X10419682Y-11271936D01*
X10419682Y-11271936D02*
X10429206Y-11281459D01*
X10429206Y-11281459D02*
X10448253Y-11290983D01*
X10448253Y-11290983D02*
X10486349Y-11290983D01*
X10486349Y-11290983D02*
X10505396Y-11281459D01*
X10505396Y-11281459D02*
X10514920Y-11271936D01*
X10514920Y-11271936D02*
X10524444Y-11252888D01*
X10600634Y-11167174D02*
X10600634Y-11205269D01*
X10676825Y-11167174D02*
X10676825Y-11205269D01*
X10972063Y-11443364D02*
X10962539Y-11433840D01*
X10962539Y-11433840D02*
X10943491Y-11405269D01*
X10943491Y-11405269D02*
X10933968Y-11386221D01*
X10933968Y-11386221D02*
X10924444Y-11357650D01*
X10924444Y-11357650D02*
X10914920Y-11310031D01*
X10914920Y-11310031D02*
X10914920Y-11271936D01*
X10914920Y-11271936D02*
X10924444Y-11224317D01*
X10924444Y-11224317D02*
X10933968Y-11195745D01*
X10933968Y-11195745D02*
X10943491Y-11176698D01*
X10943491Y-11176698D02*
X10962539Y-11148126D01*
X10962539Y-11148126D02*
X10972063Y-11138602D01*
X11038730Y-11186221D02*
X11048253Y-11176698D01*
X11048253Y-11176698D02*
X11067301Y-11167174D01*
X11067301Y-11167174D02*
X11114920Y-11167174D01*
X11114920Y-11167174D02*
X11133968Y-11176698D01*
X11133968Y-11176698D02*
X11143491Y-11186221D01*
X11143491Y-11186221D02*
X11153015Y-11205269D01*
X11153015Y-11205269D02*
X11153015Y-11224317D01*
X11153015Y-11224317D02*
X11143491Y-11252888D01*
X11143491Y-11252888D02*
X11029206Y-11367174D01*
X11029206Y-11367174D02*
X11153015Y-11367174D01*
X11391110Y-11367174D02*
X11391110Y-11167174D01*
X11476825Y-11367174D02*
X11476825Y-11262412D01*
X11476825Y-11262412D02*
X11467301Y-11243364D01*
X11467301Y-11243364D02*
X11448253Y-11233840D01*
X11448253Y-11233840D02*
X11419682Y-11233840D01*
X11419682Y-11233840D02*
X11400634Y-11243364D01*
X11400634Y-11243364D02*
X11391110Y-11252888D01*
X11600634Y-11367174D02*
X11581587Y-11357650D01*
X11581587Y-11357650D02*
X11572063Y-11348126D01*
X11572063Y-11348126D02*
X11562539Y-11329078D01*
X11562539Y-11329078D02*
X11562539Y-11271936D01*
X11562539Y-11271936D02*
X11572063Y-11252888D01*
X11572063Y-11252888D02*
X11581587Y-11243364D01*
X11581587Y-11243364D02*
X11600634Y-11233840D01*
X11600634Y-11233840D02*
X11629206Y-11233840D01*
X11629206Y-11233840D02*
X11648253Y-11243364D01*
X11648253Y-11243364D02*
X11657777Y-11252888D01*
X11657777Y-11252888D02*
X11667301Y-11271936D01*
X11667301Y-11271936D02*
X11667301Y-11329078D01*
X11667301Y-11329078D02*
X11657777Y-11348126D01*
X11657777Y-11348126D02*
X11648253Y-11357650D01*
X11648253Y-11357650D02*
X11629206Y-11367174D01*
X11629206Y-11367174D02*
X11600634Y-11367174D01*
X11781587Y-11367174D02*
X11762539Y-11357650D01*
X11762539Y-11357650D02*
X11753015Y-11338602D01*
X11753015Y-11338602D02*
X11753015Y-11167174D01*
X11933968Y-11357650D02*
X11914920Y-11367174D01*
X11914920Y-11367174D02*
X11876825Y-11367174D01*
X11876825Y-11367174D02*
X11857777Y-11357650D01*
X11857777Y-11357650D02*
X11848253Y-11338602D01*
X11848253Y-11338602D02*
X11848253Y-11262412D01*
X11848253Y-11262412D02*
X11857777Y-11243364D01*
X11857777Y-11243364D02*
X11876825Y-11233840D01*
X11876825Y-11233840D02*
X11914920Y-11233840D01*
X11914920Y-11233840D02*
X11933968Y-11243364D01*
X11933968Y-11243364D02*
X11943491Y-11262412D01*
X11943491Y-11262412D02*
X11943491Y-11281459D01*
X11943491Y-11281459D02*
X11848253Y-11300507D01*
X12019682Y-11357650D02*
X12038730Y-11367174D01*
X12038730Y-11367174D02*
X12076825Y-11367174D01*
X12076825Y-11367174D02*
X12095872Y-11357650D01*
X12095872Y-11357650D02*
X12105396Y-11338602D01*
X12105396Y-11338602D02*
X12105396Y-11329078D01*
X12105396Y-11329078D02*
X12095872Y-11310031D01*
X12095872Y-11310031D02*
X12076825Y-11300507D01*
X12076825Y-11300507D02*
X12048253Y-11300507D01*
X12048253Y-11300507D02*
X12029206Y-11290983D01*
X12029206Y-11290983D02*
X12019682Y-11271936D01*
X12019682Y-11271936D02*
X12019682Y-11262412D01*
X12019682Y-11262412D02*
X12029206Y-11243364D01*
X12029206Y-11243364D02*
X12048253Y-11233840D01*
X12048253Y-11233840D02*
X12076825Y-11233840D01*
X12076825Y-11233840D02*
X12095872Y-11243364D01*
X12172063Y-11443364D02*
X12181587Y-11433840D01*
X12181587Y-11433840D02*
X12200634Y-11405269D01*
X12200634Y-11405269D02*
X12210158Y-11386221D01*
X12210158Y-11386221D02*
X12219682Y-11357650D01*
X12219682Y-11357650D02*
X12229206Y-11310031D01*
X12229206Y-11310031D02*
X12229206Y-11271936D01*
X12229206Y-11271936D02*
X12219682Y-11224317D01*
X12219682Y-11224317D02*
X12210158Y-11195745D01*
X12210158Y-11195745D02*
X12200634Y-11176698D01*
X12200634Y-11176698D02*
X12181587Y-11148126D01*
X12181587Y-11148126D02*
X12172063Y-11138602D01*
D12*
X7382000Y-11524690D02*
X7382000Y-11554690D01*
X7367000Y-11539690D02*
X7397000Y-11539690D01*
D11*
X7695872Y-11431174D02*
X7714920Y-11431174D01*
X7714920Y-11431174D02*
X7733967Y-11440698D01*
X7733967Y-11440698D02*
X7743491Y-11450221D01*
X7743491Y-11450221D02*
X7753015Y-11469269D01*
X7753015Y-11469269D02*
X7762539Y-11507364D01*
X7762539Y-11507364D02*
X7762539Y-11554983D01*
X7762539Y-11554983D02*
X7753015Y-11593078D01*
X7753015Y-11593078D02*
X7743491Y-11612126D01*
X7743491Y-11612126D02*
X7733967Y-11621650D01*
X7733967Y-11621650D02*
X7714920Y-11631174D01*
X7714920Y-11631174D02*
X7695872Y-11631174D01*
X7695872Y-11631174D02*
X7676824Y-11621650D01*
X7676824Y-11621650D02*
X7667301Y-11612126D01*
X7667301Y-11612126D02*
X7657777Y-11593078D01*
X7657777Y-11593078D02*
X7648253Y-11554983D01*
X7648253Y-11554983D02*
X7648253Y-11507364D01*
X7648253Y-11507364D02*
X7657777Y-11469269D01*
X7657777Y-11469269D02*
X7667301Y-11450221D01*
X7667301Y-11450221D02*
X7676824Y-11440698D01*
X7676824Y-11440698D02*
X7695872Y-11431174D01*
X7848253Y-11612126D02*
X7857777Y-11621650D01*
X7857777Y-11621650D02*
X7848253Y-11631174D01*
X7848253Y-11631174D02*
X7838729Y-11621650D01*
X7838729Y-11621650D02*
X7848253Y-11612126D01*
X7848253Y-11612126D02*
X7848253Y-11631174D01*
X7924443Y-11431174D02*
X8048253Y-11431174D01*
X8048253Y-11431174D02*
X7981586Y-11507364D01*
X7981586Y-11507364D02*
X8010158Y-11507364D01*
X8010158Y-11507364D02*
X8029205Y-11516888D01*
X8029205Y-11516888D02*
X8038729Y-11526412D01*
X8038729Y-11526412D02*
X8048253Y-11545459D01*
X8048253Y-11545459D02*
X8048253Y-11593078D01*
X8048253Y-11593078D02*
X8038729Y-11612126D01*
X8038729Y-11612126D02*
X8029205Y-11621650D01*
X8029205Y-11621650D02*
X8010158Y-11631174D01*
X8010158Y-11631174D02*
X7953015Y-11631174D01*
X7953015Y-11631174D02*
X7933967Y-11621650D01*
X7933967Y-11621650D02*
X7924443Y-11612126D01*
X8172062Y-11431174D02*
X8191110Y-11431174D01*
X8191110Y-11431174D02*
X8210158Y-11440698D01*
X8210158Y-11440698D02*
X8219682Y-11450221D01*
X8219682Y-11450221D02*
X8229205Y-11469269D01*
X8229205Y-11469269D02*
X8238729Y-11507364D01*
X8238729Y-11507364D02*
X8238729Y-11554983D01*
X8238729Y-11554983D02*
X8229205Y-11593078D01*
X8229205Y-11593078D02*
X8219682Y-11612126D01*
X8219682Y-11612126D02*
X8210158Y-11621650D01*
X8210158Y-11621650D02*
X8191110Y-11631174D01*
X8191110Y-11631174D02*
X8172062Y-11631174D01*
X8172062Y-11631174D02*
X8153015Y-11621650D01*
X8153015Y-11621650D02*
X8143491Y-11612126D01*
X8143491Y-11612126D02*
X8133967Y-11593078D01*
X8133967Y-11593078D02*
X8124443Y-11554983D01*
X8124443Y-11554983D02*
X8124443Y-11507364D01*
X8124443Y-11507364D02*
X8133967Y-11469269D01*
X8133967Y-11469269D02*
X8143491Y-11450221D01*
X8143491Y-11450221D02*
X8153015Y-11440698D01*
X8153015Y-11440698D02*
X8172062Y-11431174D01*
X8362539Y-11431174D02*
X8381586Y-11431174D01*
X8381586Y-11431174D02*
X8400634Y-11440698D01*
X8400634Y-11440698D02*
X8410158Y-11450221D01*
X8410158Y-11450221D02*
X8419682Y-11469269D01*
X8419682Y-11469269D02*
X8429205Y-11507364D01*
X8429205Y-11507364D02*
X8429205Y-11554983D01*
X8429205Y-11554983D02*
X8419682Y-11593078D01*
X8419682Y-11593078D02*
X8410158Y-11612126D01*
X8410158Y-11612126D02*
X8400634Y-11621650D01*
X8400634Y-11621650D02*
X8381586Y-11631174D01*
X8381586Y-11631174D02*
X8362539Y-11631174D01*
X8362539Y-11631174D02*
X8343491Y-11621650D01*
X8343491Y-11621650D02*
X8333967Y-11612126D01*
X8333967Y-11612126D02*
X8324443Y-11593078D01*
X8324443Y-11593078D02*
X8314920Y-11554983D01*
X8314920Y-11554983D02*
X8314920Y-11507364D01*
X8314920Y-11507364D02*
X8324443Y-11469269D01*
X8324443Y-11469269D02*
X8333967Y-11450221D01*
X8333967Y-11450221D02*
X8343491Y-11440698D01*
X8343491Y-11440698D02*
X8362539Y-11431174D01*
X8514920Y-11631174D02*
X8514920Y-11497840D01*
X8514920Y-11516888D02*
X8524444Y-11507364D01*
X8524444Y-11507364D02*
X8543491Y-11497840D01*
X8543491Y-11497840D02*
X8572063Y-11497840D01*
X8572063Y-11497840D02*
X8591110Y-11507364D01*
X8591110Y-11507364D02*
X8600634Y-11526412D01*
X8600634Y-11526412D02*
X8600634Y-11631174D01*
X8600634Y-11526412D02*
X8610158Y-11507364D01*
X8610158Y-11507364D02*
X8629205Y-11497840D01*
X8629205Y-11497840D02*
X8657777Y-11497840D01*
X8657777Y-11497840D02*
X8676825Y-11507364D01*
X8676825Y-11507364D02*
X8686348Y-11526412D01*
X8686348Y-11526412D02*
X8686348Y-11631174D01*
X8781586Y-11631174D02*
X8781586Y-11497840D01*
X8781586Y-11516888D02*
X8791110Y-11507364D01*
X8791110Y-11507364D02*
X8810158Y-11497840D01*
X8810158Y-11497840D02*
X8838729Y-11497840D01*
X8838729Y-11497840D02*
X8857777Y-11507364D01*
X8857777Y-11507364D02*
X8867301Y-11526412D01*
X8867301Y-11526412D02*
X8867301Y-11631174D01*
X8867301Y-11526412D02*
X8876825Y-11507364D01*
X8876825Y-11507364D02*
X8895872Y-11497840D01*
X8895872Y-11497840D02*
X8924444Y-11497840D01*
X8924444Y-11497840D02*
X8943491Y-11507364D01*
X8943491Y-11507364D02*
X8953015Y-11526412D01*
X8953015Y-11526412D02*
X8953015Y-11631174D01*
X9343491Y-11421650D02*
X9172063Y-11678793D01*
X9600634Y-11431174D02*
X9619682Y-11431174D01*
X9619682Y-11431174D02*
X9638729Y-11440698D01*
X9638729Y-11440698D02*
X9648253Y-11450221D01*
X9648253Y-11450221D02*
X9657777Y-11469269D01*
X9657777Y-11469269D02*
X9667301Y-11507364D01*
X9667301Y-11507364D02*
X9667301Y-11554983D01*
X9667301Y-11554983D02*
X9657777Y-11593078D01*
X9657777Y-11593078D02*
X9648253Y-11612126D01*
X9648253Y-11612126D02*
X9638729Y-11621650D01*
X9638729Y-11621650D02*
X9619682Y-11631174D01*
X9619682Y-11631174D02*
X9600634Y-11631174D01*
X9600634Y-11631174D02*
X9581587Y-11621650D01*
X9581587Y-11621650D02*
X9572063Y-11612126D01*
X9572063Y-11612126D02*
X9562539Y-11593078D01*
X9562539Y-11593078D02*
X9553015Y-11554983D01*
X9553015Y-11554983D02*
X9553015Y-11507364D01*
X9553015Y-11507364D02*
X9562539Y-11469269D01*
X9562539Y-11469269D02*
X9572063Y-11450221D01*
X9572063Y-11450221D02*
X9581587Y-11440698D01*
X9581587Y-11440698D02*
X9600634Y-11431174D01*
X9753015Y-11612126D02*
X9762539Y-11621650D01*
X9762539Y-11621650D02*
X9753015Y-11631174D01*
X9753015Y-11631174D02*
X9743491Y-11621650D01*
X9743491Y-11621650D02*
X9753015Y-11612126D01*
X9753015Y-11612126D02*
X9753015Y-11631174D01*
X9886348Y-11431174D02*
X9905396Y-11431174D01*
X9905396Y-11431174D02*
X9924444Y-11440698D01*
X9924444Y-11440698D02*
X9933968Y-11450221D01*
X9933968Y-11450221D02*
X9943491Y-11469269D01*
X9943491Y-11469269D02*
X9953015Y-11507364D01*
X9953015Y-11507364D02*
X9953015Y-11554983D01*
X9953015Y-11554983D02*
X9943491Y-11593078D01*
X9943491Y-11593078D02*
X9933968Y-11612126D01*
X9933968Y-11612126D02*
X9924444Y-11621650D01*
X9924444Y-11621650D02*
X9905396Y-11631174D01*
X9905396Y-11631174D02*
X9886348Y-11631174D01*
X9886348Y-11631174D02*
X9867301Y-11621650D01*
X9867301Y-11621650D02*
X9857777Y-11612126D01*
X9857777Y-11612126D02*
X9848253Y-11593078D01*
X9848253Y-11593078D02*
X9838729Y-11554983D01*
X9838729Y-11554983D02*
X9838729Y-11507364D01*
X9838729Y-11507364D02*
X9848253Y-11469269D01*
X9848253Y-11469269D02*
X9857777Y-11450221D01*
X9857777Y-11450221D02*
X9867301Y-11440698D01*
X9867301Y-11440698D02*
X9886348Y-11431174D01*
X10143491Y-11631174D02*
X10029206Y-11631174D01*
X10086348Y-11631174D02*
X10086348Y-11431174D01*
X10086348Y-11431174D02*
X10067301Y-11459745D01*
X10067301Y-11459745D02*
X10048253Y-11478793D01*
X10048253Y-11478793D02*
X10029206Y-11488317D01*
X10333968Y-11631174D02*
X10219682Y-11631174D01*
X10276825Y-11631174D02*
X10276825Y-11431174D01*
X10276825Y-11431174D02*
X10257777Y-11459745D01*
X10257777Y-11459745D02*
X10238729Y-11478793D01*
X10238729Y-11478793D02*
X10219682Y-11488317D01*
X10448253Y-11516888D02*
X10429206Y-11507364D01*
X10429206Y-11507364D02*
X10419682Y-11497840D01*
X10419682Y-11497840D02*
X10410158Y-11478793D01*
X10410158Y-11478793D02*
X10410158Y-11469269D01*
X10410158Y-11469269D02*
X10419682Y-11450221D01*
X10419682Y-11450221D02*
X10429206Y-11440698D01*
X10429206Y-11440698D02*
X10448253Y-11431174D01*
X10448253Y-11431174D02*
X10486349Y-11431174D01*
X10486349Y-11431174D02*
X10505396Y-11440698D01*
X10505396Y-11440698D02*
X10514920Y-11450221D01*
X10514920Y-11450221D02*
X10524444Y-11469269D01*
X10524444Y-11469269D02*
X10524444Y-11478793D01*
X10524444Y-11478793D02*
X10514920Y-11497840D01*
X10514920Y-11497840D02*
X10505396Y-11507364D01*
X10505396Y-11507364D02*
X10486349Y-11516888D01*
X10486349Y-11516888D02*
X10448253Y-11516888D01*
X10448253Y-11516888D02*
X10429206Y-11526412D01*
X10429206Y-11526412D02*
X10419682Y-11535936D01*
X10419682Y-11535936D02*
X10410158Y-11554983D01*
X10410158Y-11554983D02*
X10410158Y-11593078D01*
X10410158Y-11593078D02*
X10419682Y-11612126D01*
X10419682Y-11612126D02*
X10429206Y-11621650D01*
X10429206Y-11621650D02*
X10448253Y-11631174D01*
X10448253Y-11631174D02*
X10486349Y-11631174D01*
X10486349Y-11631174D02*
X10505396Y-11621650D01*
X10505396Y-11621650D02*
X10514920Y-11612126D01*
X10514920Y-11612126D02*
X10524444Y-11593078D01*
X10524444Y-11593078D02*
X10524444Y-11554983D01*
X10524444Y-11554983D02*
X10514920Y-11535936D01*
X10514920Y-11535936D02*
X10505396Y-11526412D01*
X10505396Y-11526412D02*
X10486349Y-11516888D01*
X10600634Y-11431174D02*
X10600634Y-11469269D01*
X10676825Y-11431174D02*
X10676825Y-11469269D01*
X10972063Y-11707364D02*
X10962539Y-11697840D01*
X10962539Y-11697840D02*
X10943491Y-11669269D01*
X10943491Y-11669269D02*
X10933968Y-11650221D01*
X10933968Y-11650221D02*
X10924444Y-11621650D01*
X10924444Y-11621650D02*
X10914920Y-11574031D01*
X10914920Y-11574031D02*
X10914920Y-11535936D01*
X10914920Y-11535936D02*
X10924444Y-11488317D01*
X10924444Y-11488317D02*
X10933968Y-11459745D01*
X10933968Y-11459745D02*
X10943491Y-11440698D01*
X10943491Y-11440698D02*
X10962539Y-11412126D01*
X10962539Y-11412126D02*
X10972063Y-11402602D01*
X11038730Y-11450221D02*
X11048253Y-11440698D01*
X11048253Y-11440698D02*
X11067301Y-11431174D01*
X11067301Y-11431174D02*
X11114920Y-11431174D01*
X11114920Y-11431174D02*
X11133968Y-11440698D01*
X11133968Y-11440698D02*
X11143491Y-11450221D01*
X11143491Y-11450221D02*
X11153015Y-11469269D01*
X11153015Y-11469269D02*
X11153015Y-11488317D01*
X11153015Y-11488317D02*
X11143491Y-11516888D01*
X11143491Y-11516888D02*
X11029206Y-11631174D01*
X11029206Y-11631174D02*
X11153015Y-11631174D01*
X11343491Y-11631174D02*
X11229206Y-11631174D01*
X11286348Y-11631174D02*
X11286348Y-11431174D01*
X11286348Y-11431174D02*
X11267301Y-11459745D01*
X11267301Y-11459745D02*
X11248253Y-11478793D01*
X11248253Y-11478793D02*
X11229206Y-11488317D01*
X11581587Y-11631174D02*
X11581587Y-11431174D01*
X11667301Y-11631174D02*
X11667301Y-11526412D01*
X11667301Y-11526412D02*
X11657777Y-11507364D01*
X11657777Y-11507364D02*
X11638730Y-11497840D01*
X11638730Y-11497840D02*
X11610158Y-11497840D01*
X11610158Y-11497840D02*
X11591110Y-11507364D01*
X11591110Y-11507364D02*
X11581587Y-11516888D01*
X11791110Y-11631174D02*
X11772063Y-11621650D01*
X11772063Y-11621650D02*
X11762539Y-11612126D01*
X11762539Y-11612126D02*
X11753015Y-11593078D01*
X11753015Y-11593078D02*
X11753015Y-11535936D01*
X11753015Y-11535936D02*
X11762539Y-11516888D01*
X11762539Y-11516888D02*
X11772063Y-11507364D01*
X11772063Y-11507364D02*
X11791110Y-11497840D01*
X11791110Y-11497840D02*
X11819682Y-11497840D01*
X11819682Y-11497840D02*
X11838730Y-11507364D01*
X11838730Y-11507364D02*
X11848253Y-11516888D01*
X11848253Y-11516888D02*
X11857777Y-11535936D01*
X11857777Y-11535936D02*
X11857777Y-11593078D01*
X11857777Y-11593078D02*
X11848253Y-11612126D01*
X11848253Y-11612126D02*
X11838730Y-11621650D01*
X11838730Y-11621650D02*
X11819682Y-11631174D01*
X11819682Y-11631174D02*
X11791110Y-11631174D01*
X11972063Y-11631174D02*
X11953015Y-11621650D01*
X11953015Y-11621650D02*
X11943491Y-11602602D01*
X11943491Y-11602602D02*
X11943491Y-11431174D01*
X12124444Y-11621650D02*
X12105396Y-11631174D01*
X12105396Y-11631174D02*
X12067301Y-11631174D01*
X12067301Y-11631174D02*
X12048253Y-11621650D01*
X12048253Y-11621650D02*
X12038730Y-11602602D01*
X12038730Y-11602602D02*
X12038730Y-11526412D01*
X12038730Y-11526412D02*
X12048253Y-11507364D01*
X12048253Y-11507364D02*
X12067301Y-11497840D01*
X12067301Y-11497840D02*
X12105396Y-11497840D01*
X12105396Y-11497840D02*
X12124444Y-11507364D01*
X12124444Y-11507364D02*
X12133968Y-11526412D01*
X12133968Y-11526412D02*
X12133968Y-11545459D01*
X12133968Y-11545459D02*
X12038730Y-11564507D01*
X12210158Y-11621650D02*
X12229206Y-11631174D01*
X12229206Y-11631174D02*
X12267301Y-11631174D01*
X12267301Y-11631174D02*
X12286349Y-11621650D01*
X12286349Y-11621650D02*
X12295872Y-11602602D01*
X12295872Y-11602602D02*
X12295872Y-11593078D01*
X12295872Y-11593078D02*
X12286349Y-11574031D01*
X12286349Y-11574031D02*
X12267301Y-11564507D01*
X12267301Y-11564507D02*
X12238730Y-11564507D01*
X12238730Y-11564507D02*
X12219682Y-11554983D01*
X12219682Y-11554983D02*
X12210158Y-11535936D01*
X12210158Y-11535936D02*
X12210158Y-11526412D01*
X12210158Y-11526412D02*
X12219682Y-11507364D01*
X12219682Y-11507364D02*
X12238730Y-11497840D01*
X12238730Y-11497840D02*
X12267301Y-11497840D01*
X12267301Y-11497840D02*
X12286349Y-11507364D01*
X12362539Y-11707364D02*
X12372063Y-11697840D01*
X12372063Y-11697840D02*
X12391111Y-11669269D01*
X12391111Y-11669269D02*
X12400634Y-11650221D01*
X12400634Y-11650221D02*
X12410158Y-11621650D01*
X12410158Y-11621650D02*
X12419682Y-11574031D01*
X12419682Y-11574031D02*
X12419682Y-11535936D01*
X12419682Y-11535936D02*
X12410158Y-11488317D01*
X12410158Y-11488317D02*
X12400634Y-11459745D01*
X12400634Y-11459745D02*
X12391111Y-11440698D01*
X12391111Y-11440698D02*
X12372063Y-11412126D01*
X12372063Y-11412126D02*
X12362539Y-11402602D01*
D12*
X7391142Y-11817832D02*
X7391142Y-11789548D01*
X7362858Y-11789548D01*
X7362858Y-11817832D01*
X7391142Y-11817832D01*
D11*
X7695872Y-11695174D02*
X7714920Y-11695174D01*
X7714920Y-11695174D02*
X7733967Y-11704698D01*
X7733967Y-11704698D02*
X7743491Y-11714221D01*
X7743491Y-11714221D02*
X7753015Y-11733269D01*
X7753015Y-11733269D02*
X7762539Y-11771364D01*
X7762539Y-11771364D02*
X7762539Y-11818983D01*
X7762539Y-11818983D02*
X7753015Y-11857078D01*
X7753015Y-11857078D02*
X7743491Y-11876126D01*
X7743491Y-11876126D02*
X7733967Y-11885650D01*
X7733967Y-11885650D02*
X7714920Y-11895174D01*
X7714920Y-11895174D02*
X7695872Y-11895174D01*
X7695872Y-11895174D02*
X7676824Y-11885650D01*
X7676824Y-11885650D02*
X7667301Y-11876126D01*
X7667301Y-11876126D02*
X7657777Y-11857078D01*
X7657777Y-11857078D02*
X7648253Y-11818983D01*
X7648253Y-11818983D02*
X7648253Y-11771364D01*
X7648253Y-11771364D02*
X7657777Y-11733269D01*
X7657777Y-11733269D02*
X7667301Y-11714221D01*
X7667301Y-11714221D02*
X7676824Y-11704698D01*
X7676824Y-11704698D02*
X7695872Y-11695174D01*
X7848253Y-11876126D02*
X7857777Y-11885650D01*
X7857777Y-11885650D02*
X7848253Y-11895174D01*
X7848253Y-11895174D02*
X7838729Y-11885650D01*
X7838729Y-11885650D02*
X7848253Y-11876126D01*
X7848253Y-11876126D02*
X7848253Y-11895174D01*
X8029205Y-11761840D02*
X8029205Y-11895174D01*
X7981586Y-11685650D02*
X7933967Y-11828507D01*
X7933967Y-11828507D02*
X8057777Y-11828507D01*
X8172062Y-11695174D02*
X8191110Y-11695174D01*
X8191110Y-11695174D02*
X8210158Y-11704698D01*
X8210158Y-11704698D02*
X8219682Y-11714221D01*
X8219682Y-11714221D02*
X8229205Y-11733269D01*
X8229205Y-11733269D02*
X8238729Y-11771364D01*
X8238729Y-11771364D02*
X8238729Y-11818983D01*
X8238729Y-11818983D02*
X8229205Y-11857078D01*
X8229205Y-11857078D02*
X8219682Y-11876126D01*
X8219682Y-11876126D02*
X8210158Y-11885650D01*
X8210158Y-11885650D02*
X8191110Y-11895174D01*
X8191110Y-11895174D02*
X8172062Y-11895174D01*
X8172062Y-11895174D02*
X8153015Y-11885650D01*
X8153015Y-11885650D02*
X8143491Y-11876126D01*
X8143491Y-11876126D02*
X8133967Y-11857078D01*
X8133967Y-11857078D02*
X8124443Y-11818983D01*
X8124443Y-11818983D02*
X8124443Y-11771364D01*
X8124443Y-11771364D02*
X8133967Y-11733269D01*
X8133967Y-11733269D02*
X8143491Y-11714221D01*
X8143491Y-11714221D02*
X8153015Y-11704698D01*
X8153015Y-11704698D02*
X8172062Y-11695174D01*
X8362539Y-11695174D02*
X8381586Y-11695174D01*
X8381586Y-11695174D02*
X8400634Y-11704698D01*
X8400634Y-11704698D02*
X8410158Y-11714221D01*
X8410158Y-11714221D02*
X8419682Y-11733269D01*
X8419682Y-11733269D02*
X8429205Y-11771364D01*
X8429205Y-11771364D02*
X8429205Y-11818983D01*
X8429205Y-11818983D02*
X8419682Y-11857078D01*
X8419682Y-11857078D02*
X8410158Y-11876126D01*
X8410158Y-11876126D02*
X8400634Y-11885650D01*
X8400634Y-11885650D02*
X8381586Y-11895174D01*
X8381586Y-11895174D02*
X8362539Y-11895174D01*
X8362539Y-11895174D02*
X8343491Y-11885650D01*
X8343491Y-11885650D02*
X8333967Y-11876126D01*
X8333967Y-11876126D02*
X8324443Y-11857078D01*
X8324443Y-11857078D02*
X8314920Y-11818983D01*
X8314920Y-11818983D02*
X8314920Y-11771364D01*
X8314920Y-11771364D02*
X8324443Y-11733269D01*
X8324443Y-11733269D02*
X8333967Y-11714221D01*
X8333967Y-11714221D02*
X8343491Y-11704698D01*
X8343491Y-11704698D02*
X8362539Y-11695174D01*
X8514920Y-11895174D02*
X8514920Y-11761840D01*
X8514920Y-11780888D02*
X8524444Y-11771364D01*
X8524444Y-11771364D02*
X8543491Y-11761840D01*
X8543491Y-11761840D02*
X8572063Y-11761840D01*
X8572063Y-11761840D02*
X8591110Y-11771364D01*
X8591110Y-11771364D02*
X8600634Y-11790412D01*
X8600634Y-11790412D02*
X8600634Y-11895174D01*
X8600634Y-11790412D02*
X8610158Y-11771364D01*
X8610158Y-11771364D02*
X8629205Y-11761840D01*
X8629205Y-11761840D02*
X8657777Y-11761840D01*
X8657777Y-11761840D02*
X8676825Y-11771364D01*
X8676825Y-11771364D02*
X8686348Y-11790412D01*
X8686348Y-11790412D02*
X8686348Y-11895174D01*
X8781586Y-11895174D02*
X8781586Y-11761840D01*
X8781586Y-11780888D02*
X8791110Y-11771364D01*
X8791110Y-11771364D02*
X8810158Y-11761840D01*
X8810158Y-11761840D02*
X8838729Y-11761840D01*
X8838729Y-11761840D02*
X8857777Y-11771364D01*
X8857777Y-11771364D02*
X8867301Y-11790412D01*
X8867301Y-11790412D02*
X8867301Y-11895174D01*
X8867301Y-11790412D02*
X8876825Y-11771364D01*
X8876825Y-11771364D02*
X8895872Y-11761840D01*
X8895872Y-11761840D02*
X8924444Y-11761840D01*
X8924444Y-11761840D02*
X8943491Y-11771364D01*
X8943491Y-11771364D02*
X8953015Y-11790412D01*
X8953015Y-11790412D02*
X8953015Y-11895174D01*
X9343491Y-11685650D02*
X9172063Y-11942793D01*
X9600634Y-11695174D02*
X9619682Y-11695174D01*
X9619682Y-11695174D02*
X9638729Y-11704698D01*
X9638729Y-11704698D02*
X9648253Y-11714221D01*
X9648253Y-11714221D02*
X9657777Y-11733269D01*
X9657777Y-11733269D02*
X9667301Y-11771364D01*
X9667301Y-11771364D02*
X9667301Y-11818983D01*
X9667301Y-11818983D02*
X9657777Y-11857078D01*
X9657777Y-11857078D02*
X9648253Y-11876126D01*
X9648253Y-11876126D02*
X9638729Y-11885650D01*
X9638729Y-11885650D02*
X9619682Y-11895174D01*
X9619682Y-11895174D02*
X9600634Y-11895174D01*
X9600634Y-11895174D02*
X9581587Y-11885650D01*
X9581587Y-11885650D02*
X9572063Y-11876126D01*
X9572063Y-11876126D02*
X9562539Y-11857078D01*
X9562539Y-11857078D02*
X9553015Y-11818983D01*
X9553015Y-11818983D02*
X9553015Y-11771364D01*
X9553015Y-11771364D02*
X9562539Y-11733269D01*
X9562539Y-11733269D02*
X9572063Y-11714221D01*
X9572063Y-11714221D02*
X9581587Y-11704698D01*
X9581587Y-11704698D02*
X9600634Y-11695174D01*
X9753015Y-11876126D02*
X9762539Y-11885650D01*
X9762539Y-11885650D02*
X9753015Y-11895174D01*
X9753015Y-11895174D02*
X9743491Y-11885650D01*
X9743491Y-11885650D02*
X9753015Y-11876126D01*
X9753015Y-11876126D02*
X9753015Y-11895174D01*
X9886348Y-11695174D02*
X9905396Y-11695174D01*
X9905396Y-11695174D02*
X9924444Y-11704698D01*
X9924444Y-11704698D02*
X9933968Y-11714221D01*
X9933968Y-11714221D02*
X9943491Y-11733269D01*
X9943491Y-11733269D02*
X9953015Y-11771364D01*
X9953015Y-11771364D02*
X9953015Y-11818983D01*
X9953015Y-11818983D02*
X9943491Y-11857078D01*
X9943491Y-11857078D02*
X9933968Y-11876126D01*
X9933968Y-11876126D02*
X9924444Y-11885650D01*
X9924444Y-11885650D02*
X9905396Y-11895174D01*
X9905396Y-11895174D02*
X9886348Y-11895174D01*
X9886348Y-11895174D02*
X9867301Y-11885650D01*
X9867301Y-11885650D02*
X9857777Y-11876126D01*
X9857777Y-11876126D02*
X9848253Y-11857078D01*
X9848253Y-11857078D02*
X9838729Y-11818983D01*
X9838729Y-11818983D02*
X9838729Y-11771364D01*
X9838729Y-11771364D02*
X9848253Y-11733269D01*
X9848253Y-11733269D02*
X9857777Y-11714221D01*
X9857777Y-11714221D02*
X9867301Y-11704698D01*
X9867301Y-11704698D02*
X9886348Y-11695174D01*
X10143491Y-11895174D02*
X10029206Y-11895174D01*
X10086348Y-11895174D02*
X10086348Y-11695174D01*
X10086348Y-11695174D02*
X10067301Y-11723745D01*
X10067301Y-11723745D02*
X10048253Y-11742793D01*
X10048253Y-11742793D02*
X10029206Y-11752317D01*
X10324444Y-11695174D02*
X10229206Y-11695174D01*
X10229206Y-11695174D02*
X10219682Y-11790412D01*
X10219682Y-11790412D02*
X10229206Y-11780888D01*
X10229206Y-11780888D02*
X10248253Y-11771364D01*
X10248253Y-11771364D02*
X10295872Y-11771364D01*
X10295872Y-11771364D02*
X10314920Y-11780888D01*
X10314920Y-11780888D02*
X10324444Y-11790412D01*
X10324444Y-11790412D02*
X10333968Y-11809459D01*
X10333968Y-11809459D02*
X10333968Y-11857078D01*
X10333968Y-11857078D02*
X10324444Y-11876126D01*
X10324444Y-11876126D02*
X10314920Y-11885650D01*
X10314920Y-11885650D02*
X10295872Y-11895174D01*
X10295872Y-11895174D02*
X10248253Y-11895174D01*
X10248253Y-11895174D02*
X10229206Y-11885650D01*
X10229206Y-11885650D02*
X10219682Y-11876126D01*
X10400634Y-11695174D02*
X10533968Y-11695174D01*
X10533968Y-11695174D02*
X10448253Y-11895174D01*
X10600634Y-11695174D02*
X10600634Y-11733269D01*
X10676825Y-11695174D02*
X10676825Y-11733269D01*
X10972063Y-11971364D02*
X10962539Y-11961840D01*
X10962539Y-11961840D02*
X10943491Y-11933269D01*
X10943491Y-11933269D02*
X10933968Y-11914221D01*
X10933968Y-11914221D02*
X10924444Y-11885650D01*
X10924444Y-11885650D02*
X10914920Y-11838031D01*
X10914920Y-11838031D02*
X10914920Y-11799936D01*
X10914920Y-11799936D02*
X10924444Y-11752317D01*
X10924444Y-11752317D02*
X10933968Y-11723745D01*
X10933968Y-11723745D02*
X10943491Y-11704698D01*
X10943491Y-11704698D02*
X10962539Y-11676126D01*
X10962539Y-11676126D02*
X10972063Y-11666602D01*
X11153015Y-11895174D02*
X11038730Y-11895174D01*
X11095872Y-11895174D02*
X11095872Y-11695174D01*
X11095872Y-11695174D02*
X11076825Y-11723745D01*
X11076825Y-11723745D02*
X11057777Y-11742793D01*
X11057777Y-11742793D02*
X11038730Y-11752317D01*
X11248253Y-11895174D02*
X11286348Y-11895174D01*
X11286348Y-11895174D02*
X11305396Y-11885650D01*
X11305396Y-11885650D02*
X11314920Y-11876126D01*
X11314920Y-11876126D02*
X11333968Y-11847555D01*
X11333968Y-11847555D02*
X11343491Y-11809459D01*
X11343491Y-11809459D02*
X11343491Y-11733269D01*
X11343491Y-11733269D02*
X11333968Y-11714221D01*
X11333968Y-11714221D02*
X11324444Y-11704698D01*
X11324444Y-11704698D02*
X11305396Y-11695174D01*
X11305396Y-11695174D02*
X11267301Y-11695174D01*
X11267301Y-11695174D02*
X11248253Y-11704698D01*
X11248253Y-11704698D02*
X11238729Y-11714221D01*
X11238729Y-11714221D02*
X11229206Y-11733269D01*
X11229206Y-11733269D02*
X11229206Y-11780888D01*
X11229206Y-11780888D02*
X11238729Y-11799936D01*
X11238729Y-11799936D02*
X11248253Y-11809459D01*
X11248253Y-11809459D02*
X11267301Y-11818983D01*
X11267301Y-11818983D02*
X11305396Y-11818983D01*
X11305396Y-11818983D02*
X11324444Y-11809459D01*
X11324444Y-11809459D02*
X11333968Y-11799936D01*
X11333968Y-11799936D02*
X11343491Y-11780888D01*
X11581587Y-11895174D02*
X11581587Y-11695174D01*
X11667301Y-11895174D02*
X11667301Y-11790412D01*
X11667301Y-11790412D02*
X11657777Y-11771364D01*
X11657777Y-11771364D02*
X11638730Y-11761840D01*
X11638730Y-11761840D02*
X11610158Y-11761840D01*
X11610158Y-11761840D02*
X11591110Y-11771364D01*
X11591110Y-11771364D02*
X11581587Y-11780888D01*
X11791110Y-11895174D02*
X11772063Y-11885650D01*
X11772063Y-11885650D02*
X11762539Y-11876126D01*
X11762539Y-11876126D02*
X11753015Y-11857078D01*
X11753015Y-11857078D02*
X11753015Y-11799936D01*
X11753015Y-11799936D02*
X11762539Y-11780888D01*
X11762539Y-11780888D02*
X11772063Y-11771364D01*
X11772063Y-11771364D02*
X11791110Y-11761840D01*
X11791110Y-11761840D02*
X11819682Y-11761840D01*
X11819682Y-11761840D02*
X11838730Y-11771364D01*
X11838730Y-11771364D02*
X11848253Y-11780888D01*
X11848253Y-11780888D02*
X11857777Y-11799936D01*
X11857777Y-11799936D02*
X11857777Y-11857078D01*
X11857777Y-11857078D02*
X11848253Y-11876126D01*
X11848253Y-11876126D02*
X11838730Y-11885650D01*
X11838730Y-11885650D02*
X11819682Y-11895174D01*
X11819682Y-11895174D02*
X11791110Y-11895174D01*
X11972063Y-11895174D02*
X11953015Y-11885650D01*
X11953015Y-11885650D02*
X11943491Y-11866602D01*
X11943491Y-11866602D02*
X11943491Y-11695174D01*
X12124444Y-11885650D02*
X12105396Y-11895174D01*
X12105396Y-11895174D02*
X12067301Y-11895174D01*
X12067301Y-11895174D02*
X12048253Y-11885650D01*
X12048253Y-11885650D02*
X12038730Y-11866602D01*
X12038730Y-11866602D02*
X12038730Y-11790412D01*
X12038730Y-11790412D02*
X12048253Y-11771364D01*
X12048253Y-11771364D02*
X12067301Y-11761840D01*
X12067301Y-11761840D02*
X12105396Y-11761840D01*
X12105396Y-11761840D02*
X12124444Y-11771364D01*
X12124444Y-11771364D02*
X12133968Y-11790412D01*
X12133968Y-11790412D02*
X12133968Y-11809459D01*
X12133968Y-11809459D02*
X12038730Y-11828507D01*
X12210158Y-11885650D02*
X12229206Y-11895174D01*
X12229206Y-11895174D02*
X12267301Y-11895174D01*
X12267301Y-11895174D02*
X12286349Y-11885650D01*
X12286349Y-11885650D02*
X12295872Y-11866602D01*
X12295872Y-11866602D02*
X12295872Y-11857078D01*
X12295872Y-11857078D02*
X12286349Y-11838031D01*
X12286349Y-11838031D02*
X12267301Y-11828507D01*
X12267301Y-11828507D02*
X12238730Y-11828507D01*
X12238730Y-11828507D02*
X12219682Y-11818983D01*
X12219682Y-11818983D02*
X12210158Y-11799936D01*
X12210158Y-11799936D02*
X12210158Y-11790412D01*
X12210158Y-11790412D02*
X12219682Y-11771364D01*
X12219682Y-11771364D02*
X12238730Y-11761840D01*
X12238730Y-11761840D02*
X12267301Y-11761840D01*
X12267301Y-11761840D02*
X12286349Y-11771364D01*
X12362539Y-11971364D02*
X12372063Y-11961840D01*
X12372063Y-11961840D02*
X12391111Y-11933269D01*
X12391111Y-11933269D02*
X12400634Y-11914221D01*
X12400634Y-11914221D02*
X12410158Y-11885650D01*
X12410158Y-11885650D02*
X12419682Y-11838031D01*
X12419682Y-11838031D02*
X12419682Y-11799936D01*
X12419682Y-11799936D02*
X12410158Y-11752317D01*
X12410158Y-11752317D02*
X12400634Y-11723745D01*
X12400634Y-11723745D02*
X12391111Y-11704698D01*
X12391111Y-11704698D02*
X12372063Y-11676126D01*
X12372063Y-11676126D02*
X12362539Y-11666602D01*
D12*
X7372000Y-12092690D02*
X7397000Y-12067690D01*
X7372000Y-12042690D01*
X7347000Y-12067690D01*
X7372000Y-12092690D01*
D11*
X7695872Y-11959174D02*
X7714920Y-11959174D01*
X7714920Y-11959174D02*
X7733967Y-11968698D01*
X7733967Y-11968698D02*
X7743491Y-11978221D01*
X7743491Y-11978221D02*
X7753015Y-11997269D01*
X7753015Y-11997269D02*
X7762539Y-12035364D01*
X7762539Y-12035364D02*
X7762539Y-12082983D01*
X7762539Y-12082983D02*
X7753015Y-12121078D01*
X7753015Y-12121078D02*
X7743491Y-12140126D01*
X7743491Y-12140126D02*
X7733967Y-12149650D01*
X7733967Y-12149650D02*
X7714920Y-12159174D01*
X7714920Y-12159174D02*
X7695872Y-12159174D01*
X7695872Y-12159174D02*
X7676824Y-12149650D01*
X7676824Y-12149650D02*
X7667301Y-12140126D01*
X7667301Y-12140126D02*
X7657777Y-12121078D01*
X7657777Y-12121078D02*
X7648253Y-12082983D01*
X7648253Y-12082983D02*
X7648253Y-12035364D01*
X7648253Y-12035364D02*
X7657777Y-11997269D01*
X7657777Y-11997269D02*
X7667301Y-11978221D01*
X7667301Y-11978221D02*
X7676824Y-11968698D01*
X7676824Y-11968698D02*
X7695872Y-11959174D01*
X7848253Y-12140126D02*
X7857777Y-12149650D01*
X7857777Y-12149650D02*
X7848253Y-12159174D01*
X7848253Y-12159174D02*
X7838729Y-12149650D01*
X7838729Y-12149650D02*
X7848253Y-12140126D01*
X7848253Y-12140126D02*
X7848253Y-12159174D01*
X8038729Y-11959174D02*
X7943491Y-11959174D01*
X7943491Y-11959174D02*
X7933967Y-12054412D01*
X7933967Y-12054412D02*
X7943491Y-12044888D01*
X7943491Y-12044888D02*
X7962539Y-12035364D01*
X7962539Y-12035364D02*
X8010158Y-12035364D01*
X8010158Y-12035364D02*
X8029205Y-12044888D01*
X8029205Y-12044888D02*
X8038729Y-12054412D01*
X8038729Y-12054412D02*
X8048253Y-12073459D01*
X8048253Y-12073459D02*
X8048253Y-12121078D01*
X8048253Y-12121078D02*
X8038729Y-12140126D01*
X8038729Y-12140126D02*
X8029205Y-12149650D01*
X8029205Y-12149650D02*
X8010158Y-12159174D01*
X8010158Y-12159174D02*
X7962539Y-12159174D01*
X7962539Y-12159174D02*
X7943491Y-12149650D01*
X7943491Y-12149650D02*
X7933967Y-12140126D01*
X8172062Y-11959174D02*
X8191110Y-11959174D01*
X8191110Y-11959174D02*
X8210158Y-11968698D01*
X8210158Y-11968698D02*
X8219682Y-11978221D01*
X8219682Y-11978221D02*
X8229205Y-11997269D01*
X8229205Y-11997269D02*
X8238729Y-12035364D01*
X8238729Y-12035364D02*
X8238729Y-12082983D01*
X8238729Y-12082983D02*
X8229205Y-12121078D01*
X8229205Y-12121078D02*
X8219682Y-12140126D01*
X8219682Y-12140126D02*
X8210158Y-12149650D01*
X8210158Y-12149650D02*
X8191110Y-12159174D01*
X8191110Y-12159174D02*
X8172062Y-12159174D01*
X8172062Y-12159174D02*
X8153015Y-12149650D01*
X8153015Y-12149650D02*
X8143491Y-12140126D01*
X8143491Y-12140126D02*
X8133967Y-12121078D01*
X8133967Y-12121078D02*
X8124443Y-12082983D01*
X8124443Y-12082983D02*
X8124443Y-12035364D01*
X8124443Y-12035364D02*
X8133967Y-11997269D01*
X8133967Y-11997269D02*
X8143491Y-11978221D01*
X8143491Y-11978221D02*
X8153015Y-11968698D01*
X8153015Y-11968698D02*
X8172062Y-11959174D01*
X8362539Y-11959174D02*
X8381586Y-11959174D01*
X8381586Y-11959174D02*
X8400634Y-11968698D01*
X8400634Y-11968698D02*
X8410158Y-11978221D01*
X8410158Y-11978221D02*
X8419682Y-11997269D01*
X8419682Y-11997269D02*
X8429205Y-12035364D01*
X8429205Y-12035364D02*
X8429205Y-12082983D01*
X8429205Y-12082983D02*
X8419682Y-12121078D01*
X8419682Y-12121078D02*
X8410158Y-12140126D01*
X8410158Y-12140126D02*
X8400634Y-12149650D01*
X8400634Y-12149650D02*
X8381586Y-12159174D01*
X8381586Y-12159174D02*
X8362539Y-12159174D01*
X8362539Y-12159174D02*
X8343491Y-12149650D01*
X8343491Y-12149650D02*
X8333967Y-12140126D01*
X8333967Y-12140126D02*
X8324443Y-12121078D01*
X8324443Y-12121078D02*
X8314920Y-12082983D01*
X8314920Y-12082983D02*
X8314920Y-12035364D01*
X8314920Y-12035364D02*
X8324443Y-11997269D01*
X8324443Y-11997269D02*
X8333967Y-11978221D01*
X8333967Y-11978221D02*
X8343491Y-11968698D01*
X8343491Y-11968698D02*
X8362539Y-11959174D01*
X8514920Y-12159174D02*
X8514920Y-12025840D01*
X8514920Y-12044888D02*
X8524444Y-12035364D01*
X8524444Y-12035364D02*
X8543491Y-12025840D01*
X8543491Y-12025840D02*
X8572063Y-12025840D01*
X8572063Y-12025840D02*
X8591110Y-12035364D01*
X8591110Y-12035364D02*
X8600634Y-12054412D01*
X8600634Y-12054412D02*
X8600634Y-12159174D01*
X8600634Y-12054412D02*
X8610158Y-12035364D01*
X8610158Y-12035364D02*
X8629205Y-12025840D01*
X8629205Y-12025840D02*
X8657777Y-12025840D01*
X8657777Y-12025840D02*
X8676825Y-12035364D01*
X8676825Y-12035364D02*
X8686348Y-12054412D01*
X8686348Y-12054412D02*
X8686348Y-12159174D01*
X8781586Y-12159174D02*
X8781586Y-12025840D01*
X8781586Y-12044888D02*
X8791110Y-12035364D01*
X8791110Y-12035364D02*
X8810158Y-12025840D01*
X8810158Y-12025840D02*
X8838729Y-12025840D01*
X8838729Y-12025840D02*
X8857777Y-12035364D01*
X8857777Y-12035364D02*
X8867301Y-12054412D01*
X8867301Y-12054412D02*
X8867301Y-12159174D01*
X8867301Y-12054412D02*
X8876825Y-12035364D01*
X8876825Y-12035364D02*
X8895872Y-12025840D01*
X8895872Y-12025840D02*
X8924444Y-12025840D01*
X8924444Y-12025840D02*
X8943491Y-12035364D01*
X8943491Y-12035364D02*
X8953015Y-12054412D01*
X8953015Y-12054412D02*
X8953015Y-12159174D01*
X9343491Y-11949650D02*
X9172063Y-12206793D01*
X9600634Y-11959174D02*
X9619682Y-11959174D01*
X9619682Y-11959174D02*
X9638729Y-11968698D01*
X9638729Y-11968698D02*
X9648253Y-11978221D01*
X9648253Y-11978221D02*
X9657777Y-11997269D01*
X9657777Y-11997269D02*
X9667301Y-12035364D01*
X9667301Y-12035364D02*
X9667301Y-12082983D01*
X9667301Y-12082983D02*
X9657777Y-12121078D01*
X9657777Y-12121078D02*
X9648253Y-12140126D01*
X9648253Y-12140126D02*
X9638729Y-12149650D01*
X9638729Y-12149650D02*
X9619682Y-12159174D01*
X9619682Y-12159174D02*
X9600634Y-12159174D01*
X9600634Y-12159174D02*
X9581587Y-12149650D01*
X9581587Y-12149650D02*
X9572063Y-12140126D01*
X9572063Y-12140126D02*
X9562539Y-12121078D01*
X9562539Y-12121078D02*
X9553015Y-12082983D01*
X9553015Y-12082983D02*
X9553015Y-12035364D01*
X9553015Y-12035364D02*
X9562539Y-11997269D01*
X9562539Y-11997269D02*
X9572063Y-11978221D01*
X9572063Y-11978221D02*
X9581587Y-11968698D01*
X9581587Y-11968698D02*
X9600634Y-11959174D01*
X9753015Y-12140126D02*
X9762539Y-12149650D01*
X9762539Y-12149650D02*
X9753015Y-12159174D01*
X9753015Y-12159174D02*
X9743491Y-12149650D01*
X9743491Y-12149650D02*
X9753015Y-12140126D01*
X9753015Y-12140126D02*
X9753015Y-12159174D01*
X9886348Y-11959174D02*
X9905396Y-11959174D01*
X9905396Y-11959174D02*
X9924444Y-11968698D01*
X9924444Y-11968698D02*
X9933968Y-11978221D01*
X9933968Y-11978221D02*
X9943491Y-11997269D01*
X9943491Y-11997269D02*
X9953015Y-12035364D01*
X9953015Y-12035364D02*
X9953015Y-12082983D01*
X9953015Y-12082983D02*
X9943491Y-12121078D01*
X9943491Y-12121078D02*
X9933968Y-12140126D01*
X9933968Y-12140126D02*
X9924444Y-12149650D01*
X9924444Y-12149650D02*
X9905396Y-12159174D01*
X9905396Y-12159174D02*
X9886348Y-12159174D01*
X9886348Y-12159174D02*
X9867301Y-12149650D01*
X9867301Y-12149650D02*
X9857777Y-12140126D01*
X9857777Y-12140126D02*
X9848253Y-12121078D01*
X9848253Y-12121078D02*
X9838729Y-12082983D01*
X9838729Y-12082983D02*
X9838729Y-12035364D01*
X9838729Y-12035364D02*
X9848253Y-11997269D01*
X9848253Y-11997269D02*
X9857777Y-11978221D01*
X9857777Y-11978221D02*
X9867301Y-11968698D01*
X9867301Y-11968698D02*
X9886348Y-11959174D01*
X10143491Y-12159174D02*
X10029206Y-12159174D01*
X10086348Y-12159174D02*
X10086348Y-11959174D01*
X10086348Y-11959174D02*
X10067301Y-11987745D01*
X10067301Y-11987745D02*
X10048253Y-12006793D01*
X10048253Y-12006793D02*
X10029206Y-12016317D01*
X10238729Y-12159174D02*
X10276825Y-12159174D01*
X10276825Y-12159174D02*
X10295872Y-12149650D01*
X10295872Y-12149650D02*
X10305396Y-12140126D01*
X10305396Y-12140126D02*
X10324444Y-12111555D01*
X10324444Y-12111555D02*
X10333968Y-12073459D01*
X10333968Y-12073459D02*
X10333968Y-11997269D01*
X10333968Y-11997269D02*
X10324444Y-11978221D01*
X10324444Y-11978221D02*
X10314920Y-11968698D01*
X10314920Y-11968698D02*
X10295872Y-11959174D01*
X10295872Y-11959174D02*
X10257777Y-11959174D01*
X10257777Y-11959174D02*
X10238729Y-11968698D01*
X10238729Y-11968698D02*
X10229206Y-11978221D01*
X10229206Y-11978221D02*
X10219682Y-11997269D01*
X10219682Y-11997269D02*
X10219682Y-12044888D01*
X10219682Y-12044888D02*
X10229206Y-12063936D01*
X10229206Y-12063936D02*
X10238729Y-12073459D01*
X10238729Y-12073459D02*
X10257777Y-12082983D01*
X10257777Y-12082983D02*
X10295872Y-12082983D01*
X10295872Y-12082983D02*
X10314920Y-12073459D01*
X10314920Y-12073459D02*
X10324444Y-12063936D01*
X10324444Y-12063936D02*
X10333968Y-12044888D01*
X10400634Y-11959174D02*
X10533968Y-11959174D01*
X10533968Y-11959174D02*
X10448253Y-12159174D01*
X10600634Y-11959174D02*
X10600634Y-11997269D01*
X10676825Y-11959174D02*
X10676825Y-11997269D01*
X10972063Y-12235364D02*
X10962539Y-12225840D01*
X10962539Y-12225840D02*
X10943491Y-12197269D01*
X10943491Y-12197269D02*
X10933968Y-12178221D01*
X10933968Y-12178221D02*
X10924444Y-12149650D01*
X10924444Y-12149650D02*
X10914920Y-12102031D01*
X10914920Y-12102031D02*
X10914920Y-12063936D01*
X10914920Y-12063936D02*
X10924444Y-12016317D01*
X10924444Y-12016317D02*
X10933968Y-11987745D01*
X10933968Y-11987745D02*
X10943491Y-11968698D01*
X10943491Y-11968698D02*
X10962539Y-11940126D01*
X10962539Y-11940126D02*
X10972063Y-11930602D01*
X11029206Y-11959174D02*
X11153015Y-11959174D01*
X11153015Y-11959174D02*
X11086349Y-12035364D01*
X11086349Y-12035364D02*
X11114920Y-12035364D01*
X11114920Y-12035364D02*
X11133968Y-12044888D01*
X11133968Y-12044888D02*
X11143491Y-12054412D01*
X11143491Y-12054412D02*
X11153015Y-12073459D01*
X11153015Y-12073459D02*
X11153015Y-12121078D01*
X11153015Y-12121078D02*
X11143491Y-12140126D01*
X11143491Y-12140126D02*
X11133968Y-12149650D01*
X11133968Y-12149650D02*
X11114920Y-12159174D01*
X11114920Y-12159174D02*
X11057777Y-12159174D01*
X11057777Y-12159174D02*
X11038730Y-12149650D01*
X11038730Y-12149650D02*
X11029206Y-12140126D01*
X11391110Y-12159174D02*
X11391110Y-11959174D01*
X11476825Y-12159174D02*
X11476825Y-12054412D01*
X11476825Y-12054412D02*
X11467301Y-12035364D01*
X11467301Y-12035364D02*
X11448253Y-12025840D01*
X11448253Y-12025840D02*
X11419682Y-12025840D01*
X11419682Y-12025840D02*
X11400634Y-12035364D01*
X11400634Y-12035364D02*
X11391110Y-12044888D01*
X11600634Y-12159174D02*
X11581587Y-12149650D01*
X11581587Y-12149650D02*
X11572063Y-12140126D01*
X11572063Y-12140126D02*
X11562539Y-12121078D01*
X11562539Y-12121078D02*
X11562539Y-12063936D01*
X11562539Y-12063936D02*
X11572063Y-12044888D01*
X11572063Y-12044888D02*
X11581587Y-12035364D01*
X11581587Y-12035364D02*
X11600634Y-12025840D01*
X11600634Y-12025840D02*
X11629206Y-12025840D01*
X11629206Y-12025840D02*
X11648253Y-12035364D01*
X11648253Y-12035364D02*
X11657777Y-12044888D01*
X11657777Y-12044888D02*
X11667301Y-12063936D01*
X11667301Y-12063936D02*
X11667301Y-12121078D01*
X11667301Y-12121078D02*
X11657777Y-12140126D01*
X11657777Y-12140126D02*
X11648253Y-12149650D01*
X11648253Y-12149650D02*
X11629206Y-12159174D01*
X11629206Y-12159174D02*
X11600634Y-12159174D01*
X11781587Y-12159174D02*
X11762539Y-12149650D01*
X11762539Y-12149650D02*
X11753015Y-12130602D01*
X11753015Y-12130602D02*
X11753015Y-11959174D01*
X11933968Y-12149650D02*
X11914920Y-12159174D01*
X11914920Y-12159174D02*
X11876825Y-12159174D01*
X11876825Y-12159174D02*
X11857777Y-12149650D01*
X11857777Y-12149650D02*
X11848253Y-12130602D01*
X11848253Y-12130602D02*
X11848253Y-12054412D01*
X11848253Y-12054412D02*
X11857777Y-12035364D01*
X11857777Y-12035364D02*
X11876825Y-12025840D01*
X11876825Y-12025840D02*
X11914920Y-12025840D01*
X11914920Y-12025840D02*
X11933968Y-12035364D01*
X11933968Y-12035364D02*
X11943491Y-12054412D01*
X11943491Y-12054412D02*
X11943491Y-12073459D01*
X11943491Y-12073459D02*
X11848253Y-12092507D01*
X12019682Y-12149650D02*
X12038730Y-12159174D01*
X12038730Y-12159174D02*
X12076825Y-12159174D01*
X12076825Y-12159174D02*
X12095872Y-12149650D01*
X12095872Y-12149650D02*
X12105396Y-12130602D01*
X12105396Y-12130602D02*
X12105396Y-12121078D01*
X12105396Y-12121078D02*
X12095872Y-12102031D01*
X12095872Y-12102031D02*
X12076825Y-12092507D01*
X12076825Y-12092507D02*
X12048253Y-12092507D01*
X12048253Y-12092507D02*
X12029206Y-12082983D01*
X12029206Y-12082983D02*
X12019682Y-12063936D01*
X12019682Y-12063936D02*
X12019682Y-12054412D01*
X12019682Y-12054412D02*
X12029206Y-12035364D01*
X12029206Y-12035364D02*
X12048253Y-12025840D01*
X12048253Y-12025840D02*
X12076825Y-12025840D01*
X12076825Y-12025840D02*
X12095872Y-12035364D01*
X12172063Y-12235364D02*
X12181587Y-12225840D01*
X12181587Y-12225840D02*
X12200634Y-12197269D01*
X12200634Y-12197269D02*
X12210158Y-12178221D01*
X12210158Y-12178221D02*
X12219682Y-12149650D01*
X12219682Y-12149650D02*
X12229206Y-12102031D01*
X12229206Y-12102031D02*
X12229206Y-12063936D01*
X12229206Y-12063936D02*
X12219682Y-12016317D01*
X12219682Y-12016317D02*
X12210158Y-11987745D01*
X12210158Y-11987745D02*
X12200634Y-11968698D01*
X12200634Y-11968698D02*
X12181587Y-11940126D01*
X12181587Y-11940126D02*
X12172063Y-11930602D01*
D12*
X7337000Y-12301690D02*
X7397000Y-12361690D01*
X7397000Y-12301690D02*
X7337000Y-12361690D01*
X7397000Y-12331690D02*
G75*
G03*
X7337000Y-12331690I-30000J0D01*
G01*
X7337000Y-12331690D02*
G75*
G03*
X7397000Y-12331690I30000J0D01*
G01*
D11*
X7695872Y-12223174D02*
X7714920Y-12223174D01*
X7714920Y-12223174D02*
X7733967Y-12232698D01*
X7733967Y-12232698D02*
X7743491Y-12242221D01*
X7743491Y-12242221D02*
X7753015Y-12261269D01*
X7753015Y-12261269D02*
X7762539Y-12299364D01*
X7762539Y-12299364D02*
X7762539Y-12346983D01*
X7762539Y-12346983D02*
X7753015Y-12385078D01*
X7753015Y-12385078D02*
X7743491Y-12404126D01*
X7743491Y-12404126D02*
X7733967Y-12413650D01*
X7733967Y-12413650D02*
X7714920Y-12423174D01*
X7714920Y-12423174D02*
X7695872Y-12423174D01*
X7695872Y-12423174D02*
X7676824Y-12413650D01*
X7676824Y-12413650D02*
X7667301Y-12404126D01*
X7667301Y-12404126D02*
X7657777Y-12385078D01*
X7657777Y-12385078D02*
X7648253Y-12346983D01*
X7648253Y-12346983D02*
X7648253Y-12299364D01*
X7648253Y-12299364D02*
X7657777Y-12261269D01*
X7657777Y-12261269D02*
X7667301Y-12242221D01*
X7667301Y-12242221D02*
X7676824Y-12232698D01*
X7676824Y-12232698D02*
X7695872Y-12223174D01*
X7848253Y-12404126D02*
X7857777Y-12413650D01*
X7857777Y-12413650D02*
X7848253Y-12423174D01*
X7848253Y-12423174D02*
X7838729Y-12413650D01*
X7838729Y-12413650D02*
X7848253Y-12404126D01*
X7848253Y-12404126D02*
X7848253Y-12423174D01*
X8029205Y-12223174D02*
X7991110Y-12223174D01*
X7991110Y-12223174D02*
X7972062Y-12232698D01*
X7972062Y-12232698D02*
X7962539Y-12242221D01*
X7962539Y-12242221D02*
X7943491Y-12270793D01*
X7943491Y-12270793D02*
X7933967Y-12308888D01*
X7933967Y-12308888D02*
X7933967Y-12385078D01*
X7933967Y-12385078D02*
X7943491Y-12404126D01*
X7943491Y-12404126D02*
X7953015Y-12413650D01*
X7953015Y-12413650D02*
X7972062Y-12423174D01*
X7972062Y-12423174D02*
X8010158Y-12423174D01*
X8010158Y-12423174D02*
X8029205Y-12413650D01*
X8029205Y-12413650D02*
X8038729Y-12404126D01*
X8038729Y-12404126D02*
X8048253Y-12385078D01*
X8048253Y-12385078D02*
X8048253Y-12337459D01*
X8048253Y-12337459D02*
X8038729Y-12318412D01*
X8038729Y-12318412D02*
X8029205Y-12308888D01*
X8029205Y-12308888D02*
X8010158Y-12299364D01*
X8010158Y-12299364D02*
X7972062Y-12299364D01*
X7972062Y-12299364D02*
X7953015Y-12308888D01*
X7953015Y-12308888D02*
X7943491Y-12318412D01*
X7943491Y-12318412D02*
X7933967Y-12337459D01*
X8172062Y-12223174D02*
X8191110Y-12223174D01*
X8191110Y-12223174D02*
X8210158Y-12232698D01*
X8210158Y-12232698D02*
X8219682Y-12242221D01*
X8219682Y-12242221D02*
X8229205Y-12261269D01*
X8229205Y-12261269D02*
X8238729Y-12299364D01*
X8238729Y-12299364D02*
X8238729Y-12346983D01*
X8238729Y-12346983D02*
X8229205Y-12385078D01*
X8229205Y-12385078D02*
X8219682Y-12404126D01*
X8219682Y-12404126D02*
X8210158Y-12413650D01*
X8210158Y-12413650D02*
X8191110Y-12423174D01*
X8191110Y-12423174D02*
X8172062Y-12423174D01*
X8172062Y-12423174D02*
X8153015Y-12413650D01*
X8153015Y-12413650D02*
X8143491Y-12404126D01*
X8143491Y-12404126D02*
X8133967Y-12385078D01*
X8133967Y-12385078D02*
X8124443Y-12346983D01*
X8124443Y-12346983D02*
X8124443Y-12299364D01*
X8124443Y-12299364D02*
X8133967Y-12261269D01*
X8133967Y-12261269D02*
X8143491Y-12242221D01*
X8143491Y-12242221D02*
X8153015Y-12232698D01*
X8153015Y-12232698D02*
X8172062Y-12223174D01*
X8362539Y-12223174D02*
X8381586Y-12223174D01*
X8381586Y-12223174D02*
X8400634Y-12232698D01*
X8400634Y-12232698D02*
X8410158Y-12242221D01*
X8410158Y-12242221D02*
X8419682Y-12261269D01*
X8419682Y-12261269D02*
X8429205Y-12299364D01*
X8429205Y-12299364D02*
X8429205Y-12346983D01*
X8429205Y-12346983D02*
X8419682Y-12385078D01*
X8419682Y-12385078D02*
X8410158Y-12404126D01*
X8410158Y-12404126D02*
X8400634Y-12413650D01*
X8400634Y-12413650D02*
X8381586Y-12423174D01*
X8381586Y-12423174D02*
X8362539Y-12423174D01*
X8362539Y-12423174D02*
X8343491Y-12413650D01*
X8343491Y-12413650D02*
X8333967Y-12404126D01*
X8333967Y-12404126D02*
X8324443Y-12385078D01*
X8324443Y-12385078D02*
X8314920Y-12346983D01*
X8314920Y-12346983D02*
X8314920Y-12299364D01*
X8314920Y-12299364D02*
X8324443Y-12261269D01*
X8324443Y-12261269D02*
X8333967Y-12242221D01*
X8333967Y-12242221D02*
X8343491Y-12232698D01*
X8343491Y-12232698D02*
X8362539Y-12223174D01*
X8514920Y-12423174D02*
X8514920Y-12289840D01*
X8514920Y-12308888D02*
X8524444Y-12299364D01*
X8524444Y-12299364D02*
X8543491Y-12289840D01*
X8543491Y-12289840D02*
X8572063Y-12289840D01*
X8572063Y-12289840D02*
X8591110Y-12299364D01*
X8591110Y-12299364D02*
X8600634Y-12318412D01*
X8600634Y-12318412D02*
X8600634Y-12423174D01*
X8600634Y-12318412D02*
X8610158Y-12299364D01*
X8610158Y-12299364D02*
X8629205Y-12289840D01*
X8629205Y-12289840D02*
X8657777Y-12289840D01*
X8657777Y-12289840D02*
X8676825Y-12299364D01*
X8676825Y-12299364D02*
X8686348Y-12318412D01*
X8686348Y-12318412D02*
X8686348Y-12423174D01*
X8781586Y-12423174D02*
X8781586Y-12289840D01*
X8781586Y-12308888D02*
X8791110Y-12299364D01*
X8791110Y-12299364D02*
X8810158Y-12289840D01*
X8810158Y-12289840D02*
X8838729Y-12289840D01*
X8838729Y-12289840D02*
X8857777Y-12299364D01*
X8857777Y-12299364D02*
X8867301Y-12318412D01*
X8867301Y-12318412D02*
X8867301Y-12423174D01*
X8867301Y-12318412D02*
X8876825Y-12299364D01*
X8876825Y-12299364D02*
X8895872Y-12289840D01*
X8895872Y-12289840D02*
X8924444Y-12289840D01*
X8924444Y-12289840D02*
X8943491Y-12299364D01*
X8943491Y-12299364D02*
X8953015Y-12318412D01*
X8953015Y-12318412D02*
X8953015Y-12423174D01*
X9343491Y-12213650D02*
X9172063Y-12470793D01*
X9600634Y-12223174D02*
X9619682Y-12223174D01*
X9619682Y-12223174D02*
X9638729Y-12232698D01*
X9638729Y-12232698D02*
X9648253Y-12242221D01*
X9648253Y-12242221D02*
X9657777Y-12261269D01*
X9657777Y-12261269D02*
X9667301Y-12299364D01*
X9667301Y-12299364D02*
X9667301Y-12346983D01*
X9667301Y-12346983D02*
X9657777Y-12385078D01*
X9657777Y-12385078D02*
X9648253Y-12404126D01*
X9648253Y-12404126D02*
X9638729Y-12413650D01*
X9638729Y-12413650D02*
X9619682Y-12423174D01*
X9619682Y-12423174D02*
X9600634Y-12423174D01*
X9600634Y-12423174D02*
X9581587Y-12413650D01*
X9581587Y-12413650D02*
X9572063Y-12404126D01*
X9572063Y-12404126D02*
X9562539Y-12385078D01*
X9562539Y-12385078D02*
X9553015Y-12346983D01*
X9553015Y-12346983D02*
X9553015Y-12299364D01*
X9553015Y-12299364D02*
X9562539Y-12261269D01*
X9562539Y-12261269D02*
X9572063Y-12242221D01*
X9572063Y-12242221D02*
X9581587Y-12232698D01*
X9581587Y-12232698D02*
X9600634Y-12223174D01*
X9753015Y-12404126D02*
X9762539Y-12413650D01*
X9762539Y-12413650D02*
X9753015Y-12423174D01*
X9753015Y-12423174D02*
X9743491Y-12413650D01*
X9743491Y-12413650D02*
X9753015Y-12404126D01*
X9753015Y-12404126D02*
X9753015Y-12423174D01*
X9886348Y-12223174D02*
X9905396Y-12223174D01*
X9905396Y-12223174D02*
X9924444Y-12232698D01*
X9924444Y-12232698D02*
X9933968Y-12242221D01*
X9933968Y-12242221D02*
X9943491Y-12261269D01*
X9943491Y-12261269D02*
X9953015Y-12299364D01*
X9953015Y-12299364D02*
X9953015Y-12346983D01*
X9953015Y-12346983D02*
X9943491Y-12385078D01*
X9943491Y-12385078D02*
X9933968Y-12404126D01*
X9933968Y-12404126D02*
X9924444Y-12413650D01*
X9924444Y-12413650D02*
X9905396Y-12423174D01*
X9905396Y-12423174D02*
X9886348Y-12423174D01*
X9886348Y-12423174D02*
X9867301Y-12413650D01*
X9867301Y-12413650D02*
X9857777Y-12404126D01*
X9857777Y-12404126D02*
X9848253Y-12385078D01*
X9848253Y-12385078D02*
X9838729Y-12346983D01*
X9838729Y-12346983D02*
X9838729Y-12299364D01*
X9838729Y-12299364D02*
X9848253Y-12261269D01*
X9848253Y-12261269D02*
X9857777Y-12242221D01*
X9857777Y-12242221D02*
X9867301Y-12232698D01*
X9867301Y-12232698D02*
X9886348Y-12223174D01*
X10029206Y-12242221D02*
X10038729Y-12232698D01*
X10038729Y-12232698D02*
X10057777Y-12223174D01*
X10057777Y-12223174D02*
X10105396Y-12223174D01*
X10105396Y-12223174D02*
X10124444Y-12232698D01*
X10124444Y-12232698D02*
X10133968Y-12242221D01*
X10133968Y-12242221D02*
X10143491Y-12261269D01*
X10143491Y-12261269D02*
X10143491Y-12280317D01*
X10143491Y-12280317D02*
X10133968Y-12308888D01*
X10133968Y-12308888D02*
X10019682Y-12423174D01*
X10019682Y-12423174D02*
X10143491Y-12423174D01*
X10210158Y-12223174D02*
X10333968Y-12223174D01*
X10333968Y-12223174D02*
X10267301Y-12299364D01*
X10267301Y-12299364D02*
X10295872Y-12299364D01*
X10295872Y-12299364D02*
X10314920Y-12308888D01*
X10314920Y-12308888D02*
X10324444Y-12318412D01*
X10324444Y-12318412D02*
X10333968Y-12337459D01*
X10333968Y-12337459D02*
X10333968Y-12385078D01*
X10333968Y-12385078D02*
X10324444Y-12404126D01*
X10324444Y-12404126D02*
X10314920Y-12413650D01*
X10314920Y-12413650D02*
X10295872Y-12423174D01*
X10295872Y-12423174D02*
X10238729Y-12423174D01*
X10238729Y-12423174D02*
X10219682Y-12413650D01*
X10219682Y-12413650D02*
X10210158Y-12404126D01*
X10505396Y-12223174D02*
X10467301Y-12223174D01*
X10467301Y-12223174D02*
X10448253Y-12232698D01*
X10448253Y-12232698D02*
X10438729Y-12242221D01*
X10438729Y-12242221D02*
X10419682Y-12270793D01*
X10419682Y-12270793D02*
X10410158Y-12308888D01*
X10410158Y-12308888D02*
X10410158Y-12385078D01*
X10410158Y-12385078D02*
X10419682Y-12404126D01*
X10419682Y-12404126D02*
X10429206Y-12413650D01*
X10429206Y-12413650D02*
X10448253Y-12423174D01*
X10448253Y-12423174D02*
X10486349Y-12423174D01*
X10486349Y-12423174D02*
X10505396Y-12413650D01*
X10505396Y-12413650D02*
X10514920Y-12404126D01*
X10514920Y-12404126D02*
X10524444Y-12385078D01*
X10524444Y-12385078D02*
X10524444Y-12337459D01*
X10524444Y-12337459D02*
X10514920Y-12318412D01*
X10514920Y-12318412D02*
X10505396Y-12308888D01*
X10505396Y-12308888D02*
X10486349Y-12299364D01*
X10486349Y-12299364D02*
X10448253Y-12299364D01*
X10448253Y-12299364D02*
X10429206Y-12308888D01*
X10429206Y-12308888D02*
X10419682Y-12318412D01*
X10419682Y-12318412D02*
X10410158Y-12337459D01*
X10600634Y-12223174D02*
X10600634Y-12261269D01*
X10676825Y-12223174D02*
X10676825Y-12261269D01*
X10972063Y-12499364D02*
X10962539Y-12489840D01*
X10962539Y-12489840D02*
X10943491Y-12461269D01*
X10943491Y-12461269D02*
X10933968Y-12442221D01*
X10933968Y-12442221D02*
X10924444Y-12413650D01*
X10924444Y-12413650D02*
X10914920Y-12366031D01*
X10914920Y-12366031D02*
X10914920Y-12327936D01*
X10914920Y-12327936D02*
X10924444Y-12280317D01*
X10924444Y-12280317D02*
X10933968Y-12251745D01*
X10933968Y-12251745D02*
X10943491Y-12232698D01*
X10943491Y-12232698D02*
X10962539Y-12204126D01*
X10962539Y-12204126D02*
X10972063Y-12194602D01*
X11086349Y-12223174D02*
X11105396Y-12223174D01*
X11105396Y-12223174D02*
X11124444Y-12232698D01*
X11124444Y-12232698D02*
X11133968Y-12242221D01*
X11133968Y-12242221D02*
X11143491Y-12261269D01*
X11143491Y-12261269D02*
X11153015Y-12299364D01*
X11153015Y-12299364D02*
X11153015Y-12346983D01*
X11153015Y-12346983D02*
X11143491Y-12385078D01*
X11143491Y-12385078D02*
X11133968Y-12404126D01*
X11133968Y-12404126D02*
X11124444Y-12413650D01*
X11124444Y-12413650D02*
X11105396Y-12423174D01*
X11105396Y-12423174D02*
X11086349Y-12423174D01*
X11086349Y-12423174D02*
X11067301Y-12413650D01*
X11067301Y-12413650D02*
X11057777Y-12404126D01*
X11057777Y-12404126D02*
X11048253Y-12385078D01*
X11048253Y-12385078D02*
X11038730Y-12346983D01*
X11038730Y-12346983D02*
X11038730Y-12299364D01*
X11038730Y-12299364D02*
X11048253Y-12261269D01*
X11048253Y-12261269D02*
X11057777Y-12242221D01*
X11057777Y-12242221D02*
X11067301Y-12232698D01*
X11067301Y-12232698D02*
X11086349Y-12223174D01*
X11391110Y-12423174D02*
X11391110Y-12223174D01*
X11476825Y-12423174D02*
X11476825Y-12318412D01*
X11476825Y-12318412D02*
X11467301Y-12299364D01*
X11467301Y-12299364D02*
X11448253Y-12289840D01*
X11448253Y-12289840D02*
X11419682Y-12289840D01*
X11419682Y-12289840D02*
X11400634Y-12299364D01*
X11400634Y-12299364D02*
X11391110Y-12308888D01*
X11600634Y-12423174D02*
X11581587Y-12413650D01*
X11581587Y-12413650D02*
X11572063Y-12404126D01*
X11572063Y-12404126D02*
X11562539Y-12385078D01*
X11562539Y-12385078D02*
X11562539Y-12327936D01*
X11562539Y-12327936D02*
X11572063Y-12308888D01*
X11572063Y-12308888D02*
X11581587Y-12299364D01*
X11581587Y-12299364D02*
X11600634Y-12289840D01*
X11600634Y-12289840D02*
X11629206Y-12289840D01*
X11629206Y-12289840D02*
X11648253Y-12299364D01*
X11648253Y-12299364D02*
X11657777Y-12308888D01*
X11657777Y-12308888D02*
X11667301Y-12327936D01*
X11667301Y-12327936D02*
X11667301Y-12385078D01*
X11667301Y-12385078D02*
X11657777Y-12404126D01*
X11657777Y-12404126D02*
X11648253Y-12413650D01*
X11648253Y-12413650D02*
X11629206Y-12423174D01*
X11629206Y-12423174D02*
X11600634Y-12423174D01*
X11781587Y-12423174D02*
X11762539Y-12413650D01*
X11762539Y-12413650D02*
X11753015Y-12394602D01*
X11753015Y-12394602D02*
X11753015Y-12223174D01*
X11933968Y-12413650D02*
X11914920Y-12423174D01*
X11914920Y-12423174D02*
X11876825Y-12423174D01*
X11876825Y-12423174D02*
X11857777Y-12413650D01*
X11857777Y-12413650D02*
X11848253Y-12394602D01*
X11848253Y-12394602D02*
X11848253Y-12318412D01*
X11848253Y-12318412D02*
X11857777Y-12299364D01*
X11857777Y-12299364D02*
X11876825Y-12289840D01*
X11876825Y-12289840D02*
X11914920Y-12289840D01*
X11914920Y-12289840D02*
X11933968Y-12299364D01*
X11933968Y-12299364D02*
X11943491Y-12318412D01*
X11943491Y-12318412D02*
X11943491Y-12337459D01*
X11943491Y-12337459D02*
X11848253Y-12356507D01*
X12019682Y-12413650D02*
X12038730Y-12423174D01*
X12038730Y-12423174D02*
X12076825Y-12423174D01*
X12076825Y-12423174D02*
X12095872Y-12413650D01*
X12095872Y-12413650D02*
X12105396Y-12394602D01*
X12105396Y-12394602D02*
X12105396Y-12385078D01*
X12105396Y-12385078D02*
X12095872Y-12366031D01*
X12095872Y-12366031D02*
X12076825Y-12356507D01*
X12076825Y-12356507D02*
X12048253Y-12356507D01*
X12048253Y-12356507D02*
X12029206Y-12346983D01*
X12029206Y-12346983D02*
X12019682Y-12327936D01*
X12019682Y-12327936D02*
X12019682Y-12318412D01*
X12019682Y-12318412D02*
X12029206Y-12299364D01*
X12029206Y-12299364D02*
X12048253Y-12289840D01*
X12048253Y-12289840D02*
X12076825Y-12289840D01*
X12076825Y-12289840D02*
X12095872Y-12299364D01*
X12343492Y-12346983D02*
X12495873Y-12346983D01*
X12419682Y-12423174D02*
X12419682Y-12270793D01*
X12829206Y-12289840D02*
X12829206Y-12423174D01*
X12781587Y-12213650D02*
X12733968Y-12356507D01*
X12733968Y-12356507D02*
X12857777Y-12356507D01*
X13076825Y-12413650D02*
X13095873Y-12423174D01*
X13095873Y-12423174D02*
X13133968Y-12423174D01*
X13133968Y-12423174D02*
X13153015Y-12413650D01*
X13153015Y-12413650D02*
X13162539Y-12394602D01*
X13162539Y-12394602D02*
X13162539Y-12385078D01*
X13162539Y-12385078D02*
X13153015Y-12366031D01*
X13153015Y-12366031D02*
X13133968Y-12356507D01*
X13133968Y-12356507D02*
X13105396Y-12356507D01*
X13105396Y-12356507D02*
X13086349Y-12346983D01*
X13086349Y-12346983D02*
X13076825Y-12327936D01*
X13076825Y-12327936D02*
X13076825Y-12318412D01*
X13076825Y-12318412D02*
X13086349Y-12299364D01*
X13086349Y-12299364D02*
X13105396Y-12289840D01*
X13105396Y-12289840D02*
X13133968Y-12289840D01*
X13133968Y-12289840D02*
X13153015Y-12299364D01*
X13276825Y-12423174D02*
X13257777Y-12413650D01*
X13257777Y-12413650D02*
X13248254Y-12394602D01*
X13248254Y-12394602D02*
X13248254Y-12223174D01*
X13381587Y-12423174D02*
X13362539Y-12413650D01*
X13362539Y-12413650D02*
X13353015Y-12404126D01*
X13353015Y-12404126D02*
X13343492Y-12385078D01*
X13343492Y-12385078D02*
X13343492Y-12327936D01*
X13343492Y-12327936D02*
X13353015Y-12308888D01*
X13353015Y-12308888D02*
X13362539Y-12299364D01*
X13362539Y-12299364D02*
X13381587Y-12289840D01*
X13381587Y-12289840D02*
X13410158Y-12289840D01*
X13410158Y-12289840D02*
X13429206Y-12299364D01*
X13429206Y-12299364D02*
X13438730Y-12308888D01*
X13438730Y-12308888D02*
X13448254Y-12327936D01*
X13448254Y-12327936D02*
X13448254Y-12385078D01*
X13448254Y-12385078D02*
X13438730Y-12404126D01*
X13438730Y-12404126D02*
X13429206Y-12413650D01*
X13429206Y-12413650D02*
X13410158Y-12423174D01*
X13410158Y-12423174D02*
X13381587Y-12423174D01*
X13505396Y-12289840D02*
X13581587Y-12289840D01*
X13533968Y-12223174D02*
X13533968Y-12394602D01*
X13533968Y-12394602D02*
X13543492Y-12413650D01*
X13543492Y-12413650D02*
X13562539Y-12423174D01*
X13562539Y-12423174D02*
X13581587Y-12423174D01*
X13638730Y-12413650D02*
X13657777Y-12423174D01*
X13657777Y-12423174D02*
X13695873Y-12423174D01*
X13695873Y-12423174D02*
X13714920Y-12413650D01*
X13714920Y-12413650D02*
X13724444Y-12394602D01*
X13724444Y-12394602D02*
X13724444Y-12385078D01*
X13724444Y-12385078D02*
X13714920Y-12366031D01*
X13714920Y-12366031D02*
X13695873Y-12356507D01*
X13695873Y-12356507D02*
X13667301Y-12356507D01*
X13667301Y-12356507D02*
X13648254Y-12346983D01*
X13648254Y-12346983D02*
X13638730Y-12327936D01*
X13638730Y-12327936D02*
X13638730Y-12318412D01*
X13638730Y-12318412D02*
X13648254Y-12299364D01*
X13648254Y-12299364D02*
X13667301Y-12289840D01*
X13667301Y-12289840D02*
X13695873Y-12289840D01*
X13695873Y-12289840D02*
X13714920Y-12299364D01*
X13791111Y-12499364D02*
X13800635Y-12489840D01*
X13800635Y-12489840D02*
X13819682Y-12461269D01*
X13819682Y-12461269D02*
X13829206Y-12442221D01*
X13829206Y-12442221D02*
X13838730Y-12413650D01*
X13838730Y-12413650D02*
X13848254Y-12366031D01*
X13848254Y-12366031D02*
X13848254Y-12327936D01*
X13848254Y-12327936D02*
X13838730Y-12280317D01*
X13838730Y-12280317D02*
X13829206Y-12251745D01*
X13829206Y-12251745D02*
X13819682Y-12232698D01*
X13819682Y-12232698D02*
X13800635Y-12204126D01*
X13800635Y-12204126D02*
X13791111Y-12194602D01*
D12*
X7332000Y-12563190D02*
X7397000Y-12628190D01*
X7397000Y-12563190D02*
X7332000Y-12628190D01*
X7364500Y-12563190D02*
X7364500Y-12628190D01*
X7332000Y-12595690D02*
X7397000Y-12595690D01*
D11*
X7695872Y-12487174D02*
X7714920Y-12487174D01*
X7714920Y-12487174D02*
X7733967Y-12496698D01*
X7733967Y-12496698D02*
X7743491Y-12506221D01*
X7743491Y-12506221D02*
X7753015Y-12525269D01*
X7753015Y-12525269D02*
X7762539Y-12563364D01*
X7762539Y-12563364D02*
X7762539Y-12610983D01*
X7762539Y-12610983D02*
X7753015Y-12649078D01*
X7753015Y-12649078D02*
X7743491Y-12668126D01*
X7743491Y-12668126D02*
X7733967Y-12677650D01*
X7733967Y-12677650D02*
X7714920Y-12687174D01*
X7714920Y-12687174D02*
X7695872Y-12687174D01*
X7695872Y-12687174D02*
X7676824Y-12677650D01*
X7676824Y-12677650D02*
X7667301Y-12668126D01*
X7667301Y-12668126D02*
X7657777Y-12649078D01*
X7657777Y-12649078D02*
X7648253Y-12610983D01*
X7648253Y-12610983D02*
X7648253Y-12563364D01*
X7648253Y-12563364D02*
X7657777Y-12525269D01*
X7657777Y-12525269D02*
X7667301Y-12506221D01*
X7667301Y-12506221D02*
X7676824Y-12496698D01*
X7676824Y-12496698D02*
X7695872Y-12487174D01*
X7848253Y-12668126D02*
X7857777Y-12677650D01*
X7857777Y-12677650D02*
X7848253Y-12687174D01*
X7848253Y-12687174D02*
X7838729Y-12677650D01*
X7838729Y-12677650D02*
X7848253Y-12668126D01*
X7848253Y-12668126D02*
X7848253Y-12687174D01*
X8029205Y-12487174D02*
X7991110Y-12487174D01*
X7991110Y-12487174D02*
X7972062Y-12496698D01*
X7972062Y-12496698D02*
X7962539Y-12506221D01*
X7962539Y-12506221D02*
X7943491Y-12534793D01*
X7943491Y-12534793D02*
X7933967Y-12572888D01*
X7933967Y-12572888D02*
X7933967Y-12649078D01*
X7933967Y-12649078D02*
X7943491Y-12668126D01*
X7943491Y-12668126D02*
X7953015Y-12677650D01*
X7953015Y-12677650D02*
X7972062Y-12687174D01*
X7972062Y-12687174D02*
X8010158Y-12687174D01*
X8010158Y-12687174D02*
X8029205Y-12677650D01*
X8029205Y-12677650D02*
X8038729Y-12668126D01*
X8038729Y-12668126D02*
X8048253Y-12649078D01*
X8048253Y-12649078D02*
X8048253Y-12601459D01*
X8048253Y-12601459D02*
X8038729Y-12582412D01*
X8038729Y-12582412D02*
X8029205Y-12572888D01*
X8029205Y-12572888D02*
X8010158Y-12563364D01*
X8010158Y-12563364D02*
X7972062Y-12563364D01*
X7972062Y-12563364D02*
X7953015Y-12572888D01*
X7953015Y-12572888D02*
X7943491Y-12582412D01*
X7943491Y-12582412D02*
X7933967Y-12601459D01*
X8229205Y-12487174D02*
X8133967Y-12487174D01*
X8133967Y-12487174D02*
X8124443Y-12582412D01*
X8124443Y-12582412D02*
X8133967Y-12572888D01*
X8133967Y-12572888D02*
X8153015Y-12563364D01*
X8153015Y-12563364D02*
X8200634Y-12563364D01*
X8200634Y-12563364D02*
X8219682Y-12572888D01*
X8219682Y-12572888D02*
X8229205Y-12582412D01*
X8229205Y-12582412D02*
X8238729Y-12601459D01*
X8238729Y-12601459D02*
X8238729Y-12649078D01*
X8238729Y-12649078D02*
X8229205Y-12668126D01*
X8229205Y-12668126D02*
X8219682Y-12677650D01*
X8219682Y-12677650D02*
X8200634Y-12687174D01*
X8200634Y-12687174D02*
X8153015Y-12687174D01*
X8153015Y-12687174D02*
X8133967Y-12677650D01*
X8133967Y-12677650D02*
X8124443Y-12668126D01*
X8362539Y-12487174D02*
X8381586Y-12487174D01*
X8381586Y-12487174D02*
X8400634Y-12496698D01*
X8400634Y-12496698D02*
X8410158Y-12506221D01*
X8410158Y-12506221D02*
X8419682Y-12525269D01*
X8419682Y-12525269D02*
X8429205Y-12563364D01*
X8429205Y-12563364D02*
X8429205Y-12610983D01*
X8429205Y-12610983D02*
X8419682Y-12649078D01*
X8419682Y-12649078D02*
X8410158Y-12668126D01*
X8410158Y-12668126D02*
X8400634Y-12677650D01*
X8400634Y-12677650D02*
X8381586Y-12687174D01*
X8381586Y-12687174D02*
X8362539Y-12687174D01*
X8362539Y-12687174D02*
X8343491Y-12677650D01*
X8343491Y-12677650D02*
X8333967Y-12668126D01*
X8333967Y-12668126D02*
X8324443Y-12649078D01*
X8324443Y-12649078D02*
X8314920Y-12610983D01*
X8314920Y-12610983D02*
X8314920Y-12563364D01*
X8314920Y-12563364D02*
X8324443Y-12525269D01*
X8324443Y-12525269D02*
X8333967Y-12506221D01*
X8333967Y-12506221D02*
X8343491Y-12496698D01*
X8343491Y-12496698D02*
X8362539Y-12487174D01*
X8514920Y-12687174D02*
X8514920Y-12553840D01*
X8514920Y-12572888D02*
X8524444Y-12563364D01*
X8524444Y-12563364D02*
X8543491Y-12553840D01*
X8543491Y-12553840D02*
X8572063Y-12553840D01*
X8572063Y-12553840D02*
X8591110Y-12563364D01*
X8591110Y-12563364D02*
X8600634Y-12582412D01*
X8600634Y-12582412D02*
X8600634Y-12687174D01*
X8600634Y-12582412D02*
X8610158Y-12563364D01*
X8610158Y-12563364D02*
X8629205Y-12553840D01*
X8629205Y-12553840D02*
X8657777Y-12553840D01*
X8657777Y-12553840D02*
X8676825Y-12563364D01*
X8676825Y-12563364D02*
X8686348Y-12582412D01*
X8686348Y-12582412D02*
X8686348Y-12687174D01*
X8781586Y-12687174D02*
X8781586Y-12553840D01*
X8781586Y-12572888D02*
X8791110Y-12563364D01*
X8791110Y-12563364D02*
X8810158Y-12553840D01*
X8810158Y-12553840D02*
X8838729Y-12553840D01*
X8838729Y-12553840D02*
X8857777Y-12563364D01*
X8857777Y-12563364D02*
X8867301Y-12582412D01*
X8867301Y-12582412D02*
X8867301Y-12687174D01*
X8867301Y-12582412D02*
X8876825Y-12563364D01*
X8876825Y-12563364D02*
X8895872Y-12553840D01*
X8895872Y-12553840D02*
X8924444Y-12553840D01*
X8924444Y-12553840D02*
X8943491Y-12563364D01*
X8943491Y-12563364D02*
X8953015Y-12582412D01*
X8953015Y-12582412D02*
X8953015Y-12687174D01*
X9343491Y-12477650D02*
X9172063Y-12734793D01*
X9600634Y-12487174D02*
X9619682Y-12487174D01*
X9619682Y-12487174D02*
X9638729Y-12496698D01*
X9638729Y-12496698D02*
X9648253Y-12506221D01*
X9648253Y-12506221D02*
X9657777Y-12525269D01*
X9657777Y-12525269D02*
X9667301Y-12563364D01*
X9667301Y-12563364D02*
X9667301Y-12610983D01*
X9667301Y-12610983D02*
X9657777Y-12649078D01*
X9657777Y-12649078D02*
X9648253Y-12668126D01*
X9648253Y-12668126D02*
X9638729Y-12677650D01*
X9638729Y-12677650D02*
X9619682Y-12687174D01*
X9619682Y-12687174D02*
X9600634Y-12687174D01*
X9600634Y-12687174D02*
X9581587Y-12677650D01*
X9581587Y-12677650D02*
X9572063Y-12668126D01*
X9572063Y-12668126D02*
X9562539Y-12649078D01*
X9562539Y-12649078D02*
X9553015Y-12610983D01*
X9553015Y-12610983D02*
X9553015Y-12563364D01*
X9553015Y-12563364D02*
X9562539Y-12525269D01*
X9562539Y-12525269D02*
X9572063Y-12506221D01*
X9572063Y-12506221D02*
X9581587Y-12496698D01*
X9581587Y-12496698D02*
X9600634Y-12487174D01*
X9753015Y-12668126D02*
X9762539Y-12677650D01*
X9762539Y-12677650D02*
X9753015Y-12687174D01*
X9753015Y-12687174D02*
X9743491Y-12677650D01*
X9743491Y-12677650D02*
X9753015Y-12668126D01*
X9753015Y-12668126D02*
X9753015Y-12687174D01*
X9886348Y-12487174D02*
X9905396Y-12487174D01*
X9905396Y-12487174D02*
X9924444Y-12496698D01*
X9924444Y-12496698D02*
X9933968Y-12506221D01*
X9933968Y-12506221D02*
X9943491Y-12525269D01*
X9943491Y-12525269D02*
X9953015Y-12563364D01*
X9953015Y-12563364D02*
X9953015Y-12610983D01*
X9953015Y-12610983D02*
X9943491Y-12649078D01*
X9943491Y-12649078D02*
X9933968Y-12668126D01*
X9933968Y-12668126D02*
X9924444Y-12677650D01*
X9924444Y-12677650D02*
X9905396Y-12687174D01*
X9905396Y-12687174D02*
X9886348Y-12687174D01*
X9886348Y-12687174D02*
X9867301Y-12677650D01*
X9867301Y-12677650D02*
X9857777Y-12668126D01*
X9857777Y-12668126D02*
X9848253Y-12649078D01*
X9848253Y-12649078D02*
X9838729Y-12610983D01*
X9838729Y-12610983D02*
X9838729Y-12563364D01*
X9838729Y-12563364D02*
X9848253Y-12525269D01*
X9848253Y-12525269D02*
X9857777Y-12506221D01*
X9857777Y-12506221D02*
X9867301Y-12496698D01*
X9867301Y-12496698D02*
X9886348Y-12487174D01*
X10029206Y-12506221D02*
X10038729Y-12496698D01*
X10038729Y-12496698D02*
X10057777Y-12487174D01*
X10057777Y-12487174D02*
X10105396Y-12487174D01*
X10105396Y-12487174D02*
X10124444Y-12496698D01*
X10124444Y-12496698D02*
X10133968Y-12506221D01*
X10133968Y-12506221D02*
X10143491Y-12525269D01*
X10143491Y-12525269D02*
X10143491Y-12544317D01*
X10143491Y-12544317D02*
X10133968Y-12572888D01*
X10133968Y-12572888D02*
X10019682Y-12687174D01*
X10019682Y-12687174D02*
X10143491Y-12687174D01*
X10324444Y-12487174D02*
X10229206Y-12487174D01*
X10229206Y-12487174D02*
X10219682Y-12582412D01*
X10219682Y-12582412D02*
X10229206Y-12572888D01*
X10229206Y-12572888D02*
X10248253Y-12563364D01*
X10248253Y-12563364D02*
X10295872Y-12563364D01*
X10295872Y-12563364D02*
X10314920Y-12572888D01*
X10314920Y-12572888D02*
X10324444Y-12582412D01*
X10324444Y-12582412D02*
X10333968Y-12601459D01*
X10333968Y-12601459D02*
X10333968Y-12649078D01*
X10333968Y-12649078D02*
X10324444Y-12668126D01*
X10324444Y-12668126D02*
X10314920Y-12677650D01*
X10314920Y-12677650D02*
X10295872Y-12687174D01*
X10295872Y-12687174D02*
X10248253Y-12687174D01*
X10248253Y-12687174D02*
X10229206Y-12677650D01*
X10229206Y-12677650D02*
X10219682Y-12668126D01*
X10505396Y-12487174D02*
X10467301Y-12487174D01*
X10467301Y-12487174D02*
X10448253Y-12496698D01*
X10448253Y-12496698D02*
X10438729Y-12506221D01*
X10438729Y-12506221D02*
X10419682Y-12534793D01*
X10419682Y-12534793D02*
X10410158Y-12572888D01*
X10410158Y-12572888D02*
X10410158Y-12649078D01*
X10410158Y-12649078D02*
X10419682Y-12668126D01*
X10419682Y-12668126D02*
X10429206Y-12677650D01*
X10429206Y-12677650D02*
X10448253Y-12687174D01*
X10448253Y-12687174D02*
X10486349Y-12687174D01*
X10486349Y-12687174D02*
X10505396Y-12677650D01*
X10505396Y-12677650D02*
X10514920Y-12668126D01*
X10514920Y-12668126D02*
X10524444Y-12649078D01*
X10524444Y-12649078D02*
X10524444Y-12601459D01*
X10524444Y-12601459D02*
X10514920Y-12582412D01*
X10514920Y-12582412D02*
X10505396Y-12572888D01*
X10505396Y-12572888D02*
X10486349Y-12563364D01*
X10486349Y-12563364D02*
X10448253Y-12563364D01*
X10448253Y-12563364D02*
X10429206Y-12572888D01*
X10429206Y-12572888D02*
X10419682Y-12582412D01*
X10419682Y-12582412D02*
X10410158Y-12601459D01*
X10600634Y-12487174D02*
X10600634Y-12525269D01*
X10676825Y-12487174D02*
X10676825Y-12525269D01*
X10972063Y-12763364D02*
X10962539Y-12753840D01*
X10962539Y-12753840D02*
X10943491Y-12725269D01*
X10943491Y-12725269D02*
X10933968Y-12706221D01*
X10933968Y-12706221D02*
X10924444Y-12677650D01*
X10924444Y-12677650D02*
X10914920Y-12630031D01*
X10914920Y-12630031D02*
X10914920Y-12591936D01*
X10914920Y-12591936D02*
X10924444Y-12544317D01*
X10924444Y-12544317D02*
X10933968Y-12515745D01*
X10933968Y-12515745D02*
X10943491Y-12496698D01*
X10943491Y-12496698D02*
X10962539Y-12468126D01*
X10962539Y-12468126D02*
X10972063Y-12458602D01*
X11133968Y-12487174D02*
X11095872Y-12487174D01*
X11095872Y-12487174D02*
X11076825Y-12496698D01*
X11076825Y-12496698D02*
X11067301Y-12506221D01*
X11067301Y-12506221D02*
X11048253Y-12534793D01*
X11048253Y-12534793D02*
X11038730Y-12572888D01*
X11038730Y-12572888D02*
X11038730Y-12649078D01*
X11038730Y-12649078D02*
X11048253Y-12668126D01*
X11048253Y-12668126D02*
X11057777Y-12677650D01*
X11057777Y-12677650D02*
X11076825Y-12687174D01*
X11076825Y-12687174D02*
X11114920Y-12687174D01*
X11114920Y-12687174D02*
X11133968Y-12677650D01*
X11133968Y-12677650D02*
X11143491Y-12668126D01*
X11143491Y-12668126D02*
X11153015Y-12649078D01*
X11153015Y-12649078D02*
X11153015Y-12601459D01*
X11153015Y-12601459D02*
X11143491Y-12582412D01*
X11143491Y-12582412D02*
X11133968Y-12572888D01*
X11133968Y-12572888D02*
X11114920Y-12563364D01*
X11114920Y-12563364D02*
X11076825Y-12563364D01*
X11076825Y-12563364D02*
X11057777Y-12572888D01*
X11057777Y-12572888D02*
X11048253Y-12582412D01*
X11048253Y-12582412D02*
X11038730Y-12601459D01*
X11391110Y-12687174D02*
X11391110Y-12487174D01*
X11476825Y-12687174D02*
X11476825Y-12582412D01*
X11476825Y-12582412D02*
X11467301Y-12563364D01*
X11467301Y-12563364D02*
X11448253Y-12553840D01*
X11448253Y-12553840D02*
X11419682Y-12553840D01*
X11419682Y-12553840D02*
X11400634Y-12563364D01*
X11400634Y-12563364D02*
X11391110Y-12572888D01*
X11600634Y-12687174D02*
X11581587Y-12677650D01*
X11581587Y-12677650D02*
X11572063Y-12668126D01*
X11572063Y-12668126D02*
X11562539Y-12649078D01*
X11562539Y-12649078D02*
X11562539Y-12591936D01*
X11562539Y-12591936D02*
X11572063Y-12572888D01*
X11572063Y-12572888D02*
X11581587Y-12563364D01*
X11581587Y-12563364D02*
X11600634Y-12553840D01*
X11600634Y-12553840D02*
X11629206Y-12553840D01*
X11629206Y-12553840D02*
X11648253Y-12563364D01*
X11648253Y-12563364D02*
X11657777Y-12572888D01*
X11657777Y-12572888D02*
X11667301Y-12591936D01*
X11667301Y-12591936D02*
X11667301Y-12649078D01*
X11667301Y-12649078D02*
X11657777Y-12668126D01*
X11657777Y-12668126D02*
X11648253Y-12677650D01*
X11648253Y-12677650D02*
X11629206Y-12687174D01*
X11629206Y-12687174D02*
X11600634Y-12687174D01*
X11781587Y-12687174D02*
X11762539Y-12677650D01*
X11762539Y-12677650D02*
X11753015Y-12658602D01*
X11753015Y-12658602D02*
X11753015Y-12487174D01*
X11933968Y-12677650D02*
X11914920Y-12687174D01*
X11914920Y-12687174D02*
X11876825Y-12687174D01*
X11876825Y-12687174D02*
X11857777Y-12677650D01*
X11857777Y-12677650D02*
X11848253Y-12658602D01*
X11848253Y-12658602D02*
X11848253Y-12582412D01*
X11848253Y-12582412D02*
X11857777Y-12563364D01*
X11857777Y-12563364D02*
X11876825Y-12553840D01*
X11876825Y-12553840D02*
X11914920Y-12553840D01*
X11914920Y-12553840D02*
X11933968Y-12563364D01*
X11933968Y-12563364D02*
X11943491Y-12582412D01*
X11943491Y-12582412D02*
X11943491Y-12601459D01*
X11943491Y-12601459D02*
X11848253Y-12620507D01*
X12019682Y-12677650D02*
X12038730Y-12687174D01*
X12038730Y-12687174D02*
X12076825Y-12687174D01*
X12076825Y-12687174D02*
X12095872Y-12677650D01*
X12095872Y-12677650D02*
X12105396Y-12658602D01*
X12105396Y-12658602D02*
X12105396Y-12649078D01*
X12105396Y-12649078D02*
X12095872Y-12630031D01*
X12095872Y-12630031D02*
X12076825Y-12620507D01*
X12076825Y-12620507D02*
X12048253Y-12620507D01*
X12048253Y-12620507D02*
X12029206Y-12610983D01*
X12029206Y-12610983D02*
X12019682Y-12591936D01*
X12019682Y-12591936D02*
X12019682Y-12582412D01*
X12019682Y-12582412D02*
X12029206Y-12563364D01*
X12029206Y-12563364D02*
X12048253Y-12553840D01*
X12048253Y-12553840D02*
X12076825Y-12553840D01*
X12076825Y-12553840D02*
X12095872Y-12563364D01*
X12172063Y-12763364D02*
X12181587Y-12753840D01*
X12181587Y-12753840D02*
X12200634Y-12725269D01*
X12200634Y-12725269D02*
X12210158Y-12706221D01*
X12210158Y-12706221D02*
X12219682Y-12677650D01*
X12219682Y-12677650D02*
X12229206Y-12630031D01*
X12229206Y-12630031D02*
X12229206Y-12591936D01*
X12229206Y-12591936D02*
X12219682Y-12544317D01*
X12219682Y-12544317D02*
X12210158Y-12515745D01*
X12210158Y-12515745D02*
X12200634Y-12496698D01*
X12200634Y-12496698D02*
X12181587Y-12468126D01*
X12181587Y-12468126D02*
X12172063Y-12458602D01*
D12*
X7298000Y-12810190D02*
X7397000Y-12909190D01*
X7397000Y-12810190D02*
X7298000Y-12909190D01*
X7382502Y-12894692D02*
X7382502Y-12824688D01*
X7312498Y-12824688D01*
X7312498Y-12894692D01*
X7382502Y-12894692D01*
D11*
X7695872Y-12751174D02*
X7714920Y-12751174D01*
X7714920Y-12751174D02*
X7733967Y-12760698D01*
X7733967Y-12760698D02*
X7743491Y-12770221D01*
X7743491Y-12770221D02*
X7753015Y-12789269D01*
X7753015Y-12789269D02*
X7762539Y-12827364D01*
X7762539Y-12827364D02*
X7762539Y-12874983D01*
X7762539Y-12874983D02*
X7753015Y-12913078D01*
X7753015Y-12913078D02*
X7743491Y-12932126D01*
X7743491Y-12932126D02*
X7733967Y-12941650D01*
X7733967Y-12941650D02*
X7714920Y-12951174D01*
X7714920Y-12951174D02*
X7695872Y-12951174D01*
X7695872Y-12951174D02*
X7676824Y-12941650D01*
X7676824Y-12941650D02*
X7667301Y-12932126D01*
X7667301Y-12932126D02*
X7657777Y-12913078D01*
X7657777Y-12913078D02*
X7648253Y-12874983D01*
X7648253Y-12874983D02*
X7648253Y-12827364D01*
X7648253Y-12827364D02*
X7657777Y-12789269D01*
X7657777Y-12789269D02*
X7667301Y-12770221D01*
X7667301Y-12770221D02*
X7676824Y-12760698D01*
X7676824Y-12760698D02*
X7695872Y-12751174D01*
X7848253Y-12932126D02*
X7857777Y-12941650D01*
X7857777Y-12941650D02*
X7848253Y-12951174D01*
X7848253Y-12951174D02*
X7838729Y-12941650D01*
X7838729Y-12941650D02*
X7848253Y-12932126D01*
X7848253Y-12932126D02*
X7848253Y-12951174D01*
X7953015Y-12951174D02*
X7991110Y-12951174D01*
X7991110Y-12951174D02*
X8010158Y-12941650D01*
X8010158Y-12941650D02*
X8019682Y-12932126D01*
X8019682Y-12932126D02*
X8038729Y-12903555D01*
X8038729Y-12903555D02*
X8048253Y-12865459D01*
X8048253Y-12865459D02*
X8048253Y-12789269D01*
X8048253Y-12789269D02*
X8038729Y-12770221D01*
X8038729Y-12770221D02*
X8029205Y-12760698D01*
X8029205Y-12760698D02*
X8010158Y-12751174D01*
X8010158Y-12751174D02*
X7972062Y-12751174D01*
X7972062Y-12751174D02*
X7953015Y-12760698D01*
X7953015Y-12760698D02*
X7943491Y-12770221D01*
X7943491Y-12770221D02*
X7933967Y-12789269D01*
X7933967Y-12789269D02*
X7933967Y-12836888D01*
X7933967Y-12836888D02*
X7943491Y-12855936D01*
X7943491Y-12855936D02*
X7953015Y-12865459D01*
X7953015Y-12865459D02*
X7972062Y-12874983D01*
X7972062Y-12874983D02*
X8010158Y-12874983D01*
X8010158Y-12874983D02*
X8029205Y-12865459D01*
X8029205Y-12865459D02*
X8038729Y-12855936D01*
X8038729Y-12855936D02*
X8048253Y-12836888D01*
X8143491Y-12951174D02*
X8181586Y-12951174D01*
X8181586Y-12951174D02*
X8200634Y-12941650D01*
X8200634Y-12941650D02*
X8210158Y-12932126D01*
X8210158Y-12932126D02*
X8229205Y-12903555D01*
X8229205Y-12903555D02*
X8238729Y-12865459D01*
X8238729Y-12865459D02*
X8238729Y-12789269D01*
X8238729Y-12789269D02*
X8229205Y-12770221D01*
X8229205Y-12770221D02*
X8219682Y-12760698D01*
X8219682Y-12760698D02*
X8200634Y-12751174D01*
X8200634Y-12751174D02*
X8162539Y-12751174D01*
X8162539Y-12751174D02*
X8143491Y-12760698D01*
X8143491Y-12760698D02*
X8133967Y-12770221D01*
X8133967Y-12770221D02*
X8124443Y-12789269D01*
X8124443Y-12789269D02*
X8124443Y-12836888D01*
X8124443Y-12836888D02*
X8133967Y-12855936D01*
X8133967Y-12855936D02*
X8143491Y-12865459D01*
X8143491Y-12865459D02*
X8162539Y-12874983D01*
X8162539Y-12874983D02*
X8200634Y-12874983D01*
X8200634Y-12874983D02*
X8219682Y-12865459D01*
X8219682Y-12865459D02*
X8229205Y-12855936D01*
X8229205Y-12855936D02*
X8238729Y-12836888D01*
X8362539Y-12751174D02*
X8381586Y-12751174D01*
X8381586Y-12751174D02*
X8400634Y-12760698D01*
X8400634Y-12760698D02*
X8410158Y-12770221D01*
X8410158Y-12770221D02*
X8419682Y-12789269D01*
X8419682Y-12789269D02*
X8429205Y-12827364D01*
X8429205Y-12827364D02*
X8429205Y-12874983D01*
X8429205Y-12874983D02*
X8419682Y-12913078D01*
X8419682Y-12913078D02*
X8410158Y-12932126D01*
X8410158Y-12932126D02*
X8400634Y-12941650D01*
X8400634Y-12941650D02*
X8381586Y-12951174D01*
X8381586Y-12951174D02*
X8362539Y-12951174D01*
X8362539Y-12951174D02*
X8343491Y-12941650D01*
X8343491Y-12941650D02*
X8333967Y-12932126D01*
X8333967Y-12932126D02*
X8324443Y-12913078D01*
X8324443Y-12913078D02*
X8314920Y-12874983D01*
X8314920Y-12874983D02*
X8314920Y-12827364D01*
X8314920Y-12827364D02*
X8324443Y-12789269D01*
X8324443Y-12789269D02*
X8333967Y-12770221D01*
X8333967Y-12770221D02*
X8343491Y-12760698D01*
X8343491Y-12760698D02*
X8362539Y-12751174D01*
X8514920Y-12951174D02*
X8514920Y-12817840D01*
X8514920Y-12836888D02*
X8524444Y-12827364D01*
X8524444Y-12827364D02*
X8543491Y-12817840D01*
X8543491Y-12817840D02*
X8572063Y-12817840D01*
X8572063Y-12817840D02*
X8591110Y-12827364D01*
X8591110Y-12827364D02*
X8600634Y-12846412D01*
X8600634Y-12846412D02*
X8600634Y-12951174D01*
X8600634Y-12846412D02*
X8610158Y-12827364D01*
X8610158Y-12827364D02*
X8629205Y-12817840D01*
X8629205Y-12817840D02*
X8657777Y-12817840D01*
X8657777Y-12817840D02*
X8676825Y-12827364D01*
X8676825Y-12827364D02*
X8686348Y-12846412D01*
X8686348Y-12846412D02*
X8686348Y-12951174D01*
X8781586Y-12951174D02*
X8781586Y-12817840D01*
X8781586Y-12836888D02*
X8791110Y-12827364D01*
X8791110Y-12827364D02*
X8810158Y-12817840D01*
X8810158Y-12817840D02*
X8838729Y-12817840D01*
X8838729Y-12817840D02*
X8857777Y-12827364D01*
X8857777Y-12827364D02*
X8867301Y-12846412D01*
X8867301Y-12846412D02*
X8867301Y-12951174D01*
X8867301Y-12846412D02*
X8876825Y-12827364D01*
X8876825Y-12827364D02*
X8895872Y-12817840D01*
X8895872Y-12817840D02*
X8924444Y-12817840D01*
X8924444Y-12817840D02*
X8943491Y-12827364D01*
X8943491Y-12827364D02*
X8953015Y-12846412D01*
X8953015Y-12846412D02*
X8953015Y-12951174D01*
X9343491Y-12741650D02*
X9172063Y-12998793D01*
X9600634Y-12751174D02*
X9619682Y-12751174D01*
X9619682Y-12751174D02*
X9638729Y-12760698D01*
X9638729Y-12760698D02*
X9648253Y-12770221D01*
X9648253Y-12770221D02*
X9657777Y-12789269D01*
X9657777Y-12789269D02*
X9667301Y-12827364D01*
X9667301Y-12827364D02*
X9667301Y-12874983D01*
X9667301Y-12874983D02*
X9657777Y-12913078D01*
X9657777Y-12913078D02*
X9648253Y-12932126D01*
X9648253Y-12932126D02*
X9638729Y-12941650D01*
X9638729Y-12941650D02*
X9619682Y-12951174D01*
X9619682Y-12951174D02*
X9600634Y-12951174D01*
X9600634Y-12951174D02*
X9581587Y-12941650D01*
X9581587Y-12941650D02*
X9572063Y-12932126D01*
X9572063Y-12932126D02*
X9562539Y-12913078D01*
X9562539Y-12913078D02*
X9553015Y-12874983D01*
X9553015Y-12874983D02*
X9553015Y-12827364D01*
X9553015Y-12827364D02*
X9562539Y-12789269D01*
X9562539Y-12789269D02*
X9572063Y-12770221D01*
X9572063Y-12770221D02*
X9581587Y-12760698D01*
X9581587Y-12760698D02*
X9600634Y-12751174D01*
X9753015Y-12932126D02*
X9762539Y-12941650D01*
X9762539Y-12941650D02*
X9753015Y-12951174D01*
X9753015Y-12951174D02*
X9743491Y-12941650D01*
X9743491Y-12941650D02*
X9753015Y-12932126D01*
X9753015Y-12932126D02*
X9753015Y-12951174D01*
X9886348Y-12751174D02*
X9905396Y-12751174D01*
X9905396Y-12751174D02*
X9924444Y-12760698D01*
X9924444Y-12760698D02*
X9933968Y-12770221D01*
X9933968Y-12770221D02*
X9943491Y-12789269D01*
X9943491Y-12789269D02*
X9953015Y-12827364D01*
X9953015Y-12827364D02*
X9953015Y-12874983D01*
X9953015Y-12874983D02*
X9943491Y-12913078D01*
X9943491Y-12913078D02*
X9933968Y-12932126D01*
X9933968Y-12932126D02*
X9924444Y-12941650D01*
X9924444Y-12941650D02*
X9905396Y-12951174D01*
X9905396Y-12951174D02*
X9886348Y-12951174D01*
X9886348Y-12951174D02*
X9867301Y-12941650D01*
X9867301Y-12941650D02*
X9857777Y-12932126D01*
X9857777Y-12932126D02*
X9848253Y-12913078D01*
X9848253Y-12913078D02*
X9838729Y-12874983D01*
X9838729Y-12874983D02*
X9838729Y-12827364D01*
X9838729Y-12827364D02*
X9848253Y-12789269D01*
X9848253Y-12789269D02*
X9857777Y-12770221D01*
X9857777Y-12770221D02*
X9867301Y-12760698D01*
X9867301Y-12760698D02*
X9886348Y-12751174D01*
X10019682Y-12751174D02*
X10143491Y-12751174D01*
X10143491Y-12751174D02*
X10076825Y-12827364D01*
X10076825Y-12827364D02*
X10105396Y-12827364D01*
X10105396Y-12827364D02*
X10124444Y-12836888D01*
X10124444Y-12836888D02*
X10133968Y-12846412D01*
X10133968Y-12846412D02*
X10143491Y-12865459D01*
X10143491Y-12865459D02*
X10143491Y-12913078D01*
X10143491Y-12913078D02*
X10133968Y-12932126D01*
X10133968Y-12932126D02*
X10124444Y-12941650D01*
X10124444Y-12941650D02*
X10105396Y-12951174D01*
X10105396Y-12951174D02*
X10048253Y-12951174D01*
X10048253Y-12951174D02*
X10029206Y-12941650D01*
X10029206Y-12941650D02*
X10019682Y-12932126D01*
X10238729Y-12951174D02*
X10276825Y-12951174D01*
X10276825Y-12951174D02*
X10295872Y-12941650D01*
X10295872Y-12941650D02*
X10305396Y-12932126D01*
X10305396Y-12932126D02*
X10324444Y-12903555D01*
X10324444Y-12903555D02*
X10333968Y-12865459D01*
X10333968Y-12865459D02*
X10333968Y-12789269D01*
X10333968Y-12789269D02*
X10324444Y-12770221D01*
X10324444Y-12770221D02*
X10314920Y-12760698D01*
X10314920Y-12760698D02*
X10295872Y-12751174D01*
X10295872Y-12751174D02*
X10257777Y-12751174D01*
X10257777Y-12751174D02*
X10238729Y-12760698D01*
X10238729Y-12760698D02*
X10229206Y-12770221D01*
X10229206Y-12770221D02*
X10219682Y-12789269D01*
X10219682Y-12789269D02*
X10219682Y-12836888D01*
X10219682Y-12836888D02*
X10229206Y-12855936D01*
X10229206Y-12855936D02*
X10238729Y-12865459D01*
X10238729Y-12865459D02*
X10257777Y-12874983D01*
X10257777Y-12874983D02*
X10295872Y-12874983D01*
X10295872Y-12874983D02*
X10314920Y-12865459D01*
X10314920Y-12865459D02*
X10324444Y-12855936D01*
X10324444Y-12855936D02*
X10333968Y-12836888D01*
X10457777Y-12751174D02*
X10476825Y-12751174D01*
X10476825Y-12751174D02*
X10495872Y-12760698D01*
X10495872Y-12760698D02*
X10505396Y-12770221D01*
X10505396Y-12770221D02*
X10514920Y-12789269D01*
X10514920Y-12789269D02*
X10524444Y-12827364D01*
X10524444Y-12827364D02*
X10524444Y-12874983D01*
X10524444Y-12874983D02*
X10514920Y-12913078D01*
X10514920Y-12913078D02*
X10505396Y-12932126D01*
X10505396Y-12932126D02*
X10495872Y-12941650D01*
X10495872Y-12941650D02*
X10476825Y-12951174D01*
X10476825Y-12951174D02*
X10457777Y-12951174D01*
X10457777Y-12951174D02*
X10438729Y-12941650D01*
X10438729Y-12941650D02*
X10429206Y-12932126D01*
X10429206Y-12932126D02*
X10419682Y-12913078D01*
X10419682Y-12913078D02*
X10410158Y-12874983D01*
X10410158Y-12874983D02*
X10410158Y-12827364D01*
X10410158Y-12827364D02*
X10419682Y-12789269D01*
X10419682Y-12789269D02*
X10429206Y-12770221D01*
X10429206Y-12770221D02*
X10438729Y-12760698D01*
X10438729Y-12760698D02*
X10457777Y-12751174D01*
X10600634Y-12751174D02*
X10600634Y-12789269D01*
X10676825Y-12751174D02*
X10676825Y-12789269D01*
X10972063Y-13027364D02*
X10962539Y-13017840D01*
X10962539Y-13017840D02*
X10943491Y-12989269D01*
X10943491Y-12989269D02*
X10933968Y-12970221D01*
X10933968Y-12970221D02*
X10924444Y-12941650D01*
X10924444Y-12941650D02*
X10914920Y-12894031D01*
X10914920Y-12894031D02*
X10914920Y-12855936D01*
X10914920Y-12855936D02*
X10924444Y-12808317D01*
X10924444Y-12808317D02*
X10933968Y-12779745D01*
X10933968Y-12779745D02*
X10943491Y-12760698D01*
X10943491Y-12760698D02*
X10962539Y-12732126D01*
X10962539Y-12732126D02*
X10972063Y-12722602D01*
X11133968Y-12751174D02*
X11095872Y-12751174D01*
X11095872Y-12751174D02*
X11076825Y-12760698D01*
X11076825Y-12760698D02*
X11067301Y-12770221D01*
X11067301Y-12770221D02*
X11048253Y-12798793D01*
X11048253Y-12798793D02*
X11038730Y-12836888D01*
X11038730Y-12836888D02*
X11038730Y-12913078D01*
X11038730Y-12913078D02*
X11048253Y-12932126D01*
X11048253Y-12932126D02*
X11057777Y-12941650D01*
X11057777Y-12941650D02*
X11076825Y-12951174D01*
X11076825Y-12951174D02*
X11114920Y-12951174D01*
X11114920Y-12951174D02*
X11133968Y-12941650D01*
X11133968Y-12941650D02*
X11143491Y-12932126D01*
X11143491Y-12932126D02*
X11153015Y-12913078D01*
X11153015Y-12913078D02*
X11153015Y-12865459D01*
X11153015Y-12865459D02*
X11143491Y-12846412D01*
X11143491Y-12846412D02*
X11133968Y-12836888D01*
X11133968Y-12836888D02*
X11114920Y-12827364D01*
X11114920Y-12827364D02*
X11076825Y-12827364D01*
X11076825Y-12827364D02*
X11057777Y-12836888D01*
X11057777Y-12836888D02*
X11048253Y-12846412D01*
X11048253Y-12846412D02*
X11038730Y-12865459D01*
X11391110Y-12951174D02*
X11391110Y-12751174D01*
X11476825Y-12951174D02*
X11476825Y-12846412D01*
X11476825Y-12846412D02*
X11467301Y-12827364D01*
X11467301Y-12827364D02*
X11448253Y-12817840D01*
X11448253Y-12817840D02*
X11419682Y-12817840D01*
X11419682Y-12817840D02*
X11400634Y-12827364D01*
X11400634Y-12827364D02*
X11391110Y-12836888D01*
X11600634Y-12951174D02*
X11581587Y-12941650D01*
X11581587Y-12941650D02*
X11572063Y-12932126D01*
X11572063Y-12932126D02*
X11562539Y-12913078D01*
X11562539Y-12913078D02*
X11562539Y-12855936D01*
X11562539Y-12855936D02*
X11572063Y-12836888D01*
X11572063Y-12836888D02*
X11581587Y-12827364D01*
X11581587Y-12827364D02*
X11600634Y-12817840D01*
X11600634Y-12817840D02*
X11629206Y-12817840D01*
X11629206Y-12817840D02*
X11648253Y-12827364D01*
X11648253Y-12827364D02*
X11657777Y-12836888D01*
X11657777Y-12836888D02*
X11667301Y-12855936D01*
X11667301Y-12855936D02*
X11667301Y-12913078D01*
X11667301Y-12913078D02*
X11657777Y-12932126D01*
X11657777Y-12932126D02*
X11648253Y-12941650D01*
X11648253Y-12941650D02*
X11629206Y-12951174D01*
X11629206Y-12951174D02*
X11600634Y-12951174D01*
X11781587Y-12951174D02*
X11762539Y-12941650D01*
X11762539Y-12941650D02*
X11753015Y-12922602D01*
X11753015Y-12922602D02*
X11753015Y-12751174D01*
X11933968Y-12941650D02*
X11914920Y-12951174D01*
X11914920Y-12951174D02*
X11876825Y-12951174D01*
X11876825Y-12951174D02*
X11857777Y-12941650D01*
X11857777Y-12941650D02*
X11848253Y-12922602D01*
X11848253Y-12922602D02*
X11848253Y-12846412D01*
X11848253Y-12846412D02*
X11857777Y-12827364D01*
X11857777Y-12827364D02*
X11876825Y-12817840D01*
X11876825Y-12817840D02*
X11914920Y-12817840D01*
X11914920Y-12817840D02*
X11933968Y-12827364D01*
X11933968Y-12827364D02*
X11943491Y-12846412D01*
X11943491Y-12846412D02*
X11943491Y-12865459D01*
X11943491Y-12865459D02*
X11848253Y-12884507D01*
X12019682Y-12941650D02*
X12038730Y-12951174D01*
X12038730Y-12951174D02*
X12076825Y-12951174D01*
X12076825Y-12951174D02*
X12095872Y-12941650D01*
X12095872Y-12941650D02*
X12105396Y-12922602D01*
X12105396Y-12922602D02*
X12105396Y-12913078D01*
X12105396Y-12913078D02*
X12095872Y-12894031D01*
X12095872Y-12894031D02*
X12076825Y-12884507D01*
X12076825Y-12884507D02*
X12048253Y-12884507D01*
X12048253Y-12884507D02*
X12029206Y-12874983D01*
X12029206Y-12874983D02*
X12019682Y-12855936D01*
X12019682Y-12855936D02*
X12019682Y-12846412D01*
X12019682Y-12846412D02*
X12029206Y-12827364D01*
X12029206Y-12827364D02*
X12048253Y-12817840D01*
X12048253Y-12817840D02*
X12076825Y-12817840D01*
X12076825Y-12817840D02*
X12095872Y-12827364D01*
X12172063Y-13027364D02*
X12181587Y-13017840D01*
X12181587Y-13017840D02*
X12200634Y-12989269D01*
X12200634Y-12989269D02*
X12210158Y-12970221D01*
X12210158Y-12970221D02*
X12219682Y-12941650D01*
X12219682Y-12941650D02*
X12229206Y-12894031D01*
X12229206Y-12894031D02*
X12229206Y-12855936D01*
X12229206Y-12855936D02*
X12219682Y-12808317D01*
X12219682Y-12808317D02*
X12210158Y-12779745D01*
X12210158Y-12779745D02*
X12200634Y-12760698D01*
X12200634Y-12760698D02*
X12181587Y-12732126D01*
X12181587Y-12732126D02*
X12172063Y-12722602D01*
D13*
X7267000Y-13058690D02*
X7397000Y-13188690D01*
X7397000Y-13058690D02*
X7267000Y-13188690D01*
X7332000Y-13188690D02*
X7397000Y-13123690D01*
X7332000Y-13058690D01*
X7267000Y-13123690D01*
X7332000Y-13188690D01*
D11*
X7762539Y-13215174D02*
X7648253Y-13215174D01*
X7705396Y-13215174D02*
X7705396Y-13015174D01*
X7705396Y-13015174D02*
X7686348Y-13043745D01*
X7686348Y-13043745D02*
X7667301Y-13062793D01*
X7667301Y-13062793D02*
X7648253Y-13072317D01*
X7848253Y-13196126D02*
X7857777Y-13205650D01*
X7857777Y-13205650D02*
X7848253Y-13215174D01*
X7848253Y-13215174D02*
X7838729Y-13205650D01*
X7838729Y-13205650D02*
X7848253Y-13196126D01*
X7848253Y-13196126D02*
X7848253Y-13215174D01*
X7924443Y-13015174D02*
X8048253Y-13015174D01*
X8048253Y-13015174D02*
X7981586Y-13091364D01*
X7981586Y-13091364D02*
X8010158Y-13091364D01*
X8010158Y-13091364D02*
X8029205Y-13100888D01*
X8029205Y-13100888D02*
X8038729Y-13110412D01*
X8038729Y-13110412D02*
X8048253Y-13129459D01*
X8048253Y-13129459D02*
X8048253Y-13177078D01*
X8048253Y-13177078D02*
X8038729Y-13196126D01*
X8038729Y-13196126D02*
X8029205Y-13205650D01*
X8029205Y-13205650D02*
X8010158Y-13215174D01*
X8010158Y-13215174D02*
X7953015Y-13215174D01*
X7953015Y-13215174D02*
X7933967Y-13205650D01*
X7933967Y-13205650D02*
X7924443Y-13196126D01*
X8172062Y-13015174D02*
X8191110Y-13015174D01*
X8191110Y-13015174D02*
X8210158Y-13024698D01*
X8210158Y-13024698D02*
X8219682Y-13034221D01*
X8219682Y-13034221D02*
X8229205Y-13053269D01*
X8229205Y-13053269D02*
X8238729Y-13091364D01*
X8238729Y-13091364D02*
X8238729Y-13138983D01*
X8238729Y-13138983D02*
X8229205Y-13177078D01*
X8229205Y-13177078D02*
X8219682Y-13196126D01*
X8219682Y-13196126D02*
X8210158Y-13205650D01*
X8210158Y-13205650D02*
X8191110Y-13215174D01*
X8191110Y-13215174D02*
X8172062Y-13215174D01*
X8172062Y-13215174D02*
X8153015Y-13205650D01*
X8153015Y-13205650D02*
X8143491Y-13196126D01*
X8143491Y-13196126D02*
X8133967Y-13177078D01*
X8133967Y-13177078D02*
X8124443Y-13138983D01*
X8124443Y-13138983D02*
X8124443Y-13091364D01*
X8124443Y-13091364D02*
X8133967Y-13053269D01*
X8133967Y-13053269D02*
X8143491Y-13034221D01*
X8143491Y-13034221D02*
X8153015Y-13024698D01*
X8153015Y-13024698D02*
X8172062Y-13015174D01*
X8362539Y-13015174D02*
X8381586Y-13015174D01*
X8381586Y-13015174D02*
X8400634Y-13024698D01*
X8400634Y-13024698D02*
X8410158Y-13034221D01*
X8410158Y-13034221D02*
X8419682Y-13053269D01*
X8419682Y-13053269D02*
X8429205Y-13091364D01*
X8429205Y-13091364D02*
X8429205Y-13138983D01*
X8429205Y-13138983D02*
X8419682Y-13177078D01*
X8419682Y-13177078D02*
X8410158Y-13196126D01*
X8410158Y-13196126D02*
X8400634Y-13205650D01*
X8400634Y-13205650D02*
X8381586Y-13215174D01*
X8381586Y-13215174D02*
X8362539Y-13215174D01*
X8362539Y-13215174D02*
X8343491Y-13205650D01*
X8343491Y-13205650D02*
X8333967Y-13196126D01*
X8333967Y-13196126D02*
X8324443Y-13177078D01*
X8324443Y-13177078D02*
X8314920Y-13138983D01*
X8314920Y-13138983D02*
X8314920Y-13091364D01*
X8314920Y-13091364D02*
X8324443Y-13053269D01*
X8324443Y-13053269D02*
X8333967Y-13034221D01*
X8333967Y-13034221D02*
X8343491Y-13024698D01*
X8343491Y-13024698D02*
X8362539Y-13015174D01*
X8514920Y-13215174D02*
X8514920Y-13081840D01*
X8514920Y-13100888D02*
X8524444Y-13091364D01*
X8524444Y-13091364D02*
X8543491Y-13081840D01*
X8543491Y-13081840D02*
X8572063Y-13081840D01*
X8572063Y-13081840D02*
X8591110Y-13091364D01*
X8591110Y-13091364D02*
X8600634Y-13110412D01*
X8600634Y-13110412D02*
X8600634Y-13215174D01*
X8600634Y-13110412D02*
X8610158Y-13091364D01*
X8610158Y-13091364D02*
X8629205Y-13081840D01*
X8629205Y-13081840D02*
X8657777Y-13081840D01*
X8657777Y-13081840D02*
X8676825Y-13091364D01*
X8676825Y-13091364D02*
X8686348Y-13110412D01*
X8686348Y-13110412D02*
X8686348Y-13215174D01*
X8781586Y-13215174D02*
X8781586Y-13081840D01*
X8781586Y-13100888D02*
X8791110Y-13091364D01*
X8791110Y-13091364D02*
X8810158Y-13081840D01*
X8810158Y-13081840D02*
X8838729Y-13081840D01*
X8838729Y-13081840D02*
X8857777Y-13091364D01*
X8857777Y-13091364D02*
X8867301Y-13110412D01*
X8867301Y-13110412D02*
X8867301Y-13215174D01*
X8867301Y-13110412D02*
X8876825Y-13091364D01*
X8876825Y-13091364D02*
X8895872Y-13081840D01*
X8895872Y-13081840D02*
X8924444Y-13081840D01*
X8924444Y-13081840D02*
X8943491Y-13091364D01*
X8943491Y-13091364D02*
X8953015Y-13110412D01*
X8953015Y-13110412D02*
X8953015Y-13215174D01*
X9343491Y-13005650D02*
X9172063Y-13262793D01*
X9600634Y-13015174D02*
X9619682Y-13015174D01*
X9619682Y-13015174D02*
X9638729Y-13024698D01*
X9638729Y-13024698D02*
X9648253Y-13034221D01*
X9648253Y-13034221D02*
X9657777Y-13053269D01*
X9657777Y-13053269D02*
X9667301Y-13091364D01*
X9667301Y-13091364D02*
X9667301Y-13138983D01*
X9667301Y-13138983D02*
X9657777Y-13177078D01*
X9657777Y-13177078D02*
X9648253Y-13196126D01*
X9648253Y-13196126D02*
X9638729Y-13205650D01*
X9638729Y-13205650D02*
X9619682Y-13215174D01*
X9619682Y-13215174D02*
X9600634Y-13215174D01*
X9600634Y-13215174D02*
X9581587Y-13205650D01*
X9581587Y-13205650D02*
X9572063Y-13196126D01*
X9572063Y-13196126D02*
X9562539Y-13177078D01*
X9562539Y-13177078D02*
X9553015Y-13138983D01*
X9553015Y-13138983D02*
X9553015Y-13091364D01*
X9553015Y-13091364D02*
X9562539Y-13053269D01*
X9562539Y-13053269D02*
X9572063Y-13034221D01*
X9572063Y-13034221D02*
X9581587Y-13024698D01*
X9581587Y-13024698D02*
X9600634Y-13015174D01*
X9753015Y-13196126D02*
X9762539Y-13205650D01*
X9762539Y-13205650D02*
X9753015Y-13215174D01*
X9753015Y-13215174D02*
X9743491Y-13205650D01*
X9743491Y-13205650D02*
X9753015Y-13196126D01*
X9753015Y-13196126D02*
X9753015Y-13215174D01*
X9886348Y-13015174D02*
X9905396Y-13015174D01*
X9905396Y-13015174D02*
X9924444Y-13024698D01*
X9924444Y-13024698D02*
X9933968Y-13034221D01*
X9933968Y-13034221D02*
X9943491Y-13053269D01*
X9943491Y-13053269D02*
X9953015Y-13091364D01*
X9953015Y-13091364D02*
X9953015Y-13138983D01*
X9953015Y-13138983D02*
X9943491Y-13177078D01*
X9943491Y-13177078D02*
X9933968Y-13196126D01*
X9933968Y-13196126D02*
X9924444Y-13205650D01*
X9924444Y-13205650D02*
X9905396Y-13215174D01*
X9905396Y-13215174D02*
X9886348Y-13215174D01*
X9886348Y-13215174D02*
X9867301Y-13205650D01*
X9867301Y-13205650D02*
X9857777Y-13196126D01*
X9857777Y-13196126D02*
X9848253Y-13177078D01*
X9848253Y-13177078D02*
X9838729Y-13138983D01*
X9838729Y-13138983D02*
X9838729Y-13091364D01*
X9838729Y-13091364D02*
X9848253Y-13053269D01*
X9848253Y-13053269D02*
X9857777Y-13034221D01*
X9857777Y-13034221D02*
X9867301Y-13024698D01*
X9867301Y-13024698D02*
X9886348Y-13015174D01*
X10133968Y-13015174D02*
X10038729Y-13015174D01*
X10038729Y-13015174D02*
X10029206Y-13110412D01*
X10029206Y-13110412D02*
X10038729Y-13100888D01*
X10038729Y-13100888D02*
X10057777Y-13091364D01*
X10057777Y-13091364D02*
X10105396Y-13091364D01*
X10105396Y-13091364D02*
X10124444Y-13100888D01*
X10124444Y-13100888D02*
X10133968Y-13110412D01*
X10133968Y-13110412D02*
X10143491Y-13129459D01*
X10143491Y-13129459D02*
X10143491Y-13177078D01*
X10143491Y-13177078D02*
X10133968Y-13196126D01*
X10133968Y-13196126D02*
X10124444Y-13205650D01*
X10124444Y-13205650D02*
X10105396Y-13215174D01*
X10105396Y-13215174D02*
X10057777Y-13215174D01*
X10057777Y-13215174D02*
X10038729Y-13205650D01*
X10038729Y-13205650D02*
X10029206Y-13196126D01*
X10333968Y-13215174D02*
X10219682Y-13215174D01*
X10276825Y-13215174D02*
X10276825Y-13015174D01*
X10276825Y-13015174D02*
X10257777Y-13043745D01*
X10257777Y-13043745D02*
X10238729Y-13062793D01*
X10238729Y-13062793D02*
X10219682Y-13072317D01*
X10410158Y-13034221D02*
X10419682Y-13024698D01*
X10419682Y-13024698D02*
X10438729Y-13015174D01*
X10438729Y-13015174D02*
X10486349Y-13015174D01*
X10486349Y-13015174D02*
X10505396Y-13024698D01*
X10505396Y-13024698D02*
X10514920Y-13034221D01*
X10514920Y-13034221D02*
X10524444Y-13053269D01*
X10524444Y-13053269D02*
X10524444Y-13072317D01*
X10524444Y-13072317D02*
X10514920Y-13100888D01*
X10514920Y-13100888D02*
X10400634Y-13215174D01*
X10400634Y-13215174D02*
X10524444Y-13215174D01*
X10600634Y-13015174D02*
X10600634Y-13053269D01*
X10676825Y-13015174D02*
X10676825Y-13053269D01*
X10972063Y-13291364D02*
X10962539Y-13281840D01*
X10962539Y-13281840D02*
X10943491Y-13253269D01*
X10943491Y-13253269D02*
X10933968Y-13234221D01*
X10933968Y-13234221D02*
X10924444Y-13205650D01*
X10924444Y-13205650D02*
X10914920Y-13158031D01*
X10914920Y-13158031D02*
X10914920Y-13119936D01*
X10914920Y-13119936D02*
X10924444Y-13072317D01*
X10924444Y-13072317D02*
X10933968Y-13043745D01*
X10933968Y-13043745D02*
X10943491Y-13024698D01*
X10943491Y-13024698D02*
X10962539Y-12996126D01*
X10962539Y-12996126D02*
X10972063Y-12986602D01*
X11133968Y-13015174D02*
X11095872Y-13015174D01*
X11095872Y-13015174D02*
X11076825Y-13024698D01*
X11076825Y-13024698D02*
X11067301Y-13034221D01*
X11067301Y-13034221D02*
X11048253Y-13062793D01*
X11048253Y-13062793D02*
X11038730Y-13100888D01*
X11038730Y-13100888D02*
X11038730Y-13177078D01*
X11038730Y-13177078D02*
X11048253Y-13196126D01*
X11048253Y-13196126D02*
X11057777Y-13205650D01*
X11057777Y-13205650D02*
X11076825Y-13215174D01*
X11076825Y-13215174D02*
X11114920Y-13215174D01*
X11114920Y-13215174D02*
X11133968Y-13205650D01*
X11133968Y-13205650D02*
X11143491Y-13196126D01*
X11143491Y-13196126D02*
X11153015Y-13177078D01*
X11153015Y-13177078D02*
X11153015Y-13129459D01*
X11153015Y-13129459D02*
X11143491Y-13110412D01*
X11143491Y-13110412D02*
X11133968Y-13100888D01*
X11133968Y-13100888D02*
X11114920Y-13091364D01*
X11114920Y-13091364D02*
X11076825Y-13091364D01*
X11076825Y-13091364D02*
X11057777Y-13100888D01*
X11057777Y-13100888D02*
X11048253Y-13110412D01*
X11048253Y-13110412D02*
X11038730Y-13129459D01*
X11391110Y-13215174D02*
X11391110Y-13015174D01*
X11476825Y-13215174D02*
X11476825Y-13110412D01*
X11476825Y-13110412D02*
X11467301Y-13091364D01*
X11467301Y-13091364D02*
X11448253Y-13081840D01*
X11448253Y-13081840D02*
X11419682Y-13081840D01*
X11419682Y-13081840D02*
X11400634Y-13091364D01*
X11400634Y-13091364D02*
X11391110Y-13100888D01*
X11600634Y-13215174D02*
X11581587Y-13205650D01*
X11581587Y-13205650D02*
X11572063Y-13196126D01*
X11572063Y-13196126D02*
X11562539Y-13177078D01*
X11562539Y-13177078D02*
X11562539Y-13119936D01*
X11562539Y-13119936D02*
X11572063Y-13100888D01*
X11572063Y-13100888D02*
X11581587Y-13091364D01*
X11581587Y-13091364D02*
X11600634Y-13081840D01*
X11600634Y-13081840D02*
X11629206Y-13081840D01*
X11629206Y-13081840D02*
X11648253Y-13091364D01*
X11648253Y-13091364D02*
X11657777Y-13100888D01*
X11657777Y-13100888D02*
X11667301Y-13119936D01*
X11667301Y-13119936D02*
X11667301Y-13177078D01*
X11667301Y-13177078D02*
X11657777Y-13196126D01*
X11657777Y-13196126D02*
X11648253Y-13205650D01*
X11648253Y-13205650D02*
X11629206Y-13215174D01*
X11629206Y-13215174D02*
X11600634Y-13215174D01*
X11781587Y-13215174D02*
X11762539Y-13205650D01*
X11762539Y-13205650D02*
X11753015Y-13186602D01*
X11753015Y-13186602D02*
X11753015Y-13015174D01*
X11933968Y-13205650D02*
X11914920Y-13215174D01*
X11914920Y-13215174D02*
X11876825Y-13215174D01*
X11876825Y-13215174D02*
X11857777Y-13205650D01*
X11857777Y-13205650D02*
X11848253Y-13186602D01*
X11848253Y-13186602D02*
X11848253Y-13110412D01*
X11848253Y-13110412D02*
X11857777Y-13091364D01*
X11857777Y-13091364D02*
X11876825Y-13081840D01*
X11876825Y-13081840D02*
X11914920Y-13081840D01*
X11914920Y-13081840D02*
X11933968Y-13091364D01*
X11933968Y-13091364D02*
X11943491Y-13110412D01*
X11943491Y-13110412D02*
X11943491Y-13129459D01*
X11943491Y-13129459D02*
X11848253Y-13148507D01*
X12019682Y-13205650D02*
X12038730Y-13215174D01*
X12038730Y-13215174D02*
X12076825Y-13215174D01*
X12076825Y-13215174D02*
X12095872Y-13205650D01*
X12095872Y-13205650D02*
X12105396Y-13186602D01*
X12105396Y-13186602D02*
X12105396Y-13177078D01*
X12105396Y-13177078D02*
X12095872Y-13158031D01*
X12095872Y-13158031D02*
X12076825Y-13148507D01*
X12076825Y-13148507D02*
X12048253Y-13148507D01*
X12048253Y-13148507D02*
X12029206Y-13138983D01*
X12029206Y-13138983D02*
X12019682Y-13119936D01*
X12019682Y-13119936D02*
X12019682Y-13110412D01*
X12019682Y-13110412D02*
X12029206Y-13091364D01*
X12029206Y-13091364D02*
X12048253Y-13081840D01*
X12048253Y-13081840D02*
X12076825Y-13081840D01*
X12076825Y-13081840D02*
X12095872Y-13091364D01*
X12172063Y-13291364D02*
X12181587Y-13281840D01*
X12181587Y-13281840D02*
X12200634Y-13253269D01*
X12200634Y-13253269D02*
X12210158Y-13234221D01*
X12210158Y-13234221D02*
X12219682Y-13205650D01*
X12219682Y-13205650D02*
X12229206Y-13158031D01*
X12229206Y-13158031D02*
X12229206Y-13119936D01*
X12229206Y-13119936D02*
X12219682Y-13072317D01*
X12219682Y-13072317D02*
X12210158Y-13043745D01*
X12210158Y-13043745D02*
X12200634Y-13024698D01*
X12200634Y-13024698D02*
X12181587Y-12996126D01*
X12181587Y-12996126D02*
X12172063Y-12986602D01*
M02*
