%TF.GenerationSoftware,KiCad,Pcbnew,7.0.9*%
%TF.CreationDate,2024-02-19T16:20:53+08:00*%
%TF.ProjectId,Teeny_girl,5465656e-795f-4676-9972-6c2e6b696361,rev?*%
%TF.SameCoordinates,Original*%
%TF.FileFunction,Drillmap*%
%TF.FilePolarity,Positive*%
%FSLAX45Y45*%
G04 Gerber Fmt 4.5, Leading zero omitted, Abs format (unit mm)*
G04 Created by KiCad (PCBNEW 7.0.9) date 2024-02-19 16:20:53*
%MOMM*%
%LPD*%
G01*
G04 APERTURE LIST*
%ADD10C,0.150000*%
%ADD11C,0.200000*%
%ADD12C,0.100000*%
%ADD13C,0.130000*%
%ADD14C,0.300000*%
G04 APERTURE END LIST*
D10*
X11654500Y-10364190D02*
X11704500Y-10364190D01*
X11704500Y-10364190D02*
G75*
G03*
X12004500Y-10064190I0J300000D01*
G01*
X13254500Y-9864190D02*
G75*
G03*
X13054500Y-9664190I-200000J0D01*
G01*
X7404500Y-4714190D02*
X7404500Y-9614190D01*
X21154500Y-4714190D02*
G75*
G03*
X20404500Y-3964190I-750000J0D01*
G01*
X12004500Y-10064190D02*
X12004500Y-9864190D01*
X8154500Y-3964190D02*
X20404500Y-3964190D01*
X13254500Y-9864190D02*
X13254500Y-10064190D01*
X12204500Y-9664190D02*
X13054500Y-9664190D01*
X8154500Y-3964190D02*
G75*
G03*
X7404500Y-4714190I0J-750000D01*
G01*
X13254500Y-10064190D02*
G75*
G03*
X13554500Y-10364190I300000J0D01*
G01*
X20404500Y-10364190D02*
X13654500Y-10364190D01*
X8154500Y-10364190D02*
X11654500Y-10364190D01*
X12204500Y-9664190D02*
G75*
G03*
X12004500Y-9864190I0J-200000D01*
G01*
X21154500Y-4714190D02*
X21154500Y-9614190D01*
X13654500Y-10364190D02*
X13554500Y-10364190D01*
X7404500Y-9614190D02*
G75*
G03*
X8154500Y-10364190I750000J0D01*
G01*
X20404500Y-10364190D02*
G75*
G03*
X21154500Y-9614190I0J750000D01*
G01*
X14934500Y-5734190D02*
X11934500Y-5734190D01*
X11934500Y-5484190D01*
X14934500Y-5484190D01*
X14934500Y-5734190D01*
D11*
D12*
X11029500Y-9436690D02*
X11049500Y-9456690D01*
X11049500Y-9436690D02*
X11029500Y-9456690D01*
X11139500Y-9436690D02*
X11159500Y-9456690D01*
X11159500Y-9436690D02*
X11139500Y-9456690D01*
X10444500Y-5144190D02*
G75*
G03*
X10444500Y-5144190I-25000J0D01*
G01*
X10569500Y-5144190D02*
G75*
G03*
X10569500Y-5144190I-25000J0D01*
G01*
X10694500Y-5144190D02*
G75*
G03*
X10694500Y-5144190I-25000J0D01*
G01*
X10114500Y-4073690D02*
X10114500Y-4133690D01*
X10084500Y-4103690D02*
X10144500Y-4103690D01*
X10084500Y-4063690D02*
X10084500Y-4143690D01*
X10084500Y-4143690D02*
G75*
G03*
X10144500Y-4143690I30000J0D01*
G01*
X10144500Y-4143690D02*
X10144500Y-4063690D01*
X10144500Y-4063690D02*
G75*
G03*
X10084500Y-4063690I-30000J0D01*
G01*
X10114500Y-4493690D02*
X10114500Y-4553690D01*
X10084500Y-4523690D02*
X10144500Y-4523690D01*
X10084500Y-4468690D02*
X10084500Y-4578690D01*
X10084500Y-4578690D02*
G75*
G03*
X10144500Y-4578690I30000J0D01*
G01*
X10144500Y-4578690D02*
X10144500Y-4468690D01*
X10144500Y-4468690D02*
G75*
G03*
X10084500Y-4468690I-30000J0D01*
G01*
X10978500Y-4073690D02*
X10978500Y-4133690D01*
X10948500Y-4103690D02*
X11008500Y-4103690D01*
X10948500Y-4063690D02*
X10948500Y-4143690D01*
X10948500Y-4143690D02*
G75*
G03*
X11008500Y-4143690I30000J0D01*
G01*
X11008500Y-4143690D02*
X11008500Y-4063690D01*
X11008500Y-4063690D02*
G75*
G03*
X10948500Y-4063690I-30000J0D01*
G01*
X10978500Y-4493690D02*
X10978500Y-4553690D01*
X10948500Y-4523690D02*
X11008500Y-4523690D01*
X10948500Y-4468690D02*
X10948500Y-4578690D01*
X10948500Y-4578690D02*
G75*
G03*
X11008500Y-4578690I30000J0D01*
G01*
X11008500Y-4578690D02*
X11008500Y-4468690D01*
X11008500Y-4468690D02*
G75*
G03*
X10948500Y-4468690I-30000J0D01*
G01*
X20400481Y-5437171D02*
X20400481Y-5391209D01*
X20354519Y-5391209D01*
X20354519Y-5437171D01*
X20400481Y-5437171D01*
X20527481Y-5437171D02*
X20527481Y-5391209D01*
X20481519Y-5391209D01*
X20481519Y-5437171D01*
X20527481Y-5437171D01*
X20654481Y-5437171D02*
X20654481Y-5391209D01*
X20608519Y-5391209D01*
X20608519Y-5437171D01*
X20654481Y-5437171D01*
X20781481Y-5437171D02*
X20781481Y-5391209D01*
X20735519Y-5391209D01*
X20735519Y-5437171D01*
X20781481Y-5437171D01*
X8980500Y-4514690D02*
X9030000Y-4465190D01*
X8980500Y-4415690D01*
X8931000Y-4465190D01*
X8980500Y-4514690D01*
X9430500Y-4514690D02*
X9480000Y-4465190D01*
X9430500Y-4415690D01*
X9381000Y-4465190D01*
X9430500Y-4514690D01*
X19129500Y-4514690D02*
X19179000Y-4465190D01*
X19129500Y-4415690D01*
X19080000Y-4465190D01*
X19129500Y-4514690D01*
X19579500Y-4514690D02*
X19629000Y-4465190D01*
X19579500Y-4415690D01*
X19530000Y-4465190D01*
X19579500Y-4514690D01*
X20633250Y-6063690D02*
X20682750Y-6014190D01*
X20633250Y-5964690D01*
X20583750Y-6014190D01*
X20633250Y-6063690D01*
X20633250Y-6513690D02*
X20682750Y-6464190D01*
X20633250Y-6414690D01*
X20583750Y-6464190D01*
X20633250Y-6513690D01*
D13*
X8789500Y-4649190D02*
X8919500Y-4779190D01*
X8919500Y-4649190D02*
X8789500Y-4779190D01*
X8919500Y-4714190D02*
G75*
G03*
X8919500Y-4714190I-65000J0D01*
G01*
X9490500Y-4649190D02*
X9620500Y-4779190D01*
X9620500Y-4649190D02*
X9490500Y-4779190D01*
X9620500Y-4714190D02*
G75*
G03*
X9620500Y-4714190I-65000J0D01*
G01*
X18938500Y-4649190D02*
X19068500Y-4779190D01*
X19068500Y-4649190D02*
X18938500Y-4779190D01*
X19068500Y-4714190D02*
G75*
G03*
X19068500Y-4714190I-65000J0D01*
G01*
X19639500Y-4649190D02*
X19769500Y-4779190D01*
X19769500Y-4649190D02*
X19639500Y-4779190D01*
X19769500Y-4714190D02*
G75*
G03*
X19769500Y-4714190I-65000J0D01*
G01*
X20319250Y-5823190D02*
X20449250Y-5953190D01*
X20449250Y-5823190D02*
X20319250Y-5953190D01*
X20449250Y-5888190D02*
G75*
G03*
X20449250Y-5888190I-65000J0D01*
G01*
X20319250Y-6524190D02*
X20449250Y-6654190D01*
X20449250Y-6524190D02*
X20319250Y-6654190D01*
X20449250Y-6589190D02*
G75*
G03*
X20449250Y-6589190I-65000J0D01*
G01*
D14*
X13735500Y-7621690D02*
X14035500Y-7921690D01*
X14035500Y-7621690D02*
X13735500Y-7921690D01*
X13885500Y-7621690D02*
X13885500Y-7921690D01*
X13735500Y-7771690D02*
X14035500Y-7771690D01*
X19535500Y-7621690D02*
X19835500Y-7921690D01*
X19835500Y-7621690D02*
X19535500Y-7921690D01*
X19685500Y-7621690D02*
X19685500Y-7921690D01*
X19535500Y-7771690D02*
X19835500Y-7771690D01*
D11*
X7657777Y-10683174D02*
X7657777Y-10483174D01*
X7657777Y-10483174D02*
X7705396Y-10483174D01*
X7705396Y-10483174D02*
X7733967Y-10492698D01*
X7733967Y-10492698D02*
X7753015Y-10511745D01*
X7753015Y-10511745D02*
X7762539Y-10530793D01*
X7762539Y-10530793D02*
X7772062Y-10568888D01*
X7772062Y-10568888D02*
X7772062Y-10597460D01*
X7772062Y-10597460D02*
X7762539Y-10635555D01*
X7762539Y-10635555D02*
X7753015Y-10654602D01*
X7753015Y-10654602D02*
X7733967Y-10673650D01*
X7733967Y-10673650D02*
X7705396Y-10683174D01*
X7705396Y-10683174D02*
X7657777Y-10683174D01*
X7857777Y-10683174D02*
X7857777Y-10549840D01*
X7857777Y-10587936D02*
X7867301Y-10568888D01*
X7867301Y-10568888D02*
X7876824Y-10559364D01*
X7876824Y-10559364D02*
X7895872Y-10549840D01*
X7895872Y-10549840D02*
X7914920Y-10549840D01*
X7981586Y-10683174D02*
X7981586Y-10549840D01*
X7981586Y-10483174D02*
X7972062Y-10492698D01*
X7972062Y-10492698D02*
X7981586Y-10502221D01*
X7981586Y-10502221D02*
X7991110Y-10492698D01*
X7991110Y-10492698D02*
X7981586Y-10483174D01*
X7981586Y-10483174D02*
X7981586Y-10502221D01*
X8105396Y-10683174D02*
X8086348Y-10673650D01*
X8086348Y-10673650D02*
X8076824Y-10654602D01*
X8076824Y-10654602D02*
X8076824Y-10483174D01*
X8210158Y-10683174D02*
X8191110Y-10673650D01*
X8191110Y-10673650D02*
X8181586Y-10654602D01*
X8181586Y-10654602D02*
X8181586Y-10483174D01*
X8438729Y-10683174D02*
X8438729Y-10483174D01*
X8438729Y-10483174D02*
X8505396Y-10626031D01*
X8505396Y-10626031D02*
X8572063Y-10483174D01*
X8572063Y-10483174D02*
X8572063Y-10683174D01*
X8753015Y-10683174D02*
X8753015Y-10578412D01*
X8753015Y-10578412D02*
X8743491Y-10559364D01*
X8743491Y-10559364D02*
X8724444Y-10549840D01*
X8724444Y-10549840D02*
X8686348Y-10549840D01*
X8686348Y-10549840D02*
X8667301Y-10559364D01*
X8753015Y-10673650D02*
X8733967Y-10683174D01*
X8733967Y-10683174D02*
X8686348Y-10683174D01*
X8686348Y-10683174D02*
X8667301Y-10673650D01*
X8667301Y-10673650D02*
X8657777Y-10654602D01*
X8657777Y-10654602D02*
X8657777Y-10635555D01*
X8657777Y-10635555D02*
X8667301Y-10616507D01*
X8667301Y-10616507D02*
X8686348Y-10606983D01*
X8686348Y-10606983D02*
X8733967Y-10606983D01*
X8733967Y-10606983D02*
X8753015Y-10597460D01*
X8848253Y-10549840D02*
X8848253Y-10749840D01*
X8848253Y-10559364D02*
X8867301Y-10549840D01*
X8867301Y-10549840D02*
X8905396Y-10549840D01*
X8905396Y-10549840D02*
X8924444Y-10559364D01*
X8924444Y-10559364D02*
X8933967Y-10568888D01*
X8933967Y-10568888D02*
X8943491Y-10587936D01*
X8943491Y-10587936D02*
X8943491Y-10645079D01*
X8943491Y-10645079D02*
X8933967Y-10664126D01*
X8933967Y-10664126D02*
X8924444Y-10673650D01*
X8924444Y-10673650D02*
X8905396Y-10683174D01*
X8905396Y-10683174D02*
X8867301Y-10683174D01*
X8867301Y-10683174D02*
X8848253Y-10673650D01*
X9029205Y-10664126D02*
X9038729Y-10673650D01*
X9038729Y-10673650D02*
X9029205Y-10683174D01*
X9029205Y-10683174D02*
X9019682Y-10673650D01*
X9019682Y-10673650D02*
X9029205Y-10664126D01*
X9029205Y-10664126D02*
X9029205Y-10683174D01*
X9029205Y-10559364D02*
X9038729Y-10568888D01*
X9038729Y-10568888D02*
X9029205Y-10578412D01*
X9029205Y-10578412D02*
X9019682Y-10568888D01*
X9019682Y-10568888D02*
X9029205Y-10559364D01*
X9029205Y-10559364D02*
X9029205Y-10578412D01*
D12*
X7377000Y-11001690D02*
X7397000Y-11021690D01*
X7397000Y-11001690D02*
X7377000Y-11021690D01*
D11*
X7695872Y-10903174D02*
X7714920Y-10903174D01*
X7714920Y-10903174D02*
X7733967Y-10912698D01*
X7733967Y-10912698D02*
X7743491Y-10922221D01*
X7743491Y-10922221D02*
X7753015Y-10941269D01*
X7753015Y-10941269D02*
X7762539Y-10979364D01*
X7762539Y-10979364D02*
X7762539Y-11026983D01*
X7762539Y-11026983D02*
X7753015Y-11065079D01*
X7753015Y-11065079D02*
X7743491Y-11084126D01*
X7743491Y-11084126D02*
X7733967Y-11093650D01*
X7733967Y-11093650D02*
X7714920Y-11103174D01*
X7714920Y-11103174D02*
X7695872Y-11103174D01*
X7695872Y-11103174D02*
X7676824Y-11093650D01*
X7676824Y-11093650D02*
X7667301Y-11084126D01*
X7667301Y-11084126D02*
X7657777Y-11065079D01*
X7657777Y-11065079D02*
X7648253Y-11026983D01*
X7648253Y-11026983D02*
X7648253Y-10979364D01*
X7648253Y-10979364D02*
X7657777Y-10941269D01*
X7657777Y-10941269D02*
X7667301Y-10922221D01*
X7667301Y-10922221D02*
X7676824Y-10912698D01*
X7676824Y-10912698D02*
X7695872Y-10903174D01*
X7848253Y-11084126D02*
X7857777Y-11093650D01*
X7857777Y-11093650D02*
X7848253Y-11103174D01*
X7848253Y-11103174D02*
X7838729Y-11093650D01*
X7838729Y-11093650D02*
X7848253Y-11084126D01*
X7848253Y-11084126D02*
X7848253Y-11103174D01*
X7933967Y-10922221D02*
X7943491Y-10912698D01*
X7943491Y-10912698D02*
X7962539Y-10903174D01*
X7962539Y-10903174D02*
X8010158Y-10903174D01*
X8010158Y-10903174D02*
X8029205Y-10912698D01*
X8029205Y-10912698D02*
X8038729Y-10922221D01*
X8038729Y-10922221D02*
X8048253Y-10941269D01*
X8048253Y-10941269D02*
X8048253Y-10960317D01*
X8048253Y-10960317D02*
X8038729Y-10988888D01*
X8038729Y-10988888D02*
X7924443Y-11103174D01*
X7924443Y-11103174D02*
X8048253Y-11103174D01*
X8172062Y-10903174D02*
X8191110Y-10903174D01*
X8191110Y-10903174D02*
X8210158Y-10912698D01*
X8210158Y-10912698D02*
X8219682Y-10922221D01*
X8219682Y-10922221D02*
X8229205Y-10941269D01*
X8229205Y-10941269D02*
X8238729Y-10979364D01*
X8238729Y-10979364D02*
X8238729Y-11026983D01*
X8238729Y-11026983D02*
X8229205Y-11065079D01*
X8229205Y-11065079D02*
X8219682Y-11084126D01*
X8219682Y-11084126D02*
X8210158Y-11093650D01*
X8210158Y-11093650D02*
X8191110Y-11103174D01*
X8191110Y-11103174D02*
X8172062Y-11103174D01*
X8172062Y-11103174D02*
X8153015Y-11093650D01*
X8153015Y-11093650D02*
X8143491Y-11084126D01*
X8143491Y-11084126D02*
X8133967Y-11065079D01*
X8133967Y-11065079D02*
X8124443Y-11026983D01*
X8124443Y-11026983D02*
X8124443Y-10979364D01*
X8124443Y-10979364D02*
X8133967Y-10941269D01*
X8133967Y-10941269D02*
X8143491Y-10922221D01*
X8143491Y-10922221D02*
X8153015Y-10912698D01*
X8153015Y-10912698D02*
X8172062Y-10903174D01*
X8362539Y-10903174D02*
X8381586Y-10903174D01*
X8381586Y-10903174D02*
X8400634Y-10912698D01*
X8400634Y-10912698D02*
X8410158Y-10922221D01*
X8410158Y-10922221D02*
X8419682Y-10941269D01*
X8419682Y-10941269D02*
X8429205Y-10979364D01*
X8429205Y-10979364D02*
X8429205Y-11026983D01*
X8429205Y-11026983D02*
X8419682Y-11065079D01*
X8419682Y-11065079D02*
X8410158Y-11084126D01*
X8410158Y-11084126D02*
X8400634Y-11093650D01*
X8400634Y-11093650D02*
X8381586Y-11103174D01*
X8381586Y-11103174D02*
X8362539Y-11103174D01*
X8362539Y-11103174D02*
X8343491Y-11093650D01*
X8343491Y-11093650D02*
X8333967Y-11084126D01*
X8333967Y-11084126D02*
X8324443Y-11065079D01*
X8324443Y-11065079D02*
X8314920Y-11026983D01*
X8314920Y-11026983D02*
X8314920Y-10979364D01*
X8314920Y-10979364D02*
X8324443Y-10941269D01*
X8324443Y-10941269D02*
X8333967Y-10922221D01*
X8333967Y-10922221D02*
X8343491Y-10912698D01*
X8343491Y-10912698D02*
X8362539Y-10903174D01*
X8514920Y-11103174D02*
X8514920Y-10969840D01*
X8514920Y-10988888D02*
X8524444Y-10979364D01*
X8524444Y-10979364D02*
X8543491Y-10969840D01*
X8543491Y-10969840D02*
X8572063Y-10969840D01*
X8572063Y-10969840D02*
X8591110Y-10979364D01*
X8591110Y-10979364D02*
X8600634Y-10998412D01*
X8600634Y-10998412D02*
X8600634Y-11103174D01*
X8600634Y-10998412D02*
X8610158Y-10979364D01*
X8610158Y-10979364D02*
X8629205Y-10969840D01*
X8629205Y-10969840D02*
X8657777Y-10969840D01*
X8657777Y-10969840D02*
X8676825Y-10979364D01*
X8676825Y-10979364D02*
X8686348Y-10998412D01*
X8686348Y-10998412D02*
X8686348Y-11103174D01*
X8781586Y-11103174D02*
X8781586Y-10969840D01*
X8781586Y-10988888D02*
X8791110Y-10979364D01*
X8791110Y-10979364D02*
X8810158Y-10969840D01*
X8810158Y-10969840D02*
X8838729Y-10969840D01*
X8838729Y-10969840D02*
X8857777Y-10979364D01*
X8857777Y-10979364D02*
X8867301Y-10998412D01*
X8867301Y-10998412D02*
X8867301Y-11103174D01*
X8867301Y-10998412D02*
X8876825Y-10979364D01*
X8876825Y-10979364D02*
X8895872Y-10969840D01*
X8895872Y-10969840D02*
X8924444Y-10969840D01*
X8924444Y-10969840D02*
X8943491Y-10979364D01*
X8943491Y-10979364D02*
X8953015Y-10998412D01*
X8953015Y-10998412D02*
X8953015Y-11103174D01*
X9343491Y-10893650D02*
X9172063Y-11150793D01*
X9600634Y-10903174D02*
X9619682Y-10903174D01*
X9619682Y-10903174D02*
X9638729Y-10912698D01*
X9638729Y-10912698D02*
X9648253Y-10922221D01*
X9648253Y-10922221D02*
X9657777Y-10941269D01*
X9657777Y-10941269D02*
X9667301Y-10979364D01*
X9667301Y-10979364D02*
X9667301Y-11026983D01*
X9667301Y-11026983D02*
X9657777Y-11065079D01*
X9657777Y-11065079D02*
X9648253Y-11084126D01*
X9648253Y-11084126D02*
X9638729Y-11093650D01*
X9638729Y-11093650D02*
X9619682Y-11103174D01*
X9619682Y-11103174D02*
X9600634Y-11103174D01*
X9600634Y-11103174D02*
X9581587Y-11093650D01*
X9581587Y-11093650D02*
X9572063Y-11084126D01*
X9572063Y-11084126D02*
X9562539Y-11065079D01*
X9562539Y-11065079D02*
X9553015Y-11026983D01*
X9553015Y-11026983D02*
X9553015Y-10979364D01*
X9553015Y-10979364D02*
X9562539Y-10941269D01*
X9562539Y-10941269D02*
X9572063Y-10922221D01*
X9572063Y-10922221D02*
X9581587Y-10912698D01*
X9581587Y-10912698D02*
X9600634Y-10903174D01*
X9753015Y-11084126D02*
X9762539Y-11093650D01*
X9762539Y-11093650D02*
X9753015Y-11103174D01*
X9753015Y-11103174D02*
X9743491Y-11093650D01*
X9743491Y-11093650D02*
X9753015Y-11084126D01*
X9753015Y-11084126D02*
X9753015Y-11103174D01*
X9886348Y-10903174D02*
X9905396Y-10903174D01*
X9905396Y-10903174D02*
X9924444Y-10912698D01*
X9924444Y-10912698D02*
X9933968Y-10922221D01*
X9933968Y-10922221D02*
X9943491Y-10941269D01*
X9943491Y-10941269D02*
X9953015Y-10979364D01*
X9953015Y-10979364D02*
X9953015Y-11026983D01*
X9953015Y-11026983D02*
X9943491Y-11065079D01*
X9943491Y-11065079D02*
X9933968Y-11084126D01*
X9933968Y-11084126D02*
X9924444Y-11093650D01*
X9924444Y-11093650D02*
X9905396Y-11103174D01*
X9905396Y-11103174D02*
X9886348Y-11103174D01*
X9886348Y-11103174D02*
X9867301Y-11093650D01*
X9867301Y-11093650D02*
X9857777Y-11084126D01*
X9857777Y-11084126D02*
X9848253Y-11065079D01*
X9848253Y-11065079D02*
X9838729Y-11026983D01*
X9838729Y-11026983D02*
X9838729Y-10979364D01*
X9838729Y-10979364D02*
X9848253Y-10941269D01*
X9848253Y-10941269D02*
X9857777Y-10922221D01*
X9857777Y-10922221D02*
X9867301Y-10912698D01*
X9867301Y-10912698D02*
X9886348Y-10903174D01*
X10076825Y-10903174D02*
X10095872Y-10903174D01*
X10095872Y-10903174D02*
X10114920Y-10912698D01*
X10114920Y-10912698D02*
X10124444Y-10922221D01*
X10124444Y-10922221D02*
X10133968Y-10941269D01*
X10133968Y-10941269D02*
X10143491Y-10979364D01*
X10143491Y-10979364D02*
X10143491Y-11026983D01*
X10143491Y-11026983D02*
X10133968Y-11065079D01*
X10133968Y-11065079D02*
X10124444Y-11084126D01*
X10124444Y-11084126D02*
X10114920Y-11093650D01*
X10114920Y-11093650D02*
X10095872Y-11103174D01*
X10095872Y-11103174D02*
X10076825Y-11103174D01*
X10076825Y-11103174D02*
X10057777Y-11093650D01*
X10057777Y-11093650D02*
X10048253Y-11084126D01*
X10048253Y-11084126D02*
X10038729Y-11065079D01*
X10038729Y-11065079D02*
X10029206Y-11026983D01*
X10029206Y-11026983D02*
X10029206Y-10979364D01*
X10029206Y-10979364D02*
X10038729Y-10941269D01*
X10038729Y-10941269D02*
X10048253Y-10922221D01*
X10048253Y-10922221D02*
X10057777Y-10912698D01*
X10057777Y-10912698D02*
X10076825Y-10903174D01*
X10210158Y-10903174D02*
X10343491Y-10903174D01*
X10343491Y-10903174D02*
X10257777Y-11103174D01*
X10429206Y-11103174D02*
X10467301Y-11103174D01*
X10467301Y-11103174D02*
X10486349Y-11093650D01*
X10486349Y-11093650D02*
X10495872Y-11084126D01*
X10495872Y-11084126D02*
X10514920Y-11055555D01*
X10514920Y-11055555D02*
X10524444Y-11017460D01*
X10524444Y-11017460D02*
X10524444Y-10941269D01*
X10524444Y-10941269D02*
X10514920Y-10922221D01*
X10514920Y-10922221D02*
X10505396Y-10912698D01*
X10505396Y-10912698D02*
X10486349Y-10903174D01*
X10486349Y-10903174D02*
X10448253Y-10903174D01*
X10448253Y-10903174D02*
X10429206Y-10912698D01*
X10429206Y-10912698D02*
X10419682Y-10922221D01*
X10419682Y-10922221D02*
X10410158Y-10941269D01*
X10410158Y-10941269D02*
X10410158Y-10988888D01*
X10410158Y-10988888D02*
X10419682Y-11007936D01*
X10419682Y-11007936D02*
X10429206Y-11017460D01*
X10429206Y-11017460D02*
X10448253Y-11026983D01*
X10448253Y-11026983D02*
X10486349Y-11026983D01*
X10486349Y-11026983D02*
X10505396Y-11017460D01*
X10505396Y-11017460D02*
X10514920Y-11007936D01*
X10514920Y-11007936D02*
X10524444Y-10988888D01*
X10600634Y-10903174D02*
X10600634Y-10941269D01*
X10676825Y-10903174D02*
X10676825Y-10941269D01*
X10972063Y-11179364D02*
X10962539Y-11169840D01*
X10962539Y-11169840D02*
X10943491Y-11141269D01*
X10943491Y-11141269D02*
X10933968Y-11122221D01*
X10933968Y-11122221D02*
X10924444Y-11093650D01*
X10924444Y-11093650D02*
X10914920Y-11046031D01*
X10914920Y-11046031D02*
X10914920Y-11007936D01*
X10914920Y-11007936D02*
X10924444Y-10960317D01*
X10924444Y-10960317D02*
X10933968Y-10931745D01*
X10933968Y-10931745D02*
X10943491Y-10912698D01*
X10943491Y-10912698D02*
X10962539Y-10884126D01*
X10962539Y-10884126D02*
X10972063Y-10874602D01*
X11038730Y-10922221D02*
X11048253Y-10912698D01*
X11048253Y-10912698D02*
X11067301Y-10903174D01*
X11067301Y-10903174D02*
X11114920Y-10903174D01*
X11114920Y-10903174D02*
X11133968Y-10912698D01*
X11133968Y-10912698D02*
X11143491Y-10922221D01*
X11143491Y-10922221D02*
X11153015Y-10941269D01*
X11153015Y-10941269D02*
X11153015Y-10960317D01*
X11153015Y-10960317D02*
X11143491Y-10988888D01*
X11143491Y-10988888D02*
X11029206Y-11103174D01*
X11029206Y-11103174D02*
X11153015Y-11103174D01*
X11391110Y-11103174D02*
X11391110Y-10903174D01*
X11476825Y-11103174D02*
X11476825Y-10998412D01*
X11476825Y-10998412D02*
X11467301Y-10979364D01*
X11467301Y-10979364D02*
X11448253Y-10969840D01*
X11448253Y-10969840D02*
X11419682Y-10969840D01*
X11419682Y-10969840D02*
X11400634Y-10979364D01*
X11400634Y-10979364D02*
X11391110Y-10988888D01*
X11600634Y-11103174D02*
X11581587Y-11093650D01*
X11581587Y-11093650D02*
X11572063Y-11084126D01*
X11572063Y-11084126D02*
X11562539Y-11065079D01*
X11562539Y-11065079D02*
X11562539Y-11007936D01*
X11562539Y-11007936D02*
X11572063Y-10988888D01*
X11572063Y-10988888D02*
X11581587Y-10979364D01*
X11581587Y-10979364D02*
X11600634Y-10969840D01*
X11600634Y-10969840D02*
X11629206Y-10969840D01*
X11629206Y-10969840D02*
X11648253Y-10979364D01*
X11648253Y-10979364D02*
X11657777Y-10988888D01*
X11657777Y-10988888D02*
X11667301Y-11007936D01*
X11667301Y-11007936D02*
X11667301Y-11065079D01*
X11667301Y-11065079D02*
X11657777Y-11084126D01*
X11657777Y-11084126D02*
X11648253Y-11093650D01*
X11648253Y-11093650D02*
X11629206Y-11103174D01*
X11629206Y-11103174D02*
X11600634Y-11103174D01*
X11781587Y-11103174D02*
X11762539Y-11093650D01*
X11762539Y-11093650D02*
X11753015Y-11074602D01*
X11753015Y-11074602D02*
X11753015Y-10903174D01*
X11933968Y-11093650D02*
X11914920Y-11103174D01*
X11914920Y-11103174D02*
X11876825Y-11103174D01*
X11876825Y-11103174D02*
X11857777Y-11093650D01*
X11857777Y-11093650D02*
X11848253Y-11074602D01*
X11848253Y-11074602D02*
X11848253Y-10998412D01*
X11848253Y-10998412D02*
X11857777Y-10979364D01*
X11857777Y-10979364D02*
X11876825Y-10969840D01*
X11876825Y-10969840D02*
X11914920Y-10969840D01*
X11914920Y-10969840D02*
X11933968Y-10979364D01*
X11933968Y-10979364D02*
X11943491Y-10998412D01*
X11943491Y-10998412D02*
X11943491Y-11017460D01*
X11943491Y-11017460D02*
X11848253Y-11036507D01*
X12019682Y-11093650D02*
X12038730Y-11103174D01*
X12038730Y-11103174D02*
X12076825Y-11103174D01*
X12076825Y-11103174D02*
X12095872Y-11093650D01*
X12095872Y-11093650D02*
X12105396Y-11074602D01*
X12105396Y-11074602D02*
X12105396Y-11065079D01*
X12105396Y-11065079D02*
X12095872Y-11046031D01*
X12095872Y-11046031D02*
X12076825Y-11036507D01*
X12076825Y-11036507D02*
X12048253Y-11036507D01*
X12048253Y-11036507D02*
X12029206Y-11026983D01*
X12029206Y-11026983D02*
X12019682Y-11007936D01*
X12019682Y-11007936D02*
X12019682Y-10998412D01*
X12019682Y-10998412D02*
X12029206Y-10979364D01*
X12029206Y-10979364D02*
X12048253Y-10969840D01*
X12048253Y-10969840D02*
X12076825Y-10969840D01*
X12076825Y-10969840D02*
X12095872Y-10979364D01*
X12172063Y-11179364D02*
X12181587Y-11169840D01*
X12181587Y-11169840D02*
X12200634Y-11141269D01*
X12200634Y-11141269D02*
X12210158Y-11122221D01*
X12210158Y-11122221D02*
X12219682Y-11093650D01*
X12219682Y-11093650D02*
X12229206Y-11046031D01*
X12229206Y-11046031D02*
X12229206Y-11007936D01*
X12229206Y-11007936D02*
X12219682Y-10960317D01*
X12219682Y-10960317D02*
X12210158Y-10931745D01*
X12210158Y-10931745D02*
X12200634Y-10912698D01*
X12200634Y-10912698D02*
X12181587Y-10884126D01*
X12181587Y-10884126D02*
X12172063Y-10874602D01*
D12*
X7397000Y-11275690D02*
G75*
G03*
X7397000Y-11275690I-25000J0D01*
G01*
D11*
X7695872Y-11167174D02*
X7714920Y-11167174D01*
X7714920Y-11167174D02*
X7733967Y-11176698D01*
X7733967Y-11176698D02*
X7743491Y-11186221D01*
X7743491Y-11186221D02*
X7753015Y-11205269D01*
X7753015Y-11205269D02*
X7762539Y-11243364D01*
X7762539Y-11243364D02*
X7762539Y-11290983D01*
X7762539Y-11290983D02*
X7753015Y-11329078D01*
X7753015Y-11329078D02*
X7743491Y-11348126D01*
X7743491Y-11348126D02*
X7733967Y-11357650D01*
X7733967Y-11357650D02*
X7714920Y-11367174D01*
X7714920Y-11367174D02*
X7695872Y-11367174D01*
X7695872Y-11367174D02*
X7676824Y-11357650D01*
X7676824Y-11357650D02*
X7667301Y-11348126D01*
X7667301Y-11348126D02*
X7657777Y-11329078D01*
X7657777Y-11329078D02*
X7648253Y-11290983D01*
X7648253Y-11290983D02*
X7648253Y-11243364D01*
X7648253Y-11243364D02*
X7657777Y-11205269D01*
X7657777Y-11205269D02*
X7667301Y-11186221D01*
X7667301Y-11186221D02*
X7676824Y-11176698D01*
X7676824Y-11176698D02*
X7695872Y-11167174D01*
X7848253Y-11348126D02*
X7857777Y-11357650D01*
X7857777Y-11357650D02*
X7848253Y-11367174D01*
X7848253Y-11367174D02*
X7838729Y-11357650D01*
X7838729Y-11357650D02*
X7848253Y-11348126D01*
X7848253Y-11348126D02*
X7848253Y-11367174D01*
X8038729Y-11167174D02*
X7943491Y-11167174D01*
X7943491Y-11167174D02*
X7933967Y-11262412D01*
X7933967Y-11262412D02*
X7943491Y-11252888D01*
X7943491Y-11252888D02*
X7962539Y-11243364D01*
X7962539Y-11243364D02*
X8010158Y-11243364D01*
X8010158Y-11243364D02*
X8029205Y-11252888D01*
X8029205Y-11252888D02*
X8038729Y-11262412D01*
X8038729Y-11262412D02*
X8048253Y-11281459D01*
X8048253Y-11281459D02*
X8048253Y-11329078D01*
X8048253Y-11329078D02*
X8038729Y-11348126D01*
X8038729Y-11348126D02*
X8029205Y-11357650D01*
X8029205Y-11357650D02*
X8010158Y-11367174D01*
X8010158Y-11367174D02*
X7962539Y-11367174D01*
X7962539Y-11367174D02*
X7943491Y-11357650D01*
X7943491Y-11357650D02*
X7933967Y-11348126D01*
X8172062Y-11167174D02*
X8191110Y-11167174D01*
X8191110Y-11167174D02*
X8210158Y-11176698D01*
X8210158Y-11176698D02*
X8219682Y-11186221D01*
X8219682Y-11186221D02*
X8229205Y-11205269D01*
X8229205Y-11205269D02*
X8238729Y-11243364D01*
X8238729Y-11243364D02*
X8238729Y-11290983D01*
X8238729Y-11290983D02*
X8229205Y-11329078D01*
X8229205Y-11329078D02*
X8219682Y-11348126D01*
X8219682Y-11348126D02*
X8210158Y-11357650D01*
X8210158Y-11357650D02*
X8191110Y-11367174D01*
X8191110Y-11367174D02*
X8172062Y-11367174D01*
X8172062Y-11367174D02*
X8153015Y-11357650D01*
X8153015Y-11357650D02*
X8143491Y-11348126D01*
X8143491Y-11348126D02*
X8133967Y-11329078D01*
X8133967Y-11329078D02*
X8124443Y-11290983D01*
X8124443Y-11290983D02*
X8124443Y-11243364D01*
X8124443Y-11243364D02*
X8133967Y-11205269D01*
X8133967Y-11205269D02*
X8143491Y-11186221D01*
X8143491Y-11186221D02*
X8153015Y-11176698D01*
X8153015Y-11176698D02*
X8172062Y-11167174D01*
X8362539Y-11167174D02*
X8381586Y-11167174D01*
X8381586Y-11167174D02*
X8400634Y-11176698D01*
X8400634Y-11176698D02*
X8410158Y-11186221D01*
X8410158Y-11186221D02*
X8419682Y-11205269D01*
X8419682Y-11205269D02*
X8429205Y-11243364D01*
X8429205Y-11243364D02*
X8429205Y-11290983D01*
X8429205Y-11290983D02*
X8419682Y-11329078D01*
X8419682Y-11329078D02*
X8410158Y-11348126D01*
X8410158Y-11348126D02*
X8400634Y-11357650D01*
X8400634Y-11357650D02*
X8381586Y-11367174D01*
X8381586Y-11367174D02*
X8362539Y-11367174D01*
X8362539Y-11367174D02*
X8343491Y-11357650D01*
X8343491Y-11357650D02*
X8333967Y-11348126D01*
X8333967Y-11348126D02*
X8324443Y-11329078D01*
X8324443Y-11329078D02*
X8314920Y-11290983D01*
X8314920Y-11290983D02*
X8314920Y-11243364D01*
X8314920Y-11243364D02*
X8324443Y-11205269D01*
X8324443Y-11205269D02*
X8333967Y-11186221D01*
X8333967Y-11186221D02*
X8343491Y-11176698D01*
X8343491Y-11176698D02*
X8362539Y-11167174D01*
X8514920Y-11367174D02*
X8514920Y-11233840D01*
X8514920Y-11252888D02*
X8524444Y-11243364D01*
X8524444Y-11243364D02*
X8543491Y-11233840D01*
X8543491Y-11233840D02*
X8572063Y-11233840D01*
X8572063Y-11233840D02*
X8591110Y-11243364D01*
X8591110Y-11243364D02*
X8600634Y-11262412D01*
X8600634Y-11262412D02*
X8600634Y-11367174D01*
X8600634Y-11262412D02*
X8610158Y-11243364D01*
X8610158Y-11243364D02*
X8629205Y-11233840D01*
X8629205Y-11233840D02*
X8657777Y-11233840D01*
X8657777Y-11233840D02*
X8676825Y-11243364D01*
X8676825Y-11243364D02*
X8686348Y-11262412D01*
X8686348Y-11262412D02*
X8686348Y-11367174D01*
X8781586Y-11367174D02*
X8781586Y-11233840D01*
X8781586Y-11252888D02*
X8791110Y-11243364D01*
X8791110Y-11243364D02*
X8810158Y-11233840D01*
X8810158Y-11233840D02*
X8838729Y-11233840D01*
X8838729Y-11233840D02*
X8857777Y-11243364D01*
X8857777Y-11243364D02*
X8867301Y-11262412D01*
X8867301Y-11262412D02*
X8867301Y-11367174D01*
X8867301Y-11262412D02*
X8876825Y-11243364D01*
X8876825Y-11243364D02*
X8895872Y-11233840D01*
X8895872Y-11233840D02*
X8924444Y-11233840D01*
X8924444Y-11233840D02*
X8943491Y-11243364D01*
X8943491Y-11243364D02*
X8953015Y-11262412D01*
X8953015Y-11262412D02*
X8953015Y-11367174D01*
X9343491Y-11157650D02*
X9172063Y-11414793D01*
X9600634Y-11167174D02*
X9619682Y-11167174D01*
X9619682Y-11167174D02*
X9638729Y-11176698D01*
X9638729Y-11176698D02*
X9648253Y-11186221D01*
X9648253Y-11186221D02*
X9657777Y-11205269D01*
X9657777Y-11205269D02*
X9667301Y-11243364D01*
X9667301Y-11243364D02*
X9667301Y-11290983D01*
X9667301Y-11290983D02*
X9657777Y-11329078D01*
X9657777Y-11329078D02*
X9648253Y-11348126D01*
X9648253Y-11348126D02*
X9638729Y-11357650D01*
X9638729Y-11357650D02*
X9619682Y-11367174D01*
X9619682Y-11367174D02*
X9600634Y-11367174D01*
X9600634Y-11367174D02*
X9581587Y-11357650D01*
X9581587Y-11357650D02*
X9572063Y-11348126D01*
X9572063Y-11348126D02*
X9562539Y-11329078D01*
X9562539Y-11329078D02*
X9553015Y-11290983D01*
X9553015Y-11290983D02*
X9553015Y-11243364D01*
X9553015Y-11243364D02*
X9562539Y-11205269D01*
X9562539Y-11205269D02*
X9572063Y-11186221D01*
X9572063Y-11186221D02*
X9581587Y-11176698D01*
X9581587Y-11176698D02*
X9600634Y-11167174D01*
X9753015Y-11348126D02*
X9762539Y-11357650D01*
X9762539Y-11357650D02*
X9753015Y-11367174D01*
X9753015Y-11367174D02*
X9743491Y-11357650D01*
X9743491Y-11357650D02*
X9753015Y-11348126D01*
X9753015Y-11348126D02*
X9753015Y-11367174D01*
X9886348Y-11167174D02*
X9905396Y-11167174D01*
X9905396Y-11167174D02*
X9924444Y-11176698D01*
X9924444Y-11176698D02*
X9933968Y-11186221D01*
X9933968Y-11186221D02*
X9943491Y-11205269D01*
X9943491Y-11205269D02*
X9953015Y-11243364D01*
X9953015Y-11243364D02*
X9953015Y-11290983D01*
X9953015Y-11290983D02*
X9943491Y-11329078D01*
X9943491Y-11329078D02*
X9933968Y-11348126D01*
X9933968Y-11348126D02*
X9924444Y-11357650D01*
X9924444Y-11357650D02*
X9905396Y-11367174D01*
X9905396Y-11367174D02*
X9886348Y-11367174D01*
X9886348Y-11367174D02*
X9867301Y-11357650D01*
X9867301Y-11357650D02*
X9857777Y-11348126D01*
X9857777Y-11348126D02*
X9848253Y-11329078D01*
X9848253Y-11329078D02*
X9838729Y-11290983D01*
X9838729Y-11290983D02*
X9838729Y-11243364D01*
X9838729Y-11243364D02*
X9848253Y-11205269D01*
X9848253Y-11205269D02*
X9857777Y-11186221D01*
X9857777Y-11186221D02*
X9867301Y-11176698D01*
X9867301Y-11176698D02*
X9886348Y-11167174D01*
X10143491Y-11367174D02*
X10029206Y-11367174D01*
X10086348Y-11367174D02*
X10086348Y-11167174D01*
X10086348Y-11167174D02*
X10067301Y-11195745D01*
X10067301Y-11195745D02*
X10048253Y-11214793D01*
X10048253Y-11214793D02*
X10029206Y-11224317D01*
X10238729Y-11367174D02*
X10276825Y-11367174D01*
X10276825Y-11367174D02*
X10295872Y-11357650D01*
X10295872Y-11357650D02*
X10305396Y-11348126D01*
X10305396Y-11348126D02*
X10324444Y-11319555D01*
X10324444Y-11319555D02*
X10333968Y-11281459D01*
X10333968Y-11281459D02*
X10333968Y-11205269D01*
X10333968Y-11205269D02*
X10324444Y-11186221D01*
X10324444Y-11186221D02*
X10314920Y-11176698D01*
X10314920Y-11176698D02*
X10295872Y-11167174D01*
X10295872Y-11167174D02*
X10257777Y-11167174D01*
X10257777Y-11167174D02*
X10238729Y-11176698D01*
X10238729Y-11176698D02*
X10229206Y-11186221D01*
X10229206Y-11186221D02*
X10219682Y-11205269D01*
X10219682Y-11205269D02*
X10219682Y-11252888D01*
X10219682Y-11252888D02*
X10229206Y-11271936D01*
X10229206Y-11271936D02*
X10238729Y-11281459D01*
X10238729Y-11281459D02*
X10257777Y-11290983D01*
X10257777Y-11290983D02*
X10295872Y-11290983D01*
X10295872Y-11290983D02*
X10314920Y-11281459D01*
X10314920Y-11281459D02*
X10324444Y-11271936D01*
X10324444Y-11271936D02*
X10333968Y-11252888D01*
X10400634Y-11167174D02*
X10533968Y-11167174D01*
X10533968Y-11167174D02*
X10448253Y-11367174D01*
X10600634Y-11167174D02*
X10600634Y-11205269D01*
X10676825Y-11167174D02*
X10676825Y-11205269D01*
X10972063Y-11443364D02*
X10962539Y-11433840D01*
X10962539Y-11433840D02*
X10943491Y-11405269D01*
X10943491Y-11405269D02*
X10933968Y-11386221D01*
X10933968Y-11386221D02*
X10924444Y-11357650D01*
X10924444Y-11357650D02*
X10914920Y-11310031D01*
X10914920Y-11310031D02*
X10914920Y-11271936D01*
X10914920Y-11271936D02*
X10924444Y-11224317D01*
X10924444Y-11224317D02*
X10933968Y-11195745D01*
X10933968Y-11195745D02*
X10943491Y-11176698D01*
X10943491Y-11176698D02*
X10962539Y-11148126D01*
X10962539Y-11148126D02*
X10972063Y-11138602D01*
X11029206Y-11167174D02*
X11153015Y-11167174D01*
X11153015Y-11167174D02*
X11086349Y-11243364D01*
X11086349Y-11243364D02*
X11114920Y-11243364D01*
X11114920Y-11243364D02*
X11133968Y-11252888D01*
X11133968Y-11252888D02*
X11143491Y-11262412D01*
X11143491Y-11262412D02*
X11153015Y-11281459D01*
X11153015Y-11281459D02*
X11153015Y-11329078D01*
X11153015Y-11329078D02*
X11143491Y-11348126D01*
X11143491Y-11348126D02*
X11133968Y-11357650D01*
X11133968Y-11357650D02*
X11114920Y-11367174D01*
X11114920Y-11367174D02*
X11057777Y-11367174D01*
X11057777Y-11367174D02*
X11038730Y-11357650D01*
X11038730Y-11357650D02*
X11029206Y-11348126D01*
X11391110Y-11367174D02*
X11391110Y-11167174D01*
X11476825Y-11367174D02*
X11476825Y-11262412D01*
X11476825Y-11262412D02*
X11467301Y-11243364D01*
X11467301Y-11243364D02*
X11448253Y-11233840D01*
X11448253Y-11233840D02*
X11419682Y-11233840D01*
X11419682Y-11233840D02*
X11400634Y-11243364D01*
X11400634Y-11243364D02*
X11391110Y-11252888D01*
X11600634Y-11367174D02*
X11581587Y-11357650D01*
X11581587Y-11357650D02*
X11572063Y-11348126D01*
X11572063Y-11348126D02*
X11562539Y-11329078D01*
X11562539Y-11329078D02*
X11562539Y-11271936D01*
X11562539Y-11271936D02*
X11572063Y-11252888D01*
X11572063Y-11252888D02*
X11581587Y-11243364D01*
X11581587Y-11243364D02*
X11600634Y-11233840D01*
X11600634Y-11233840D02*
X11629206Y-11233840D01*
X11629206Y-11233840D02*
X11648253Y-11243364D01*
X11648253Y-11243364D02*
X11657777Y-11252888D01*
X11657777Y-11252888D02*
X11667301Y-11271936D01*
X11667301Y-11271936D02*
X11667301Y-11329078D01*
X11667301Y-11329078D02*
X11657777Y-11348126D01*
X11657777Y-11348126D02*
X11648253Y-11357650D01*
X11648253Y-11357650D02*
X11629206Y-11367174D01*
X11629206Y-11367174D02*
X11600634Y-11367174D01*
X11781587Y-11367174D02*
X11762539Y-11357650D01*
X11762539Y-11357650D02*
X11753015Y-11338602D01*
X11753015Y-11338602D02*
X11753015Y-11167174D01*
X11933968Y-11357650D02*
X11914920Y-11367174D01*
X11914920Y-11367174D02*
X11876825Y-11367174D01*
X11876825Y-11367174D02*
X11857777Y-11357650D01*
X11857777Y-11357650D02*
X11848253Y-11338602D01*
X11848253Y-11338602D02*
X11848253Y-11262412D01*
X11848253Y-11262412D02*
X11857777Y-11243364D01*
X11857777Y-11243364D02*
X11876825Y-11233840D01*
X11876825Y-11233840D02*
X11914920Y-11233840D01*
X11914920Y-11233840D02*
X11933968Y-11243364D01*
X11933968Y-11243364D02*
X11943491Y-11262412D01*
X11943491Y-11262412D02*
X11943491Y-11281459D01*
X11943491Y-11281459D02*
X11848253Y-11300507D01*
X12019682Y-11357650D02*
X12038730Y-11367174D01*
X12038730Y-11367174D02*
X12076825Y-11367174D01*
X12076825Y-11367174D02*
X12095872Y-11357650D01*
X12095872Y-11357650D02*
X12105396Y-11338602D01*
X12105396Y-11338602D02*
X12105396Y-11329078D01*
X12105396Y-11329078D02*
X12095872Y-11310031D01*
X12095872Y-11310031D02*
X12076825Y-11300507D01*
X12076825Y-11300507D02*
X12048253Y-11300507D01*
X12048253Y-11300507D02*
X12029206Y-11290983D01*
X12029206Y-11290983D02*
X12019682Y-11271936D01*
X12019682Y-11271936D02*
X12019682Y-11262412D01*
X12019682Y-11262412D02*
X12029206Y-11243364D01*
X12029206Y-11243364D02*
X12048253Y-11233840D01*
X12048253Y-11233840D02*
X12076825Y-11233840D01*
X12076825Y-11233840D02*
X12095872Y-11243364D01*
X12172063Y-11443364D02*
X12181587Y-11433840D01*
X12181587Y-11433840D02*
X12200634Y-11405269D01*
X12200634Y-11405269D02*
X12210158Y-11386221D01*
X12210158Y-11386221D02*
X12219682Y-11357650D01*
X12219682Y-11357650D02*
X12229206Y-11310031D01*
X12229206Y-11310031D02*
X12229206Y-11271936D01*
X12229206Y-11271936D02*
X12219682Y-11224317D01*
X12219682Y-11224317D02*
X12210158Y-11195745D01*
X12210158Y-11195745D02*
X12200634Y-11176698D01*
X12200634Y-11176698D02*
X12181587Y-11148126D01*
X12181587Y-11148126D02*
X12172063Y-11138602D01*
D12*
X7367000Y-11509690D02*
X7367000Y-11569690D01*
X7337000Y-11539690D02*
X7397000Y-11539690D01*
D11*
X7695872Y-11431174D02*
X7714920Y-11431174D01*
X7714920Y-11431174D02*
X7733967Y-11440698D01*
X7733967Y-11440698D02*
X7743491Y-11450221D01*
X7743491Y-11450221D02*
X7753015Y-11469269D01*
X7753015Y-11469269D02*
X7762539Y-11507364D01*
X7762539Y-11507364D02*
X7762539Y-11554983D01*
X7762539Y-11554983D02*
X7753015Y-11593078D01*
X7753015Y-11593078D02*
X7743491Y-11612126D01*
X7743491Y-11612126D02*
X7733967Y-11621650D01*
X7733967Y-11621650D02*
X7714920Y-11631174D01*
X7714920Y-11631174D02*
X7695872Y-11631174D01*
X7695872Y-11631174D02*
X7676824Y-11621650D01*
X7676824Y-11621650D02*
X7667301Y-11612126D01*
X7667301Y-11612126D02*
X7657777Y-11593078D01*
X7657777Y-11593078D02*
X7648253Y-11554983D01*
X7648253Y-11554983D02*
X7648253Y-11507364D01*
X7648253Y-11507364D02*
X7657777Y-11469269D01*
X7657777Y-11469269D02*
X7667301Y-11450221D01*
X7667301Y-11450221D02*
X7676824Y-11440698D01*
X7676824Y-11440698D02*
X7695872Y-11431174D01*
X7848253Y-11612126D02*
X7857777Y-11621650D01*
X7857777Y-11621650D02*
X7848253Y-11631174D01*
X7848253Y-11631174D02*
X7838729Y-11621650D01*
X7838729Y-11621650D02*
X7848253Y-11612126D01*
X7848253Y-11612126D02*
X7848253Y-11631174D01*
X8029205Y-11431174D02*
X7991110Y-11431174D01*
X7991110Y-11431174D02*
X7972062Y-11440698D01*
X7972062Y-11440698D02*
X7962539Y-11450221D01*
X7962539Y-11450221D02*
X7943491Y-11478793D01*
X7943491Y-11478793D02*
X7933967Y-11516888D01*
X7933967Y-11516888D02*
X7933967Y-11593078D01*
X7933967Y-11593078D02*
X7943491Y-11612126D01*
X7943491Y-11612126D02*
X7953015Y-11621650D01*
X7953015Y-11621650D02*
X7972062Y-11631174D01*
X7972062Y-11631174D02*
X8010158Y-11631174D01*
X8010158Y-11631174D02*
X8029205Y-11621650D01*
X8029205Y-11621650D02*
X8038729Y-11612126D01*
X8038729Y-11612126D02*
X8048253Y-11593078D01*
X8048253Y-11593078D02*
X8048253Y-11545459D01*
X8048253Y-11545459D02*
X8038729Y-11526412D01*
X8038729Y-11526412D02*
X8029205Y-11516888D01*
X8029205Y-11516888D02*
X8010158Y-11507364D01*
X8010158Y-11507364D02*
X7972062Y-11507364D01*
X7972062Y-11507364D02*
X7953015Y-11516888D01*
X7953015Y-11516888D02*
X7943491Y-11526412D01*
X7943491Y-11526412D02*
X7933967Y-11545459D01*
X8172062Y-11431174D02*
X8191110Y-11431174D01*
X8191110Y-11431174D02*
X8210158Y-11440698D01*
X8210158Y-11440698D02*
X8219682Y-11450221D01*
X8219682Y-11450221D02*
X8229205Y-11469269D01*
X8229205Y-11469269D02*
X8238729Y-11507364D01*
X8238729Y-11507364D02*
X8238729Y-11554983D01*
X8238729Y-11554983D02*
X8229205Y-11593078D01*
X8229205Y-11593078D02*
X8219682Y-11612126D01*
X8219682Y-11612126D02*
X8210158Y-11621650D01*
X8210158Y-11621650D02*
X8191110Y-11631174D01*
X8191110Y-11631174D02*
X8172062Y-11631174D01*
X8172062Y-11631174D02*
X8153015Y-11621650D01*
X8153015Y-11621650D02*
X8143491Y-11612126D01*
X8143491Y-11612126D02*
X8133967Y-11593078D01*
X8133967Y-11593078D02*
X8124443Y-11554983D01*
X8124443Y-11554983D02*
X8124443Y-11507364D01*
X8124443Y-11507364D02*
X8133967Y-11469269D01*
X8133967Y-11469269D02*
X8143491Y-11450221D01*
X8143491Y-11450221D02*
X8153015Y-11440698D01*
X8153015Y-11440698D02*
X8172062Y-11431174D01*
X8362539Y-11431174D02*
X8381586Y-11431174D01*
X8381586Y-11431174D02*
X8400634Y-11440698D01*
X8400634Y-11440698D02*
X8410158Y-11450221D01*
X8410158Y-11450221D02*
X8419682Y-11469269D01*
X8419682Y-11469269D02*
X8429205Y-11507364D01*
X8429205Y-11507364D02*
X8429205Y-11554983D01*
X8429205Y-11554983D02*
X8419682Y-11593078D01*
X8419682Y-11593078D02*
X8410158Y-11612126D01*
X8410158Y-11612126D02*
X8400634Y-11621650D01*
X8400634Y-11621650D02*
X8381586Y-11631174D01*
X8381586Y-11631174D02*
X8362539Y-11631174D01*
X8362539Y-11631174D02*
X8343491Y-11621650D01*
X8343491Y-11621650D02*
X8333967Y-11612126D01*
X8333967Y-11612126D02*
X8324443Y-11593078D01*
X8324443Y-11593078D02*
X8314920Y-11554983D01*
X8314920Y-11554983D02*
X8314920Y-11507364D01*
X8314920Y-11507364D02*
X8324443Y-11469269D01*
X8324443Y-11469269D02*
X8333967Y-11450221D01*
X8333967Y-11450221D02*
X8343491Y-11440698D01*
X8343491Y-11440698D02*
X8362539Y-11431174D01*
X8514920Y-11631174D02*
X8514920Y-11497840D01*
X8514920Y-11516888D02*
X8524444Y-11507364D01*
X8524444Y-11507364D02*
X8543491Y-11497840D01*
X8543491Y-11497840D02*
X8572063Y-11497840D01*
X8572063Y-11497840D02*
X8591110Y-11507364D01*
X8591110Y-11507364D02*
X8600634Y-11526412D01*
X8600634Y-11526412D02*
X8600634Y-11631174D01*
X8600634Y-11526412D02*
X8610158Y-11507364D01*
X8610158Y-11507364D02*
X8629205Y-11497840D01*
X8629205Y-11497840D02*
X8657777Y-11497840D01*
X8657777Y-11497840D02*
X8676825Y-11507364D01*
X8676825Y-11507364D02*
X8686348Y-11526412D01*
X8686348Y-11526412D02*
X8686348Y-11631174D01*
X8781586Y-11631174D02*
X8781586Y-11497840D01*
X8781586Y-11516888D02*
X8791110Y-11507364D01*
X8791110Y-11507364D02*
X8810158Y-11497840D01*
X8810158Y-11497840D02*
X8838729Y-11497840D01*
X8838729Y-11497840D02*
X8857777Y-11507364D01*
X8857777Y-11507364D02*
X8867301Y-11526412D01*
X8867301Y-11526412D02*
X8867301Y-11631174D01*
X8867301Y-11526412D02*
X8876825Y-11507364D01*
X8876825Y-11507364D02*
X8895872Y-11497840D01*
X8895872Y-11497840D02*
X8924444Y-11497840D01*
X8924444Y-11497840D02*
X8943491Y-11507364D01*
X8943491Y-11507364D02*
X8953015Y-11526412D01*
X8953015Y-11526412D02*
X8953015Y-11631174D01*
X9343491Y-11421650D02*
X9172063Y-11678793D01*
X9600634Y-11431174D02*
X9619682Y-11431174D01*
X9619682Y-11431174D02*
X9638729Y-11440698D01*
X9638729Y-11440698D02*
X9648253Y-11450221D01*
X9648253Y-11450221D02*
X9657777Y-11469269D01*
X9657777Y-11469269D02*
X9667301Y-11507364D01*
X9667301Y-11507364D02*
X9667301Y-11554983D01*
X9667301Y-11554983D02*
X9657777Y-11593078D01*
X9657777Y-11593078D02*
X9648253Y-11612126D01*
X9648253Y-11612126D02*
X9638729Y-11621650D01*
X9638729Y-11621650D02*
X9619682Y-11631174D01*
X9619682Y-11631174D02*
X9600634Y-11631174D01*
X9600634Y-11631174D02*
X9581587Y-11621650D01*
X9581587Y-11621650D02*
X9572063Y-11612126D01*
X9572063Y-11612126D02*
X9562539Y-11593078D01*
X9562539Y-11593078D02*
X9553015Y-11554983D01*
X9553015Y-11554983D02*
X9553015Y-11507364D01*
X9553015Y-11507364D02*
X9562539Y-11469269D01*
X9562539Y-11469269D02*
X9572063Y-11450221D01*
X9572063Y-11450221D02*
X9581587Y-11440698D01*
X9581587Y-11440698D02*
X9600634Y-11431174D01*
X9753015Y-11612126D02*
X9762539Y-11621650D01*
X9762539Y-11621650D02*
X9753015Y-11631174D01*
X9753015Y-11631174D02*
X9743491Y-11621650D01*
X9743491Y-11621650D02*
X9753015Y-11612126D01*
X9753015Y-11612126D02*
X9753015Y-11631174D01*
X9886348Y-11431174D02*
X9905396Y-11431174D01*
X9905396Y-11431174D02*
X9924444Y-11440698D01*
X9924444Y-11440698D02*
X9933968Y-11450221D01*
X9933968Y-11450221D02*
X9943491Y-11469269D01*
X9943491Y-11469269D02*
X9953015Y-11507364D01*
X9953015Y-11507364D02*
X9953015Y-11554983D01*
X9953015Y-11554983D02*
X9943491Y-11593078D01*
X9943491Y-11593078D02*
X9933968Y-11612126D01*
X9933968Y-11612126D02*
X9924444Y-11621650D01*
X9924444Y-11621650D02*
X9905396Y-11631174D01*
X9905396Y-11631174D02*
X9886348Y-11631174D01*
X9886348Y-11631174D02*
X9867301Y-11621650D01*
X9867301Y-11621650D02*
X9857777Y-11612126D01*
X9857777Y-11612126D02*
X9848253Y-11593078D01*
X9848253Y-11593078D02*
X9838729Y-11554983D01*
X9838729Y-11554983D02*
X9838729Y-11507364D01*
X9838729Y-11507364D02*
X9848253Y-11469269D01*
X9848253Y-11469269D02*
X9857777Y-11450221D01*
X9857777Y-11450221D02*
X9867301Y-11440698D01*
X9867301Y-11440698D02*
X9886348Y-11431174D01*
X10029206Y-11450221D02*
X10038729Y-11440698D01*
X10038729Y-11440698D02*
X10057777Y-11431174D01*
X10057777Y-11431174D02*
X10105396Y-11431174D01*
X10105396Y-11431174D02*
X10124444Y-11440698D01*
X10124444Y-11440698D02*
X10133968Y-11450221D01*
X10133968Y-11450221D02*
X10143491Y-11469269D01*
X10143491Y-11469269D02*
X10143491Y-11488317D01*
X10143491Y-11488317D02*
X10133968Y-11516888D01*
X10133968Y-11516888D02*
X10019682Y-11631174D01*
X10019682Y-11631174D02*
X10143491Y-11631174D01*
X10210158Y-11431174D02*
X10333968Y-11431174D01*
X10333968Y-11431174D02*
X10267301Y-11507364D01*
X10267301Y-11507364D02*
X10295872Y-11507364D01*
X10295872Y-11507364D02*
X10314920Y-11516888D01*
X10314920Y-11516888D02*
X10324444Y-11526412D01*
X10324444Y-11526412D02*
X10333968Y-11545459D01*
X10333968Y-11545459D02*
X10333968Y-11593078D01*
X10333968Y-11593078D02*
X10324444Y-11612126D01*
X10324444Y-11612126D02*
X10314920Y-11621650D01*
X10314920Y-11621650D02*
X10295872Y-11631174D01*
X10295872Y-11631174D02*
X10238729Y-11631174D01*
X10238729Y-11631174D02*
X10219682Y-11621650D01*
X10219682Y-11621650D02*
X10210158Y-11612126D01*
X10505396Y-11431174D02*
X10467301Y-11431174D01*
X10467301Y-11431174D02*
X10448253Y-11440698D01*
X10448253Y-11440698D02*
X10438729Y-11450221D01*
X10438729Y-11450221D02*
X10419682Y-11478793D01*
X10419682Y-11478793D02*
X10410158Y-11516888D01*
X10410158Y-11516888D02*
X10410158Y-11593078D01*
X10410158Y-11593078D02*
X10419682Y-11612126D01*
X10419682Y-11612126D02*
X10429206Y-11621650D01*
X10429206Y-11621650D02*
X10448253Y-11631174D01*
X10448253Y-11631174D02*
X10486349Y-11631174D01*
X10486349Y-11631174D02*
X10505396Y-11621650D01*
X10505396Y-11621650D02*
X10514920Y-11612126D01*
X10514920Y-11612126D02*
X10524444Y-11593078D01*
X10524444Y-11593078D02*
X10524444Y-11545459D01*
X10524444Y-11545459D02*
X10514920Y-11526412D01*
X10514920Y-11526412D02*
X10505396Y-11516888D01*
X10505396Y-11516888D02*
X10486349Y-11507364D01*
X10486349Y-11507364D02*
X10448253Y-11507364D01*
X10448253Y-11507364D02*
X10429206Y-11516888D01*
X10429206Y-11516888D02*
X10419682Y-11526412D01*
X10419682Y-11526412D02*
X10410158Y-11545459D01*
X10600634Y-11431174D02*
X10600634Y-11469269D01*
X10676825Y-11431174D02*
X10676825Y-11469269D01*
X10972063Y-11707364D02*
X10962539Y-11697840D01*
X10962539Y-11697840D02*
X10943491Y-11669269D01*
X10943491Y-11669269D02*
X10933968Y-11650221D01*
X10933968Y-11650221D02*
X10924444Y-11621650D01*
X10924444Y-11621650D02*
X10914920Y-11574031D01*
X10914920Y-11574031D02*
X10914920Y-11535936D01*
X10914920Y-11535936D02*
X10924444Y-11488317D01*
X10924444Y-11488317D02*
X10933968Y-11459745D01*
X10933968Y-11459745D02*
X10943491Y-11440698D01*
X10943491Y-11440698D02*
X10962539Y-11412126D01*
X10962539Y-11412126D02*
X10972063Y-11402602D01*
X11086349Y-11431174D02*
X11105396Y-11431174D01*
X11105396Y-11431174D02*
X11124444Y-11440698D01*
X11124444Y-11440698D02*
X11133968Y-11450221D01*
X11133968Y-11450221D02*
X11143491Y-11469269D01*
X11143491Y-11469269D02*
X11153015Y-11507364D01*
X11153015Y-11507364D02*
X11153015Y-11554983D01*
X11153015Y-11554983D02*
X11143491Y-11593078D01*
X11143491Y-11593078D02*
X11133968Y-11612126D01*
X11133968Y-11612126D02*
X11124444Y-11621650D01*
X11124444Y-11621650D02*
X11105396Y-11631174D01*
X11105396Y-11631174D02*
X11086349Y-11631174D01*
X11086349Y-11631174D02*
X11067301Y-11621650D01*
X11067301Y-11621650D02*
X11057777Y-11612126D01*
X11057777Y-11612126D02*
X11048253Y-11593078D01*
X11048253Y-11593078D02*
X11038730Y-11554983D01*
X11038730Y-11554983D02*
X11038730Y-11507364D01*
X11038730Y-11507364D02*
X11048253Y-11469269D01*
X11048253Y-11469269D02*
X11057777Y-11450221D01*
X11057777Y-11450221D02*
X11067301Y-11440698D01*
X11067301Y-11440698D02*
X11086349Y-11431174D01*
X11391110Y-11631174D02*
X11391110Y-11431174D01*
X11476825Y-11631174D02*
X11476825Y-11526412D01*
X11476825Y-11526412D02*
X11467301Y-11507364D01*
X11467301Y-11507364D02*
X11448253Y-11497840D01*
X11448253Y-11497840D02*
X11419682Y-11497840D01*
X11419682Y-11497840D02*
X11400634Y-11507364D01*
X11400634Y-11507364D02*
X11391110Y-11516888D01*
X11600634Y-11631174D02*
X11581587Y-11621650D01*
X11581587Y-11621650D02*
X11572063Y-11612126D01*
X11572063Y-11612126D02*
X11562539Y-11593078D01*
X11562539Y-11593078D02*
X11562539Y-11535936D01*
X11562539Y-11535936D02*
X11572063Y-11516888D01*
X11572063Y-11516888D02*
X11581587Y-11507364D01*
X11581587Y-11507364D02*
X11600634Y-11497840D01*
X11600634Y-11497840D02*
X11629206Y-11497840D01*
X11629206Y-11497840D02*
X11648253Y-11507364D01*
X11648253Y-11507364D02*
X11657777Y-11516888D01*
X11657777Y-11516888D02*
X11667301Y-11535936D01*
X11667301Y-11535936D02*
X11667301Y-11593078D01*
X11667301Y-11593078D02*
X11657777Y-11612126D01*
X11657777Y-11612126D02*
X11648253Y-11621650D01*
X11648253Y-11621650D02*
X11629206Y-11631174D01*
X11629206Y-11631174D02*
X11600634Y-11631174D01*
X11781587Y-11631174D02*
X11762539Y-11621650D01*
X11762539Y-11621650D02*
X11753015Y-11602602D01*
X11753015Y-11602602D02*
X11753015Y-11431174D01*
X11933968Y-11621650D02*
X11914920Y-11631174D01*
X11914920Y-11631174D02*
X11876825Y-11631174D01*
X11876825Y-11631174D02*
X11857777Y-11621650D01*
X11857777Y-11621650D02*
X11848253Y-11602602D01*
X11848253Y-11602602D02*
X11848253Y-11526412D01*
X11848253Y-11526412D02*
X11857777Y-11507364D01*
X11857777Y-11507364D02*
X11876825Y-11497840D01*
X11876825Y-11497840D02*
X11914920Y-11497840D01*
X11914920Y-11497840D02*
X11933968Y-11507364D01*
X11933968Y-11507364D02*
X11943491Y-11526412D01*
X11943491Y-11526412D02*
X11943491Y-11545459D01*
X11943491Y-11545459D02*
X11848253Y-11564507D01*
X12019682Y-11621650D02*
X12038730Y-11631174D01*
X12038730Y-11631174D02*
X12076825Y-11631174D01*
X12076825Y-11631174D02*
X12095872Y-11621650D01*
X12095872Y-11621650D02*
X12105396Y-11602602D01*
X12105396Y-11602602D02*
X12105396Y-11593078D01*
X12105396Y-11593078D02*
X12095872Y-11574031D01*
X12095872Y-11574031D02*
X12076825Y-11564507D01*
X12076825Y-11564507D02*
X12048253Y-11564507D01*
X12048253Y-11564507D02*
X12029206Y-11554983D01*
X12029206Y-11554983D02*
X12019682Y-11535936D01*
X12019682Y-11535936D02*
X12019682Y-11526412D01*
X12019682Y-11526412D02*
X12029206Y-11507364D01*
X12029206Y-11507364D02*
X12048253Y-11497840D01*
X12048253Y-11497840D02*
X12076825Y-11497840D01*
X12076825Y-11497840D02*
X12095872Y-11507364D01*
X12343492Y-11554983D02*
X12495873Y-11554983D01*
X12419682Y-11631174D02*
X12419682Y-11478793D01*
X12829206Y-11497840D02*
X12829206Y-11631174D01*
X12781587Y-11421650D02*
X12733968Y-11564507D01*
X12733968Y-11564507D02*
X12857777Y-11564507D01*
X13076825Y-11621650D02*
X13095873Y-11631174D01*
X13095873Y-11631174D02*
X13133968Y-11631174D01*
X13133968Y-11631174D02*
X13153015Y-11621650D01*
X13153015Y-11621650D02*
X13162539Y-11602602D01*
X13162539Y-11602602D02*
X13162539Y-11593078D01*
X13162539Y-11593078D02*
X13153015Y-11574031D01*
X13153015Y-11574031D02*
X13133968Y-11564507D01*
X13133968Y-11564507D02*
X13105396Y-11564507D01*
X13105396Y-11564507D02*
X13086349Y-11554983D01*
X13086349Y-11554983D02*
X13076825Y-11535936D01*
X13076825Y-11535936D02*
X13076825Y-11526412D01*
X13076825Y-11526412D02*
X13086349Y-11507364D01*
X13086349Y-11507364D02*
X13105396Y-11497840D01*
X13105396Y-11497840D02*
X13133968Y-11497840D01*
X13133968Y-11497840D02*
X13153015Y-11507364D01*
X13276825Y-11631174D02*
X13257777Y-11621650D01*
X13257777Y-11621650D02*
X13248254Y-11602602D01*
X13248254Y-11602602D02*
X13248254Y-11431174D01*
X13381587Y-11631174D02*
X13362539Y-11621650D01*
X13362539Y-11621650D02*
X13353015Y-11612126D01*
X13353015Y-11612126D02*
X13343492Y-11593078D01*
X13343492Y-11593078D02*
X13343492Y-11535936D01*
X13343492Y-11535936D02*
X13353015Y-11516888D01*
X13353015Y-11516888D02*
X13362539Y-11507364D01*
X13362539Y-11507364D02*
X13381587Y-11497840D01*
X13381587Y-11497840D02*
X13410158Y-11497840D01*
X13410158Y-11497840D02*
X13429206Y-11507364D01*
X13429206Y-11507364D02*
X13438730Y-11516888D01*
X13438730Y-11516888D02*
X13448254Y-11535936D01*
X13448254Y-11535936D02*
X13448254Y-11593078D01*
X13448254Y-11593078D02*
X13438730Y-11612126D01*
X13438730Y-11612126D02*
X13429206Y-11621650D01*
X13429206Y-11621650D02*
X13410158Y-11631174D01*
X13410158Y-11631174D02*
X13381587Y-11631174D01*
X13505396Y-11497840D02*
X13581587Y-11497840D01*
X13533968Y-11431174D02*
X13533968Y-11602602D01*
X13533968Y-11602602D02*
X13543492Y-11621650D01*
X13543492Y-11621650D02*
X13562539Y-11631174D01*
X13562539Y-11631174D02*
X13581587Y-11631174D01*
X13638730Y-11621650D02*
X13657777Y-11631174D01*
X13657777Y-11631174D02*
X13695873Y-11631174D01*
X13695873Y-11631174D02*
X13714920Y-11621650D01*
X13714920Y-11621650D02*
X13724444Y-11602602D01*
X13724444Y-11602602D02*
X13724444Y-11593078D01*
X13724444Y-11593078D02*
X13714920Y-11574031D01*
X13714920Y-11574031D02*
X13695873Y-11564507D01*
X13695873Y-11564507D02*
X13667301Y-11564507D01*
X13667301Y-11564507D02*
X13648254Y-11554983D01*
X13648254Y-11554983D02*
X13638730Y-11535936D01*
X13638730Y-11535936D02*
X13638730Y-11526412D01*
X13638730Y-11526412D02*
X13648254Y-11507364D01*
X13648254Y-11507364D02*
X13667301Y-11497840D01*
X13667301Y-11497840D02*
X13695873Y-11497840D01*
X13695873Y-11497840D02*
X13714920Y-11507364D01*
X13791111Y-11707364D02*
X13800635Y-11697840D01*
X13800635Y-11697840D02*
X13819682Y-11669269D01*
X13819682Y-11669269D02*
X13829206Y-11650221D01*
X13829206Y-11650221D02*
X13838730Y-11621650D01*
X13838730Y-11621650D02*
X13848254Y-11574031D01*
X13848254Y-11574031D02*
X13848254Y-11535936D01*
X13848254Y-11535936D02*
X13838730Y-11488317D01*
X13838730Y-11488317D02*
X13829206Y-11459745D01*
X13829206Y-11459745D02*
X13819682Y-11440698D01*
X13819682Y-11440698D02*
X13800635Y-11412126D01*
X13800635Y-11412126D02*
X13791111Y-11402602D01*
D12*
X7387481Y-11826671D02*
X7387481Y-11780709D01*
X7341519Y-11780709D01*
X7341519Y-11826671D01*
X7387481Y-11826671D01*
D11*
X7695872Y-11695174D02*
X7714920Y-11695174D01*
X7714920Y-11695174D02*
X7733967Y-11704698D01*
X7733967Y-11704698D02*
X7743491Y-11714221D01*
X7743491Y-11714221D02*
X7753015Y-11733269D01*
X7753015Y-11733269D02*
X7762539Y-11771364D01*
X7762539Y-11771364D02*
X7762539Y-11818983D01*
X7762539Y-11818983D02*
X7753015Y-11857078D01*
X7753015Y-11857078D02*
X7743491Y-11876126D01*
X7743491Y-11876126D02*
X7733967Y-11885650D01*
X7733967Y-11885650D02*
X7714920Y-11895174D01*
X7714920Y-11895174D02*
X7695872Y-11895174D01*
X7695872Y-11895174D02*
X7676824Y-11885650D01*
X7676824Y-11885650D02*
X7667301Y-11876126D01*
X7667301Y-11876126D02*
X7657777Y-11857078D01*
X7657777Y-11857078D02*
X7648253Y-11818983D01*
X7648253Y-11818983D02*
X7648253Y-11771364D01*
X7648253Y-11771364D02*
X7657777Y-11733269D01*
X7657777Y-11733269D02*
X7667301Y-11714221D01*
X7667301Y-11714221D02*
X7676824Y-11704698D01*
X7676824Y-11704698D02*
X7695872Y-11695174D01*
X7848253Y-11876126D02*
X7857777Y-11885650D01*
X7857777Y-11885650D02*
X7848253Y-11895174D01*
X7848253Y-11895174D02*
X7838729Y-11885650D01*
X7838729Y-11885650D02*
X7848253Y-11876126D01*
X7848253Y-11876126D02*
X7848253Y-11895174D01*
X8029205Y-11695174D02*
X7991110Y-11695174D01*
X7991110Y-11695174D02*
X7972062Y-11704698D01*
X7972062Y-11704698D02*
X7962539Y-11714221D01*
X7962539Y-11714221D02*
X7943491Y-11742793D01*
X7943491Y-11742793D02*
X7933967Y-11780888D01*
X7933967Y-11780888D02*
X7933967Y-11857078D01*
X7933967Y-11857078D02*
X7943491Y-11876126D01*
X7943491Y-11876126D02*
X7953015Y-11885650D01*
X7953015Y-11885650D02*
X7972062Y-11895174D01*
X7972062Y-11895174D02*
X8010158Y-11895174D01*
X8010158Y-11895174D02*
X8029205Y-11885650D01*
X8029205Y-11885650D02*
X8038729Y-11876126D01*
X8038729Y-11876126D02*
X8048253Y-11857078D01*
X8048253Y-11857078D02*
X8048253Y-11809459D01*
X8048253Y-11809459D02*
X8038729Y-11790412D01*
X8038729Y-11790412D02*
X8029205Y-11780888D01*
X8029205Y-11780888D02*
X8010158Y-11771364D01*
X8010158Y-11771364D02*
X7972062Y-11771364D01*
X7972062Y-11771364D02*
X7953015Y-11780888D01*
X7953015Y-11780888D02*
X7943491Y-11790412D01*
X7943491Y-11790412D02*
X7933967Y-11809459D01*
X8229205Y-11695174D02*
X8133967Y-11695174D01*
X8133967Y-11695174D02*
X8124443Y-11790412D01*
X8124443Y-11790412D02*
X8133967Y-11780888D01*
X8133967Y-11780888D02*
X8153015Y-11771364D01*
X8153015Y-11771364D02*
X8200634Y-11771364D01*
X8200634Y-11771364D02*
X8219682Y-11780888D01*
X8219682Y-11780888D02*
X8229205Y-11790412D01*
X8229205Y-11790412D02*
X8238729Y-11809459D01*
X8238729Y-11809459D02*
X8238729Y-11857078D01*
X8238729Y-11857078D02*
X8229205Y-11876126D01*
X8229205Y-11876126D02*
X8219682Y-11885650D01*
X8219682Y-11885650D02*
X8200634Y-11895174D01*
X8200634Y-11895174D02*
X8153015Y-11895174D01*
X8153015Y-11895174D02*
X8133967Y-11885650D01*
X8133967Y-11885650D02*
X8124443Y-11876126D01*
X8362539Y-11695174D02*
X8381586Y-11695174D01*
X8381586Y-11695174D02*
X8400634Y-11704698D01*
X8400634Y-11704698D02*
X8410158Y-11714221D01*
X8410158Y-11714221D02*
X8419682Y-11733269D01*
X8419682Y-11733269D02*
X8429205Y-11771364D01*
X8429205Y-11771364D02*
X8429205Y-11818983D01*
X8429205Y-11818983D02*
X8419682Y-11857078D01*
X8419682Y-11857078D02*
X8410158Y-11876126D01*
X8410158Y-11876126D02*
X8400634Y-11885650D01*
X8400634Y-11885650D02*
X8381586Y-11895174D01*
X8381586Y-11895174D02*
X8362539Y-11895174D01*
X8362539Y-11895174D02*
X8343491Y-11885650D01*
X8343491Y-11885650D02*
X8333967Y-11876126D01*
X8333967Y-11876126D02*
X8324443Y-11857078D01*
X8324443Y-11857078D02*
X8314920Y-11818983D01*
X8314920Y-11818983D02*
X8314920Y-11771364D01*
X8314920Y-11771364D02*
X8324443Y-11733269D01*
X8324443Y-11733269D02*
X8333967Y-11714221D01*
X8333967Y-11714221D02*
X8343491Y-11704698D01*
X8343491Y-11704698D02*
X8362539Y-11695174D01*
X8514920Y-11895174D02*
X8514920Y-11761840D01*
X8514920Y-11780888D02*
X8524444Y-11771364D01*
X8524444Y-11771364D02*
X8543491Y-11761840D01*
X8543491Y-11761840D02*
X8572063Y-11761840D01*
X8572063Y-11761840D02*
X8591110Y-11771364D01*
X8591110Y-11771364D02*
X8600634Y-11790412D01*
X8600634Y-11790412D02*
X8600634Y-11895174D01*
X8600634Y-11790412D02*
X8610158Y-11771364D01*
X8610158Y-11771364D02*
X8629205Y-11761840D01*
X8629205Y-11761840D02*
X8657777Y-11761840D01*
X8657777Y-11761840D02*
X8676825Y-11771364D01*
X8676825Y-11771364D02*
X8686348Y-11790412D01*
X8686348Y-11790412D02*
X8686348Y-11895174D01*
X8781586Y-11895174D02*
X8781586Y-11761840D01*
X8781586Y-11780888D02*
X8791110Y-11771364D01*
X8791110Y-11771364D02*
X8810158Y-11761840D01*
X8810158Y-11761840D02*
X8838729Y-11761840D01*
X8838729Y-11761840D02*
X8857777Y-11771364D01*
X8857777Y-11771364D02*
X8867301Y-11790412D01*
X8867301Y-11790412D02*
X8867301Y-11895174D01*
X8867301Y-11790412D02*
X8876825Y-11771364D01*
X8876825Y-11771364D02*
X8895872Y-11761840D01*
X8895872Y-11761840D02*
X8924444Y-11761840D01*
X8924444Y-11761840D02*
X8943491Y-11771364D01*
X8943491Y-11771364D02*
X8953015Y-11790412D01*
X8953015Y-11790412D02*
X8953015Y-11895174D01*
X9343491Y-11685650D02*
X9172063Y-11942793D01*
X9600634Y-11695174D02*
X9619682Y-11695174D01*
X9619682Y-11695174D02*
X9638729Y-11704698D01*
X9638729Y-11704698D02*
X9648253Y-11714221D01*
X9648253Y-11714221D02*
X9657777Y-11733269D01*
X9657777Y-11733269D02*
X9667301Y-11771364D01*
X9667301Y-11771364D02*
X9667301Y-11818983D01*
X9667301Y-11818983D02*
X9657777Y-11857078D01*
X9657777Y-11857078D02*
X9648253Y-11876126D01*
X9648253Y-11876126D02*
X9638729Y-11885650D01*
X9638729Y-11885650D02*
X9619682Y-11895174D01*
X9619682Y-11895174D02*
X9600634Y-11895174D01*
X9600634Y-11895174D02*
X9581587Y-11885650D01*
X9581587Y-11885650D02*
X9572063Y-11876126D01*
X9572063Y-11876126D02*
X9562539Y-11857078D01*
X9562539Y-11857078D02*
X9553015Y-11818983D01*
X9553015Y-11818983D02*
X9553015Y-11771364D01*
X9553015Y-11771364D02*
X9562539Y-11733269D01*
X9562539Y-11733269D02*
X9572063Y-11714221D01*
X9572063Y-11714221D02*
X9581587Y-11704698D01*
X9581587Y-11704698D02*
X9600634Y-11695174D01*
X9753015Y-11876126D02*
X9762539Y-11885650D01*
X9762539Y-11885650D02*
X9753015Y-11895174D01*
X9753015Y-11895174D02*
X9743491Y-11885650D01*
X9743491Y-11885650D02*
X9753015Y-11876126D01*
X9753015Y-11876126D02*
X9753015Y-11895174D01*
X9886348Y-11695174D02*
X9905396Y-11695174D01*
X9905396Y-11695174D02*
X9924444Y-11704698D01*
X9924444Y-11704698D02*
X9933968Y-11714221D01*
X9933968Y-11714221D02*
X9943491Y-11733269D01*
X9943491Y-11733269D02*
X9953015Y-11771364D01*
X9953015Y-11771364D02*
X9953015Y-11818983D01*
X9953015Y-11818983D02*
X9943491Y-11857078D01*
X9943491Y-11857078D02*
X9933968Y-11876126D01*
X9933968Y-11876126D02*
X9924444Y-11885650D01*
X9924444Y-11885650D02*
X9905396Y-11895174D01*
X9905396Y-11895174D02*
X9886348Y-11895174D01*
X9886348Y-11895174D02*
X9867301Y-11885650D01*
X9867301Y-11885650D02*
X9857777Y-11876126D01*
X9857777Y-11876126D02*
X9848253Y-11857078D01*
X9848253Y-11857078D02*
X9838729Y-11818983D01*
X9838729Y-11818983D02*
X9838729Y-11771364D01*
X9838729Y-11771364D02*
X9848253Y-11733269D01*
X9848253Y-11733269D02*
X9857777Y-11714221D01*
X9857777Y-11714221D02*
X9867301Y-11704698D01*
X9867301Y-11704698D02*
X9886348Y-11695174D01*
X10029206Y-11714221D02*
X10038729Y-11704698D01*
X10038729Y-11704698D02*
X10057777Y-11695174D01*
X10057777Y-11695174D02*
X10105396Y-11695174D01*
X10105396Y-11695174D02*
X10124444Y-11704698D01*
X10124444Y-11704698D02*
X10133968Y-11714221D01*
X10133968Y-11714221D02*
X10143491Y-11733269D01*
X10143491Y-11733269D02*
X10143491Y-11752317D01*
X10143491Y-11752317D02*
X10133968Y-11780888D01*
X10133968Y-11780888D02*
X10019682Y-11895174D01*
X10019682Y-11895174D02*
X10143491Y-11895174D01*
X10324444Y-11695174D02*
X10229206Y-11695174D01*
X10229206Y-11695174D02*
X10219682Y-11790412D01*
X10219682Y-11790412D02*
X10229206Y-11780888D01*
X10229206Y-11780888D02*
X10248253Y-11771364D01*
X10248253Y-11771364D02*
X10295872Y-11771364D01*
X10295872Y-11771364D02*
X10314920Y-11780888D01*
X10314920Y-11780888D02*
X10324444Y-11790412D01*
X10324444Y-11790412D02*
X10333968Y-11809459D01*
X10333968Y-11809459D02*
X10333968Y-11857078D01*
X10333968Y-11857078D02*
X10324444Y-11876126D01*
X10324444Y-11876126D02*
X10314920Y-11885650D01*
X10314920Y-11885650D02*
X10295872Y-11895174D01*
X10295872Y-11895174D02*
X10248253Y-11895174D01*
X10248253Y-11895174D02*
X10229206Y-11885650D01*
X10229206Y-11885650D02*
X10219682Y-11876126D01*
X10505396Y-11695174D02*
X10467301Y-11695174D01*
X10467301Y-11695174D02*
X10448253Y-11704698D01*
X10448253Y-11704698D02*
X10438729Y-11714221D01*
X10438729Y-11714221D02*
X10419682Y-11742793D01*
X10419682Y-11742793D02*
X10410158Y-11780888D01*
X10410158Y-11780888D02*
X10410158Y-11857078D01*
X10410158Y-11857078D02*
X10419682Y-11876126D01*
X10419682Y-11876126D02*
X10429206Y-11885650D01*
X10429206Y-11885650D02*
X10448253Y-11895174D01*
X10448253Y-11895174D02*
X10486349Y-11895174D01*
X10486349Y-11895174D02*
X10505396Y-11885650D01*
X10505396Y-11885650D02*
X10514920Y-11876126D01*
X10514920Y-11876126D02*
X10524444Y-11857078D01*
X10524444Y-11857078D02*
X10524444Y-11809459D01*
X10524444Y-11809459D02*
X10514920Y-11790412D01*
X10514920Y-11790412D02*
X10505396Y-11780888D01*
X10505396Y-11780888D02*
X10486349Y-11771364D01*
X10486349Y-11771364D02*
X10448253Y-11771364D01*
X10448253Y-11771364D02*
X10429206Y-11780888D01*
X10429206Y-11780888D02*
X10419682Y-11790412D01*
X10419682Y-11790412D02*
X10410158Y-11809459D01*
X10600634Y-11695174D02*
X10600634Y-11733269D01*
X10676825Y-11695174D02*
X10676825Y-11733269D01*
X10972063Y-11971364D02*
X10962539Y-11961840D01*
X10962539Y-11961840D02*
X10943491Y-11933269D01*
X10943491Y-11933269D02*
X10933968Y-11914221D01*
X10933968Y-11914221D02*
X10924444Y-11885650D01*
X10924444Y-11885650D02*
X10914920Y-11838031D01*
X10914920Y-11838031D02*
X10914920Y-11799936D01*
X10914920Y-11799936D02*
X10924444Y-11752317D01*
X10924444Y-11752317D02*
X10933968Y-11723745D01*
X10933968Y-11723745D02*
X10943491Y-11704698D01*
X10943491Y-11704698D02*
X10962539Y-11676126D01*
X10962539Y-11676126D02*
X10972063Y-11666602D01*
X11133968Y-11761840D02*
X11133968Y-11895174D01*
X11086349Y-11685650D02*
X11038730Y-11828507D01*
X11038730Y-11828507D02*
X11162539Y-11828507D01*
X11391110Y-11895174D02*
X11391110Y-11695174D01*
X11476825Y-11895174D02*
X11476825Y-11790412D01*
X11476825Y-11790412D02*
X11467301Y-11771364D01*
X11467301Y-11771364D02*
X11448253Y-11761840D01*
X11448253Y-11761840D02*
X11419682Y-11761840D01*
X11419682Y-11761840D02*
X11400634Y-11771364D01*
X11400634Y-11771364D02*
X11391110Y-11780888D01*
X11600634Y-11895174D02*
X11581587Y-11885650D01*
X11581587Y-11885650D02*
X11572063Y-11876126D01*
X11572063Y-11876126D02*
X11562539Y-11857078D01*
X11562539Y-11857078D02*
X11562539Y-11799936D01*
X11562539Y-11799936D02*
X11572063Y-11780888D01*
X11572063Y-11780888D02*
X11581587Y-11771364D01*
X11581587Y-11771364D02*
X11600634Y-11761840D01*
X11600634Y-11761840D02*
X11629206Y-11761840D01*
X11629206Y-11761840D02*
X11648253Y-11771364D01*
X11648253Y-11771364D02*
X11657777Y-11780888D01*
X11657777Y-11780888D02*
X11667301Y-11799936D01*
X11667301Y-11799936D02*
X11667301Y-11857078D01*
X11667301Y-11857078D02*
X11657777Y-11876126D01*
X11657777Y-11876126D02*
X11648253Y-11885650D01*
X11648253Y-11885650D02*
X11629206Y-11895174D01*
X11629206Y-11895174D02*
X11600634Y-11895174D01*
X11781587Y-11895174D02*
X11762539Y-11885650D01*
X11762539Y-11885650D02*
X11753015Y-11866602D01*
X11753015Y-11866602D02*
X11753015Y-11695174D01*
X11933968Y-11885650D02*
X11914920Y-11895174D01*
X11914920Y-11895174D02*
X11876825Y-11895174D01*
X11876825Y-11895174D02*
X11857777Y-11885650D01*
X11857777Y-11885650D02*
X11848253Y-11866602D01*
X11848253Y-11866602D02*
X11848253Y-11790412D01*
X11848253Y-11790412D02*
X11857777Y-11771364D01*
X11857777Y-11771364D02*
X11876825Y-11761840D01*
X11876825Y-11761840D02*
X11914920Y-11761840D01*
X11914920Y-11761840D02*
X11933968Y-11771364D01*
X11933968Y-11771364D02*
X11943491Y-11790412D01*
X11943491Y-11790412D02*
X11943491Y-11809459D01*
X11943491Y-11809459D02*
X11848253Y-11828507D01*
X12019682Y-11885650D02*
X12038730Y-11895174D01*
X12038730Y-11895174D02*
X12076825Y-11895174D01*
X12076825Y-11895174D02*
X12095872Y-11885650D01*
X12095872Y-11885650D02*
X12105396Y-11866602D01*
X12105396Y-11866602D02*
X12105396Y-11857078D01*
X12105396Y-11857078D02*
X12095872Y-11838031D01*
X12095872Y-11838031D02*
X12076825Y-11828507D01*
X12076825Y-11828507D02*
X12048253Y-11828507D01*
X12048253Y-11828507D02*
X12029206Y-11818983D01*
X12029206Y-11818983D02*
X12019682Y-11799936D01*
X12019682Y-11799936D02*
X12019682Y-11790412D01*
X12019682Y-11790412D02*
X12029206Y-11771364D01*
X12029206Y-11771364D02*
X12048253Y-11761840D01*
X12048253Y-11761840D02*
X12076825Y-11761840D01*
X12076825Y-11761840D02*
X12095872Y-11771364D01*
X12172063Y-11971364D02*
X12181587Y-11961840D01*
X12181587Y-11961840D02*
X12200634Y-11933269D01*
X12200634Y-11933269D02*
X12210158Y-11914221D01*
X12210158Y-11914221D02*
X12219682Y-11885650D01*
X12219682Y-11885650D02*
X12229206Y-11838031D01*
X12229206Y-11838031D02*
X12229206Y-11799936D01*
X12229206Y-11799936D02*
X12219682Y-11752317D01*
X12219682Y-11752317D02*
X12210158Y-11723745D01*
X12210158Y-11723745D02*
X12200634Y-11704698D01*
X12200634Y-11704698D02*
X12181587Y-11676126D01*
X12181587Y-11676126D02*
X12172063Y-11666602D01*
D12*
X7347500Y-12117190D02*
X7397000Y-12067690D01*
X7347500Y-12018190D01*
X7298000Y-12067690D01*
X7347500Y-12117190D01*
D11*
X7695872Y-11959174D02*
X7714920Y-11959174D01*
X7714920Y-11959174D02*
X7733967Y-11968698D01*
X7733967Y-11968698D02*
X7743491Y-11978221D01*
X7743491Y-11978221D02*
X7753015Y-11997269D01*
X7753015Y-11997269D02*
X7762539Y-12035364D01*
X7762539Y-12035364D02*
X7762539Y-12082983D01*
X7762539Y-12082983D02*
X7753015Y-12121078D01*
X7753015Y-12121078D02*
X7743491Y-12140126D01*
X7743491Y-12140126D02*
X7733967Y-12149650D01*
X7733967Y-12149650D02*
X7714920Y-12159174D01*
X7714920Y-12159174D02*
X7695872Y-12159174D01*
X7695872Y-12159174D02*
X7676824Y-12149650D01*
X7676824Y-12149650D02*
X7667301Y-12140126D01*
X7667301Y-12140126D02*
X7657777Y-12121078D01*
X7657777Y-12121078D02*
X7648253Y-12082983D01*
X7648253Y-12082983D02*
X7648253Y-12035364D01*
X7648253Y-12035364D02*
X7657777Y-11997269D01*
X7657777Y-11997269D02*
X7667301Y-11978221D01*
X7667301Y-11978221D02*
X7676824Y-11968698D01*
X7676824Y-11968698D02*
X7695872Y-11959174D01*
X7848253Y-12140126D02*
X7857777Y-12149650D01*
X7857777Y-12149650D02*
X7848253Y-12159174D01*
X7848253Y-12159174D02*
X7838729Y-12149650D01*
X7838729Y-12149650D02*
X7848253Y-12140126D01*
X7848253Y-12140126D02*
X7848253Y-12159174D01*
X7953015Y-12159174D02*
X7991110Y-12159174D01*
X7991110Y-12159174D02*
X8010158Y-12149650D01*
X8010158Y-12149650D02*
X8019682Y-12140126D01*
X8019682Y-12140126D02*
X8038729Y-12111555D01*
X8038729Y-12111555D02*
X8048253Y-12073459D01*
X8048253Y-12073459D02*
X8048253Y-11997269D01*
X8048253Y-11997269D02*
X8038729Y-11978221D01*
X8038729Y-11978221D02*
X8029205Y-11968698D01*
X8029205Y-11968698D02*
X8010158Y-11959174D01*
X8010158Y-11959174D02*
X7972062Y-11959174D01*
X7972062Y-11959174D02*
X7953015Y-11968698D01*
X7953015Y-11968698D02*
X7943491Y-11978221D01*
X7943491Y-11978221D02*
X7933967Y-11997269D01*
X7933967Y-11997269D02*
X7933967Y-12044888D01*
X7933967Y-12044888D02*
X7943491Y-12063936D01*
X7943491Y-12063936D02*
X7953015Y-12073459D01*
X7953015Y-12073459D02*
X7972062Y-12082983D01*
X7972062Y-12082983D02*
X8010158Y-12082983D01*
X8010158Y-12082983D02*
X8029205Y-12073459D01*
X8029205Y-12073459D02*
X8038729Y-12063936D01*
X8038729Y-12063936D02*
X8048253Y-12044888D01*
X8143491Y-12159174D02*
X8181586Y-12159174D01*
X8181586Y-12159174D02*
X8200634Y-12149650D01*
X8200634Y-12149650D02*
X8210158Y-12140126D01*
X8210158Y-12140126D02*
X8229205Y-12111555D01*
X8229205Y-12111555D02*
X8238729Y-12073459D01*
X8238729Y-12073459D02*
X8238729Y-11997269D01*
X8238729Y-11997269D02*
X8229205Y-11978221D01*
X8229205Y-11978221D02*
X8219682Y-11968698D01*
X8219682Y-11968698D02*
X8200634Y-11959174D01*
X8200634Y-11959174D02*
X8162539Y-11959174D01*
X8162539Y-11959174D02*
X8143491Y-11968698D01*
X8143491Y-11968698D02*
X8133967Y-11978221D01*
X8133967Y-11978221D02*
X8124443Y-11997269D01*
X8124443Y-11997269D02*
X8124443Y-12044888D01*
X8124443Y-12044888D02*
X8133967Y-12063936D01*
X8133967Y-12063936D02*
X8143491Y-12073459D01*
X8143491Y-12073459D02*
X8162539Y-12082983D01*
X8162539Y-12082983D02*
X8200634Y-12082983D01*
X8200634Y-12082983D02*
X8219682Y-12073459D01*
X8219682Y-12073459D02*
X8229205Y-12063936D01*
X8229205Y-12063936D02*
X8238729Y-12044888D01*
X8362539Y-11959174D02*
X8381586Y-11959174D01*
X8381586Y-11959174D02*
X8400634Y-11968698D01*
X8400634Y-11968698D02*
X8410158Y-11978221D01*
X8410158Y-11978221D02*
X8419682Y-11997269D01*
X8419682Y-11997269D02*
X8429205Y-12035364D01*
X8429205Y-12035364D02*
X8429205Y-12082983D01*
X8429205Y-12082983D02*
X8419682Y-12121078D01*
X8419682Y-12121078D02*
X8410158Y-12140126D01*
X8410158Y-12140126D02*
X8400634Y-12149650D01*
X8400634Y-12149650D02*
X8381586Y-12159174D01*
X8381586Y-12159174D02*
X8362539Y-12159174D01*
X8362539Y-12159174D02*
X8343491Y-12149650D01*
X8343491Y-12149650D02*
X8333967Y-12140126D01*
X8333967Y-12140126D02*
X8324443Y-12121078D01*
X8324443Y-12121078D02*
X8314920Y-12082983D01*
X8314920Y-12082983D02*
X8314920Y-12035364D01*
X8314920Y-12035364D02*
X8324443Y-11997269D01*
X8324443Y-11997269D02*
X8333967Y-11978221D01*
X8333967Y-11978221D02*
X8343491Y-11968698D01*
X8343491Y-11968698D02*
X8362539Y-11959174D01*
X8514920Y-12159174D02*
X8514920Y-12025840D01*
X8514920Y-12044888D02*
X8524444Y-12035364D01*
X8524444Y-12035364D02*
X8543491Y-12025840D01*
X8543491Y-12025840D02*
X8572063Y-12025840D01*
X8572063Y-12025840D02*
X8591110Y-12035364D01*
X8591110Y-12035364D02*
X8600634Y-12054412D01*
X8600634Y-12054412D02*
X8600634Y-12159174D01*
X8600634Y-12054412D02*
X8610158Y-12035364D01*
X8610158Y-12035364D02*
X8629205Y-12025840D01*
X8629205Y-12025840D02*
X8657777Y-12025840D01*
X8657777Y-12025840D02*
X8676825Y-12035364D01*
X8676825Y-12035364D02*
X8686348Y-12054412D01*
X8686348Y-12054412D02*
X8686348Y-12159174D01*
X8781586Y-12159174D02*
X8781586Y-12025840D01*
X8781586Y-12044888D02*
X8791110Y-12035364D01*
X8791110Y-12035364D02*
X8810158Y-12025840D01*
X8810158Y-12025840D02*
X8838729Y-12025840D01*
X8838729Y-12025840D02*
X8857777Y-12035364D01*
X8857777Y-12035364D02*
X8867301Y-12054412D01*
X8867301Y-12054412D02*
X8867301Y-12159174D01*
X8867301Y-12054412D02*
X8876825Y-12035364D01*
X8876825Y-12035364D02*
X8895872Y-12025840D01*
X8895872Y-12025840D02*
X8924444Y-12025840D01*
X8924444Y-12025840D02*
X8943491Y-12035364D01*
X8943491Y-12035364D02*
X8953015Y-12054412D01*
X8953015Y-12054412D02*
X8953015Y-12159174D01*
X9343491Y-11949650D02*
X9172063Y-12206793D01*
X9600634Y-11959174D02*
X9619682Y-11959174D01*
X9619682Y-11959174D02*
X9638729Y-11968698D01*
X9638729Y-11968698D02*
X9648253Y-11978221D01*
X9648253Y-11978221D02*
X9657777Y-11997269D01*
X9657777Y-11997269D02*
X9667301Y-12035364D01*
X9667301Y-12035364D02*
X9667301Y-12082983D01*
X9667301Y-12082983D02*
X9657777Y-12121078D01*
X9657777Y-12121078D02*
X9648253Y-12140126D01*
X9648253Y-12140126D02*
X9638729Y-12149650D01*
X9638729Y-12149650D02*
X9619682Y-12159174D01*
X9619682Y-12159174D02*
X9600634Y-12159174D01*
X9600634Y-12159174D02*
X9581587Y-12149650D01*
X9581587Y-12149650D02*
X9572063Y-12140126D01*
X9572063Y-12140126D02*
X9562539Y-12121078D01*
X9562539Y-12121078D02*
X9553015Y-12082983D01*
X9553015Y-12082983D02*
X9553015Y-12035364D01*
X9553015Y-12035364D02*
X9562539Y-11997269D01*
X9562539Y-11997269D02*
X9572063Y-11978221D01*
X9572063Y-11978221D02*
X9581587Y-11968698D01*
X9581587Y-11968698D02*
X9600634Y-11959174D01*
X9753015Y-12140126D02*
X9762539Y-12149650D01*
X9762539Y-12149650D02*
X9753015Y-12159174D01*
X9753015Y-12159174D02*
X9743491Y-12149650D01*
X9743491Y-12149650D02*
X9753015Y-12140126D01*
X9753015Y-12140126D02*
X9753015Y-12159174D01*
X9886348Y-11959174D02*
X9905396Y-11959174D01*
X9905396Y-11959174D02*
X9924444Y-11968698D01*
X9924444Y-11968698D02*
X9933968Y-11978221D01*
X9933968Y-11978221D02*
X9943491Y-11997269D01*
X9943491Y-11997269D02*
X9953015Y-12035364D01*
X9953015Y-12035364D02*
X9953015Y-12082983D01*
X9953015Y-12082983D02*
X9943491Y-12121078D01*
X9943491Y-12121078D02*
X9933968Y-12140126D01*
X9933968Y-12140126D02*
X9924444Y-12149650D01*
X9924444Y-12149650D02*
X9905396Y-12159174D01*
X9905396Y-12159174D02*
X9886348Y-12159174D01*
X9886348Y-12159174D02*
X9867301Y-12149650D01*
X9867301Y-12149650D02*
X9857777Y-12140126D01*
X9857777Y-12140126D02*
X9848253Y-12121078D01*
X9848253Y-12121078D02*
X9838729Y-12082983D01*
X9838729Y-12082983D02*
X9838729Y-12035364D01*
X9838729Y-12035364D02*
X9848253Y-11997269D01*
X9848253Y-11997269D02*
X9857777Y-11978221D01*
X9857777Y-11978221D02*
X9867301Y-11968698D01*
X9867301Y-11968698D02*
X9886348Y-11959174D01*
X10019682Y-11959174D02*
X10143491Y-11959174D01*
X10143491Y-11959174D02*
X10076825Y-12035364D01*
X10076825Y-12035364D02*
X10105396Y-12035364D01*
X10105396Y-12035364D02*
X10124444Y-12044888D01*
X10124444Y-12044888D02*
X10133968Y-12054412D01*
X10133968Y-12054412D02*
X10143491Y-12073459D01*
X10143491Y-12073459D02*
X10143491Y-12121078D01*
X10143491Y-12121078D02*
X10133968Y-12140126D01*
X10133968Y-12140126D02*
X10124444Y-12149650D01*
X10124444Y-12149650D02*
X10105396Y-12159174D01*
X10105396Y-12159174D02*
X10048253Y-12159174D01*
X10048253Y-12159174D02*
X10029206Y-12149650D01*
X10029206Y-12149650D02*
X10019682Y-12140126D01*
X10238729Y-12159174D02*
X10276825Y-12159174D01*
X10276825Y-12159174D02*
X10295872Y-12149650D01*
X10295872Y-12149650D02*
X10305396Y-12140126D01*
X10305396Y-12140126D02*
X10324444Y-12111555D01*
X10324444Y-12111555D02*
X10333968Y-12073459D01*
X10333968Y-12073459D02*
X10333968Y-11997269D01*
X10333968Y-11997269D02*
X10324444Y-11978221D01*
X10324444Y-11978221D02*
X10314920Y-11968698D01*
X10314920Y-11968698D02*
X10295872Y-11959174D01*
X10295872Y-11959174D02*
X10257777Y-11959174D01*
X10257777Y-11959174D02*
X10238729Y-11968698D01*
X10238729Y-11968698D02*
X10229206Y-11978221D01*
X10229206Y-11978221D02*
X10219682Y-11997269D01*
X10219682Y-11997269D02*
X10219682Y-12044888D01*
X10219682Y-12044888D02*
X10229206Y-12063936D01*
X10229206Y-12063936D02*
X10238729Y-12073459D01*
X10238729Y-12073459D02*
X10257777Y-12082983D01*
X10257777Y-12082983D02*
X10295872Y-12082983D01*
X10295872Y-12082983D02*
X10314920Y-12073459D01*
X10314920Y-12073459D02*
X10324444Y-12063936D01*
X10324444Y-12063936D02*
X10333968Y-12044888D01*
X10457777Y-11959174D02*
X10476825Y-11959174D01*
X10476825Y-11959174D02*
X10495872Y-11968698D01*
X10495872Y-11968698D02*
X10505396Y-11978221D01*
X10505396Y-11978221D02*
X10514920Y-11997269D01*
X10514920Y-11997269D02*
X10524444Y-12035364D01*
X10524444Y-12035364D02*
X10524444Y-12082983D01*
X10524444Y-12082983D02*
X10514920Y-12121078D01*
X10514920Y-12121078D02*
X10505396Y-12140126D01*
X10505396Y-12140126D02*
X10495872Y-12149650D01*
X10495872Y-12149650D02*
X10476825Y-12159174D01*
X10476825Y-12159174D02*
X10457777Y-12159174D01*
X10457777Y-12159174D02*
X10438729Y-12149650D01*
X10438729Y-12149650D02*
X10429206Y-12140126D01*
X10429206Y-12140126D02*
X10419682Y-12121078D01*
X10419682Y-12121078D02*
X10410158Y-12082983D01*
X10410158Y-12082983D02*
X10410158Y-12035364D01*
X10410158Y-12035364D02*
X10419682Y-11997269D01*
X10419682Y-11997269D02*
X10429206Y-11978221D01*
X10429206Y-11978221D02*
X10438729Y-11968698D01*
X10438729Y-11968698D02*
X10457777Y-11959174D01*
X10600634Y-11959174D02*
X10600634Y-11997269D01*
X10676825Y-11959174D02*
X10676825Y-11997269D01*
X10972063Y-12235364D02*
X10962539Y-12225840D01*
X10962539Y-12225840D02*
X10943491Y-12197269D01*
X10943491Y-12197269D02*
X10933968Y-12178221D01*
X10933968Y-12178221D02*
X10924444Y-12149650D01*
X10924444Y-12149650D02*
X10914920Y-12102031D01*
X10914920Y-12102031D02*
X10914920Y-12063936D01*
X10914920Y-12063936D02*
X10924444Y-12016317D01*
X10924444Y-12016317D02*
X10933968Y-11987745D01*
X10933968Y-11987745D02*
X10943491Y-11968698D01*
X10943491Y-11968698D02*
X10962539Y-11940126D01*
X10962539Y-11940126D02*
X10972063Y-11930602D01*
X11133968Y-11959174D02*
X11095872Y-11959174D01*
X11095872Y-11959174D02*
X11076825Y-11968698D01*
X11076825Y-11968698D02*
X11067301Y-11978221D01*
X11067301Y-11978221D02*
X11048253Y-12006793D01*
X11048253Y-12006793D02*
X11038730Y-12044888D01*
X11038730Y-12044888D02*
X11038730Y-12121078D01*
X11038730Y-12121078D02*
X11048253Y-12140126D01*
X11048253Y-12140126D02*
X11057777Y-12149650D01*
X11057777Y-12149650D02*
X11076825Y-12159174D01*
X11076825Y-12159174D02*
X11114920Y-12159174D01*
X11114920Y-12159174D02*
X11133968Y-12149650D01*
X11133968Y-12149650D02*
X11143491Y-12140126D01*
X11143491Y-12140126D02*
X11153015Y-12121078D01*
X11153015Y-12121078D02*
X11153015Y-12073459D01*
X11153015Y-12073459D02*
X11143491Y-12054412D01*
X11143491Y-12054412D02*
X11133968Y-12044888D01*
X11133968Y-12044888D02*
X11114920Y-12035364D01*
X11114920Y-12035364D02*
X11076825Y-12035364D01*
X11076825Y-12035364D02*
X11057777Y-12044888D01*
X11057777Y-12044888D02*
X11048253Y-12054412D01*
X11048253Y-12054412D02*
X11038730Y-12073459D01*
X11391110Y-12159174D02*
X11391110Y-11959174D01*
X11476825Y-12159174D02*
X11476825Y-12054412D01*
X11476825Y-12054412D02*
X11467301Y-12035364D01*
X11467301Y-12035364D02*
X11448253Y-12025840D01*
X11448253Y-12025840D02*
X11419682Y-12025840D01*
X11419682Y-12025840D02*
X11400634Y-12035364D01*
X11400634Y-12035364D02*
X11391110Y-12044888D01*
X11600634Y-12159174D02*
X11581587Y-12149650D01*
X11581587Y-12149650D02*
X11572063Y-12140126D01*
X11572063Y-12140126D02*
X11562539Y-12121078D01*
X11562539Y-12121078D02*
X11562539Y-12063936D01*
X11562539Y-12063936D02*
X11572063Y-12044888D01*
X11572063Y-12044888D02*
X11581587Y-12035364D01*
X11581587Y-12035364D02*
X11600634Y-12025840D01*
X11600634Y-12025840D02*
X11629206Y-12025840D01*
X11629206Y-12025840D02*
X11648253Y-12035364D01*
X11648253Y-12035364D02*
X11657777Y-12044888D01*
X11657777Y-12044888D02*
X11667301Y-12063936D01*
X11667301Y-12063936D02*
X11667301Y-12121078D01*
X11667301Y-12121078D02*
X11657777Y-12140126D01*
X11657777Y-12140126D02*
X11648253Y-12149650D01*
X11648253Y-12149650D02*
X11629206Y-12159174D01*
X11629206Y-12159174D02*
X11600634Y-12159174D01*
X11781587Y-12159174D02*
X11762539Y-12149650D01*
X11762539Y-12149650D02*
X11753015Y-12130602D01*
X11753015Y-12130602D02*
X11753015Y-11959174D01*
X11933968Y-12149650D02*
X11914920Y-12159174D01*
X11914920Y-12159174D02*
X11876825Y-12159174D01*
X11876825Y-12159174D02*
X11857777Y-12149650D01*
X11857777Y-12149650D02*
X11848253Y-12130602D01*
X11848253Y-12130602D02*
X11848253Y-12054412D01*
X11848253Y-12054412D02*
X11857777Y-12035364D01*
X11857777Y-12035364D02*
X11876825Y-12025840D01*
X11876825Y-12025840D02*
X11914920Y-12025840D01*
X11914920Y-12025840D02*
X11933968Y-12035364D01*
X11933968Y-12035364D02*
X11943491Y-12054412D01*
X11943491Y-12054412D02*
X11943491Y-12073459D01*
X11943491Y-12073459D02*
X11848253Y-12092507D01*
X12019682Y-12149650D02*
X12038730Y-12159174D01*
X12038730Y-12159174D02*
X12076825Y-12159174D01*
X12076825Y-12159174D02*
X12095872Y-12149650D01*
X12095872Y-12149650D02*
X12105396Y-12130602D01*
X12105396Y-12130602D02*
X12105396Y-12121078D01*
X12105396Y-12121078D02*
X12095872Y-12102031D01*
X12095872Y-12102031D02*
X12076825Y-12092507D01*
X12076825Y-12092507D02*
X12048253Y-12092507D01*
X12048253Y-12092507D02*
X12029206Y-12082983D01*
X12029206Y-12082983D02*
X12019682Y-12063936D01*
X12019682Y-12063936D02*
X12019682Y-12054412D01*
X12019682Y-12054412D02*
X12029206Y-12035364D01*
X12029206Y-12035364D02*
X12048253Y-12025840D01*
X12048253Y-12025840D02*
X12076825Y-12025840D01*
X12076825Y-12025840D02*
X12095872Y-12035364D01*
X12172063Y-12235364D02*
X12181587Y-12225840D01*
X12181587Y-12225840D02*
X12200634Y-12197269D01*
X12200634Y-12197269D02*
X12210158Y-12178221D01*
X12210158Y-12178221D02*
X12219682Y-12149650D01*
X12219682Y-12149650D02*
X12229206Y-12102031D01*
X12229206Y-12102031D02*
X12229206Y-12063936D01*
X12229206Y-12063936D02*
X12219682Y-12016317D01*
X12219682Y-12016317D02*
X12210158Y-11987745D01*
X12210158Y-11987745D02*
X12200634Y-11968698D01*
X12200634Y-11968698D02*
X12181587Y-11940126D01*
X12181587Y-11940126D02*
X12172063Y-11930602D01*
D13*
X7267000Y-12266690D02*
X7397000Y-12396690D01*
X7397000Y-12266690D02*
X7267000Y-12396690D01*
X7397000Y-12331690D02*
G75*
G03*
X7397000Y-12331690I-65000J0D01*
G01*
D11*
X7762539Y-12423174D02*
X7648253Y-12423174D01*
X7705396Y-12423174D02*
X7705396Y-12223174D01*
X7705396Y-12223174D02*
X7686348Y-12251745D01*
X7686348Y-12251745D02*
X7667301Y-12270793D01*
X7667301Y-12270793D02*
X7648253Y-12280317D01*
X7848253Y-12404126D02*
X7857777Y-12413650D01*
X7857777Y-12413650D02*
X7848253Y-12423174D01*
X7848253Y-12423174D02*
X7838729Y-12413650D01*
X7838729Y-12413650D02*
X7848253Y-12404126D01*
X7848253Y-12404126D02*
X7848253Y-12423174D01*
X7924443Y-12223174D02*
X8048253Y-12223174D01*
X8048253Y-12223174D02*
X7981586Y-12299364D01*
X7981586Y-12299364D02*
X8010158Y-12299364D01*
X8010158Y-12299364D02*
X8029205Y-12308888D01*
X8029205Y-12308888D02*
X8038729Y-12318412D01*
X8038729Y-12318412D02*
X8048253Y-12337459D01*
X8048253Y-12337459D02*
X8048253Y-12385078D01*
X8048253Y-12385078D02*
X8038729Y-12404126D01*
X8038729Y-12404126D02*
X8029205Y-12413650D01*
X8029205Y-12413650D02*
X8010158Y-12423174D01*
X8010158Y-12423174D02*
X7953015Y-12423174D01*
X7953015Y-12423174D02*
X7933967Y-12413650D01*
X7933967Y-12413650D02*
X7924443Y-12404126D01*
X8172062Y-12223174D02*
X8191110Y-12223174D01*
X8191110Y-12223174D02*
X8210158Y-12232698D01*
X8210158Y-12232698D02*
X8219682Y-12242221D01*
X8219682Y-12242221D02*
X8229205Y-12261269D01*
X8229205Y-12261269D02*
X8238729Y-12299364D01*
X8238729Y-12299364D02*
X8238729Y-12346983D01*
X8238729Y-12346983D02*
X8229205Y-12385078D01*
X8229205Y-12385078D02*
X8219682Y-12404126D01*
X8219682Y-12404126D02*
X8210158Y-12413650D01*
X8210158Y-12413650D02*
X8191110Y-12423174D01*
X8191110Y-12423174D02*
X8172062Y-12423174D01*
X8172062Y-12423174D02*
X8153015Y-12413650D01*
X8153015Y-12413650D02*
X8143491Y-12404126D01*
X8143491Y-12404126D02*
X8133967Y-12385078D01*
X8133967Y-12385078D02*
X8124443Y-12346983D01*
X8124443Y-12346983D02*
X8124443Y-12299364D01*
X8124443Y-12299364D02*
X8133967Y-12261269D01*
X8133967Y-12261269D02*
X8143491Y-12242221D01*
X8143491Y-12242221D02*
X8153015Y-12232698D01*
X8153015Y-12232698D02*
X8172062Y-12223174D01*
X8362539Y-12223174D02*
X8381586Y-12223174D01*
X8381586Y-12223174D02*
X8400634Y-12232698D01*
X8400634Y-12232698D02*
X8410158Y-12242221D01*
X8410158Y-12242221D02*
X8419682Y-12261269D01*
X8419682Y-12261269D02*
X8429205Y-12299364D01*
X8429205Y-12299364D02*
X8429205Y-12346983D01*
X8429205Y-12346983D02*
X8419682Y-12385078D01*
X8419682Y-12385078D02*
X8410158Y-12404126D01*
X8410158Y-12404126D02*
X8400634Y-12413650D01*
X8400634Y-12413650D02*
X8381586Y-12423174D01*
X8381586Y-12423174D02*
X8362539Y-12423174D01*
X8362539Y-12423174D02*
X8343491Y-12413650D01*
X8343491Y-12413650D02*
X8333967Y-12404126D01*
X8333967Y-12404126D02*
X8324443Y-12385078D01*
X8324443Y-12385078D02*
X8314920Y-12346983D01*
X8314920Y-12346983D02*
X8314920Y-12299364D01*
X8314920Y-12299364D02*
X8324443Y-12261269D01*
X8324443Y-12261269D02*
X8333967Y-12242221D01*
X8333967Y-12242221D02*
X8343491Y-12232698D01*
X8343491Y-12232698D02*
X8362539Y-12223174D01*
X8514920Y-12423174D02*
X8514920Y-12289840D01*
X8514920Y-12308888D02*
X8524444Y-12299364D01*
X8524444Y-12299364D02*
X8543491Y-12289840D01*
X8543491Y-12289840D02*
X8572063Y-12289840D01*
X8572063Y-12289840D02*
X8591110Y-12299364D01*
X8591110Y-12299364D02*
X8600634Y-12318412D01*
X8600634Y-12318412D02*
X8600634Y-12423174D01*
X8600634Y-12318412D02*
X8610158Y-12299364D01*
X8610158Y-12299364D02*
X8629205Y-12289840D01*
X8629205Y-12289840D02*
X8657777Y-12289840D01*
X8657777Y-12289840D02*
X8676825Y-12299364D01*
X8676825Y-12299364D02*
X8686348Y-12318412D01*
X8686348Y-12318412D02*
X8686348Y-12423174D01*
X8781586Y-12423174D02*
X8781586Y-12289840D01*
X8781586Y-12308888D02*
X8791110Y-12299364D01*
X8791110Y-12299364D02*
X8810158Y-12289840D01*
X8810158Y-12289840D02*
X8838729Y-12289840D01*
X8838729Y-12289840D02*
X8857777Y-12299364D01*
X8857777Y-12299364D02*
X8867301Y-12318412D01*
X8867301Y-12318412D02*
X8867301Y-12423174D01*
X8867301Y-12318412D02*
X8876825Y-12299364D01*
X8876825Y-12299364D02*
X8895872Y-12289840D01*
X8895872Y-12289840D02*
X8924444Y-12289840D01*
X8924444Y-12289840D02*
X8943491Y-12299364D01*
X8943491Y-12299364D02*
X8953015Y-12318412D01*
X8953015Y-12318412D02*
X8953015Y-12423174D01*
X9343491Y-12213650D02*
X9172063Y-12470793D01*
X9600634Y-12223174D02*
X9619682Y-12223174D01*
X9619682Y-12223174D02*
X9638729Y-12232698D01*
X9638729Y-12232698D02*
X9648253Y-12242221D01*
X9648253Y-12242221D02*
X9657777Y-12261269D01*
X9657777Y-12261269D02*
X9667301Y-12299364D01*
X9667301Y-12299364D02*
X9667301Y-12346983D01*
X9667301Y-12346983D02*
X9657777Y-12385078D01*
X9657777Y-12385078D02*
X9648253Y-12404126D01*
X9648253Y-12404126D02*
X9638729Y-12413650D01*
X9638729Y-12413650D02*
X9619682Y-12423174D01*
X9619682Y-12423174D02*
X9600634Y-12423174D01*
X9600634Y-12423174D02*
X9581587Y-12413650D01*
X9581587Y-12413650D02*
X9572063Y-12404126D01*
X9572063Y-12404126D02*
X9562539Y-12385078D01*
X9562539Y-12385078D02*
X9553015Y-12346983D01*
X9553015Y-12346983D02*
X9553015Y-12299364D01*
X9553015Y-12299364D02*
X9562539Y-12261269D01*
X9562539Y-12261269D02*
X9572063Y-12242221D01*
X9572063Y-12242221D02*
X9581587Y-12232698D01*
X9581587Y-12232698D02*
X9600634Y-12223174D01*
X9753015Y-12404126D02*
X9762539Y-12413650D01*
X9762539Y-12413650D02*
X9753015Y-12423174D01*
X9753015Y-12423174D02*
X9743491Y-12413650D01*
X9743491Y-12413650D02*
X9753015Y-12404126D01*
X9753015Y-12404126D02*
X9753015Y-12423174D01*
X9886348Y-12223174D02*
X9905396Y-12223174D01*
X9905396Y-12223174D02*
X9924444Y-12232698D01*
X9924444Y-12232698D02*
X9933968Y-12242221D01*
X9933968Y-12242221D02*
X9943491Y-12261269D01*
X9943491Y-12261269D02*
X9953015Y-12299364D01*
X9953015Y-12299364D02*
X9953015Y-12346983D01*
X9953015Y-12346983D02*
X9943491Y-12385078D01*
X9943491Y-12385078D02*
X9933968Y-12404126D01*
X9933968Y-12404126D02*
X9924444Y-12413650D01*
X9924444Y-12413650D02*
X9905396Y-12423174D01*
X9905396Y-12423174D02*
X9886348Y-12423174D01*
X9886348Y-12423174D02*
X9867301Y-12413650D01*
X9867301Y-12413650D02*
X9857777Y-12404126D01*
X9857777Y-12404126D02*
X9848253Y-12385078D01*
X9848253Y-12385078D02*
X9838729Y-12346983D01*
X9838729Y-12346983D02*
X9838729Y-12299364D01*
X9838729Y-12299364D02*
X9848253Y-12261269D01*
X9848253Y-12261269D02*
X9857777Y-12242221D01*
X9857777Y-12242221D02*
X9867301Y-12232698D01*
X9867301Y-12232698D02*
X9886348Y-12223174D01*
X10133968Y-12223174D02*
X10038729Y-12223174D01*
X10038729Y-12223174D02*
X10029206Y-12318412D01*
X10029206Y-12318412D02*
X10038729Y-12308888D01*
X10038729Y-12308888D02*
X10057777Y-12299364D01*
X10057777Y-12299364D02*
X10105396Y-12299364D01*
X10105396Y-12299364D02*
X10124444Y-12308888D01*
X10124444Y-12308888D02*
X10133968Y-12318412D01*
X10133968Y-12318412D02*
X10143491Y-12337459D01*
X10143491Y-12337459D02*
X10143491Y-12385078D01*
X10143491Y-12385078D02*
X10133968Y-12404126D01*
X10133968Y-12404126D02*
X10124444Y-12413650D01*
X10124444Y-12413650D02*
X10105396Y-12423174D01*
X10105396Y-12423174D02*
X10057777Y-12423174D01*
X10057777Y-12423174D02*
X10038729Y-12413650D01*
X10038729Y-12413650D02*
X10029206Y-12404126D01*
X10333968Y-12423174D02*
X10219682Y-12423174D01*
X10276825Y-12423174D02*
X10276825Y-12223174D01*
X10276825Y-12223174D02*
X10257777Y-12251745D01*
X10257777Y-12251745D02*
X10238729Y-12270793D01*
X10238729Y-12270793D02*
X10219682Y-12280317D01*
X10410158Y-12242221D02*
X10419682Y-12232698D01*
X10419682Y-12232698D02*
X10438729Y-12223174D01*
X10438729Y-12223174D02*
X10486349Y-12223174D01*
X10486349Y-12223174D02*
X10505396Y-12232698D01*
X10505396Y-12232698D02*
X10514920Y-12242221D01*
X10514920Y-12242221D02*
X10524444Y-12261269D01*
X10524444Y-12261269D02*
X10524444Y-12280317D01*
X10524444Y-12280317D02*
X10514920Y-12308888D01*
X10514920Y-12308888D02*
X10400634Y-12423174D01*
X10400634Y-12423174D02*
X10524444Y-12423174D01*
X10600634Y-12223174D02*
X10600634Y-12261269D01*
X10676825Y-12223174D02*
X10676825Y-12261269D01*
X10972063Y-12499364D02*
X10962539Y-12489840D01*
X10962539Y-12489840D02*
X10943491Y-12461269D01*
X10943491Y-12461269D02*
X10933968Y-12442221D01*
X10933968Y-12442221D02*
X10924444Y-12413650D01*
X10924444Y-12413650D02*
X10914920Y-12366031D01*
X10914920Y-12366031D02*
X10914920Y-12327936D01*
X10914920Y-12327936D02*
X10924444Y-12280317D01*
X10924444Y-12280317D02*
X10933968Y-12251745D01*
X10933968Y-12251745D02*
X10943491Y-12232698D01*
X10943491Y-12232698D02*
X10962539Y-12204126D01*
X10962539Y-12204126D02*
X10972063Y-12194602D01*
X11133968Y-12223174D02*
X11095872Y-12223174D01*
X11095872Y-12223174D02*
X11076825Y-12232698D01*
X11076825Y-12232698D02*
X11067301Y-12242221D01*
X11067301Y-12242221D02*
X11048253Y-12270793D01*
X11048253Y-12270793D02*
X11038730Y-12308888D01*
X11038730Y-12308888D02*
X11038730Y-12385078D01*
X11038730Y-12385078D02*
X11048253Y-12404126D01*
X11048253Y-12404126D02*
X11057777Y-12413650D01*
X11057777Y-12413650D02*
X11076825Y-12423174D01*
X11076825Y-12423174D02*
X11114920Y-12423174D01*
X11114920Y-12423174D02*
X11133968Y-12413650D01*
X11133968Y-12413650D02*
X11143491Y-12404126D01*
X11143491Y-12404126D02*
X11153015Y-12385078D01*
X11153015Y-12385078D02*
X11153015Y-12337459D01*
X11153015Y-12337459D02*
X11143491Y-12318412D01*
X11143491Y-12318412D02*
X11133968Y-12308888D01*
X11133968Y-12308888D02*
X11114920Y-12299364D01*
X11114920Y-12299364D02*
X11076825Y-12299364D01*
X11076825Y-12299364D02*
X11057777Y-12308888D01*
X11057777Y-12308888D02*
X11048253Y-12318412D01*
X11048253Y-12318412D02*
X11038730Y-12337459D01*
X11391110Y-12423174D02*
X11391110Y-12223174D01*
X11476825Y-12423174D02*
X11476825Y-12318412D01*
X11476825Y-12318412D02*
X11467301Y-12299364D01*
X11467301Y-12299364D02*
X11448253Y-12289840D01*
X11448253Y-12289840D02*
X11419682Y-12289840D01*
X11419682Y-12289840D02*
X11400634Y-12299364D01*
X11400634Y-12299364D02*
X11391110Y-12308888D01*
X11600634Y-12423174D02*
X11581587Y-12413650D01*
X11581587Y-12413650D02*
X11572063Y-12404126D01*
X11572063Y-12404126D02*
X11562539Y-12385078D01*
X11562539Y-12385078D02*
X11562539Y-12327936D01*
X11562539Y-12327936D02*
X11572063Y-12308888D01*
X11572063Y-12308888D02*
X11581587Y-12299364D01*
X11581587Y-12299364D02*
X11600634Y-12289840D01*
X11600634Y-12289840D02*
X11629206Y-12289840D01*
X11629206Y-12289840D02*
X11648253Y-12299364D01*
X11648253Y-12299364D02*
X11657777Y-12308888D01*
X11657777Y-12308888D02*
X11667301Y-12327936D01*
X11667301Y-12327936D02*
X11667301Y-12385078D01*
X11667301Y-12385078D02*
X11657777Y-12404126D01*
X11657777Y-12404126D02*
X11648253Y-12413650D01*
X11648253Y-12413650D02*
X11629206Y-12423174D01*
X11629206Y-12423174D02*
X11600634Y-12423174D01*
X11781587Y-12423174D02*
X11762539Y-12413650D01*
X11762539Y-12413650D02*
X11753015Y-12394602D01*
X11753015Y-12394602D02*
X11753015Y-12223174D01*
X11933968Y-12413650D02*
X11914920Y-12423174D01*
X11914920Y-12423174D02*
X11876825Y-12423174D01*
X11876825Y-12423174D02*
X11857777Y-12413650D01*
X11857777Y-12413650D02*
X11848253Y-12394602D01*
X11848253Y-12394602D02*
X11848253Y-12318412D01*
X11848253Y-12318412D02*
X11857777Y-12299364D01*
X11857777Y-12299364D02*
X11876825Y-12289840D01*
X11876825Y-12289840D02*
X11914920Y-12289840D01*
X11914920Y-12289840D02*
X11933968Y-12299364D01*
X11933968Y-12299364D02*
X11943491Y-12318412D01*
X11943491Y-12318412D02*
X11943491Y-12337459D01*
X11943491Y-12337459D02*
X11848253Y-12356507D01*
X12019682Y-12413650D02*
X12038730Y-12423174D01*
X12038730Y-12423174D02*
X12076825Y-12423174D01*
X12076825Y-12423174D02*
X12095872Y-12413650D01*
X12095872Y-12413650D02*
X12105396Y-12394602D01*
X12105396Y-12394602D02*
X12105396Y-12385078D01*
X12105396Y-12385078D02*
X12095872Y-12366031D01*
X12095872Y-12366031D02*
X12076825Y-12356507D01*
X12076825Y-12356507D02*
X12048253Y-12356507D01*
X12048253Y-12356507D02*
X12029206Y-12346983D01*
X12029206Y-12346983D02*
X12019682Y-12327936D01*
X12019682Y-12327936D02*
X12019682Y-12318412D01*
X12019682Y-12318412D02*
X12029206Y-12299364D01*
X12029206Y-12299364D02*
X12048253Y-12289840D01*
X12048253Y-12289840D02*
X12076825Y-12289840D01*
X12076825Y-12289840D02*
X12095872Y-12299364D01*
X12172063Y-12499364D02*
X12181587Y-12489840D01*
X12181587Y-12489840D02*
X12200634Y-12461269D01*
X12200634Y-12461269D02*
X12210158Y-12442221D01*
X12210158Y-12442221D02*
X12219682Y-12413650D01*
X12219682Y-12413650D02*
X12229206Y-12366031D01*
X12229206Y-12366031D02*
X12229206Y-12327936D01*
X12229206Y-12327936D02*
X12219682Y-12280317D01*
X12219682Y-12280317D02*
X12210158Y-12251745D01*
X12210158Y-12251745D02*
X12200634Y-12232698D01*
X12200634Y-12232698D02*
X12181587Y-12204126D01*
X12181587Y-12204126D02*
X12172063Y-12194602D01*
X7197000Y-12495690D02*
X7397000Y-12695690D01*
X7397000Y-12495690D02*
X7197000Y-12695690D01*
X7297000Y-12495690D02*
X7297000Y-12695690D01*
X7197000Y-12595690D02*
X7397000Y-12595690D01*
X7638729Y-12487174D02*
X7762539Y-12487174D01*
X7762539Y-12487174D02*
X7695872Y-12563364D01*
X7695872Y-12563364D02*
X7724443Y-12563364D01*
X7724443Y-12563364D02*
X7743491Y-12572888D01*
X7743491Y-12572888D02*
X7753015Y-12582412D01*
X7753015Y-12582412D02*
X7762539Y-12601459D01*
X7762539Y-12601459D02*
X7762539Y-12649078D01*
X7762539Y-12649078D02*
X7753015Y-12668126D01*
X7753015Y-12668126D02*
X7743491Y-12677650D01*
X7743491Y-12677650D02*
X7724443Y-12687174D01*
X7724443Y-12687174D02*
X7667301Y-12687174D01*
X7667301Y-12687174D02*
X7648253Y-12677650D01*
X7648253Y-12677650D02*
X7638729Y-12668126D01*
X7848253Y-12668126D02*
X7857777Y-12677650D01*
X7857777Y-12677650D02*
X7848253Y-12687174D01*
X7848253Y-12687174D02*
X7838729Y-12677650D01*
X7838729Y-12677650D02*
X7848253Y-12668126D01*
X7848253Y-12668126D02*
X7848253Y-12687174D01*
X7981586Y-12487174D02*
X8000634Y-12487174D01*
X8000634Y-12487174D02*
X8019682Y-12496698D01*
X8019682Y-12496698D02*
X8029205Y-12506221D01*
X8029205Y-12506221D02*
X8038729Y-12525269D01*
X8038729Y-12525269D02*
X8048253Y-12563364D01*
X8048253Y-12563364D02*
X8048253Y-12610983D01*
X8048253Y-12610983D02*
X8038729Y-12649078D01*
X8038729Y-12649078D02*
X8029205Y-12668126D01*
X8029205Y-12668126D02*
X8019682Y-12677650D01*
X8019682Y-12677650D02*
X8000634Y-12687174D01*
X8000634Y-12687174D02*
X7981586Y-12687174D01*
X7981586Y-12687174D02*
X7962539Y-12677650D01*
X7962539Y-12677650D02*
X7953015Y-12668126D01*
X7953015Y-12668126D02*
X7943491Y-12649078D01*
X7943491Y-12649078D02*
X7933967Y-12610983D01*
X7933967Y-12610983D02*
X7933967Y-12563364D01*
X7933967Y-12563364D02*
X7943491Y-12525269D01*
X7943491Y-12525269D02*
X7953015Y-12506221D01*
X7953015Y-12506221D02*
X7962539Y-12496698D01*
X7962539Y-12496698D02*
X7981586Y-12487174D01*
X8172062Y-12487174D02*
X8191110Y-12487174D01*
X8191110Y-12487174D02*
X8210158Y-12496698D01*
X8210158Y-12496698D02*
X8219682Y-12506221D01*
X8219682Y-12506221D02*
X8229205Y-12525269D01*
X8229205Y-12525269D02*
X8238729Y-12563364D01*
X8238729Y-12563364D02*
X8238729Y-12610983D01*
X8238729Y-12610983D02*
X8229205Y-12649078D01*
X8229205Y-12649078D02*
X8219682Y-12668126D01*
X8219682Y-12668126D02*
X8210158Y-12677650D01*
X8210158Y-12677650D02*
X8191110Y-12687174D01*
X8191110Y-12687174D02*
X8172062Y-12687174D01*
X8172062Y-12687174D02*
X8153015Y-12677650D01*
X8153015Y-12677650D02*
X8143491Y-12668126D01*
X8143491Y-12668126D02*
X8133967Y-12649078D01*
X8133967Y-12649078D02*
X8124443Y-12610983D01*
X8124443Y-12610983D02*
X8124443Y-12563364D01*
X8124443Y-12563364D02*
X8133967Y-12525269D01*
X8133967Y-12525269D02*
X8143491Y-12506221D01*
X8143491Y-12506221D02*
X8153015Y-12496698D01*
X8153015Y-12496698D02*
X8172062Y-12487174D01*
X8362539Y-12487174D02*
X8381586Y-12487174D01*
X8381586Y-12487174D02*
X8400634Y-12496698D01*
X8400634Y-12496698D02*
X8410158Y-12506221D01*
X8410158Y-12506221D02*
X8419682Y-12525269D01*
X8419682Y-12525269D02*
X8429205Y-12563364D01*
X8429205Y-12563364D02*
X8429205Y-12610983D01*
X8429205Y-12610983D02*
X8419682Y-12649078D01*
X8419682Y-12649078D02*
X8410158Y-12668126D01*
X8410158Y-12668126D02*
X8400634Y-12677650D01*
X8400634Y-12677650D02*
X8381586Y-12687174D01*
X8381586Y-12687174D02*
X8362539Y-12687174D01*
X8362539Y-12687174D02*
X8343491Y-12677650D01*
X8343491Y-12677650D02*
X8333967Y-12668126D01*
X8333967Y-12668126D02*
X8324443Y-12649078D01*
X8324443Y-12649078D02*
X8314920Y-12610983D01*
X8314920Y-12610983D02*
X8314920Y-12563364D01*
X8314920Y-12563364D02*
X8324443Y-12525269D01*
X8324443Y-12525269D02*
X8333967Y-12506221D01*
X8333967Y-12506221D02*
X8343491Y-12496698D01*
X8343491Y-12496698D02*
X8362539Y-12487174D01*
X8514920Y-12687174D02*
X8514920Y-12553840D01*
X8514920Y-12572888D02*
X8524444Y-12563364D01*
X8524444Y-12563364D02*
X8543491Y-12553840D01*
X8543491Y-12553840D02*
X8572063Y-12553840D01*
X8572063Y-12553840D02*
X8591110Y-12563364D01*
X8591110Y-12563364D02*
X8600634Y-12582412D01*
X8600634Y-12582412D02*
X8600634Y-12687174D01*
X8600634Y-12582412D02*
X8610158Y-12563364D01*
X8610158Y-12563364D02*
X8629205Y-12553840D01*
X8629205Y-12553840D02*
X8657777Y-12553840D01*
X8657777Y-12553840D02*
X8676825Y-12563364D01*
X8676825Y-12563364D02*
X8686348Y-12582412D01*
X8686348Y-12582412D02*
X8686348Y-12687174D01*
X8781586Y-12687174D02*
X8781586Y-12553840D01*
X8781586Y-12572888D02*
X8791110Y-12563364D01*
X8791110Y-12563364D02*
X8810158Y-12553840D01*
X8810158Y-12553840D02*
X8838729Y-12553840D01*
X8838729Y-12553840D02*
X8857777Y-12563364D01*
X8857777Y-12563364D02*
X8867301Y-12582412D01*
X8867301Y-12582412D02*
X8867301Y-12687174D01*
X8867301Y-12582412D02*
X8876825Y-12563364D01*
X8876825Y-12563364D02*
X8895872Y-12553840D01*
X8895872Y-12553840D02*
X8924444Y-12553840D01*
X8924444Y-12553840D02*
X8943491Y-12563364D01*
X8943491Y-12563364D02*
X8953015Y-12582412D01*
X8953015Y-12582412D02*
X8953015Y-12687174D01*
X9343491Y-12477650D02*
X9172063Y-12734793D01*
X9600634Y-12487174D02*
X9619682Y-12487174D01*
X9619682Y-12487174D02*
X9638729Y-12496698D01*
X9638729Y-12496698D02*
X9648253Y-12506221D01*
X9648253Y-12506221D02*
X9657777Y-12525269D01*
X9657777Y-12525269D02*
X9667301Y-12563364D01*
X9667301Y-12563364D02*
X9667301Y-12610983D01*
X9667301Y-12610983D02*
X9657777Y-12649078D01*
X9657777Y-12649078D02*
X9648253Y-12668126D01*
X9648253Y-12668126D02*
X9638729Y-12677650D01*
X9638729Y-12677650D02*
X9619682Y-12687174D01*
X9619682Y-12687174D02*
X9600634Y-12687174D01*
X9600634Y-12687174D02*
X9581587Y-12677650D01*
X9581587Y-12677650D02*
X9572063Y-12668126D01*
X9572063Y-12668126D02*
X9562539Y-12649078D01*
X9562539Y-12649078D02*
X9553015Y-12610983D01*
X9553015Y-12610983D02*
X9553015Y-12563364D01*
X9553015Y-12563364D02*
X9562539Y-12525269D01*
X9562539Y-12525269D02*
X9572063Y-12506221D01*
X9572063Y-12506221D02*
X9581587Y-12496698D01*
X9581587Y-12496698D02*
X9600634Y-12487174D01*
X9753015Y-12668126D02*
X9762539Y-12677650D01*
X9762539Y-12677650D02*
X9753015Y-12687174D01*
X9753015Y-12687174D02*
X9743491Y-12677650D01*
X9743491Y-12677650D02*
X9753015Y-12668126D01*
X9753015Y-12668126D02*
X9753015Y-12687174D01*
X9953015Y-12687174D02*
X9838729Y-12687174D01*
X9895872Y-12687174D02*
X9895872Y-12487174D01*
X9895872Y-12487174D02*
X9876825Y-12515745D01*
X9876825Y-12515745D02*
X9857777Y-12534793D01*
X9857777Y-12534793D02*
X9838729Y-12544317D01*
X10143491Y-12687174D02*
X10029206Y-12687174D01*
X10086348Y-12687174D02*
X10086348Y-12487174D01*
X10086348Y-12487174D02*
X10067301Y-12515745D01*
X10067301Y-12515745D02*
X10048253Y-12534793D01*
X10048253Y-12534793D02*
X10029206Y-12544317D01*
X10257777Y-12572888D02*
X10238729Y-12563364D01*
X10238729Y-12563364D02*
X10229206Y-12553840D01*
X10229206Y-12553840D02*
X10219682Y-12534793D01*
X10219682Y-12534793D02*
X10219682Y-12525269D01*
X10219682Y-12525269D02*
X10229206Y-12506221D01*
X10229206Y-12506221D02*
X10238729Y-12496698D01*
X10238729Y-12496698D02*
X10257777Y-12487174D01*
X10257777Y-12487174D02*
X10295872Y-12487174D01*
X10295872Y-12487174D02*
X10314920Y-12496698D01*
X10314920Y-12496698D02*
X10324444Y-12506221D01*
X10324444Y-12506221D02*
X10333968Y-12525269D01*
X10333968Y-12525269D02*
X10333968Y-12534793D01*
X10333968Y-12534793D02*
X10324444Y-12553840D01*
X10324444Y-12553840D02*
X10314920Y-12563364D01*
X10314920Y-12563364D02*
X10295872Y-12572888D01*
X10295872Y-12572888D02*
X10257777Y-12572888D01*
X10257777Y-12572888D02*
X10238729Y-12582412D01*
X10238729Y-12582412D02*
X10229206Y-12591936D01*
X10229206Y-12591936D02*
X10219682Y-12610983D01*
X10219682Y-12610983D02*
X10219682Y-12649078D01*
X10219682Y-12649078D02*
X10229206Y-12668126D01*
X10229206Y-12668126D02*
X10238729Y-12677650D01*
X10238729Y-12677650D02*
X10257777Y-12687174D01*
X10257777Y-12687174D02*
X10295872Y-12687174D01*
X10295872Y-12687174D02*
X10314920Y-12677650D01*
X10314920Y-12677650D02*
X10324444Y-12668126D01*
X10324444Y-12668126D02*
X10333968Y-12649078D01*
X10333968Y-12649078D02*
X10333968Y-12610983D01*
X10333968Y-12610983D02*
X10324444Y-12591936D01*
X10324444Y-12591936D02*
X10314920Y-12582412D01*
X10314920Y-12582412D02*
X10295872Y-12572888D01*
X10524444Y-12687174D02*
X10410158Y-12687174D01*
X10467301Y-12687174D02*
X10467301Y-12487174D01*
X10467301Y-12487174D02*
X10448253Y-12515745D01*
X10448253Y-12515745D02*
X10429206Y-12534793D01*
X10429206Y-12534793D02*
X10410158Y-12544317D01*
X10600634Y-12487174D02*
X10600634Y-12525269D01*
X10676825Y-12487174D02*
X10676825Y-12525269D01*
X10972063Y-12763364D02*
X10962539Y-12753840D01*
X10962539Y-12753840D02*
X10943491Y-12725269D01*
X10943491Y-12725269D02*
X10933968Y-12706221D01*
X10933968Y-12706221D02*
X10924444Y-12677650D01*
X10924444Y-12677650D02*
X10914920Y-12630031D01*
X10914920Y-12630031D02*
X10914920Y-12591936D01*
X10914920Y-12591936D02*
X10924444Y-12544317D01*
X10924444Y-12544317D02*
X10933968Y-12515745D01*
X10933968Y-12515745D02*
X10943491Y-12496698D01*
X10943491Y-12496698D02*
X10962539Y-12468126D01*
X10962539Y-12468126D02*
X10972063Y-12458602D01*
X11038730Y-12506221D02*
X11048253Y-12496698D01*
X11048253Y-12496698D02*
X11067301Y-12487174D01*
X11067301Y-12487174D02*
X11114920Y-12487174D01*
X11114920Y-12487174D02*
X11133968Y-12496698D01*
X11133968Y-12496698D02*
X11143491Y-12506221D01*
X11143491Y-12506221D02*
X11153015Y-12525269D01*
X11153015Y-12525269D02*
X11153015Y-12544317D01*
X11153015Y-12544317D02*
X11143491Y-12572888D01*
X11143491Y-12572888D02*
X11029206Y-12687174D01*
X11029206Y-12687174D02*
X11153015Y-12687174D01*
X11391110Y-12687174D02*
X11391110Y-12487174D01*
X11476825Y-12687174D02*
X11476825Y-12582412D01*
X11476825Y-12582412D02*
X11467301Y-12563364D01*
X11467301Y-12563364D02*
X11448253Y-12553840D01*
X11448253Y-12553840D02*
X11419682Y-12553840D01*
X11419682Y-12553840D02*
X11400634Y-12563364D01*
X11400634Y-12563364D02*
X11391110Y-12572888D01*
X11600634Y-12687174D02*
X11581587Y-12677650D01*
X11581587Y-12677650D02*
X11572063Y-12668126D01*
X11572063Y-12668126D02*
X11562539Y-12649078D01*
X11562539Y-12649078D02*
X11562539Y-12591936D01*
X11562539Y-12591936D02*
X11572063Y-12572888D01*
X11572063Y-12572888D02*
X11581587Y-12563364D01*
X11581587Y-12563364D02*
X11600634Y-12553840D01*
X11600634Y-12553840D02*
X11629206Y-12553840D01*
X11629206Y-12553840D02*
X11648253Y-12563364D01*
X11648253Y-12563364D02*
X11657777Y-12572888D01*
X11657777Y-12572888D02*
X11667301Y-12591936D01*
X11667301Y-12591936D02*
X11667301Y-12649078D01*
X11667301Y-12649078D02*
X11657777Y-12668126D01*
X11657777Y-12668126D02*
X11648253Y-12677650D01*
X11648253Y-12677650D02*
X11629206Y-12687174D01*
X11629206Y-12687174D02*
X11600634Y-12687174D01*
X11781587Y-12687174D02*
X11762539Y-12677650D01*
X11762539Y-12677650D02*
X11753015Y-12658602D01*
X11753015Y-12658602D02*
X11753015Y-12487174D01*
X11933968Y-12677650D02*
X11914920Y-12687174D01*
X11914920Y-12687174D02*
X11876825Y-12687174D01*
X11876825Y-12687174D02*
X11857777Y-12677650D01*
X11857777Y-12677650D02*
X11848253Y-12658602D01*
X11848253Y-12658602D02*
X11848253Y-12582412D01*
X11848253Y-12582412D02*
X11857777Y-12563364D01*
X11857777Y-12563364D02*
X11876825Y-12553840D01*
X11876825Y-12553840D02*
X11914920Y-12553840D01*
X11914920Y-12553840D02*
X11933968Y-12563364D01*
X11933968Y-12563364D02*
X11943491Y-12582412D01*
X11943491Y-12582412D02*
X11943491Y-12601459D01*
X11943491Y-12601459D02*
X11848253Y-12620507D01*
X12019682Y-12677650D02*
X12038730Y-12687174D01*
X12038730Y-12687174D02*
X12076825Y-12687174D01*
X12076825Y-12687174D02*
X12095872Y-12677650D01*
X12095872Y-12677650D02*
X12105396Y-12658602D01*
X12105396Y-12658602D02*
X12105396Y-12649078D01*
X12105396Y-12649078D02*
X12095872Y-12630031D01*
X12095872Y-12630031D02*
X12076825Y-12620507D01*
X12076825Y-12620507D02*
X12048253Y-12620507D01*
X12048253Y-12620507D02*
X12029206Y-12610983D01*
X12029206Y-12610983D02*
X12019682Y-12591936D01*
X12019682Y-12591936D02*
X12019682Y-12582412D01*
X12019682Y-12582412D02*
X12029206Y-12563364D01*
X12029206Y-12563364D02*
X12048253Y-12553840D01*
X12048253Y-12553840D02*
X12076825Y-12553840D01*
X12076825Y-12553840D02*
X12095872Y-12563364D01*
X12172063Y-12763364D02*
X12181587Y-12753840D01*
X12181587Y-12753840D02*
X12200634Y-12725269D01*
X12200634Y-12725269D02*
X12210158Y-12706221D01*
X12210158Y-12706221D02*
X12219682Y-12677650D01*
X12219682Y-12677650D02*
X12229206Y-12630031D01*
X12229206Y-12630031D02*
X12229206Y-12591936D01*
X12229206Y-12591936D02*
X12219682Y-12544317D01*
X12219682Y-12544317D02*
X12210158Y-12515745D01*
X12210158Y-12515745D02*
X12200634Y-12496698D01*
X12200634Y-12496698D02*
X12181587Y-12468126D01*
X12181587Y-12468126D02*
X12172063Y-12458602D01*
M02*
