G04 #@! TF.GenerationSoftware,KiCad,Pcbnew,7.0.10*
G04 #@! TF.CreationDate,2024-02-23T17:06:06+08:00*
G04 #@! TF.ProjectId,Teeny_girl,5465656e-795f-4676-9972-6c2e6b696361,rev?*
G04 #@! TF.SameCoordinates,Original*
G04 #@! TF.FileFunction,Legend,Top*
G04 #@! TF.FilePolarity,Positive*
%FSLAX46Y46*%
G04 Gerber Fmt 4.6, Leading zero omitted, Abs format (unit mm)*
G04 Created by KiCad (PCBNEW 7.0.10) date 2024-02-23 17:06:06*
%MOMM*%
%LPD*%
G01*
G04 APERTURE LIST*
%ADD10C,0.150000*%
%ADD11C,0.300000*%
%ADD12C,0.500000*%
%ADD13C,0.175000*%
%ADD14C,0.120000*%
%ADD15C,0.127000*%
%ADD16C,0.100000*%
G04 #@! TA.AperFunction,Profile*
%ADD17C,0.150000*%
G04 #@! TD*
G04 APERTURE END LIST*
D10*
X198100000Y-74000000D02*
X197300000Y-74000000D01*
X197700000Y-73400000D01*
X198100000Y-74000000D01*
G36*
X198100000Y-74000000D02*
G01*
X197300000Y-74000000D01*
X197700000Y-73400000D01*
X198100000Y-74000000D01*
G37*
X87800000Y-69900000D02*
X87400000Y-69300000D01*
X88200000Y-69300000D01*
X87800000Y-69900000D01*
G36*
X87800000Y-69900000D02*
G01*
X87400000Y-69300000D01*
X88200000Y-69300000D01*
X87800000Y-69900000D01*
G37*
X94381228Y-52441541D02*
X94981228Y-52441541D01*
X94981228Y-52441541D02*
X94981228Y-52670112D01*
X94981228Y-52670112D02*
X94952657Y-52727255D01*
X94952657Y-52727255D02*
X94924085Y-52755826D01*
X94924085Y-52755826D02*
X94866942Y-52784398D01*
X94866942Y-52784398D02*
X94781228Y-52784398D01*
X94781228Y-52784398D02*
X94724085Y-52755826D01*
X94724085Y-52755826D02*
X94695514Y-52727255D01*
X94695514Y-52727255D02*
X94666942Y-52670112D01*
X94666942Y-52670112D02*
X94666942Y-52441541D01*
X94695514Y-53241541D02*
X94666942Y-53327255D01*
X94666942Y-53327255D02*
X94638371Y-53355826D01*
X94638371Y-53355826D02*
X94581228Y-53384398D01*
X94581228Y-53384398D02*
X94495514Y-53384398D01*
X94495514Y-53384398D02*
X94438371Y-53355826D01*
X94438371Y-53355826D02*
X94409800Y-53327255D01*
X94409800Y-53327255D02*
X94381228Y-53270112D01*
X94381228Y-53270112D02*
X94381228Y-53041541D01*
X94381228Y-53041541D02*
X94981228Y-53041541D01*
X94981228Y-53041541D02*
X94981228Y-53241541D01*
X94981228Y-53241541D02*
X94952657Y-53298684D01*
X94952657Y-53298684D02*
X94924085Y-53327255D01*
X94924085Y-53327255D02*
X94866942Y-53355826D01*
X94866942Y-53355826D02*
X94809800Y-53355826D01*
X94809800Y-53355826D02*
X94752657Y-53327255D01*
X94752657Y-53327255D02*
X94724085Y-53298684D01*
X94724085Y-53298684D02*
X94695514Y-53241541D01*
X94695514Y-53241541D02*
X94695514Y-53041541D01*
X94381228Y-53955826D02*
X94381228Y-53612969D01*
X94381228Y-53784398D02*
X94981228Y-53784398D01*
X94981228Y-53784398D02*
X94895514Y-53727255D01*
X94895514Y-53727255D02*
X94838371Y-53670112D01*
X94838371Y-53670112D02*
X94809800Y-53612969D01*
X94781228Y-54470113D02*
X94381228Y-54470113D01*
X95009800Y-54327255D02*
X94581228Y-54184398D01*
X94581228Y-54184398D02*
X94581228Y-54555827D01*
X92481228Y-78541541D02*
X93081228Y-78541541D01*
X93081228Y-78541541D02*
X93081228Y-78770112D01*
X93081228Y-78770112D02*
X93052657Y-78827255D01*
X93052657Y-78827255D02*
X93024085Y-78855826D01*
X93024085Y-78855826D02*
X92966942Y-78884398D01*
X92966942Y-78884398D02*
X92881228Y-78884398D01*
X92881228Y-78884398D02*
X92824085Y-78855826D01*
X92824085Y-78855826D02*
X92795514Y-78827255D01*
X92795514Y-78827255D02*
X92766942Y-78770112D01*
X92766942Y-78770112D02*
X92766942Y-78541541D01*
X92795514Y-79341541D02*
X92766942Y-79427255D01*
X92766942Y-79427255D02*
X92738371Y-79455826D01*
X92738371Y-79455826D02*
X92681228Y-79484398D01*
X92681228Y-79484398D02*
X92595514Y-79484398D01*
X92595514Y-79484398D02*
X92538371Y-79455826D01*
X92538371Y-79455826D02*
X92509800Y-79427255D01*
X92509800Y-79427255D02*
X92481228Y-79370112D01*
X92481228Y-79370112D02*
X92481228Y-79141541D01*
X92481228Y-79141541D02*
X93081228Y-79141541D01*
X93081228Y-79141541D02*
X93081228Y-79341541D01*
X93081228Y-79341541D02*
X93052657Y-79398684D01*
X93052657Y-79398684D02*
X93024085Y-79427255D01*
X93024085Y-79427255D02*
X92966942Y-79455826D01*
X92966942Y-79455826D02*
X92909800Y-79455826D01*
X92909800Y-79455826D02*
X92852657Y-79427255D01*
X92852657Y-79427255D02*
X92824085Y-79398684D01*
X92824085Y-79398684D02*
X92795514Y-79341541D01*
X92795514Y-79341541D02*
X92795514Y-79141541D01*
X93081228Y-80027255D02*
X93081228Y-79741541D01*
X93081228Y-79741541D02*
X92795514Y-79712969D01*
X92795514Y-79712969D02*
X92824085Y-79741541D01*
X92824085Y-79741541D02*
X92852657Y-79798684D01*
X92852657Y-79798684D02*
X92852657Y-79941541D01*
X92852657Y-79941541D02*
X92824085Y-79998684D01*
X92824085Y-79998684D02*
X92795514Y-80027255D01*
X92795514Y-80027255D02*
X92738371Y-80055826D01*
X92738371Y-80055826D02*
X92595514Y-80055826D01*
X92595514Y-80055826D02*
X92538371Y-80027255D01*
X92538371Y-80027255D02*
X92509800Y-79998684D01*
X92509800Y-79998684D02*
X92481228Y-79941541D01*
X92481228Y-79941541D02*
X92481228Y-79798684D01*
X92481228Y-79798684D02*
X92509800Y-79741541D01*
X92509800Y-79741541D02*
X92538371Y-79712969D01*
X84481228Y-70541541D02*
X85081228Y-70541541D01*
X85081228Y-70541541D02*
X85081228Y-70770112D01*
X85081228Y-70770112D02*
X85052657Y-70827255D01*
X85052657Y-70827255D02*
X85024085Y-70855826D01*
X85024085Y-70855826D02*
X84966942Y-70884398D01*
X84966942Y-70884398D02*
X84881228Y-70884398D01*
X84881228Y-70884398D02*
X84824085Y-70855826D01*
X84824085Y-70855826D02*
X84795514Y-70827255D01*
X84795514Y-70827255D02*
X84766942Y-70770112D01*
X84766942Y-70770112D02*
X84766942Y-70541541D01*
X84795514Y-71341541D02*
X84766942Y-71427255D01*
X84766942Y-71427255D02*
X84738371Y-71455826D01*
X84738371Y-71455826D02*
X84681228Y-71484398D01*
X84681228Y-71484398D02*
X84595514Y-71484398D01*
X84595514Y-71484398D02*
X84538371Y-71455826D01*
X84538371Y-71455826D02*
X84509800Y-71427255D01*
X84509800Y-71427255D02*
X84481228Y-71370112D01*
X84481228Y-71370112D02*
X84481228Y-71141541D01*
X84481228Y-71141541D02*
X85081228Y-71141541D01*
X85081228Y-71141541D02*
X85081228Y-71341541D01*
X85081228Y-71341541D02*
X85052657Y-71398684D01*
X85052657Y-71398684D02*
X85024085Y-71427255D01*
X85024085Y-71427255D02*
X84966942Y-71455826D01*
X84966942Y-71455826D02*
X84909800Y-71455826D01*
X84909800Y-71455826D02*
X84852657Y-71427255D01*
X84852657Y-71427255D02*
X84824085Y-71398684D01*
X84824085Y-71398684D02*
X84795514Y-71341541D01*
X84795514Y-71341541D02*
X84795514Y-71141541D01*
X85081228Y-71998684D02*
X85081228Y-71884398D01*
X85081228Y-71884398D02*
X85052657Y-71827255D01*
X85052657Y-71827255D02*
X85024085Y-71798684D01*
X85024085Y-71798684D02*
X84938371Y-71741541D01*
X84938371Y-71741541D02*
X84824085Y-71712969D01*
X84824085Y-71712969D02*
X84595514Y-71712969D01*
X84595514Y-71712969D02*
X84538371Y-71741541D01*
X84538371Y-71741541D02*
X84509800Y-71770112D01*
X84509800Y-71770112D02*
X84481228Y-71827255D01*
X84481228Y-71827255D02*
X84481228Y-71941541D01*
X84481228Y-71941541D02*
X84509800Y-71998684D01*
X84509800Y-71998684D02*
X84538371Y-72027255D01*
X84538371Y-72027255D02*
X84595514Y-72055826D01*
X84595514Y-72055826D02*
X84738371Y-72055826D01*
X84738371Y-72055826D02*
X84795514Y-72027255D01*
X84795514Y-72027255D02*
X84824085Y-71998684D01*
X84824085Y-71998684D02*
X84852657Y-71941541D01*
X84852657Y-71941541D02*
X84852657Y-71827255D01*
X84852657Y-71827255D02*
X84824085Y-71770112D01*
X84824085Y-71770112D02*
X84795514Y-71741541D01*
X84795514Y-71741541D02*
X84738371Y-71712969D01*
X100381228Y-70741541D02*
X100981228Y-70741541D01*
X100981228Y-70741541D02*
X100981228Y-70970112D01*
X100981228Y-70970112D02*
X100952657Y-71027255D01*
X100952657Y-71027255D02*
X100924085Y-71055826D01*
X100924085Y-71055826D02*
X100866942Y-71084398D01*
X100866942Y-71084398D02*
X100781228Y-71084398D01*
X100781228Y-71084398D02*
X100724085Y-71055826D01*
X100724085Y-71055826D02*
X100695514Y-71027255D01*
X100695514Y-71027255D02*
X100666942Y-70970112D01*
X100666942Y-70970112D02*
X100666942Y-70741541D01*
X100695514Y-71541541D02*
X100666942Y-71627255D01*
X100666942Y-71627255D02*
X100638371Y-71655826D01*
X100638371Y-71655826D02*
X100581228Y-71684398D01*
X100581228Y-71684398D02*
X100495514Y-71684398D01*
X100495514Y-71684398D02*
X100438371Y-71655826D01*
X100438371Y-71655826D02*
X100409800Y-71627255D01*
X100409800Y-71627255D02*
X100381228Y-71570112D01*
X100381228Y-71570112D02*
X100381228Y-71341541D01*
X100381228Y-71341541D02*
X100981228Y-71341541D01*
X100981228Y-71341541D02*
X100981228Y-71541541D01*
X100981228Y-71541541D02*
X100952657Y-71598684D01*
X100952657Y-71598684D02*
X100924085Y-71627255D01*
X100924085Y-71627255D02*
X100866942Y-71655826D01*
X100866942Y-71655826D02*
X100809800Y-71655826D01*
X100809800Y-71655826D02*
X100752657Y-71627255D01*
X100752657Y-71627255D02*
X100724085Y-71598684D01*
X100724085Y-71598684D02*
X100695514Y-71541541D01*
X100695514Y-71541541D02*
X100695514Y-71341541D01*
X100981228Y-71884398D02*
X100981228Y-72284398D01*
X100981228Y-72284398D02*
X100381228Y-72027255D01*
X92481228Y-62841541D02*
X93081228Y-62841541D01*
X93081228Y-62841541D02*
X93081228Y-63070112D01*
X93081228Y-63070112D02*
X93052657Y-63127255D01*
X93052657Y-63127255D02*
X93024085Y-63155826D01*
X93024085Y-63155826D02*
X92966942Y-63184398D01*
X92966942Y-63184398D02*
X92881228Y-63184398D01*
X92881228Y-63184398D02*
X92824085Y-63155826D01*
X92824085Y-63155826D02*
X92795514Y-63127255D01*
X92795514Y-63127255D02*
X92766942Y-63070112D01*
X92766942Y-63070112D02*
X92766942Y-62841541D01*
X92795514Y-63641541D02*
X92766942Y-63727255D01*
X92766942Y-63727255D02*
X92738371Y-63755826D01*
X92738371Y-63755826D02*
X92681228Y-63784398D01*
X92681228Y-63784398D02*
X92595514Y-63784398D01*
X92595514Y-63784398D02*
X92538371Y-63755826D01*
X92538371Y-63755826D02*
X92509800Y-63727255D01*
X92509800Y-63727255D02*
X92481228Y-63670112D01*
X92481228Y-63670112D02*
X92481228Y-63441541D01*
X92481228Y-63441541D02*
X93081228Y-63441541D01*
X93081228Y-63441541D02*
X93081228Y-63641541D01*
X93081228Y-63641541D02*
X93052657Y-63698684D01*
X93052657Y-63698684D02*
X93024085Y-63727255D01*
X93024085Y-63727255D02*
X92966942Y-63755826D01*
X92966942Y-63755826D02*
X92909800Y-63755826D01*
X92909800Y-63755826D02*
X92852657Y-63727255D01*
X92852657Y-63727255D02*
X92824085Y-63698684D01*
X92824085Y-63698684D02*
X92795514Y-63641541D01*
X92795514Y-63641541D02*
X92795514Y-63441541D01*
X92881228Y-64298684D02*
X92481228Y-64298684D01*
X93109800Y-64155826D02*
X92681228Y-64012969D01*
X92681228Y-64012969D02*
X92681228Y-64384398D01*
X189781228Y-52041541D02*
X190381228Y-52041541D01*
X190381228Y-52041541D02*
X190381228Y-52270112D01*
X190381228Y-52270112D02*
X190352657Y-52327255D01*
X190352657Y-52327255D02*
X190324085Y-52355826D01*
X190324085Y-52355826D02*
X190266942Y-52384398D01*
X190266942Y-52384398D02*
X190181228Y-52384398D01*
X190181228Y-52384398D02*
X190124085Y-52355826D01*
X190124085Y-52355826D02*
X190095514Y-52327255D01*
X190095514Y-52327255D02*
X190066942Y-52270112D01*
X190066942Y-52270112D02*
X190066942Y-52041541D01*
X190095514Y-52841541D02*
X190066942Y-52927255D01*
X190066942Y-52927255D02*
X190038371Y-52955826D01*
X190038371Y-52955826D02*
X189981228Y-52984398D01*
X189981228Y-52984398D02*
X189895514Y-52984398D01*
X189895514Y-52984398D02*
X189838371Y-52955826D01*
X189838371Y-52955826D02*
X189809800Y-52927255D01*
X189809800Y-52927255D02*
X189781228Y-52870112D01*
X189781228Y-52870112D02*
X189781228Y-52641541D01*
X189781228Y-52641541D02*
X190381228Y-52641541D01*
X190381228Y-52641541D02*
X190381228Y-52841541D01*
X190381228Y-52841541D02*
X190352657Y-52898684D01*
X190352657Y-52898684D02*
X190324085Y-52927255D01*
X190324085Y-52927255D02*
X190266942Y-52955826D01*
X190266942Y-52955826D02*
X190209800Y-52955826D01*
X190209800Y-52955826D02*
X190152657Y-52927255D01*
X190152657Y-52927255D02*
X190124085Y-52898684D01*
X190124085Y-52898684D02*
X190095514Y-52841541D01*
X190095514Y-52841541D02*
X190095514Y-52641541D01*
X189781228Y-53555826D02*
X189781228Y-53212969D01*
X189781228Y-53384398D02*
X190381228Y-53384398D01*
X190381228Y-53384398D02*
X190295514Y-53327255D01*
X190295514Y-53327255D02*
X190238371Y-53270112D01*
X190238371Y-53270112D02*
X190209800Y-53212969D01*
X190381228Y-54098684D02*
X190381228Y-53812970D01*
X190381228Y-53812970D02*
X190095514Y-53784398D01*
X190095514Y-53784398D02*
X190124085Y-53812970D01*
X190124085Y-53812970D02*
X190152657Y-53870113D01*
X190152657Y-53870113D02*
X190152657Y-54012970D01*
X190152657Y-54012970D02*
X190124085Y-54070113D01*
X190124085Y-54070113D02*
X190095514Y-54098684D01*
X190095514Y-54098684D02*
X190038371Y-54127255D01*
X190038371Y-54127255D02*
X189895514Y-54127255D01*
X189895514Y-54127255D02*
X189838371Y-54098684D01*
X189838371Y-54098684D02*
X189809800Y-54070113D01*
X189809800Y-54070113D02*
X189781228Y-54012970D01*
X189781228Y-54012970D02*
X189781228Y-53870113D01*
X189781228Y-53870113D02*
X189809800Y-53812970D01*
X189809800Y-53812970D02*
X189838371Y-53784398D01*
X200681228Y-70641541D02*
X201281228Y-70641541D01*
X201281228Y-70641541D02*
X201281228Y-70870112D01*
X201281228Y-70870112D02*
X201252657Y-70927255D01*
X201252657Y-70927255D02*
X201224085Y-70955826D01*
X201224085Y-70955826D02*
X201166942Y-70984398D01*
X201166942Y-70984398D02*
X201081228Y-70984398D01*
X201081228Y-70984398D02*
X201024085Y-70955826D01*
X201024085Y-70955826D02*
X200995514Y-70927255D01*
X200995514Y-70927255D02*
X200966942Y-70870112D01*
X200966942Y-70870112D02*
X200966942Y-70641541D01*
X200995514Y-71441541D02*
X200966942Y-71527255D01*
X200966942Y-71527255D02*
X200938371Y-71555826D01*
X200938371Y-71555826D02*
X200881228Y-71584398D01*
X200881228Y-71584398D02*
X200795514Y-71584398D01*
X200795514Y-71584398D02*
X200738371Y-71555826D01*
X200738371Y-71555826D02*
X200709800Y-71527255D01*
X200709800Y-71527255D02*
X200681228Y-71470112D01*
X200681228Y-71470112D02*
X200681228Y-71241541D01*
X200681228Y-71241541D02*
X201281228Y-71241541D01*
X201281228Y-71241541D02*
X201281228Y-71441541D01*
X201281228Y-71441541D02*
X201252657Y-71498684D01*
X201252657Y-71498684D02*
X201224085Y-71527255D01*
X201224085Y-71527255D02*
X201166942Y-71555826D01*
X201166942Y-71555826D02*
X201109800Y-71555826D01*
X201109800Y-71555826D02*
X201052657Y-71527255D01*
X201052657Y-71527255D02*
X201024085Y-71498684D01*
X201024085Y-71498684D02*
X200995514Y-71441541D01*
X200995514Y-71441541D02*
X200995514Y-71241541D01*
X200681228Y-72155826D02*
X200681228Y-71812969D01*
X200681228Y-71984398D02*
X201281228Y-71984398D01*
X201281228Y-71984398D02*
X201195514Y-71927255D01*
X201195514Y-71927255D02*
X201138371Y-71870112D01*
X201138371Y-71870112D02*
X201109800Y-71812969D01*
X201281228Y-72527255D02*
X201281228Y-72584398D01*
X201281228Y-72584398D02*
X201252657Y-72641541D01*
X201252657Y-72641541D02*
X201224085Y-72670113D01*
X201224085Y-72670113D02*
X201166942Y-72698684D01*
X201166942Y-72698684D02*
X201052657Y-72727255D01*
X201052657Y-72727255D02*
X200909800Y-72727255D01*
X200909800Y-72727255D02*
X200795514Y-72698684D01*
X200795514Y-72698684D02*
X200738371Y-72670113D01*
X200738371Y-72670113D02*
X200709800Y-72641541D01*
X200709800Y-72641541D02*
X200681228Y-72584398D01*
X200681228Y-72584398D02*
X200681228Y-72527255D01*
X200681228Y-72527255D02*
X200709800Y-72470113D01*
X200709800Y-72470113D02*
X200738371Y-72441541D01*
X200738371Y-72441541D02*
X200795514Y-72412970D01*
X200795514Y-72412970D02*
X200909800Y-72384398D01*
X200909800Y-72384398D02*
X201052657Y-72384398D01*
X201052657Y-72384398D02*
X201166942Y-72412970D01*
X201166942Y-72412970D02*
X201224085Y-72441541D01*
X201224085Y-72441541D02*
X201252657Y-72470113D01*
X201252657Y-72470113D02*
X201281228Y-72527255D01*
X192781228Y-78641541D02*
X193381228Y-78641541D01*
X193381228Y-78641541D02*
X193381228Y-78870112D01*
X193381228Y-78870112D02*
X193352657Y-78927255D01*
X193352657Y-78927255D02*
X193324085Y-78955826D01*
X193324085Y-78955826D02*
X193266942Y-78984398D01*
X193266942Y-78984398D02*
X193181228Y-78984398D01*
X193181228Y-78984398D02*
X193124085Y-78955826D01*
X193124085Y-78955826D02*
X193095514Y-78927255D01*
X193095514Y-78927255D02*
X193066942Y-78870112D01*
X193066942Y-78870112D02*
X193066942Y-78641541D01*
X193095514Y-79441541D02*
X193066942Y-79527255D01*
X193066942Y-79527255D02*
X193038371Y-79555826D01*
X193038371Y-79555826D02*
X192981228Y-79584398D01*
X192981228Y-79584398D02*
X192895514Y-79584398D01*
X192895514Y-79584398D02*
X192838371Y-79555826D01*
X192838371Y-79555826D02*
X192809800Y-79527255D01*
X192809800Y-79527255D02*
X192781228Y-79470112D01*
X192781228Y-79470112D02*
X192781228Y-79241541D01*
X192781228Y-79241541D02*
X193381228Y-79241541D01*
X193381228Y-79241541D02*
X193381228Y-79441541D01*
X193381228Y-79441541D02*
X193352657Y-79498684D01*
X193352657Y-79498684D02*
X193324085Y-79527255D01*
X193324085Y-79527255D02*
X193266942Y-79555826D01*
X193266942Y-79555826D02*
X193209800Y-79555826D01*
X193209800Y-79555826D02*
X193152657Y-79527255D01*
X193152657Y-79527255D02*
X193124085Y-79498684D01*
X193124085Y-79498684D02*
X193095514Y-79441541D01*
X193095514Y-79441541D02*
X193095514Y-79241541D01*
X192781228Y-79870112D02*
X192781228Y-79984398D01*
X192781228Y-79984398D02*
X192809800Y-80041541D01*
X192809800Y-80041541D02*
X192838371Y-80070112D01*
X192838371Y-80070112D02*
X192924085Y-80127255D01*
X192924085Y-80127255D02*
X193038371Y-80155826D01*
X193038371Y-80155826D02*
X193266942Y-80155826D01*
X193266942Y-80155826D02*
X193324085Y-80127255D01*
X193324085Y-80127255D02*
X193352657Y-80098684D01*
X193352657Y-80098684D02*
X193381228Y-80041541D01*
X193381228Y-80041541D02*
X193381228Y-79927255D01*
X193381228Y-79927255D02*
X193352657Y-79870112D01*
X193352657Y-79870112D02*
X193324085Y-79841541D01*
X193324085Y-79841541D02*
X193266942Y-79812969D01*
X193266942Y-79812969D02*
X193124085Y-79812969D01*
X193124085Y-79812969D02*
X193066942Y-79841541D01*
X193066942Y-79841541D02*
X193038371Y-79870112D01*
X193038371Y-79870112D02*
X193009800Y-79927255D01*
X193009800Y-79927255D02*
X193009800Y-80041541D01*
X193009800Y-80041541D02*
X193038371Y-80098684D01*
X193038371Y-80098684D02*
X193066942Y-80127255D01*
X193066942Y-80127255D02*
X193124085Y-80155826D01*
X184681228Y-70741541D02*
X185281228Y-70741541D01*
X185281228Y-70741541D02*
X185281228Y-70970112D01*
X185281228Y-70970112D02*
X185252657Y-71027255D01*
X185252657Y-71027255D02*
X185224085Y-71055826D01*
X185224085Y-71055826D02*
X185166942Y-71084398D01*
X185166942Y-71084398D02*
X185081228Y-71084398D01*
X185081228Y-71084398D02*
X185024085Y-71055826D01*
X185024085Y-71055826D02*
X184995514Y-71027255D01*
X184995514Y-71027255D02*
X184966942Y-70970112D01*
X184966942Y-70970112D02*
X184966942Y-70741541D01*
X184995514Y-71541541D02*
X184966942Y-71627255D01*
X184966942Y-71627255D02*
X184938371Y-71655826D01*
X184938371Y-71655826D02*
X184881228Y-71684398D01*
X184881228Y-71684398D02*
X184795514Y-71684398D01*
X184795514Y-71684398D02*
X184738371Y-71655826D01*
X184738371Y-71655826D02*
X184709800Y-71627255D01*
X184709800Y-71627255D02*
X184681228Y-71570112D01*
X184681228Y-71570112D02*
X184681228Y-71341541D01*
X184681228Y-71341541D02*
X185281228Y-71341541D01*
X185281228Y-71341541D02*
X185281228Y-71541541D01*
X185281228Y-71541541D02*
X185252657Y-71598684D01*
X185252657Y-71598684D02*
X185224085Y-71627255D01*
X185224085Y-71627255D02*
X185166942Y-71655826D01*
X185166942Y-71655826D02*
X185109800Y-71655826D01*
X185109800Y-71655826D02*
X185052657Y-71627255D01*
X185052657Y-71627255D02*
X185024085Y-71598684D01*
X185024085Y-71598684D02*
X184995514Y-71541541D01*
X184995514Y-71541541D02*
X184995514Y-71341541D01*
X184681228Y-72255826D02*
X184681228Y-71912969D01*
X184681228Y-72084398D02*
X185281228Y-72084398D01*
X185281228Y-72084398D02*
X185195514Y-72027255D01*
X185195514Y-72027255D02*
X185138371Y-71970112D01*
X185138371Y-71970112D02*
X185109800Y-71912969D01*
X184681228Y-72827255D02*
X184681228Y-72484398D01*
X184681228Y-72655827D02*
X185281228Y-72655827D01*
X185281228Y-72655827D02*
X185195514Y-72598684D01*
X185195514Y-72598684D02*
X185138371Y-72541541D01*
X185138371Y-72541541D02*
X185109800Y-72484398D01*
X192581228Y-62641541D02*
X193181228Y-62641541D01*
X193181228Y-62641541D02*
X193181228Y-62870112D01*
X193181228Y-62870112D02*
X193152657Y-62927255D01*
X193152657Y-62927255D02*
X193124085Y-62955826D01*
X193124085Y-62955826D02*
X193066942Y-62984398D01*
X193066942Y-62984398D02*
X192981228Y-62984398D01*
X192981228Y-62984398D02*
X192924085Y-62955826D01*
X192924085Y-62955826D02*
X192895514Y-62927255D01*
X192895514Y-62927255D02*
X192866942Y-62870112D01*
X192866942Y-62870112D02*
X192866942Y-62641541D01*
X192895514Y-63441541D02*
X192866942Y-63527255D01*
X192866942Y-63527255D02*
X192838371Y-63555826D01*
X192838371Y-63555826D02*
X192781228Y-63584398D01*
X192781228Y-63584398D02*
X192695514Y-63584398D01*
X192695514Y-63584398D02*
X192638371Y-63555826D01*
X192638371Y-63555826D02*
X192609800Y-63527255D01*
X192609800Y-63527255D02*
X192581228Y-63470112D01*
X192581228Y-63470112D02*
X192581228Y-63241541D01*
X192581228Y-63241541D02*
X193181228Y-63241541D01*
X193181228Y-63241541D02*
X193181228Y-63441541D01*
X193181228Y-63441541D02*
X193152657Y-63498684D01*
X193152657Y-63498684D02*
X193124085Y-63527255D01*
X193124085Y-63527255D02*
X193066942Y-63555826D01*
X193066942Y-63555826D02*
X193009800Y-63555826D01*
X193009800Y-63555826D02*
X192952657Y-63527255D01*
X192952657Y-63527255D02*
X192924085Y-63498684D01*
X192924085Y-63498684D02*
X192895514Y-63441541D01*
X192895514Y-63441541D02*
X192895514Y-63241541D01*
X192581228Y-64155826D02*
X192581228Y-63812969D01*
X192581228Y-63984398D02*
X193181228Y-63984398D01*
X193181228Y-63984398D02*
X193095514Y-63927255D01*
X193095514Y-63927255D02*
X193038371Y-63870112D01*
X193038371Y-63870112D02*
X193009800Y-63812969D01*
X193124085Y-64384398D02*
X193152657Y-64412970D01*
X193152657Y-64412970D02*
X193181228Y-64470113D01*
X193181228Y-64470113D02*
X193181228Y-64612970D01*
X193181228Y-64612970D02*
X193152657Y-64670113D01*
X193152657Y-64670113D02*
X193124085Y-64698684D01*
X193124085Y-64698684D02*
X193066942Y-64727255D01*
X193066942Y-64727255D02*
X193009800Y-64727255D01*
X193009800Y-64727255D02*
X192924085Y-64698684D01*
X192924085Y-64698684D02*
X192581228Y-64355827D01*
X192581228Y-64355827D02*
X192581228Y-64727255D01*
D11*
X90865660Y-44651900D02*
G75*
G03*
X88744340Y-44651900I-1060660J0D01*
G01*
X88744340Y-44651900D02*
G75*
G03*
X90865660Y-44651900I1060660J0D01*
G01*
X95423034Y-44651900D02*
G75*
G03*
X93186966Y-44651900I-1118034J0D01*
G01*
X93186966Y-44651900D02*
G75*
G03*
X95423034Y-44651900I1118034J0D01*
G01*
D12*
X90080000Y-46639400D02*
G75*
G03*
X94080000Y-46639400I2000000J2000000D01*
G01*
D13*
X88366666Y-79981400D02*
X88466666Y-80014733D01*
X88466666Y-80014733D02*
X88633333Y-80014733D01*
X88633333Y-80014733D02*
X88699999Y-79981400D01*
X88699999Y-79981400D02*
X88733333Y-79948066D01*
X88733333Y-79948066D02*
X88766666Y-79881400D01*
X88766666Y-79881400D02*
X88766666Y-79814733D01*
X88766666Y-79814733D02*
X88733333Y-79748066D01*
X88733333Y-79748066D02*
X88699999Y-79714733D01*
X88699999Y-79714733D02*
X88633333Y-79681400D01*
X88633333Y-79681400D02*
X88499999Y-79648066D01*
X88499999Y-79648066D02*
X88433333Y-79614733D01*
X88433333Y-79614733D02*
X88399999Y-79581400D01*
X88399999Y-79581400D02*
X88366666Y-79514733D01*
X88366666Y-79514733D02*
X88366666Y-79448066D01*
X88366666Y-79448066D02*
X88399999Y-79381400D01*
X88399999Y-79381400D02*
X88433333Y-79348066D01*
X88433333Y-79348066D02*
X88499999Y-79314733D01*
X88499999Y-79314733D02*
X88666666Y-79314733D01*
X88666666Y-79314733D02*
X88766666Y-79348066D01*
X89000000Y-79314733D02*
X89166666Y-80014733D01*
X89166666Y-80014733D02*
X89300000Y-79514733D01*
X89300000Y-79514733D02*
X89433333Y-80014733D01*
X89433333Y-80014733D02*
X89600000Y-79314733D01*
X89833333Y-79381400D02*
X89866666Y-79348066D01*
X89866666Y-79348066D02*
X89933333Y-79314733D01*
X89933333Y-79314733D02*
X90100000Y-79314733D01*
X90100000Y-79314733D02*
X90166666Y-79348066D01*
X90166666Y-79348066D02*
X90200000Y-79381400D01*
X90200000Y-79381400D02*
X90233333Y-79448066D01*
X90233333Y-79448066D02*
X90233333Y-79514733D01*
X90233333Y-79514733D02*
X90200000Y-79614733D01*
X90200000Y-79614733D02*
X89800000Y-80014733D01*
X89800000Y-80014733D02*
X90233333Y-80014733D01*
X203511666Y-41456633D02*
X203511666Y-40756633D01*
X203511666Y-41089966D02*
X203911666Y-41089966D01*
X203911666Y-41456633D02*
X203911666Y-40756633D01*
X204211666Y-40823300D02*
X204244999Y-40789966D01*
X204244999Y-40789966D02*
X204311666Y-40756633D01*
X204311666Y-40756633D02*
X204478333Y-40756633D01*
X204478333Y-40756633D02*
X204544999Y-40789966D01*
X204544999Y-40789966D02*
X204578333Y-40823300D01*
X204578333Y-40823300D02*
X204611666Y-40889966D01*
X204611666Y-40889966D02*
X204611666Y-40956633D01*
X204611666Y-40956633D02*
X204578333Y-41056633D01*
X204578333Y-41056633D02*
X204178333Y-41456633D01*
X204178333Y-41456633D02*
X204611666Y-41456633D01*
X78916667Y-78206633D02*
X78583333Y-78206633D01*
X78583333Y-78206633D02*
X78583333Y-77506633D01*
X79150000Y-77839966D02*
X79383334Y-77839966D01*
X79483334Y-78206633D02*
X79150000Y-78206633D01*
X79150000Y-78206633D02*
X79150000Y-77506633D01*
X79150000Y-77506633D02*
X79483334Y-77506633D01*
X79783333Y-78206633D02*
X79783333Y-77506633D01*
X79783333Y-77506633D02*
X79950000Y-77506633D01*
X79950000Y-77506633D02*
X80050000Y-77539966D01*
X80050000Y-77539966D02*
X80116667Y-77606633D01*
X80116667Y-77606633D02*
X80150000Y-77673300D01*
X80150000Y-77673300D02*
X80183333Y-77806633D01*
X80183333Y-77806633D02*
X80183333Y-77906633D01*
X80183333Y-77906633D02*
X80150000Y-78039966D01*
X80150000Y-78039966D02*
X80116667Y-78106633D01*
X80116667Y-78106633D02*
X80050000Y-78173300D01*
X80050000Y-78173300D02*
X79950000Y-78206633D01*
X79950000Y-78206633D02*
X79783333Y-78206633D01*
X80850000Y-78206633D02*
X80450000Y-78206633D01*
X80650000Y-78206633D02*
X80650000Y-77506633D01*
X80650000Y-77506633D02*
X80583333Y-77606633D01*
X80583333Y-77606633D02*
X80516667Y-77673300D01*
X80516667Y-77673300D02*
X80450000Y-77706633D01*
X195666666Y-78681400D02*
X195766666Y-78714733D01*
X195766666Y-78714733D02*
X195933333Y-78714733D01*
X195933333Y-78714733D02*
X195999999Y-78681400D01*
X195999999Y-78681400D02*
X196033333Y-78648066D01*
X196033333Y-78648066D02*
X196066666Y-78581400D01*
X196066666Y-78581400D02*
X196066666Y-78514733D01*
X196066666Y-78514733D02*
X196033333Y-78448066D01*
X196033333Y-78448066D02*
X195999999Y-78414733D01*
X195999999Y-78414733D02*
X195933333Y-78381400D01*
X195933333Y-78381400D02*
X195799999Y-78348066D01*
X195799999Y-78348066D02*
X195733333Y-78314733D01*
X195733333Y-78314733D02*
X195699999Y-78281400D01*
X195699999Y-78281400D02*
X195666666Y-78214733D01*
X195666666Y-78214733D02*
X195666666Y-78148066D01*
X195666666Y-78148066D02*
X195699999Y-78081400D01*
X195699999Y-78081400D02*
X195733333Y-78048066D01*
X195733333Y-78048066D02*
X195799999Y-78014733D01*
X195799999Y-78014733D02*
X195966666Y-78014733D01*
X195966666Y-78014733D02*
X196066666Y-78048066D01*
X196300000Y-78014733D02*
X196466666Y-78714733D01*
X196466666Y-78714733D02*
X196600000Y-78214733D01*
X196600000Y-78214733D02*
X196733333Y-78714733D01*
X196733333Y-78714733D02*
X196900000Y-78014733D01*
X197466666Y-78014733D02*
X197333333Y-78014733D01*
X197333333Y-78014733D02*
X197266666Y-78048066D01*
X197266666Y-78048066D02*
X197233333Y-78081400D01*
X197233333Y-78081400D02*
X197166666Y-78181400D01*
X197166666Y-78181400D02*
X197133333Y-78314733D01*
X197133333Y-78314733D02*
X197133333Y-78581400D01*
X197133333Y-78581400D02*
X197166666Y-78648066D01*
X197166666Y-78648066D02*
X197200000Y-78681400D01*
X197200000Y-78681400D02*
X197266666Y-78714733D01*
X197266666Y-78714733D02*
X197400000Y-78714733D01*
X197400000Y-78714733D02*
X197466666Y-78681400D01*
X197466666Y-78681400D02*
X197500000Y-78648066D01*
X197500000Y-78648066D02*
X197533333Y-78581400D01*
X197533333Y-78581400D02*
X197533333Y-78414733D01*
X197533333Y-78414733D02*
X197500000Y-78348066D01*
X197500000Y-78348066D02*
X197466666Y-78314733D01*
X197466666Y-78314733D02*
X197400000Y-78281400D01*
X197400000Y-78281400D02*
X197266666Y-78281400D01*
X197266666Y-78281400D02*
X197200000Y-78314733D01*
X197200000Y-78314733D02*
X197166666Y-78348066D01*
X197166666Y-78348066D02*
X197133333Y-78414733D01*
X78929167Y-87184733D02*
X78595833Y-87184733D01*
X78595833Y-87184733D02*
X78595833Y-86484733D01*
X79162500Y-86818066D02*
X79395834Y-86818066D01*
X79495834Y-87184733D02*
X79162500Y-87184733D01*
X79162500Y-87184733D02*
X79162500Y-86484733D01*
X79162500Y-86484733D02*
X79495834Y-86484733D01*
X79795833Y-87184733D02*
X79795833Y-86484733D01*
X79795833Y-86484733D02*
X79962500Y-86484733D01*
X79962500Y-86484733D02*
X80062500Y-86518066D01*
X80062500Y-86518066D02*
X80129167Y-86584733D01*
X80129167Y-86584733D02*
X80162500Y-86651400D01*
X80162500Y-86651400D02*
X80195833Y-86784733D01*
X80195833Y-86784733D02*
X80195833Y-86884733D01*
X80195833Y-86884733D02*
X80162500Y-87018066D01*
X80162500Y-87018066D02*
X80129167Y-87084733D01*
X80129167Y-87084733D02*
X80062500Y-87151400D01*
X80062500Y-87151400D02*
X79962500Y-87184733D01*
X79962500Y-87184733D02*
X79795833Y-87184733D01*
X80795833Y-86718066D02*
X80795833Y-87184733D01*
X80629167Y-86451400D02*
X80462500Y-86951400D01*
X80462500Y-86951400D02*
X80895833Y-86951400D01*
X78929167Y-84184733D02*
X78595833Y-84184733D01*
X78595833Y-84184733D02*
X78595833Y-83484733D01*
X79162500Y-83818066D02*
X79395834Y-83818066D01*
X79495834Y-84184733D02*
X79162500Y-84184733D01*
X79162500Y-84184733D02*
X79162500Y-83484733D01*
X79162500Y-83484733D02*
X79495834Y-83484733D01*
X79795833Y-84184733D02*
X79795833Y-83484733D01*
X79795833Y-83484733D02*
X79962500Y-83484733D01*
X79962500Y-83484733D02*
X80062500Y-83518066D01*
X80062500Y-83518066D02*
X80129167Y-83584733D01*
X80129167Y-83584733D02*
X80162500Y-83651400D01*
X80162500Y-83651400D02*
X80195833Y-83784733D01*
X80195833Y-83784733D02*
X80195833Y-83884733D01*
X80195833Y-83884733D02*
X80162500Y-84018066D01*
X80162500Y-84018066D02*
X80129167Y-84084733D01*
X80129167Y-84084733D02*
X80062500Y-84151400D01*
X80062500Y-84151400D02*
X79962500Y-84184733D01*
X79962500Y-84184733D02*
X79795833Y-84184733D01*
X80429167Y-83484733D02*
X80862500Y-83484733D01*
X80862500Y-83484733D02*
X80629167Y-83751400D01*
X80629167Y-83751400D02*
X80729167Y-83751400D01*
X80729167Y-83751400D02*
X80795833Y-83784733D01*
X80795833Y-83784733D02*
X80829167Y-83818066D01*
X80829167Y-83818066D02*
X80862500Y-83884733D01*
X80862500Y-83884733D02*
X80862500Y-84051400D01*
X80862500Y-84051400D02*
X80829167Y-84118066D01*
X80829167Y-84118066D02*
X80795833Y-84151400D01*
X80795833Y-84151400D02*
X80729167Y-84184733D01*
X80729167Y-84184733D02*
X80529167Y-84184733D01*
X80529167Y-84184733D02*
X80462500Y-84151400D01*
X80462500Y-84151400D02*
X80429167Y-84118066D01*
X78916667Y-81206633D02*
X78583333Y-81206633D01*
X78583333Y-81206633D02*
X78583333Y-80506633D01*
X79150000Y-80839966D02*
X79383334Y-80839966D01*
X79483334Y-81206633D02*
X79150000Y-81206633D01*
X79150000Y-81206633D02*
X79150000Y-80506633D01*
X79150000Y-80506633D02*
X79483334Y-80506633D01*
X79783333Y-81206633D02*
X79783333Y-80506633D01*
X79783333Y-80506633D02*
X79950000Y-80506633D01*
X79950000Y-80506633D02*
X80050000Y-80539966D01*
X80050000Y-80539966D02*
X80116667Y-80606633D01*
X80116667Y-80606633D02*
X80150000Y-80673300D01*
X80150000Y-80673300D02*
X80183333Y-80806633D01*
X80183333Y-80806633D02*
X80183333Y-80906633D01*
X80183333Y-80906633D02*
X80150000Y-81039966D01*
X80150000Y-81039966D02*
X80116667Y-81106633D01*
X80116667Y-81106633D02*
X80050000Y-81173300D01*
X80050000Y-81173300D02*
X79950000Y-81206633D01*
X79950000Y-81206633D02*
X79783333Y-81206633D01*
X80450000Y-80573300D02*
X80483333Y-80539966D01*
X80483333Y-80539966D02*
X80550000Y-80506633D01*
X80550000Y-80506633D02*
X80716667Y-80506633D01*
X80716667Y-80506633D02*
X80783333Y-80539966D01*
X80783333Y-80539966D02*
X80816667Y-80573300D01*
X80816667Y-80573300D02*
X80850000Y-80639966D01*
X80850000Y-80639966D02*
X80850000Y-80706633D01*
X80850000Y-80706633D02*
X80816667Y-80806633D01*
X80816667Y-80806633D02*
X80416667Y-81206633D01*
X80416667Y-81206633D02*
X80850000Y-81206633D01*
X81011666Y-41456633D02*
X81011666Y-40756633D01*
X81011666Y-41089966D02*
X81411666Y-41089966D01*
X81411666Y-41456633D02*
X81411666Y-40756633D01*
X82111666Y-41456633D02*
X81711666Y-41456633D01*
X81911666Y-41456633D02*
X81911666Y-40756633D01*
X81911666Y-40756633D02*
X81844999Y-40856633D01*
X81844999Y-40856633D02*
X81778333Y-40923300D01*
X81778333Y-40923300D02*
X81711666Y-40956633D01*
X154881666Y-102186633D02*
X154881666Y-102686633D01*
X154881666Y-102686633D02*
X154848333Y-102786633D01*
X154848333Y-102786633D02*
X154781666Y-102853300D01*
X154781666Y-102853300D02*
X154681666Y-102886633D01*
X154681666Y-102886633D02*
X154615000Y-102886633D01*
X155514999Y-102186633D02*
X155381666Y-102186633D01*
X155381666Y-102186633D02*
X155314999Y-102219966D01*
X155314999Y-102219966D02*
X155281666Y-102253300D01*
X155281666Y-102253300D02*
X155214999Y-102353300D01*
X155214999Y-102353300D02*
X155181666Y-102486633D01*
X155181666Y-102486633D02*
X155181666Y-102753300D01*
X155181666Y-102753300D02*
X155214999Y-102819966D01*
X155214999Y-102819966D02*
X155248333Y-102853300D01*
X155248333Y-102853300D02*
X155314999Y-102886633D01*
X155314999Y-102886633D02*
X155448333Y-102886633D01*
X155448333Y-102886633D02*
X155514999Y-102853300D01*
X155514999Y-102853300D02*
X155548333Y-102819966D01*
X155548333Y-102819966D02*
X155581666Y-102753300D01*
X155581666Y-102753300D02*
X155581666Y-102586633D01*
X155581666Y-102586633D02*
X155548333Y-102519966D01*
X155548333Y-102519966D02*
X155514999Y-102486633D01*
X155514999Y-102486633D02*
X155448333Y-102453300D01*
X155448333Y-102453300D02*
X155314999Y-102453300D01*
X155314999Y-102453300D02*
X155248333Y-102486633D01*
X155248333Y-102486633D02*
X155214999Y-102519966D01*
X155214999Y-102519966D02*
X155181666Y-102586633D01*
X162491666Y-102226633D02*
X162491666Y-102726633D01*
X162491666Y-102726633D02*
X162458333Y-102826633D01*
X162458333Y-102826633D02*
X162391666Y-102893300D01*
X162391666Y-102893300D02*
X162291666Y-102926633D01*
X162291666Y-102926633D02*
X162225000Y-102926633D01*
X162924999Y-102526633D02*
X162858333Y-102493300D01*
X162858333Y-102493300D02*
X162824999Y-102459966D01*
X162824999Y-102459966D02*
X162791666Y-102393300D01*
X162791666Y-102393300D02*
X162791666Y-102359966D01*
X162791666Y-102359966D02*
X162824999Y-102293300D01*
X162824999Y-102293300D02*
X162858333Y-102259966D01*
X162858333Y-102259966D02*
X162924999Y-102226633D01*
X162924999Y-102226633D02*
X163058333Y-102226633D01*
X163058333Y-102226633D02*
X163124999Y-102259966D01*
X163124999Y-102259966D02*
X163158333Y-102293300D01*
X163158333Y-102293300D02*
X163191666Y-102359966D01*
X163191666Y-102359966D02*
X163191666Y-102393300D01*
X163191666Y-102393300D02*
X163158333Y-102459966D01*
X163158333Y-102459966D02*
X163124999Y-102493300D01*
X163124999Y-102493300D02*
X163058333Y-102526633D01*
X163058333Y-102526633D02*
X162924999Y-102526633D01*
X162924999Y-102526633D02*
X162858333Y-102559966D01*
X162858333Y-102559966D02*
X162824999Y-102593300D01*
X162824999Y-102593300D02*
X162791666Y-102659966D01*
X162791666Y-102659966D02*
X162791666Y-102793300D01*
X162791666Y-102793300D02*
X162824999Y-102859966D01*
X162824999Y-102859966D02*
X162858333Y-102893300D01*
X162858333Y-102893300D02*
X162924999Y-102926633D01*
X162924999Y-102926633D02*
X163058333Y-102926633D01*
X163058333Y-102926633D02*
X163124999Y-102893300D01*
X163124999Y-102893300D02*
X163158333Y-102859966D01*
X163158333Y-102859966D02*
X163191666Y-102793300D01*
X163191666Y-102793300D02*
X163191666Y-102659966D01*
X163191666Y-102659966D02*
X163158333Y-102593300D01*
X163158333Y-102593300D02*
X163124999Y-102559966D01*
X163124999Y-102559966D02*
X163058333Y-102526633D01*
X203866666Y-71881400D02*
X203966666Y-71914733D01*
X203966666Y-71914733D02*
X204133333Y-71914733D01*
X204133333Y-71914733D02*
X204199999Y-71881400D01*
X204199999Y-71881400D02*
X204233333Y-71848066D01*
X204233333Y-71848066D02*
X204266666Y-71781400D01*
X204266666Y-71781400D02*
X204266666Y-71714733D01*
X204266666Y-71714733D02*
X204233333Y-71648066D01*
X204233333Y-71648066D02*
X204199999Y-71614733D01*
X204199999Y-71614733D02*
X204133333Y-71581400D01*
X204133333Y-71581400D02*
X203999999Y-71548066D01*
X203999999Y-71548066D02*
X203933333Y-71514733D01*
X203933333Y-71514733D02*
X203899999Y-71481400D01*
X203899999Y-71481400D02*
X203866666Y-71414733D01*
X203866666Y-71414733D02*
X203866666Y-71348066D01*
X203866666Y-71348066D02*
X203899999Y-71281400D01*
X203899999Y-71281400D02*
X203933333Y-71248066D01*
X203933333Y-71248066D02*
X203999999Y-71214733D01*
X203999999Y-71214733D02*
X204166666Y-71214733D01*
X204166666Y-71214733D02*
X204266666Y-71248066D01*
X204500000Y-71214733D02*
X204666666Y-71914733D01*
X204666666Y-71914733D02*
X204800000Y-71414733D01*
X204800000Y-71414733D02*
X204933333Y-71914733D01*
X204933333Y-71914733D02*
X205100000Y-71214733D01*
X205300000Y-71214733D02*
X205766666Y-71214733D01*
X205766666Y-71214733D02*
X205466666Y-71914733D01*
X89933333Y-53581400D02*
X90033333Y-53614733D01*
X90033333Y-53614733D02*
X90200000Y-53614733D01*
X90200000Y-53614733D02*
X90266666Y-53581400D01*
X90266666Y-53581400D02*
X90300000Y-53548066D01*
X90300000Y-53548066D02*
X90333333Y-53481400D01*
X90333333Y-53481400D02*
X90333333Y-53414733D01*
X90333333Y-53414733D02*
X90300000Y-53348066D01*
X90300000Y-53348066D02*
X90266666Y-53314733D01*
X90266666Y-53314733D02*
X90200000Y-53281400D01*
X90200000Y-53281400D02*
X90066666Y-53248066D01*
X90066666Y-53248066D02*
X90000000Y-53214733D01*
X90000000Y-53214733D02*
X89966666Y-53181400D01*
X89966666Y-53181400D02*
X89933333Y-53114733D01*
X89933333Y-53114733D02*
X89933333Y-53048066D01*
X89933333Y-53048066D02*
X89966666Y-52981400D01*
X89966666Y-52981400D02*
X90000000Y-52948066D01*
X90000000Y-52948066D02*
X90066666Y-52914733D01*
X90066666Y-52914733D02*
X90233333Y-52914733D01*
X90233333Y-52914733D02*
X90333333Y-52948066D01*
X90566667Y-52914733D02*
X90733333Y-53614733D01*
X90733333Y-53614733D02*
X90866667Y-53114733D01*
X90866667Y-53114733D02*
X91000000Y-53614733D01*
X91000000Y-53614733D02*
X91166667Y-52914733D01*
X91800000Y-53614733D02*
X91400000Y-53614733D01*
X91600000Y-53614733D02*
X91600000Y-52914733D01*
X91600000Y-52914733D02*
X91533333Y-53014733D01*
X91533333Y-53014733D02*
X91466667Y-53081400D01*
X91466667Y-53081400D02*
X91400000Y-53114733D01*
X92466667Y-53614733D02*
X92066667Y-53614733D01*
X92266667Y-53614733D02*
X92266667Y-52914733D01*
X92266667Y-52914733D02*
X92200000Y-53014733D01*
X92200000Y-53014733D02*
X92133334Y-53081400D01*
X92133334Y-53081400D02*
X92066667Y-53114733D01*
X96466666Y-71881400D02*
X96566666Y-71914733D01*
X96566666Y-71914733D02*
X96733333Y-71914733D01*
X96733333Y-71914733D02*
X96799999Y-71881400D01*
X96799999Y-71881400D02*
X96833333Y-71848066D01*
X96833333Y-71848066D02*
X96866666Y-71781400D01*
X96866666Y-71781400D02*
X96866666Y-71714733D01*
X96866666Y-71714733D02*
X96833333Y-71648066D01*
X96833333Y-71648066D02*
X96799999Y-71614733D01*
X96799999Y-71614733D02*
X96733333Y-71581400D01*
X96733333Y-71581400D02*
X96599999Y-71548066D01*
X96599999Y-71548066D02*
X96533333Y-71514733D01*
X96533333Y-71514733D02*
X96499999Y-71481400D01*
X96499999Y-71481400D02*
X96466666Y-71414733D01*
X96466666Y-71414733D02*
X96466666Y-71348066D01*
X96466666Y-71348066D02*
X96499999Y-71281400D01*
X96499999Y-71281400D02*
X96533333Y-71248066D01*
X96533333Y-71248066D02*
X96599999Y-71214733D01*
X96599999Y-71214733D02*
X96766666Y-71214733D01*
X96766666Y-71214733D02*
X96866666Y-71248066D01*
X97100000Y-71214733D02*
X97266666Y-71914733D01*
X97266666Y-71914733D02*
X97400000Y-71414733D01*
X97400000Y-71414733D02*
X97533333Y-71914733D01*
X97533333Y-71914733D02*
X97700000Y-71214733D01*
X98266666Y-71448066D02*
X98266666Y-71914733D01*
X98100000Y-71181400D02*
X97933333Y-71681400D01*
X97933333Y-71681400D02*
X98366666Y-71681400D01*
X85866666Y-69214733D02*
X85866666Y-69781400D01*
X85866666Y-69781400D02*
X85900000Y-69848066D01*
X85900000Y-69848066D02*
X85933333Y-69881400D01*
X85933333Y-69881400D02*
X86000000Y-69914733D01*
X86000000Y-69914733D02*
X86133333Y-69914733D01*
X86133333Y-69914733D02*
X86200000Y-69881400D01*
X86200000Y-69881400D02*
X86233333Y-69848066D01*
X86233333Y-69848066D02*
X86266666Y-69781400D01*
X86266666Y-69781400D02*
X86266666Y-69214733D01*
X86699999Y-69514733D02*
X86633333Y-69481400D01*
X86633333Y-69481400D02*
X86599999Y-69448066D01*
X86599999Y-69448066D02*
X86566666Y-69381400D01*
X86566666Y-69381400D02*
X86566666Y-69348066D01*
X86566666Y-69348066D02*
X86599999Y-69281400D01*
X86599999Y-69281400D02*
X86633333Y-69248066D01*
X86633333Y-69248066D02*
X86699999Y-69214733D01*
X86699999Y-69214733D02*
X86833333Y-69214733D01*
X86833333Y-69214733D02*
X86899999Y-69248066D01*
X86899999Y-69248066D02*
X86933333Y-69281400D01*
X86933333Y-69281400D02*
X86966666Y-69348066D01*
X86966666Y-69348066D02*
X86966666Y-69381400D01*
X86966666Y-69381400D02*
X86933333Y-69448066D01*
X86933333Y-69448066D02*
X86899999Y-69481400D01*
X86899999Y-69481400D02*
X86833333Y-69514733D01*
X86833333Y-69514733D02*
X86699999Y-69514733D01*
X86699999Y-69514733D02*
X86633333Y-69548066D01*
X86633333Y-69548066D02*
X86599999Y-69581400D01*
X86599999Y-69581400D02*
X86566666Y-69648066D01*
X86566666Y-69648066D02*
X86566666Y-69781400D01*
X86566666Y-69781400D02*
X86599999Y-69848066D01*
X86599999Y-69848066D02*
X86633333Y-69881400D01*
X86633333Y-69881400D02*
X86699999Y-69914733D01*
X86699999Y-69914733D02*
X86833333Y-69914733D01*
X86833333Y-69914733D02*
X86899999Y-69881400D01*
X86899999Y-69881400D02*
X86933333Y-69848066D01*
X86933333Y-69848066D02*
X86966666Y-69781400D01*
X86966666Y-69781400D02*
X86966666Y-69648066D01*
X86966666Y-69648066D02*
X86933333Y-69581400D01*
X86933333Y-69581400D02*
X86899999Y-69548066D01*
X86899999Y-69548066D02*
X86833333Y-69514733D01*
X94550000Y-91114733D02*
X94216666Y-91114733D01*
X94216666Y-91114733D02*
X94216666Y-90414733D01*
X94750000Y-91081400D02*
X94850000Y-91114733D01*
X94850000Y-91114733D02*
X95016667Y-91114733D01*
X95016667Y-91114733D02*
X95083333Y-91081400D01*
X95083333Y-91081400D02*
X95116667Y-91048066D01*
X95116667Y-91048066D02*
X95150000Y-90981400D01*
X95150000Y-90981400D02*
X95150000Y-90914733D01*
X95150000Y-90914733D02*
X95116667Y-90848066D01*
X95116667Y-90848066D02*
X95083333Y-90814733D01*
X95083333Y-90814733D02*
X95016667Y-90781400D01*
X95016667Y-90781400D02*
X94883333Y-90748066D01*
X94883333Y-90748066D02*
X94816667Y-90714733D01*
X94816667Y-90714733D02*
X94783333Y-90681400D01*
X94783333Y-90681400D02*
X94750000Y-90614733D01*
X94750000Y-90614733D02*
X94750000Y-90548066D01*
X94750000Y-90548066D02*
X94783333Y-90481400D01*
X94783333Y-90481400D02*
X94816667Y-90448066D01*
X94816667Y-90448066D02*
X94883333Y-90414733D01*
X94883333Y-90414733D02*
X95050000Y-90414733D01*
X95050000Y-90414733D02*
X95150000Y-90448066D01*
X95416667Y-90481400D02*
X95450000Y-90448066D01*
X95450000Y-90448066D02*
X95516667Y-90414733D01*
X95516667Y-90414733D02*
X95683334Y-90414733D01*
X95683334Y-90414733D02*
X95750000Y-90448066D01*
X95750000Y-90448066D02*
X95783334Y-90481400D01*
X95783334Y-90481400D02*
X95816667Y-90548066D01*
X95816667Y-90548066D02*
X95816667Y-90614733D01*
X95816667Y-90614733D02*
X95783334Y-90714733D01*
X95783334Y-90714733D02*
X95383334Y-91114733D01*
X95383334Y-91114733D02*
X95816667Y-91114733D01*
D10*
X101071085Y-84998561D02*
X101071085Y-84234059D01*
X101064827Y-99781884D02*
X101064827Y-99018114D01*
X101446712Y-99399999D02*
X100682942Y-99399999D01*
D13*
X88266666Y-63881400D02*
X88366666Y-63914733D01*
X88366666Y-63914733D02*
X88533333Y-63914733D01*
X88533333Y-63914733D02*
X88599999Y-63881400D01*
X88599999Y-63881400D02*
X88633333Y-63848066D01*
X88633333Y-63848066D02*
X88666666Y-63781400D01*
X88666666Y-63781400D02*
X88666666Y-63714733D01*
X88666666Y-63714733D02*
X88633333Y-63648066D01*
X88633333Y-63648066D02*
X88599999Y-63614733D01*
X88599999Y-63614733D02*
X88533333Y-63581400D01*
X88533333Y-63581400D02*
X88399999Y-63548066D01*
X88399999Y-63548066D02*
X88333333Y-63514733D01*
X88333333Y-63514733D02*
X88299999Y-63481400D01*
X88299999Y-63481400D02*
X88266666Y-63414733D01*
X88266666Y-63414733D02*
X88266666Y-63348066D01*
X88266666Y-63348066D02*
X88299999Y-63281400D01*
X88299999Y-63281400D02*
X88333333Y-63248066D01*
X88333333Y-63248066D02*
X88399999Y-63214733D01*
X88399999Y-63214733D02*
X88566666Y-63214733D01*
X88566666Y-63214733D02*
X88666666Y-63248066D01*
X88900000Y-63214733D02*
X89066666Y-63914733D01*
X89066666Y-63914733D02*
X89200000Y-63414733D01*
X89200000Y-63414733D02*
X89333333Y-63914733D01*
X89333333Y-63914733D02*
X89500000Y-63214733D01*
X90133333Y-63914733D02*
X89733333Y-63914733D01*
X89933333Y-63914733D02*
X89933333Y-63214733D01*
X89933333Y-63214733D02*
X89866666Y-63314733D01*
X89866666Y-63314733D02*
X89800000Y-63381400D01*
X89800000Y-63381400D02*
X89733333Y-63414733D01*
X180714733Y-95250000D02*
X180714733Y-95583333D01*
X180714733Y-95583333D02*
X180014733Y-95583333D01*
X180681400Y-95049999D02*
X180714733Y-94949999D01*
X180714733Y-94949999D02*
X180714733Y-94783333D01*
X180714733Y-94783333D02*
X180681400Y-94716666D01*
X180681400Y-94716666D02*
X180648066Y-94683333D01*
X180648066Y-94683333D02*
X180581400Y-94649999D01*
X180581400Y-94649999D02*
X180514733Y-94649999D01*
X180514733Y-94649999D02*
X180448066Y-94683333D01*
X180448066Y-94683333D02*
X180414733Y-94716666D01*
X180414733Y-94716666D02*
X180381400Y-94783333D01*
X180381400Y-94783333D02*
X180348066Y-94916666D01*
X180348066Y-94916666D02*
X180314733Y-94983333D01*
X180314733Y-94983333D02*
X180281400Y-95016666D01*
X180281400Y-95016666D02*
X180214733Y-95049999D01*
X180214733Y-95049999D02*
X180148066Y-95049999D01*
X180148066Y-95049999D02*
X180081400Y-95016666D01*
X180081400Y-95016666D02*
X180048066Y-94983333D01*
X180048066Y-94983333D02*
X180014733Y-94916666D01*
X180014733Y-94916666D02*
X180014733Y-94749999D01*
X180014733Y-94749999D02*
X180048066Y-94649999D01*
X180714733Y-93983332D02*
X180714733Y-94383332D01*
X180714733Y-94183332D02*
X180014733Y-94183332D01*
X180014733Y-94183332D02*
X180114733Y-94249999D01*
X180114733Y-94249999D02*
X180181400Y-94316666D01*
X180181400Y-94316666D02*
X180214733Y-94383332D01*
D10*
X184274067Y-85181884D02*
X184274067Y-84418114D01*
X184655952Y-84799999D02*
X183892182Y-84799999D01*
X184674145Y-100049741D02*
X184674145Y-99285239D01*
D13*
X198466666Y-73414733D02*
X198466666Y-73981400D01*
X198466666Y-73981400D02*
X198500000Y-74048066D01*
X198500000Y-74048066D02*
X198533333Y-74081400D01*
X198533333Y-74081400D02*
X198600000Y-74114733D01*
X198600000Y-74114733D02*
X198733333Y-74114733D01*
X198733333Y-74114733D02*
X198800000Y-74081400D01*
X198800000Y-74081400D02*
X198833333Y-74048066D01*
X198833333Y-74048066D02*
X198866666Y-73981400D01*
X198866666Y-73981400D02*
X198866666Y-73414733D01*
X199233333Y-74114733D02*
X199366666Y-74114733D01*
X199366666Y-74114733D02*
X199433333Y-74081400D01*
X199433333Y-74081400D02*
X199466666Y-74048066D01*
X199466666Y-74048066D02*
X199533333Y-73948066D01*
X199533333Y-73948066D02*
X199566666Y-73814733D01*
X199566666Y-73814733D02*
X199566666Y-73548066D01*
X199566666Y-73548066D02*
X199533333Y-73481400D01*
X199533333Y-73481400D02*
X199499999Y-73448066D01*
X199499999Y-73448066D02*
X199433333Y-73414733D01*
X199433333Y-73414733D02*
X199299999Y-73414733D01*
X199299999Y-73414733D02*
X199233333Y-73448066D01*
X199233333Y-73448066D02*
X199199999Y-73481400D01*
X199199999Y-73481400D02*
X199166666Y-73548066D01*
X199166666Y-73548066D02*
X199166666Y-73714733D01*
X199166666Y-73714733D02*
X199199999Y-73781400D01*
X199199999Y-73781400D02*
X199233333Y-73814733D01*
X199233333Y-73814733D02*
X199299999Y-73848066D01*
X199299999Y-73848066D02*
X199433333Y-73848066D01*
X199433333Y-73848066D02*
X199499999Y-73814733D01*
X199499999Y-73814733D02*
X199533333Y-73781400D01*
X199533333Y-73781400D02*
X199566666Y-73714733D01*
X195284166Y-62385800D02*
X195384166Y-62419133D01*
X195384166Y-62419133D02*
X195550833Y-62419133D01*
X195550833Y-62419133D02*
X195617499Y-62385800D01*
X195617499Y-62385800D02*
X195650833Y-62352466D01*
X195650833Y-62352466D02*
X195684166Y-62285800D01*
X195684166Y-62285800D02*
X195684166Y-62219133D01*
X195684166Y-62219133D02*
X195650833Y-62152466D01*
X195650833Y-62152466D02*
X195617499Y-62119133D01*
X195617499Y-62119133D02*
X195550833Y-62085800D01*
X195550833Y-62085800D02*
X195417499Y-62052466D01*
X195417499Y-62052466D02*
X195350833Y-62019133D01*
X195350833Y-62019133D02*
X195317499Y-61985800D01*
X195317499Y-61985800D02*
X195284166Y-61919133D01*
X195284166Y-61919133D02*
X195284166Y-61852466D01*
X195284166Y-61852466D02*
X195317499Y-61785800D01*
X195317499Y-61785800D02*
X195350833Y-61752466D01*
X195350833Y-61752466D02*
X195417499Y-61719133D01*
X195417499Y-61719133D02*
X195584166Y-61719133D01*
X195584166Y-61719133D02*
X195684166Y-61752466D01*
X195917500Y-61719133D02*
X196084166Y-62419133D01*
X196084166Y-62419133D02*
X196217500Y-61919133D01*
X196217500Y-61919133D02*
X196350833Y-62419133D01*
X196350833Y-62419133D02*
X196517500Y-61719133D01*
X196817500Y-62419133D02*
X196950833Y-62419133D01*
X196950833Y-62419133D02*
X197017500Y-62385800D01*
X197017500Y-62385800D02*
X197050833Y-62352466D01*
X197050833Y-62352466D02*
X197117500Y-62252466D01*
X197117500Y-62252466D02*
X197150833Y-62119133D01*
X197150833Y-62119133D02*
X197150833Y-61852466D01*
X197150833Y-61852466D02*
X197117500Y-61785800D01*
X197117500Y-61785800D02*
X197084166Y-61752466D01*
X197084166Y-61752466D02*
X197017500Y-61719133D01*
X197017500Y-61719133D02*
X196884166Y-61719133D01*
X196884166Y-61719133D02*
X196817500Y-61752466D01*
X196817500Y-61752466D02*
X196784166Y-61785800D01*
X196784166Y-61785800D02*
X196750833Y-61852466D01*
X196750833Y-61852466D02*
X196750833Y-62019133D01*
X196750833Y-62019133D02*
X196784166Y-62085800D01*
X196784166Y-62085800D02*
X196817500Y-62119133D01*
X196817500Y-62119133D02*
X196884166Y-62152466D01*
X196884166Y-62152466D02*
X197017500Y-62152466D01*
X197017500Y-62152466D02*
X197084166Y-62119133D01*
X197084166Y-62119133D02*
X197117500Y-62085800D01*
X197117500Y-62085800D02*
X197150833Y-62019133D01*
X203511666Y-90456633D02*
X203511666Y-89756633D01*
X203511666Y-90089966D02*
X203911666Y-90089966D01*
X203911666Y-90456633D02*
X203911666Y-89756633D01*
X204544999Y-89989966D02*
X204544999Y-90456633D01*
X204378333Y-89723300D02*
X204211666Y-90223300D01*
X204211666Y-90223300D02*
X204644999Y-90223300D01*
X111164266Y-41237833D02*
X111164266Y-41804500D01*
X111164266Y-41804500D02*
X111197600Y-41871166D01*
X111197600Y-41871166D02*
X111230933Y-41904500D01*
X111230933Y-41904500D02*
X111297600Y-41937833D01*
X111297600Y-41937833D02*
X111430933Y-41937833D01*
X111430933Y-41937833D02*
X111497600Y-41904500D01*
X111497600Y-41904500D02*
X111530933Y-41871166D01*
X111530933Y-41871166D02*
X111564266Y-41804500D01*
X111564266Y-41804500D02*
X111564266Y-41237833D01*
X111830933Y-41237833D02*
X112264266Y-41237833D01*
X112264266Y-41237833D02*
X112030933Y-41504500D01*
X112030933Y-41504500D02*
X112130933Y-41504500D01*
X112130933Y-41504500D02*
X112197599Y-41537833D01*
X112197599Y-41537833D02*
X112230933Y-41571166D01*
X112230933Y-41571166D02*
X112264266Y-41637833D01*
X112264266Y-41637833D02*
X112264266Y-41804500D01*
X112264266Y-41804500D02*
X112230933Y-41871166D01*
X112230933Y-41871166D02*
X112197599Y-41904500D01*
X112197599Y-41904500D02*
X112130933Y-41937833D01*
X112130933Y-41937833D02*
X111930933Y-41937833D01*
X111930933Y-41937833D02*
X111864266Y-41904500D01*
X111864266Y-41904500D02*
X111830933Y-41871166D01*
X187466666Y-72081400D02*
X187566666Y-72114733D01*
X187566666Y-72114733D02*
X187733333Y-72114733D01*
X187733333Y-72114733D02*
X187799999Y-72081400D01*
X187799999Y-72081400D02*
X187833333Y-72048066D01*
X187833333Y-72048066D02*
X187866666Y-71981400D01*
X187866666Y-71981400D02*
X187866666Y-71914733D01*
X187866666Y-71914733D02*
X187833333Y-71848066D01*
X187833333Y-71848066D02*
X187799999Y-71814733D01*
X187799999Y-71814733D02*
X187733333Y-71781400D01*
X187733333Y-71781400D02*
X187599999Y-71748066D01*
X187599999Y-71748066D02*
X187533333Y-71714733D01*
X187533333Y-71714733D02*
X187499999Y-71681400D01*
X187499999Y-71681400D02*
X187466666Y-71614733D01*
X187466666Y-71614733D02*
X187466666Y-71548066D01*
X187466666Y-71548066D02*
X187499999Y-71481400D01*
X187499999Y-71481400D02*
X187533333Y-71448066D01*
X187533333Y-71448066D02*
X187599999Y-71414733D01*
X187599999Y-71414733D02*
X187766666Y-71414733D01*
X187766666Y-71414733D02*
X187866666Y-71448066D01*
X188100000Y-71414733D02*
X188266666Y-72114733D01*
X188266666Y-72114733D02*
X188400000Y-71614733D01*
X188400000Y-71614733D02*
X188533333Y-72114733D01*
X188533333Y-72114733D02*
X188700000Y-71414733D01*
X189066666Y-71714733D02*
X189000000Y-71681400D01*
X189000000Y-71681400D02*
X188966666Y-71648066D01*
X188966666Y-71648066D02*
X188933333Y-71581400D01*
X188933333Y-71581400D02*
X188933333Y-71548066D01*
X188933333Y-71548066D02*
X188966666Y-71481400D01*
X188966666Y-71481400D02*
X189000000Y-71448066D01*
X189000000Y-71448066D02*
X189066666Y-71414733D01*
X189066666Y-71414733D02*
X189200000Y-71414733D01*
X189200000Y-71414733D02*
X189266666Y-71448066D01*
X189266666Y-71448066D02*
X189300000Y-71481400D01*
X189300000Y-71481400D02*
X189333333Y-71548066D01*
X189333333Y-71548066D02*
X189333333Y-71581400D01*
X189333333Y-71581400D02*
X189300000Y-71648066D01*
X189300000Y-71648066D02*
X189266666Y-71681400D01*
X189266666Y-71681400D02*
X189200000Y-71714733D01*
X189200000Y-71714733D02*
X189066666Y-71714733D01*
X189066666Y-71714733D02*
X189000000Y-71748066D01*
X189000000Y-71748066D02*
X188966666Y-71781400D01*
X188966666Y-71781400D02*
X188933333Y-71848066D01*
X188933333Y-71848066D02*
X188933333Y-71981400D01*
X188933333Y-71981400D02*
X188966666Y-72048066D01*
X188966666Y-72048066D02*
X189000000Y-72081400D01*
X189000000Y-72081400D02*
X189066666Y-72114733D01*
X189066666Y-72114733D02*
X189200000Y-72114733D01*
X189200000Y-72114733D02*
X189266666Y-72081400D01*
X189266666Y-72081400D02*
X189300000Y-72048066D01*
X189300000Y-72048066D02*
X189333333Y-71981400D01*
X189333333Y-71981400D02*
X189333333Y-71848066D01*
X189333333Y-71848066D02*
X189300000Y-71781400D01*
X189300000Y-71781400D02*
X189266666Y-71748066D01*
X189266666Y-71748066D02*
X189200000Y-71714733D01*
X80166666Y-71981400D02*
X80266666Y-72014733D01*
X80266666Y-72014733D02*
X80433333Y-72014733D01*
X80433333Y-72014733D02*
X80499999Y-71981400D01*
X80499999Y-71981400D02*
X80533333Y-71948066D01*
X80533333Y-71948066D02*
X80566666Y-71881400D01*
X80566666Y-71881400D02*
X80566666Y-71814733D01*
X80566666Y-71814733D02*
X80533333Y-71748066D01*
X80533333Y-71748066D02*
X80499999Y-71714733D01*
X80499999Y-71714733D02*
X80433333Y-71681400D01*
X80433333Y-71681400D02*
X80299999Y-71648066D01*
X80299999Y-71648066D02*
X80233333Y-71614733D01*
X80233333Y-71614733D02*
X80199999Y-71581400D01*
X80199999Y-71581400D02*
X80166666Y-71514733D01*
X80166666Y-71514733D02*
X80166666Y-71448066D01*
X80166666Y-71448066D02*
X80199999Y-71381400D01*
X80199999Y-71381400D02*
X80233333Y-71348066D01*
X80233333Y-71348066D02*
X80299999Y-71314733D01*
X80299999Y-71314733D02*
X80466666Y-71314733D01*
X80466666Y-71314733D02*
X80566666Y-71348066D01*
X80800000Y-71314733D02*
X80966666Y-72014733D01*
X80966666Y-72014733D02*
X81100000Y-71514733D01*
X81100000Y-71514733D02*
X81233333Y-72014733D01*
X81233333Y-72014733D02*
X81400000Y-71314733D01*
X81600000Y-71314733D02*
X82033333Y-71314733D01*
X82033333Y-71314733D02*
X81800000Y-71581400D01*
X81800000Y-71581400D02*
X81900000Y-71581400D01*
X81900000Y-71581400D02*
X81966666Y-71614733D01*
X81966666Y-71614733D02*
X82000000Y-71648066D01*
X82000000Y-71648066D02*
X82033333Y-71714733D01*
X82033333Y-71714733D02*
X82033333Y-71881400D01*
X82033333Y-71881400D02*
X82000000Y-71948066D01*
X82000000Y-71948066D02*
X81966666Y-71981400D01*
X81966666Y-71981400D02*
X81900000Y-72014733D01*
X81900000Y-72014733D02*
X81700000Y-72014733D01*
X81700000Y-72014733D02*
X81633333Y-71981400D01*
X81633333Y-71981400D02*
X81600000Y-71948066D01*
X81011666Y-90456633D02*
X81011666Y-89756633D01*
X81011666Y-90089966D02*
X81411666Y-90089966D01*
X81411666Y-90456633D02*
X81411666Y-89756633D01*
X81678333Y-89756633D02*
X82111666Y-89756633D01*
X82111666Y-89756633D02*
X81878333Y-90023300D01*
X81878333Y-90023300D02*
X81978333Y-90023300D01*
X81978333Y-90023300D02*
X82044999Y-90056633D01*
X82044999Y-90056633D02*
X82078333Y-90089966D01*
X82078333Y-90089966D02*
X82111666Y-90156633D01*
X82111666Y-90156633D02*
X82111666Y-90323300D01*
X82111666Y-90323300D02*
X82078333Y-90389966D01*
X82078333Y-90389966D02*
X82044999Y-90423300D01*
X82044999Y-90423300D02*
X81978333Y-90456633D01*
X81978333Y-90456633D02*
X81778333Y-90456633D01*
X81778333Y-90456633D02*
X81711666Y-90423300D01*
X81711666Y-90423300D02*
X81678333Y-90389966D01*
X192433333Y-53081400D02*
X192533333Y-53114733D01*
X192533333Y-53114733D02*
X192700000Y-53114733D01*
X192700000Y-53114733D02*
X192766666Y-53081400D01*
X192766666Y-53081400D02*
X192800000Y-53048066D01*
X192800000Y-53048066D02*
X192833333Y-52981400D01*
X192833333Y-52981400D02*
X192833333Y-52914733D01*
X192833333Y-52914733D02*
X192800000Y-52848066D01*
X192800000Y-52848066D02*
X192766666Y-52814733D01*
X192766666Y-52814733D02*
X192700000Y-52781400D01*
X192700000Y-52781400D02*
X192566666Y-52748066D01*
X192566666Y-52748066D02*
X192500000Y-52714733D01*
X192500000Y-52714733D02*
X192466666Y-52681400D01*
X192466666Y-52681400D02*
X192433333Y-52614733D01*
X192433333Y-52614733D02*
X192433333Y-52548066D01*
X192433333Y-52548066D02*
X192466666Y-52481400D01*
X192466666Y-52481400D02*
X192500000Y-52448066D01*
X192500000Y-52448066D02*
X192566666Y-52414733D01*
X192566666Y-52414733D02*
X192733333Y-52414733D01*
X192733333Y-52414733D02*
X192833333Y-52448066D01*
X193066667Y-52414733D02*
X193233333Y-53114733D01*
X193233333Y-53114733D02*
X193366667Y-52614733D01*
X193366667Y-52614733D02*
X193500000Y-53114733D01*
X193500000Y-53114733D02*
X193666667Y-52414733D01*
X194300000Y-53114733D02*
X193900000Y-53114733D01*
X194100000Y-53114733D02*
X194100000Y-52414733D01*
X194100000Y-52414733D02*
X194033333Y-52514733D01*
X194033333Y-52514733D02*
X193966667Y-52581400D01*
X193966667Y-52581400D02*
X193900000Y-52614733D01*
X194566667Y-52481400D02*
X194600000Y-52448066D01*
X194600000Y-52448066D02*
X194666667Y-52414733D01*
X194666667Y-52414733D02*
X194833334Y-52414733D01*
X194833334Y-52414733D02*
X194900000Y-52448066D01*
X194900000Y-52448066D02*
X194933334Y-52481400D01*
X194933334Y-52481400D02*
X194966667Y-52548066D01*
X194966667Y-52548066D02*
X194966667Y-52614733D01*
X194966667Y-52614733D02*
X194933334Y-52714733D01*
X194933334Y-52714733D02*
X194533334Y-53114733D01*
X194533334Y-53114733D02*
X194966667Y-53114733D01*
D14*
X86445000Y-78641900D02*
X86445000Y-80641900D01*
X87495000Y-77341900D02*
X87945000Y-76891900D01*
X87495000Y-81941900D02*
X87945000Y-82391900D01*
X87945000Y-76891900D02*
X90445000Y-76891900D01*
X87945000Y-82391900D02*
X90445000Y-82391900D01*
X90895000Y-77341900D02*
X90445000Y-76891900D01*
X90895000Y-81941900D02*
X90445000Y-82391900D01*
X91945000Y-78641900D02*
X91945000Y-80641900D01*
G36*
X80071212Y-53480193D02*
G01*
X80210355Y-53627327D01*
X80210909Y-53917723D01*
X80211464Y-54208119D01*
X79932683Y-54208119D01*
X79653903Y-54208119D01*
X79653903Y-53917492D01*
X79653903Y-53626865D01*
X79792987Y-53479962D01*
X79932070Y-53333058D01*
X80071212Y-53480193D01*
G37*
G36*
X80211464Y-52654410D02*
G01*
X80211464Y-52943749D01*
X80083690Y-53076452D01*
X80032313Y-53129307D01*
X79987883Y-53174080D01*
X79955269Y-53205926D01*
X79939589Y-53219844D01*
X79923375Y-53213221D01*
X79890914Y-53187108D01*
X79846429Y-53145262D01*
X79794141Y-53091442D01*
X79788582Y-53085477D01*
X79653903Y-52940423D01*
X79653903Y-52652747D01*
X79653903Y-52365071D01*
X79932683Y-52365071D01*
X80211464Y-52365071D01*
X80211464Y-52654410D01*
G37*
G36*
X79720632Y-53150724D02*
G01*
X79774915Y-53203474D01*
X79820405Y-53249458D01*
X79852648Y-53284046D01*
X79867191Y-53302606D01*
X79867513Y-53303448D01*
X79858424Y-53319692D01*
X79830344Y-53352012D01*
X79787466Y-53395937D01*
X79733980Y-53446997D01*
X79725891Y-53454454D01*
X79579745Y-53588607D01*
X79298838Y-53588607D01*
X79192961Y-53588073D01*
X79114698Y-53586317D01*
X79060701Y-53583108D01*
X79027625Y-53578215D01*
X79012121Y-53571406D01*
X79010283Y-53568679D01*
X79007993Y-53547192D01*
X79006484Y-53500291D01*
X79005822Y-53433532D01*
X79006075Y-53352467D01*
X79006898Y-53286026D01*
X79011159Y-53023302D01*
X79294717Y-53019077D01*
X79578275Y-53014853D01*
X79720632Y-53150724D01*
G37*
G36*
X83621797Y-53491806D02*
G01*
X83705393Y-53538509D01*
X83774636Y-53606975D01*
X83813894Y-53671978D01*
X83844957Y-53771370D01*
X83848048Y-53869335D01*
X83825868Y-53961614D01*
X83781120Y-54043948D01*
X83716506Y-54112076D01*
X83634730Y-54161739D01*
X83538492Y-54188677D01*
X83483778Y-54192291D01*
X83410506Y-54185734D01*
X83344728Y-54168917D01*
X83332124Y-54163747D01*
X83268159Y-54122526D01*
X83206772Y-54062321D01*
X83158377Y-53994115D01*
X83144465Y-53965810D01*
X83124218Y-53880139D01*
X83127767Y-53786378D01*
X83152853Y-53693188D01*
X83197219Y-53609227D01*
X83253691Y-53547109D01*
X83339794Y-53494518D01*
X83433507Y-53468586D01*
X83529338Y-53468090D01*
X83621797Y-53491806D01*
G37*
G36*
X84169090Y-52938282D02*
G01*
X84234649Y-52971833D01*
X84299896Y-53024991D01*
X84354328Y-53088114D01*
X84379764Y-53131717D01*
X84399459Y-53198620D01*
X84407577Y-53278735D01*
X84403735Y-53358196D01*
X84387774Y-53422611D01*
X84335510Y-53510395D01*
X84263671Y-53578319D01*
X84177676Y-53624397D01*
X84082943Y-53646648D01*
X83984890Y-53643087D01*
X83888934Y-53611731D01*
X83881485Y-53607949D01*
X83797784Y-53548559D01*
X83736948Y-53473083D01*
X83699212Y-53386585D01*
X83684812Y-53294127D01*
X83693983Y-53200774D01*
X83726960Y-53111590D01*
X83783977Y-53031639D01*
X83852076Y-52974354D01*
X83922128Y-52942675D01*
X84007696Y-52925497D01*
X84096214Y-52924250D01*
X84169090Y-52938282D01*
G37*
G36*
X83022087Y-52933259D02*
G01*
X83105545Y-52967309D01*
X83182705Y-53028638D01*
X83184626Y-53030550D01*
X83230485Y-53090820D01*
X83267423Y-53165926D01*
X83289657Y-53242487D01*
X83293537Y-53282548D01*
X83279680Y-53367677D01*
X83241809Y-53453654D01*
X83185472Y-53532083D01*
X83116219Y-53594567D01*
X83069563Y-53621465D01*
X82978679Y-53646574D01*
X82880538Y-53645472D01*
X82784032Y-53618379D01*
X82774583Y-53614142D01*
X82686969Y-53559053D01*
X82622965Y-53489535D01*
X82581645Y-53409888D01*
X82562078Y-53324412D01*
X82563338Y-53237406D01*
X82584496Y-53153169D01*
X82624623Y-53076001D01*
X82682791Y-53010202D01*
X82758072Y-52960072D01*
X82849538Y-52929908D01*
X82923810Y-52922972D01*
X83022087Y-52933259D01*
G37*
G36*
X83558747Y-52346800D02*
G01*
X83650674Y-52380356D01*
X83732258Y-52435571D01*
X83797073Y-52509779D01*
X83814713Y-52539952D01*
X83836049Y-52603003D01*
X83846813Y-52681170D01*
X83845774Y-52760035D01*
X83837540Y-52807295D01*
X83807275Y-52874748D01*
X83756999Y-52942512D01*
X83695743Y-53000125D01*
X83642877Y-53032810D01*
X83566340Y-53054811D01*
X83477665Y-53061011D01*
X83390743Y-53051421D01*
X83332257Y-53032597D01*
X83247157Y-52978144D01*
X83184545Y-52907468D01*
X83144157Y-52825365D01*
X83125727Y-52736631D01*
X83128992Y-52646064D01*
X83153688Y-52558459D01*
X83199549Y-52478613D01*
X83266312Y-52411323D01*
X83353713Y-52361384D01*
X83369579Y-52355331D01*
X83462906Y-52337570D01*
X83558747Y-52346800D01*
G37*
G36*
X80665391Y-53015663D02*
G01*
X80738019Y-53016328D01*
X80788348Y-53018077D01*
X80820717Y-53021433D01*
X80839465Y-53026923D01*
X80848929Y-53035069D01*
X80853449Y-53046397D01*
X80854468Y-53050406D01*
X80857144Y-53077423D01*
X80858911Y-53129207D01*
X80859677Y-53199559D01*
X80859352Y-53282283D01*
X80858635Y-53333058D01*
X80854208Y-53580863D01*
X80567683Y-53584905D01*
X80281159Y-53588947D01*
X80137897Y-53455868D01*
X80083554Y-53404005D01*
X80038731Y-53358589D01*
X80007782Y-53324228D01*
X79995061Y-53305526D01*
X79994959Y-53304692D01*
X80005856Y-53287845D01*
X80035397Y-53254791D01*
X80079248Y-53210096D01*
X80133074Y-53158324D01*
X80140831Y-53151077D01*
X80286378Y-53015558D01*
X80566126Y-53015558D01*
X80665391Y-53015663D01*
G37*
G36*
X85241089Y-51426284D02*
G01*
X85346873Y-51491742D01*
X85434388Y-51580535D01*
X85501334Y-51689456D01*
X85545413Y-51815299D01*
X85555300Y-51864493D01*
X85560924Y-51914809D01*
X85565577Y-51986821D01*
X85568801Y-52071256D01*
X85570142Y-52158837D01*
X85570155Y-52166487D01*
X85570244Y-52378330D01*
X85659299Y-52389217D01*
X85780245Y-52418198D01*
X85884660Y-52472870D01*
X85970779Y-52551997D01*
X86036072Y-52652789D01*
X86073598Y-52729034D01*
X86073598Y-53286595D01*
X86073598Y-53844156D01*
X86032001Y-53922989D01*
X85964286Y-54019861D01*
X85876365Y-54096060D01*
X85773090Y-54148319D01*
X85660420Y-54173269D01*
X85570244Y-54181446D01*
X85570155Y-54399996D01*
X85569015Y-54488666D01*
X85565964Y-54575057D01*
X85561445Y-54650074D01*
X85555902Y-54704626D01*
X85554978Y-54710681D01*
X85519370Y-54838131D01*
X85457959Y-54952705D01*
X85373799Y-55050085D01*
X85269941Y-55125955D01*
X85255984Y-55133575D01*
X85175305Y-55176107D01*
X81713781Y-55179544D01*
X81327417Y-55179920D01*
X80970806Y-55180246D01*
X80642725Y-55180511D01*
X80341952Y-55180709D01*
X80067264Y-55180829D01*
X79817438Y-55180865D01*
X79591252Y-55180806D01*
X79387483Y-55180645D01*
X79204908Y-55180374D01*
X79042304Y-55179982D01*
X78898450Y-55179463D01*
X78772121Y-55178807D01*
X78662097Y-55178005D01*
X78567153Y-55177050D01*
X78486068Y-55175933D01*
X78417618Y-55174644D01*
X78360582Y-55173176D01*
X78313735Y-55171520D01*
X78275857Y-55169667D01*
X78245723Y-55167609D01*
X78222112Y-55165337D01*
X78203800Y-55162843D01*
X78189565Y-55160118D01*
X78178185Y-55157154D01*
X78170641Y-55154717D01*
X78067052Y-55103664D01*
X77978201Y-55026825D01*
X77902749Y-54922943D01*
X77880549Y-54882488D01*
X77818598Y-54761759D01*
X77818295Y-54672754D01*
X81186400Y-54672754D01*
X83113373Y-54672754D01*
X83399140Y-54672727D01*
X83655514Y-54672634D01*
X83884074Y-54672454D01*
X84086402Y-54672168D01*
X84264078Y-54671755D01*
X84418685Y-54671196D01*
X84551803Y-54670470D01*
X84665014Y-54669557D01*
X84759897Y-54668438D01*
X84838036Y-54667092D01*
X84901010Y-54665500D01*
X84950400Y-54663641D01*
X84987789Y-54661496D01*
X85014757Y-54659044D01*
X85032885Y-54656265D01*
X85043754Y-54653140D01*
X85048946Y-54649648D01*
X85049746Y-54648255D01*
X85051303Y-54628979D01*
X85052716Y-54581465D01*
X85053985Y-54508452D01*
X85055110Y-54412679D01*
X85056091Y-54296882D01*
X85056928Y-54163801D01*
X85057621Y-54016173D01*
X85058170Y-53856736D01*
X85058575Y-53688229D01*
X85058836Y-53513389D01*
X85058953Y-53334955D01*
X85058926Y-53155665D01*
X85058755Y-52978256D01*
X85058440Y-52805468D01*
X85057981Y-52640037D01*
X85057378Y-52484703D01*
X85056631Y-52342203D01*
X85055740Y-52215275D01*
X85054705Y-52106658D01*
X85053526Y-52019089D01*
X85052204Y-51955306D01*
X85050737Y-51918049D01*
X85049746Y-51909447D01*
X85045705Y-51904859D01*
X85035996Y-51900876D01*
X85018591Y-51897455D01*
X84991463Y-51894555D01*
X84952586Y-51892133D01*
X84899931Y-51890148D01*
X84831472Y-51888558D01*
X84745182Y-51887320D01*
X84639034Y-51886394D01*
X84511000Y-51885736D01*
X84359055Y-51885306D01*
X84181170Y-51885061D01*
X83975319Y-51884959D01*
X83864929Y-51884949D01*
X83637844Y-51885045D01*
X83440010Y-51885352D01*
X83269699Y-51885900D01*
X83125186Y-51886715D01*
X83004746Y-51887827D01*
X82906652Y-51889264D01*
X82829181Y-51891055D01*
X82770605Y-51893227D01*
X82729199Y-51895810D01*
X82703238Y-51898831D01*
X82690996Y-51902319D01*
X82689479Y-51904308D01*
X82689187Y-51909224D01*
X82687761Y-51915705D01*
X82684356Y-51925319D01*
X82678127Y-51939636D01*
X82668230Y-51960221D01*
X82653817Y-51988643D01*
X82634045Y-52026471D01*
X82608067Y-52075271D01*
X82575038Y-52136612D01*
X82534114Y-52212062D01*
X82484448Y-52303188D01*
X82425195Y-52411558D01*
X82355510Y-52538741D01*
X82274548Y-52686303D01*
X82181463Y-52855813D01*
X82075409Y-53048839D01*
X81955542Y-53266948D01*
X81914951Y-53340802D01*
X81815164Y-53522393D01*
X81719250Y-53697003D01*
X81628312Y-53862621D01*
X81543454Y-54017233D01*
X81465779Y-54158827D01*
X81396390Y-54285390D01*
X81336392Y-54394908D01*
X81286888Y-54485370D01*
X81248982Y-54554763D01*
X81223776Y-54601073D01*
X81212374Y-54622287D01*
X81212307Y-54622418D01*
X81186400Y-54672754D01*
X77818295Y-54672754D01*
X77815483Y-53845859D01*
X78324705Y-53845859D01*
X78324723Y-54016611D01*
X78324907Y-54171914D01*
X78325251Y-54309522D01*
X78325750Y-54427189D01*
X78326397Y-54522669D01*
X78327189Y-54593717D01*
X78328119Y-54638086D01*
X78329084Y-54653394D01*
X78336426Y-54657060D01*
X78356597Y-54660251D01*
X78391291Y-54662990D01*
X78442200Y-54665304D01*
X78511020Y-54667217D01*
X78599442Y-54668754D01*
X78709162Y-54669940D01*
X78841872Y-54670799D01*
X78999266Y-54671357D01*
X79183039Y-54671639D01*
X79394882Y-54671669D01*
X79564362Y-54671550D01*
X80792257Y-54670346D01*
X80862729Y-54528288D01*
X80880591Y-54493759D01*
X80912215Y-54434301D01*
X80956406Y-54352108D01*
X81011970Y-54249374D01*
X81077712Y-54128294D01*
X81152435Y-53991063D01*
X81234946Y-53839876D01*
X81324049Y-53676927D01*
X81418549Y-53504412D01*
X81517251Y-53324525D01*
X81617759Y-53141642D01*
X81717479Y-52960279D01*
X81812833Y-52786727D01*
X81902777Y-52622896D01*
X81986267Y-52470695D01*
X82062258Y-52332032D01*
X82129704Y-52208816D01*
X82187562Y-52102957D01*
X82234785Y-52016362D01*
X82270330Y-51950942D01*
X82293152Y-51908604D01*
X82302206Y-51891257D01*
X82302318Y-51890943D01*
X82287135Y-51890219D01*
X82242808Y-51889578D01*
X82171167Y-51889024D01*
X82074044Y-51888559D01*
X81953269Y-51888184D01*
X81810673Y-51887902D01*
X81648087Y-51887714D01*
X81467343Y-51887623D01*
X81270271Y-51887630D01*
X81058702Y-51887738D01*
X80834467Y-51887949D01*
X80599396Y-51888264D01*
X80355322Y-51888685D01*
X80316007Y-51888762D01*
X78329696Y-51892693D01*
X78325699Y-53263363D01*
X78325187Y-53466989D01*
X78324858Y-53661903D01*
X78324705Y-53845859D01*
X77815483Y-53845859D01*
X77813745Y-53334970D01*
X77812918Y-53083703D01*
X77812299Y-52861447D01*
X77811962Y-52666239D01*
X77811980Y-52496113D01*
X77812428Y-52349107D01*
X77813380Y-52223255D01*
X77814908Y-52116594D01*
X77817088Y-52027159D01*
X77819993Y-51952987D01*
X77823696Y-51892114D01*
X77828273Y-51842574D01*
X77833796Y-51802405D01*
X77840339Y-51769642D01*
X77847976Y-51742321D01*
X77856782Y-51718478D01*
X77866830Y-51696149D01*
X77876076Y-51677535D01*
X77927923Y-51598791D01*
X77999219Y-51521785D01*
X78079604Y-51456680D01*
X78134141Y-51424406D01*
X78221281Y-51381595D01*
X81682805Y-51381595D01*
X85144330Y-51381595D01*
X85241089Y-51426284D01*
G37*
X78215000Y-78586900D02*
X78215000Y-80056900D01*
X78215000Y-80056900D02*
X80500000Y-80056900D01*
X80500000Y-78586900D02*
X78215000Y-78586900D01*
X193645000Y-78641900D02*
X193645000Y-80641900D01*
X194695000Y-77341900D02*
X195145000Y-76891900D01*
X194695000Y-81941900D02*
X195145000Y-82391900D01*
X195145000Y-76891900D02*
X197645000Y-76891900D01*
X195145000Y-82391900D02*
X197645000Y-82391900D01*
X198095000Y-77341900D02*
X197645000Y-76891900D01*
X198095000Y-81941900D02*
X197645000Y-82391900D01*
X199145000Y-78641900D02*
X199145000Y-80641900D01*
X78227500Y-87565000D02*
X78227500Y-89035000D01*
X78227500Y-89035000D02*
X80512500Y-89035000D01*
X80512500Y-87565000D02*
X78227500Y-87565000D01*
X78227500Y-84565000D02*
X78227500Y-86035000D01*
X78227500Y-86035000D02*
X80512500Y-86035000D01*
X80512500Y-84565000D02*
X78227500Y-84565000D01*
X78215000Y-81586900D02*
X78215000Y-83056900D01*
X78215000Y-83056900D02*
X80500000Y-83056900D01*
X80500000Y-81586900D02*
X78215000Y-81586900D01*
X156485000Y-101771900D02*
X157595000Y-101771900D01*
X156485000Y-102531900D02*
X156485000Y-101771900D01*
X156485000Y-103291900D02*
X156485000Y-103226900D01*
X156485000Y-103291900D02*
X157031529Y-103291900D01*
X156485000Y-103291900D02*
X158705000Y-103291900D01*
X158158471Y-103291900D02*
X158705000Y-103291900D01*
X158705000Y-103291900D02*
X158705000Y-103226900D01*
X159155000Y-101781900D02*
X160265000Y-101781900D01*
X159155000Y-102541900D02*
X159155000Y-101781900D01*
X159155000Y-103301900D02*
X159155000Y-103236900D01*
X159155000Y-103301900D02*
X159701529Y-103301900D01*
X159155000Y-103301900D02*
X161375000Y-103301900D01*
X160828471Y-103301900D02*
X161375000Y-103301900D01*
X161375000Y-103301900D02*
X161375000Y-103236900D01*
X201645000Y-70641900D02*
X201645000Y-72641900D01*
X202695000Y-69341900D02*
X203145000Y-68891900D01*
X202695000Y-73941900D02*
X203145000Y-74391900D01*
X203145000Y-68891900D02*
X205645000Y-68891900D01*
X203145000Y-74391900D02*
X205645000Y-74391900D01*
X206095000Y-69341900D02*
X205645000Y-68891900D01*
X206095000Y-73941900D02*
X205645000Y-74391900D01*
X207145000Y-70641900D02*
X207145000Y-72641900D01*
X93795000Y-54271900D02*
X93795000Y-52271900D01*
X92745000Y-55571900D02*
X92295000Y-56021900D01*
X92745000Y-50971900D02*
X92295000Y-50521900D01*
X92295000Y-56021900D02*
X89795000Y-56021900D01*
X92295000Y-50521900D02*
X89795000Y-50521900D01*
X89345000Y-55571900D02*
X89795000Y-56021900D01*
X89345000Y-50971900D02*
X89795000Y-50521900D01*
X88295000Y-54271900D02*
X88295000Y-52271900D01*
X94445000Y-70641900D02*
X94445000Y-72641900D01*
X95495000Y-69341900D02*
X95945000Y-68891900D01*
X95495000Y-73941900D02*
X95945000Y-74391900D01*
X95945000Y-68891900D02*
X98445000Y-68891900D01*
X95945000Y-74391900D02*
X98445000Y-74391900D01*
X98895000Y-69341900D02*
X98445000Y-68891900D01*
X98895000Y-73941900D02*
X98445000Y-74391900D01*
X99945000Y-70641900D02*
X99945000Y-72641900D01*
X88345000Y-72701900D02*
X89745000Y-72701900D01*
X89745000Y-70381900D02*
X87845000Y-70381900D01*
D15*
X99345000Y-86641900D02*
X87045000Y-86641900D01*
X87045000Y-86641900D02*
X87045000Y-97641900D01*
X102045000Y-89141900D02*
X102045000Y-95141900D01*
X87045000Y-97641900D02*
X99245000Y-97641900D01*
D14*
X86445000Y-62641900D02*
X86445000Y-64641900D01*
X87495000Y-61341900D02*
X87945000Y-60891900D01*
X87495000Y-65941900D02*
X87945000Y-66391900D01*
X87945000Y-60891900D02*
X90445000Y-60891900D01*
X87945000Y-66391900D02*
X90445000Y-66391900D01*
X90895000Y-61341900D02*
X90445000Y-60891900D01*
X90895000Y-65941900D02*
X90445000Y-66391900D01*
X91945000Y-62641900D02*
X91945000Y-64641900D01*
D15*
X186245000Y-97641900D02*
X198545000Y-97641900D01*
X198545000Y-97641900D02*
X198545000Y-86641900D01*
X183545000Y-95141900D02*
X183545000Y-89141900D01*
X198545000Y-86641900D02*
X186345000Y-86641900D01*
D14*
X197045000Y-70681900D02*
X195645000Y-70681900D01*
X195645000Y-73001900D02*
X197545000Y-73001900D01*
X193645000Y-62641900D02*
X193645000Y-64641900D01*
X194695000Y-61341900D02*
X195145000Y-60891900D01*
X194695000Y-65941900D02*
X195145000Y-66391900D01*
X195145000Y-60891900D02*
X197645000Y-60891900D01*
X195145000Y-66391900D02*
X197645000Y-66391900D01*
X198095000Y-61341900D02*
X197645000Y-60891900D01*
X198095000Y-65941900D02*
X197645000Y-66391900D01*
X199145000Y-62641900D02*
X199145000Y-64641900D01*
D16*
X104345000Y-39741900D02*
X181245000Y-39741900D01*
X181245000Y-39741900D02*
X181245000Y-103541900D01*
X181245000Y-103541900D02*
X104345000Y-103541900D01*
X104345000Y-103541900D02*
X104345000Y-39741900D01*
X107245000Y-42941900D02*
X178545000Y-42941900D01*
X178545000Y-42941900D02*
X178545000Y-96041900D01*
X178545000Y-96041900D02*
X107245000Y-96041900D01*
X107245000Y-96041900D02*
X107245000Y-42941900D01*
D14*
X185645000Y-70641900D02*
X185645000Y-72641900D01*
X186695000Y-69341900D02*
X187145000Y-68891900D01*
X186695000Y-73941900D02*
X187145000Y-74391900D01*
X187145000Y-68891900D02*
X189645000Y-68891900D01*
X187145000Y-74391900D02*
X189645000Y-74391900D01*
X190095000Y-69341900D02*
X189645000Y-68891900D01*
X190095000Y-73941900D02*
X189645000Y-74391900D01*
X191145000Y-70641900D02*
X191145000Y-72641900D01*
X78445000Y-70641900D02*
X78445000Y-72641900D01*
X79495000Y-69341900D02*
X79945000Y-68891900D01*
X79495000Y-73941900D02*
X79945000Y-74391900D01*
X79945000Y-68891900D02*
X82445000Y-68891900D01*
X79945000Y-74391900D02*
X82445000Y-74391900D01*
X82895000Y-69341900D02*
X82445000Y-68891900D01*
X82895000Y-73941900D02*
X82445000Y-74391900D01*
X83945000Y-70641900D02*
X83945000Y-72641900D01*
X196295000Y-54266900D02*
X196295000Y-52266900D01*
X195245000Y-55566900D02*
X194795000Y-56016900D01*
X195245000Y-50966900D02*
X194795000Y-50516900D01*
X194795000Y-56016900D02*
X192295000Y-56016900D01*
X194795000Y-50516900D02*
X192295000Y-50516900D01*
X191845000Y-55566900D02*
X192295000Y-56016900D01*
X191845000Y-50966900D02*
X192295000Y-50516900D01*
X190795000Y-54266900D02*
X190795000Y-52266900D01*
D17*
X116545000Y-103641900D02*
X117045000Y-103641900D01*
X117045000Y-103641900D02*
G75*
G03*
X120045000Y-100641900I0J3000000D01*
G01*
X132545000Y-98641900D02*
G75*
G03*
X130545000Y-96641900I-2000000J0D01*
G01*
X74045000Y-47141900D02*
X74045000Y-96141900D01*
X211545000Y-47141900D02*
G75*
G03*
X204045000Y-39641900I-7500000J0D01*
G01*
X120045000Y-100641900D02*
X120045000Y-98641900D01*
X81545000Y-39641900D02*
X204045000Y-39641900D01*
X132545000Y-98641900D02*
X132545000Y-100641900D01*
X122045000Y-96641900D02*
X130545000Y-96641900D01*
X81545000Y-39641900D02*
G75*
G03*
X74045000Y-47141900I0J-7500000D01*
G01*
X132545000Y-100641900D02*
G75*
G03*
X135545000Y-103641900I3000000J0D01*
G01*
X204045000Y-103641900D02*
X136545000Y-103641900D01*
X81545000Y-103641900D02*
X116545000Y-103641900D01*
X122045000Y-96641900D02*
G75*
G03*
X120045000Y-98641900I0J-2000000D01*
G01*
X211545000Y-47141900D02*
X211545000Y-96141900D01*
X136545000Y-103641900D02*
X135545000Y-103641900D01*
X74045000Y-96141900D02*
G75*
G03*
X81545000Y-103641900I7500000J0D01*
G01*
X204045000Y-103641900D02*
G75*
G03*
X211545000Y-96141900I0J7500000D01*
G01*
X149345000Y-57341900D02*
X119345000Y-57341900D01*
X119345000Y-54841900D01*
X149345000Y-54841900D01*
X149345000Y-57341900D01*
M02*
