M48
; DRILL file {KiCad 7.0.9} date Mon Feb 19 16:20:52 2024
; FORMAT={-:-/ absolute / inch / decimal}
; #@! TF.CreationDate,2024-02-19T16:20:52+08:00
; #@! TF.GenerationSoftware,Kicad,Pcbnew,7.0.9
; #@! TF.FileFunction,Plated,1,2,PTH
FMAT,2
INCH
; #@! TA.AperFunction,Plated,PTH,ComponentDrill
T1C0.0079
; #@! TA.AperFunction,Plated,PTH,ComponentDrill
T2C0.0197
; #@! TA.AperFunction,Plated,PTH,ComponentDrill
T3C0.0236
; #@! TA.AperFunction,Plated,PTH,ComponentDrill
T4C0.0256
; #@! TA.AperFunction,Plated,PTH,ComponentDrill
T5C0.0390
; #@! TA.AperFunction,Plated,PTH,ComponentDrill
T6C0.0512
; #@! TA.AperFunction,Plated,PTH,ComponentDrill
T7C0.1181
%
G90
G05
T1
X4.3463Y-3.7192
X4.3896Y-3.7192
T2
X4.1022Y-2.0253
X4.1514Y-2.0253
X4.2006Y-2.0253
T4
X8.0226Y-2.1316
X8.0726Y-2.1316
X8.1226Y-2.1316
X8.1726Y-2.1316
T5
X3.5356Y-1.7579
X3.7128Y-1.7579
X7.5313Y-1.7579
X7.7085Y-1.7579
X8.1233Y-2.3678
X8.1233Y-2.545
T6
X3.486Y-1.856
X3.762Y-1.856
X7.4817Y-1.856
X7.7577Y-1.856
X8.0253Y-2.3182
X8.0253Y-2.5942
T7
X5.4667Y-3.0597
X7.7502Y-3.0597
T3
G00X3.9821Y-1.5999
M15
G01X3.9821Y-1.6314
M16
G05
G00X3.9821Y-1.7593
M15
G01X3.9821Y-1.8026
M16
G05
G00X4.3222Y-1.5999
M15
G01X4.3222Y-1.6314
M16
G05
G00X4.3222Y-1.7593
M15
G01X4.3222Y-1.8026
M16
G05
T0
M30
